<?xml version="1.0" encoding="UTF-8"?>
<svg id="Layer_2" data-name="Layer 2" xmlns="http://www.w3.org/2000/svg" viewBox="0 0 180 180">
  <defs>
    <style>
      .cls-1 {
        fill: #f15a29;
      }

      .cls-1, .cls-2, .cls-3 {
        stroke-width: 0px;
      }

      .cls-2 {
        fill: #de3b26;
      }

      .cls-3 {
        fill: #191919;
      }
    </style>
  </defs>
  <g id="Layer_2-2" data-name="Layer 2">
    <g>
      <rect class="cls-3" width="180" height="180" rx="5.71" ry="5.71"/>
      <g>
        <path class="cls-2" d="M156.31,26.32h-3.59c2.29.79,3.97,2.89,3.97,5.46v111.89c0,3.22-2.61,5.83-5.83,5.83h-57.35v4.57h62.78c3.22,0,5.83-2.61,5.83-5.83V32.15c0-3.22-2.61-5.83-5.83-5.83h.02Z"/>
        <path class="cls-2" d="M29.15,149.48c-3.22,0-5.83-2.61-5.83-5.83V31.76c0-2.55,1.68-4.67,3.97-5.46h-3.59c-3.22,0-5.83,2.61-5.83,5.83v116.07c0,3.22,2.61,5.83,5.83,5.83h41.68v-4.57H29.13l.02.02Z"/>
        <path class="cls-2" d="M112.05,84.34c-2.96-3.01-5.91-6.02-8.87-9.03v-18.56l-.03-.03h-9.61v97.33h28.15v-72.26c-3.22-4.32-6.42-8.66-9.64-12.98v15.54h0Z"/>
        <path class="cls-1" d="M150.97,25.94H29.24c-3.22,0-5.83,2.61-5.83,5.83v111.89c0,3.22,2.61,5.83,5.83,5.83h26.35V57.89l7.21-2.96v10.69l8.21-3.36v-10.69l7.21-2.96v10.69l5.77-2.36c.19-.09.38-.16.58-.24l1.85-.75v-10.69l7.21-2.96v107.16h57.33c3.22,0,5.83-2.61,5.83-5.83V31.76c0-3.22-2.61-5.83-5.83-5.83h.02Z"/>
        <polygon class="cls-2" points="131.57 151.88 131.57 68.58 131.57 57.89 124.34 54.95 124.34 65.62 116.14 62.26 116.14 51.57 108.93 48.63 108.93 59.3 100.73 55.94 100.73 45.25 93.52 42.31 93.52 52.99 93.52 151.88 131.57 151.88"/>
      </g>
    </g>
  </g>
</svg>