<?xml version="1.0" encoding="UTF-8"?>
<svg id="Layer_2" data-name="Layer 2" xmlns="http://www.w3.org/2000/svg" viewBox="0 0 16 16">
  <defs>
    <style>
      .cls-1 {
        fill: #f15a29;
      }

      .cls-1, .cls-2, .cls-3 {
        stroke-width: 0px;
      }

      .cls-2 {
        fill: #de3b26;
      }

      .cls-3 {
        fill: #191919;
      }
    </style>
  </defs>
  <g id="Layer_2-2" data-name="Layer 2">
    <g>
      <rect class="cls-3" width="16" height="16" rx="2.85" ry="2.85"/>
      <g>
        <path class="cls-2" d="M13.89,2.34h-.32c.2.07.35.26.35.49v9.95c0,.29-.23.52-.52.52h-5.1v.41h5.58c.29,0,.52-.23.52-.52V2.86c0-.29-.23-.52-.52-.52h0Z"/>
        <path class="cls-2" d="M2.59,13.29c-.29,0-.52-.23-.52-.52V2.82c0-.23.15-.42.35-.49h-.32c-.29,0-.52.23-.52.52v10.32c0,.29.23.52.52.52h3.7v-.41h-3.22,0Z"/>
        <path class="cls-2" d="M9.96,7.5c-.26-.27-.53-.53-.79-.8v-1.65h0s-.85,0-.85,0v8.65h2.5v-6.42c-.29-.38-.57-.77-.86-1.15v1.38h0Z"/>
        <path class="cls-1" d="M13.42,2.31H2.6c-.29,0-.52.23-.52.52v9.95c0,.29.23.52.52.52h2.34V5.15l.64-.26v.95l.73-.3v-.95l.64-.26v.95l.51-.21s.03-.01.05-.02l.16-.07v-.95l.64-.26v9.53h5.1c.29,0,.52-.23.52-.52V2.82c0-.29-.23-.52-.52-.52h0Z"/>
        <polygon class="cls-2" points="11.7 13.5 11.7 6.1 11.7 5.15 11.05 4.88 11.05 5.83 10.32 5.53 10.32 4.58 9.68 4.32 9.68 5.27 8.95 4.97 8.95 4.02 8.31 3.76 8.31 4.71 8.31 13.5 11.7 13.5"/>
      </g>
    </g>
  </g>
</svg>