<?xml version="1.0" encoding="UTF-8"?>
<svg id="Layer_2" data-name="Layer 2" xmlns="http://www.w3.org/2000/svg" viewBox="0 0 32 32">
  <defs>
    <style>
      .cls-1 {
        fill: #f15a29;
      }

      .cls-1, .cls-2, .cls-3 {
        stroke-width: 0px;
      }

      .cls-2 {
        fill: #de3b26;
      }

      .cls-3 {
        fill: #191919;
      }
    </style>
  </defs>
  <g id="Layer_2-2" data-name="Layer 2">
    <g>
      <rect class="cls-3" width="32" height="32" rx="5.71" ry="5.71"/>
      <g>
        <path class="cls-2" d="M27.79,4.68h-.64c.41.14.71.51.71.97v19.89c0,.57-.46,1.04-1.04,1.04h-10.2v.81h11.16c.57,0,1.04-.46,1.04-1.04V5.72c0-.57-.46-1.04-1.04-1.04h0Z"/>
        <path class="cls-2" d="M5.18,26.57c-.57,0-1.04-.46-1.04-1.04V5.65c0-.45.3-.83.71-.97h-.64c-.57,0-1.04.46-1.04,1.04v20.63c0,.57.46,1.04,1.04,1.04h7.41v-.81h-6.44,0Z"/>
        <path class="cls-2" d="M19.92,14.99c-.53-.53-1.05-1.07-1.58-1.6v-3.3h0s-1.71,0-1.71,0v17.3h5v-12.85c-.57-.77-1.14-1.54-1.71-2.31v2.76h0Z"/>
        <path class="cls-1" d="M26.84,4.61H5.2c-.57,0-1.04.46-1.04,1.04v19.89c0,.57.46,1.04,1.04,1.04h4.68V10.29l1.28-.53v1.9l1.46-.6v-1.9l1.28-.53v1.9l1.03-.42s.07-.03.1-.04l.33-.13v-1.9l1.28-.53v19.05h10.19c.57,0,1.04-.46,1.04-1.04V5.65c0-.57-.46-1.04-1.04-1.04h0Z"/>
        <polygon class="cls-2" points="23.39 27 23.39 12.19 23.39 10.29 22.11 9.77 22.11 11.67 20.65 11.07 20.65 9.17 19.37 8.65 19.37 10.54 17.91 9.95 17.91 8.05 16.63 7.52 16.63 9.42 16.63 27 23.39 27"/>
      </g>
    </g>
  </g>
</svg>