<?xml version="1.0" encoding="UTF-8"?>
<svg id="Layer_2" data-name="Layer 2" xmlns="http://www.w3.org/2000/svg" viewBox="0 0 557.32 664.9">
  <defs>
    <style>
      .cls-1 {
        fill: #ebf2fa;
      }

      .cls-1, .cls-2, .cls-3, .cls-4, .cls-5, .cls-6, .cls-7 {
        stroke-width: 0px;
      }

      .cls-2 {
        fill: #000;
      }

      .cls-3 {
        fill: #bed5ef;
      }

      .cls-4 {
        fill: #f57f21;
      }

      .cls-5 {
        fill: #848484;
      }

      .cls-6 {
        fill: #cf4e27;
      }

      .cls-7 {
        fill: #dbe8f6;
      }
    </style>
  </defs>
  <g id="Layer_1-2" data-name="Layer 1">
    <g>
      <g>
        <g>
          <path class="cls-4" d="M165.97,649.52l-31.09-50.96c-2-3.28-5.47-5.37-9.3-5.62l-57.19-3.66c-8.85-.57-13.92-10.34-9.29-17.91l138.46-225.86,127.1,77.92-138.61,226.11c-4.6,7.5-15.51,7.49-20.09-.02h0Z"/>
          <path class="cls-6" d="M125.76,592.97c3.76.3,7.15,2.37,9.12,5.6l31.09,50.95c4.58,7.51,15.49,7.53,20.09.02l138.61-226.11-69.04-42.32-129.88,211.86Z"/>
          <path class="cls-4" d="M391.36,649.52l31.09-50.96c2-3.28,5.47-5.37,9.3-5.62l57.19-3.66c8.85-.57,13.92-10.34,9.29-17.91l-138.46-225.86-127.1,77.92,138.61,226.11c4.6,7.5,15.51,7.49,20.09-.02h0Z"/>
          <path class="cls-6" d="M498.22,571.38l-138.46-225.86-69.23,42.44,130.52,212.91,1.4-2.3c2-3.28,5.47-5.37,9.3-5.62l57.19-3.66c8.85-.56,13.92-10.34,9.29-17.91h0Z"/>
        </g>
        <g>
          <path class="cls-4" d="M314.51,24.75c13.32,13.5,33.09,18.37,51.15,12.61,26.75-8.53,55.31,6.46,63.49,33.32,5.52,18.14,20.76,31.64,39.44,34.94,27.65,4.88,45.98,31.42,40.73,59.01-3.54,18.63,3.68,37.67,18.68,49.26,22.22,17.17,26.11,49.19,8.64,71.18-11.79,14.85-14.25,35.06-6.35,52.3,11.7,25.53.26,55.69-25.42,67.04-17.34,7.67-28.91,24.42-29.93,43.36-1.51,28.04-25.65,49.43-53.67,47.54-18.92-1.27-36.95,8.19-46.65,24.48-14.36,24.13-45.68,31.85-69.61,17.16-16.16-9.92-36.52-9.92-52.68,0-23.93,14.69-55.25,6.97-69.61-17.16-9.7-16.29-27.73-25.76-46.65-24.48-28.02,1.88-52.16-19.51-53.67-47.54-1.02-18.94-12.59-35.69-29.93-43.36-25.68-11.35-37.12-41.51-25.42-67.04,7.9-17.24,5.44-37.45-6.35-52.3-17.46-21.99-13.58-54.01,8.64-71.18,15-11.59,22.23-30.63,18.68-49.26-5.25-27.58,13.08-54.13,40.73-59.01,18.67-3.29,33.92-16.8,39.44-34.94,8.17-26.86,36.74-41.85,63.49-33.32,18.07,5.76,37.84.89,51.15-12.61,19.72-19.99,51.98-19.99,71.7,0Z"/>
          <g>
            <circle class="cls-1" cx="278.66" cy="277.07" r="200.36"/>
            <path class="cls-7" d="M278.66,76.71c-14.29,0-28.22,1.51-41.66,4.35,90.66,19.17,158.7,99.64,158.7,196.01s-68.04,176.84-158.7,196.01c13.44,2.84,27.37,4.35,41.66,4.35,110.66,0,200.36-89.7,200.36-200.36s-89.7-200.36-200.36-200.36h0Z"/>
            <g>
              <path class="cls-6" d="M238.1,392.01l-21.41-91.1-57.24,13.45,34.33,80.51c5.38,12.61,19.04,19.53,32.39,16.39,8.61-2.02,13.95-10.64,11.93-19.25h0Z"/>
              <path class="cls-5" d="M232.68,331.2l-69.8,16.4c-12.97,3.05-25.95-4.99-28.99-17.96l-8.5-36.17c-3.05-12.97,4.99-25.95,17.96-28.99l69.8-16.4,19.53,83.12Z"/>
              <path class="cls-3" d="M333.12,161.62c-51.32,68.59-128.37,88.44-128.37,88.44l19.53,83.12s77.83-16.55,154.33,22.01l-45.48-193.57Z"/>
              <path class="cls-5" d="M389.03,379.79c-11.55,2.71-23.11-4.45-25.82-16l-47.7-203.02c-2.71-11.55,4.45-23.11,16-25.82,11.55-2.71,23.11,4.45,25.82,16l47.7,203.02c2.71,11.55-4.45,23.11-16,25.82h0Z"/>
            </g>
          </g>
        </g>
      </g>
      <g>
        <path class="cls-2" d="M366.81,148.72c-3.94-16.76-20.77-27.19-37.53-23.25-16.76,3.94-27.19,20.78-23.25,37.53l2.87,12.2c-46.55,48.95-104.67,64.91-106.48,65.4l-61.29,14.4c-18.17,4.27-29.48,22.53-25.21,40.7l8.5,36.17c3.66,15.58,17.6,26.11,32.96,26.11,2.56,0,5.15-.29,7.75-.9l1.79-.42,17.92,42.03c7.23,16.95,25.52,26.29,43.57,22.05,13.85-3.25,22.44-17.1,19.18-30.96l-11.42-48.6c19.58-2.42,65.73-5.19,114.7,12.63l2.87,12.2c1.91,8.12,6.86,15.01,13.95,19.4,5,3.1,10.64,4.69,16.38,4.69,2.4,0,4.81-.28,7.2-.84,16.76-3.94,27.19-20.78,23.25-37.53l-47.7-203.02ZM160.66,338.12c-7.71,1.81-15.47-2.99-17.28-10.71l-8.5-36.16c-1.81-7.72,2.99-15.47,10.71-17.28l51.91-12.2,15.07,64.16-51.91,12.2ZM223.95,401.78c-8.76,2.05-17.67-2.45-21.2-10.73l-16.59-38.91,30.87-7.25,11.6,49.35c.8,3.37-1.29,6.74-4.67,7.54h0ZM231.68,322.09l-15.37-65.43c18.12-6.18,60.01-23.27,97.83-59.16l31.49,134.01c-50.07-15.41-95-12-113.94-9.42ZM386.81,370.31c-3.05.72-6.2.2-8.87-1.45-2.67-1.65-4.53-4.24-5.25-7.3l-4.03-17.17s0,0,0-.01l-43.67-185.84c-1.48-6.3,2.44-12.63,8.74-14.11.9-.21,1.8-.31,2.69-.31,5.33,0,10.16,3.65,11.43,9.06l47.7,203.01c1.48,6.3-2.44,12.64-8.75,14.12h0Z"/>
        <path class="cls-2" d="M544.27,291.11c20.86-26.26,16.23-64.43-10.31-84.94-12.17-9.4-17.94-24.63-15.07-39.74,6.27-32.95-15.58-64.59-48.61-70.42-15.14-2.67-27.33-13.47-31.81-28.18-9.76-32.08-43.81-49.96-75.76-39.76-14.65,4.68-30.46.78-41.26-10.17-23.55-23.87-62.01-23.87-85.56,0-10.8,10.95-26.61,14.84-41.26,10.17-31.95-10.19-66,7.68-75.76,39.76-4.48,14.71-16.67,25.51-31.81,28.18-33.03,5.82-54.87,37.47-48.61,70.42,2.87,15.11-2.9,30.33-15.07,39.74-26.54,20.5-31.17,58.68-10.31,84.94,9.56,12.04,11.53,28.21,5.12,42.19-13.97,30.49-.33,66.45,30.34,80,14.07,6.22,23.32,19.62,24.14,34.97.93,17.34,9.11,33.35,23.3,44.34l-45.16,73.67c-8.48,13.83.81,31.68,16.97,32.72l57.19,3.66c.66.04,1.26.41,1.61.97l31.09,50.95c8.39,13.75,28.31,13.74,36.71.04l68.86-112.33c9.91-4.1,20.96-4.1,30.87,0l68.86,112.33c8.4,13.7,28.33,13.7,36.71-.04l31.09-50.95c.35-.57.95-.93,1.61-.97l57.19-3.66c16.19-1.04,25.43-18.91,16.97-32.72l-45.16-73.67c14.18-10.98,22.37-26.98,23.3-44.34.82-15.36,10.08-28.76,24.14-34.97,30.68-13.56,44.31-49.51,30.34-80-6.4-13.98-4.44-30.15,5.13-42.19ZM177.76,644.45c-.49.8-1.22.97-1.74.97h0c-.52,0-1.24-.17-1.74-.98l-31.09-50.95c-3.65-5.98-10-9.82-16.99-10.26l-57.19-3.66c-1.53-.1-2.42-1.77-1.61-3.1l45.71-74.56c7.47,2.57,15.46,3.65,23.59,3.1,15.35-1.05,29.76,6.54,37.63,19.75,8.29,13.92,21.52,23.73,37.26,27.61,7.45,1.84,14.61,2.19,21.81,1.3l-55.65,90.78ZM489.92,576.47c.81,1.32-.07,3-1.61,3.1l-57.19,3.66c-6.99.45-13.35,4.28-16.99,10.26l-31.09,50.95c-.8,1.31-2.68,1.3-3.47,0l-55.65-90.77c7.19.89,14.56.48,21.81-1.31,15.74-3.88,28.97-13.68,37.26-27.61,7.87-13.21,22.28-20.78,37.63-19.75,8.13.55,16.12-.53,23.59-3.1l45.71,74.56ZM521.44,341.41c9.44,20.61.22,44.91-20.51,54.08-20.81,9.2-34.5,29.02-35.72,51.74-1.22,22.61-20.66,39.88-43.29,38.35-22.69-1.52-44.03,9.67-55.67,29.22-5.6,9.41-14.55,16.04-25.18,18.66-18.41,4.53-29.91-4.58-36.16-7.63,0,0-.01,0-.02,0-18.74-9.13-40.23-7.88-57.66,2.82-9.34,5.73-20.34,7.44-30.97,4.82-10.63-2.62-19.58-9.25-25.18-18.66-11.64-19.55-32.97-30.75-55.67-29.22-22.6,1.54-42.07-15.71-43.29-38.35-1.22-22.72-14.91-42.55-35.72-51.74-20.73-9.16-29.95-33.47-20.51-54.08,9.48-20.68,6.57-44.6-7.58-62.42-14.1-17.75-10.97-43.55,6.97-57.41,18-13.91,26.55-36.44,22.3-58.79-4.24-22.27,10.53-43.66,32.85-47.6,22.41-3.95,40.44-19.92,47.06-41.69,6.6-21.68,29.61-33.77,51.21-26.88,21.68,6.91,45.07,1.15,61.05-15.05,15.92-16.14,41.91-16.13,57.83,0h0c15.98,16.2,39.37,21.96,61.05,15.05,21.6-6.89,44.61,5.19,51.21,26.88,6.62,21.77,24.66,37.74,47.06,41.69,22.32,3.94,37.09,25.33,32.85,47.6-4.25,22.35,4.29,44.88,22.3,58.79,17.94,13.86,21.07,39.66,6.97,57.41-14.15,17.82-17.06,41.73-7.58,62.42h0Z"/>
        <path class="cls-2" d="M398.55,425.28c-33.77,27.35-76.34,42.41-119.89,42.41-105.11,0-190.62-85.51-190.62-190.62,0-43.63,15.12-86.28,42.57-120.08,3.39-4.18,2.76-10.31-1.42-13.7-4.18-3.39-10.31-2.75-13.7,1.42-30.26,37.26-46.93,84.27-46.93,132.36,0,115.85,94.25,210.1,210.1,210.1,47.99,0,94.93-16.61,132.15-46.76,4.18-3.39,4.82-9.52,1.44-13.7-3.39-4.18-9.52-4.82-13.7-1.44h0Z"/>
        <path class="cls-2" d="M278.66,66.97c-48.01,0-93.2,15.76-130.7,45.59-4.21,3.35-4.91,9.48-1.56,13.69,3.35,4.21,9.48,4.91,13.69,1.56,34.01-27.05,75.01-41.36,118.57-41.36,105.11,0,190.62,85.51,190.62,190.62,0,43.48-14.25,84.42-41.22,118.4-3.34,4.21-2.64,10.34,1.58,13.68,1.79,1.42,3.93,2.11,6.05,2.11,2.87,0,5.71-1.26,7.64-3.69,29.73-37.46,45.44-82.59,45.44-130.51,0-115.85-94.25-210.1-210.1-210.1h0Z"/>
      </g>
    </g>
  </g>
</svg>