<svg id="Layer_1" enable-background="new 0 0 514.141 514.141" height="512" viewBox="0 0 514.141 514.141" width="512" xmlns="http://www.w3.org/2000/svg"><g><path d="m59.895 348.897-54.431 54.431c-4.29 4.29-5.573 10.741-3.252 16.347 2.322 5.605 7.791 9.26 13.858 9.26h70.206v70.206c0 6.067 3.654 11.536 9.26 13.858 1.855.769 3.805 1.142 5.737 1.142 3.903 0 7.74-1.523 10.609-4.394l70.118-70.118c-49.832-16.39-92.53-48.628-122.105-90.732z"/><path d="m508.677 403.328-54.431-54.431c-29.575 42.104-72.273 74.342-122.106 90.732l70.118 70.118c2.869 2.87 6.706 4.394 10.609 4.394 1.933 0 3.882-.373 5.737-1.142 5.605-2.322 9.26-7.791 9.26-13.858v-70.206h70.206c6.067 0 11.536-3.654 13.858-9.26s1.039-12.057-3.251-16.347z"/><path d="m272.111 189.669-15.041-19.84-15.041 19.84c-1.788 2.357-4.233 4.135-7.028 5.106l-23.516 8.174 14.221 20.435c1.69 2.43 2.624 5.305 2.685 8.263l.507 24.891 23.829-7.21c1.416-.429 2.88-.643 4.344-.643s2.928.214 4.344.643l23.829 7.21.507-24.891c.061-2.958.994-5.833 2.685-8.263l14.221-20.435-23.516-8.174c-2.796-.971-5.242-2.749-7.03-5.106z"/><path d="m257.07 90.25c-66.479 0-120.563 54.084-120.563 120.563s54.084 120.563 120.563 120.563 120.563-54.084 120.563-120.563-54.084-120.563-120.563-120.563zm81.512 113.595-22.931 32.95-.816 40.136c-.096 4.692-2.383 9.07-6.181 11.83-2.593 1.883-5.686 2.864-8.817 2.864-1.455 0-2.918-.212-4.343-.643l-38.424-11.626-38.424 11.626c-4.49 1.359-9.362.537-13.16-2.222-3.798-2.76-6.085-7.138-6.181-11.83l-.816-40.136-22.931-32.95c-2.681-3.854-3.404-8.739-1.953-13.203 1.45-4.465 4.907-7.992 9.341-9.534l37.918-13.18 24.253-31.99c2.836-3.74 7.259-5.938 11.953-5.938s9.117 2.197 11.953 5.938l24.253 31.99 37.918 13.18c4.434 1.542 7.891 5.069 9.341 9.534 1.451 4.464.728 9.35-1.953 13.204z"/><path d="m257.07 0c-116.242 0-210.812 94.57-210.812 210.813s94.57 210.813 210.813 210.813 210.813-94.57 210.813-210.813-94.571-210.813-210.814-210.813zm0 361.375c-83.021 0-150.563-67.542-150.563-150.563s67.543-150.562 150.563-150.562 150.563 67.542 150.563 150.563-67.542 150.562-150.563 150.562z"/></g></svg>