<svg id="writing" viewBox="0 0 64 64" xmlns="http://www.w3.org/2000/svg" width="262.5" height="262.5" version="1.1" xmlns:xlink="http://www.w3.org/1999/xlink" xmlns:svgjs="http://svgjs.dev/svgjs"><g transform="matrix(1,0,0,1,0,0)"><path d="m10.7 29.28h28.26c.55 0 1-.45 1-1s-.45-1-1-1h-28.26c-.55 0-1 .45-1 1s.45 1 1 1z" fill="#ffffffff" data-original-color="#000000ff" stroke="none"/><path d="m10.7 36.72h28.26c.55 0 1-.45 1-1s-.45-1-1-1h-28.26c-.55 0-1 .45-1 1s.45 1 1 1z" fill="#ffffffff" data-original-color="#000000ff" stroke="none"/><path d="m10.7 44.15h20.95c.55 0 1-.45 1-1s-.45-1-1-1h-20.95c-.55 0-1 .45-1 1s.45 1 1 1z" fill="#ffffffff" data-original-color="#000000ff" stroke="none"/><path d="m28.77 49.58h-18.07c-.55 0-1 .45-1 1s.45 1 1 1h18.07c.55 0 1-.45 1-1s-.45-1-1-1z" fill="#ffffffff" data-original-color="#000000ff" stroke="none"/><path d="m10.7 21.85h12.27c.55 0 1-.45 1-1s-.45-1-1-1h-12.27c-.55 0-1 .45-1 1s.45 1 1 1z" fill="#ffffffff" data-original-color="#000000ff" stroke="none"/><path d="m60.81 24.07c-.77-.78-1.8-1.2-2.9-1.2s-2.16.43-2.95 1.23l-7.3 7.34v-11.11c0-.27-.1-.52-.29-.71l-15.79-15.84c-.19-.19-.45-.3-.71-.3h-27.87c-.55 0-1 .45-1 1v55.04c0 .55.45 1 1 1h43.66c.55 0 1-.45 1-1v-16.41l13.12-13.18c1.61-1.63 1.62-4.25.03-5.86zm-15.15 34.45h-41.66v-53.04h25.87v14.85c0 .55.45 1 1 1h14.79v12.12l-11.31 11.36c-.1.1-.17.22-.22.35l-2.74 7.18c-.15.37-.06.78.22 1.06.19.19.45.3.71.3.12 0 .24-.03.36-.07l7.14-2.76c.13-.05.25-.13.35-.23l5.49-5.52z" fill="#ffffffff" data-original-color="#000000ff" stroke="none"/></g></svg>