<?xml version="1.0" encoding="UTF-8"?>
<svg id="Layer_2" data-name="Layer 2" xmlns="http://www.w3.org/2000/svg" viewBox="0 0 627.59 627.59">
  <defs>
    <style>
      .cls-1 {
        fill: #ebad87;
      }

      .cls-1, .cls-2, .cls-3, .cls-4, .cls-5, .cls-6, .cls-7, .cls-8, .cls-9 {
        stroke-width: 0px;
      }

      .cls-2 {
        fill: #000;
      }

      .cls-3 {
        fill: #d47f6c;
      }

      .cls-4 {
        fill: #ee8228;
      }

      .cls-5 {
        fill: #e9916f;
      }

      .cls-6 {
        fill: #686868;
      }

      .cls-7 {
        fill: #a75d4f;
      }

      .cls-8 {
        fill: #848484;
      }

      .cls-9 {
        fill: #cf4e27;
      }
    </style>
  </defs>
  <g id="Layer_1-2" data-name="Layer 1">
    <g>
      <circle class="cls-1" cx="245.15" cy="53.32" r="44.13"/>
      <path class="cls-5" d="M245.15,9.19c-6.56,0-12.79,1.44-18.39,4.01,15.19,6.97,25.74,22.31,25.74,40.11s-10.55,33.14-25.74,40.11c5.6,2.57,11.82,4.01,18.39,4.01,24.37,0,44.13-19.76,44.13-44.13s-19.76-44.13-44.13-44.13Z"/>
      <path class="cls-8" d="M284.38,220.03h-78.45c-16.25,0-29.42-13.17-29.42-29.42v-41.68c0-28.43,23.05-51.48,51.48-51.48h34.32c28.43,0,51.48,23.05,51.48,51.48v41.68c0,16.25-13.17,29.42-29.42,29.42Z"/>
      <path class="cls-6" d="M262.31,97.45h-34.32c-.41,0-.82.02-1.23.03,27.86.65,50.26,23.43,50.26,51.45v41.68c0,16.25-13.17,29.42-29.42,29.42h36.77c16.25,0,29.42-13.17,29.42-29.42v-41.68c0-28.43-23.05-51.48-51.48-51.48Z"/>
      <circle class="cls-3" cx="144.41" cy="104.95" r="44.13"/>
      <path class="cls-7" d="M144.41,60.82c-6.56,0-12.79,1.44-18.39,4.01,15.19,6.97,25.74,22.31,25.74,40.11s-10.55,33.14-25.74,40.11c5.6,2.57,11.82,4.01,18.39,4.01,24.37,0,44.13-19.76,44.13-44.13s-19.76-44.13-44.13-44.13Z"/>
      <path class="cls-8" d="M183.63,271.65h-78.45c-16.25,0-29.42-13.17-29.42-29.42v-41.68c0-28.43,23.05-51.48,51.48-51.48h34.32c28.43,0,51.48,23.05,51.48,51.48v41.68c0,16.25-13.17,29.42-29.42,29.42Z"/>
      <path class="cls-6" d="M161.57,149.08h-34.32c-.41,0-.82.02-1.23.03,27.86.65,50.26,23.43,50.26,51.45v41.68c0,16.25-13.17,29.42-29.42,29.42h36.77c16.25,0,29.42-13.17,29.42-29.42v-41.68c0-28.43-23.05-51.48-51.48-51.48Z"/>
      <circle class="cls-4" cx="457.83" cy="457.83" r="160.58"/>
      <path class="cls-9" d="M457.83,297.25c-6.22,0-12.35.37-18.39,1.05,80.02,9.12,142.19,77.06,142.19,159.52s-62.17,150.4-142.19,159.52c6.03.69,12.17,1.05,18.39,1.05,88.68,0,160.58-71.89,160.58-160.58s-71.89-160.58-160.58-160.58Z"/>
      <circle class="cls-4" cx="457.83" cy="457.83" r="123.8"/>
      <circle class="cls-1" cx="77.84" cy="194.57" r="44.13"/>
      <path class="cls-5" d="M77.84,150.44c-6.56,0-12.79,1.44-18.39,4.01,15.19,6.97,25.74,22.31,25.74,40.11s-10.55,33.14-25.74,40.11c5.6,2.57,11.82,4.01,18.39,4.01,24.37,0,44.13-19.76,44.13-44.13s-19.76-44.13-44.13-44.13Z"/>
      <path class="cls-8" d="M117.06,361.27H38.61c-16.25,0-29.42-13.17-29.42-29.42v-41.68c0-28.43,23.05-51.48,51.48-51.48h34.32c28.43,0,51.48,23.05,51.48,51.48v41.68c0,16.25-13.17,29.42-29.42,29.42Z"/>
      <path class="cls-6" d="M95,238.69h-34.32c-.41,0-.82.02-1.23.03,27.86.65,50.26,23.43,50.26,51.45v41.68c0,16.25-13.17,29.42-29.42,29.42h36.77c16.25,0,29.42-13.17,29.42-29.42v-41.68c0-28.43-23.05-51.48-51.48-51.48Z"/>
      <path class="cls-2" d="M322.99,190.61v-41.68c0-8.07-1.56-15.91-4.64-23.31-1.95-4.69-7.33-6.91-12.02-4.95-4.69,1.95-6.91,7.33-4.95,12.02,2.14,5.15,3.23,10.61,3.23,16.25v41.68c0,11.15-9.07,20.23-20.23,20.23h-62.13v-10.27c0-.2,0-.4,0-.6,0-.07,0-.14,0-.21,0-.13,0-.26,0-.4,0-.08,0-.16,0-.23,0-.12,0-.25,0-.37v-.25c-.01-.12-.01-.24-.02-.36,0-.08,0-.17,0-.25,0-.12,0-.24-.02-.35,0-.08,0-.17-.01-.25,0-.12-.01-.23-.02-.35v-.25c-.02-.12-.03-.23-.04-.35,0-.08-.01-.17-.02-.25,0-.12-.02-.24-.03-.36,0-.08-.01-.15-.02-.23-.01-.14-.02-.28-.04-.41,0-.06,0-.12-.01-.17-.01-.16-.03-.33-.05-.49,0-.04,0-.07-.01-.11-.02-.2-.04-.39-.06-.59,0-.05-.01-.11-.02-.16-.02-.14-.03-.29-.05-.43,0-.07-.02-.15-.03-.22-.01-.12-.03-.24-.05-.36-.01-.08-.02-.17-.03-.25-.01-.11-.03-.23-.05-.34-.01-.08-.02-.17-.04-.25-.02-.11-.03-.23-.05-.34-.01-.08-.03-.17-.04-.25-.02-.11-.03-.22-.05-.33-.01-.09-.03-.18-.04-.26-.02-.11-.04-.22-.05-.32-.01-.08-.03-.17-.04-.25-.02-.12-.04-.24-.06-.35-.01-.07-.03-.15-.04-.22-.02-.13-.05-.26-.07-.39-.01-.06-.02-.12-.03-.18-.04-.18-.07-.37-.11-.55,0,0,0-.01,0-.02-.04-.19-.08-.39-.12-.58,0-.04-.02-.08-.02-.12-.03-.15-.06-.3-.1-.45-.01-.07-.03-.14-.05-.2-.03-.12-.06-.25-.08-.37-.02-.07-.03-.14-.05-.2-.03-.12-.06-.24-.09-.37-.02-.07-.04-.15-.06-.22-.03-.11-.06-.23-.08-.34-.02-.08-.04-.15-.06-.23-.03-.11-.06-.22-.09-.33-.02-.08-.04-.16-.06-.24-.03-.11-.06-.22-.09-.33-.02-.08-.04-.15-.06-.23-.03-.12-.07-.24-.1-.35-.02-.07-.04-.13-.06-.2-.04-.13-.07-.25-.11-.37-.02-.06-.04-.13-.06-.19-.05-.16-.09-.31-.14-.47,0-.03-.02-.06-.03-.08-.06-.19-.12-.37-.18-.56-.01-.04-.02-.07-.04-.11-.05-.15-.1-.29-.14-.44-.02-.06-.04-.12-.06-.19-.04-.12-.08-.24-.12-.36-.03-.08-.05-.15-.08-.23l-.11-.32c-.03-.07-.05-.15-.08-.22-.04-.11-.08-.23-.12-.34-.02-.06-.05-.13-.07-.19-.04-.12-.09-.24-.13-.35-.02-.07-.05-.13-.08-.2-.04-.11-.08-.22-.13-.33-.03-.07-.05-.14-.08-.21-.05-.12-.09-.24-.14-.35-.02-.06-.05-.12-.07-.18-.05-.12-.1-.25-.15-.37-.02-.06-.05-.11-.07-.17-.06-.15-.13-.3-.19-.45,0-.02-.02-.05-.03-.07-.08-.18-.15-.36-.23-.54,0-.01-.01-.03-.02-.04-.07-.16-.14-.32-.21-.49-.02-.05-.04-.09-.06-.14-.06-.13-.12-.26-.18-.39-.03-.06-.05-.11-.08-.17-.05-.12-.11-.23-.16-.34-.03-.07-.06-.14-.1-.2-.05-.11-.1-.21-.15-.32-.03-.07-.06-.13-.1-.2-.05-.11-.1-.21-.16-.32-.03-.06-.06-.13-.1-.19-.05-.11-.11-.21-.16-.32-.03-.06-.07-.13-.1-.2-.05-.11-.11-.21-.16-.32-.03-.06-.07-.13-.1-.19-.06-.12-.13-.24-.19-.36-.02-.05-.05-.09-.07-.14-.07-.13-.14-.27-.22-.4-.02-.04-.04-.07-.06-.11-.18-.34-.37-.67-.56-1.01-.03-.05-.06-.09-.08-.14-.07-.12-.13-.23-.2-.35-.03-.06-.07-.12-.1-.18-.06-.11-.13-.22-.19-.33-.03-.06-.07-.12-.1-.17-.06-.11-.13-.21-.19-.32-.04-.06-.08-.12-.11-.19-.06-.1-.12-.2-.19-.3-.04-.06-.08-.13-.12-.19-.06-.1-.13-.2-.19-.3-.04-.06-.08-.12-.12-.19-.07-.1-.13-.2-.2-.31-.04-.06-.07-.11-.11-.17-.07-.11-.14-.22-.21-.32-.03-.05-.07-.1-.1-.15-.08-.12-.16-.24-.24-.36-.02-.04-.05-.07-.07-.11-.22-.32-.44-.63-.66-.95-.02-.03-.05-.06-.07-.1-.09-.12-.18-.24-.26-.37-.04-.05-.07-.1-.11-.15-.08-.1-.15-.21-.23-.31-.04-.05-.08-.11-.12-.16-.07-.1-.15-.2-.23-.3-.04-.06-.08-.11-.13-.17-.07-.1-.15-.19-.22-.29-.04-.06-.09-.11-.13-.17-.07-.1-.15-.19-.22-.29-.04-.06-.09-.11-.13-.17-.07-.1-.15-.19-.23-.28-.04-.05-.08-.11-.13-.16-.08-.1-.17-.21-.25-.31-.03-.04-.07-.09-.1-.13-.09-.12-.19-.23-.28-.34-.03-.03-.06-.07-.08-.1-.25-.3-.5-.59-.75-.88-.02-.02-.04-.05-.07-.07-.1-.12-.21-.24-.31-.36-.04-.04-.07-.08-.11-.12-.09-.1-.18-.2-.27-.3-.04-.05-.09-.1-.13-.15-.08-.09-.17-.18-.25-.27-.05-.06-.1-.11-.15-.17-.08-.08-.16-.17-.24-.25-.05-.06-.1-.11-.16-.16-.08-.09-.17-.17-.25-.26-.05-.05-.1-.1-.14-.15-.09-.09-.18-.18-.26-.27-.05-.05-.09-.1-.14-.14-.09-.09-.18-.19-.28-.28-.04-.04-.08-.08-.13-.13-.11-.11-.22-.22-.33-.33-.02-.02-.05-.05-.07-.07-.28-.27-.56-.54-.84-.8-.03-.03-.06-.05-.08-.08-.11-.11-.23-.21-.34-.32-.03-.03-.07-.06-.1-.09-.11-.1-.21-.19-.32-.29-.05-.04-.09-.08-.14-.13-.1-.09-.19-.17-.29-.26-.05-.04-.1-.09-.15-.13-.09-.08-.19-.17-.28-.25-.05-.05-.1-.09-.16-.14-.09-.08-.19-.16-.28-.24-.05-.05-.11-.09-.16-.14-.09-.08-.18-.16-.28-.23-.06-.05-.11-.09-.17-.14-.09-.08-.19-.16-.28-.23-.05-.04-.11-.09-.16-.13-.11-.09-.21-.17-.32-.26-.04-.03-.08-.07-.13-.1-.13-.1-.26-.2-.39-.31-.02-.02-.05-.04-.07-.05-.15-.12-.31-.24-.47-.36,0,0,0,0,0,0-.15-.12-.3-.23-.45-.34-.04-.03-.09-.07-.13-.1-.11-.08-.22-.16-.33-.24-.05-.04-.11-.08-.16-.12-.1-.08-.21-.15-.31-.23-.06-.04-.11-.08-.17-.12-.1-.07-.2-.14-.3-.22-.06-.04-.12-.09-.18-.13-.1-.07-.19-.14-.29-.2-.06-.05-.13-.09-.19-.13-.1-.07-.19-.13-.29-.2-.06-.04-.13-.09-.19-.13-.1-.07-.2-.13-.3-.2-.06-.04-.12-.08-.19-.12-.11-.07-.22-.14-.33-.21-.05-.03-.1-.07-.15-.1-.13-.08-.26-.17-.39-.25-.03-.02-.07-.04-.1-.06-.17-.11-.33-.21-.5-.31,0,0,0,0-.01,0-.16-.1-.32-.2-.49-.3-.05-.03-.09-.06-.14-.08-.12-.07-.24-.14-.36-.21-.06-.04-.13-.07-.19-.11-.1-.06-.21-.12-.31-.18-.07-.04-.13-.08-.2-.12-.1-.06-.21-.12-.31-.18-.07-.04-.13-.07-.2-.11-.1-.06-.2-.12-.31-.17-.07-.04-.14-.08-.21-.12-.1-.06-.2-.11-.3-.17-.07-.04-.14-.08-.22-.12-.1-.06-.21-.11-.31-.17-.07-.04-.14-.07-.21-.11-.11-.06-.22-.11-.32-.17-.07-.03-.13-.07-.2-.1-.12-.06-.24-.12-.37-.19-.05-.03-.1-.05-.16-.08-.18-.09-.35-.18-.53-.26,0,0-.02,0-.03-.01-.17-.08-.33-.16-.5-.24-.05-.03-.11-.05-.16-.07-.12-.06-.25-.12-.37-.18-.07-.03-.14-.06-.21-.09-.11-.05-.22-.1-.33-.15l-.22-.1c-.11-.05-.21-.1-.32-.14-.07-.03-.15-.06-.22-.1-.06-.03-.12-.05-.18-.08.28-3.05.9-6.03,1.83-8.94,2.85-3.96,5.17-8.33,6.86-13,7.98-10.27,20.37-16.37,33.42-16.37h34.32c5.72,0,11.25,1.12,16.46,3.32,4.68,1.98,10.07-.21,12.05-4.89s-.21-10.07-4.89-12.05c-1.22-.52-2.46-.99-3.7-1.43,10.01-9.7,16.24-23.27,16.24-38.28,0-29.4-23.92-53.32-53.32-53.32s-53.32,23.92-53.32,53.32c0,15.02,6.24,28.61,16.27,38.31-3.83,1.33-7.52,3.05-11.01,5.11-3.96-25.52-26.08-45.11-52.69-45.11-29.4,0-53.32,23.92-53.32,53.32,0,15.01,6.23,28.59,16.25,38.29-2.41.84-4.77,1.83-7.06,2.96-6.82-3.18-14.43-4.95-22.44-4.95-29.4,0-53.32,23.92-53.32,53.32,0,15.01,6.24,28.59,16.25,38.29C17.06,241.11,0,263.69,0,290.18v41.68c0,21.29,17.32,38.61,38.61,38.61h24.74c5.08,0,9.19-4.11,9.19-9.19s-4.12-9.19-9.19-9.19h-24.74c-11.15,0-20.23-9.07-20.23-20.23v-41.68c0-23.32,18.97-42.29,42.29-42.29h34.32c23.32,0,42.29,18.97,42.29,42.29v41.68c0,11.15-9.07,20.23-20.23,20.23h-14.03c-5.08,0-9.19,4.11-9.19,9.19s4.12,9.19,9.19,9.19h14.03c21.29,0,38.61-17.32,38.61-38.61v-41.68c0-3.17-.25-6.29-.72-9.33h28.68c21.29,0,38.61-17.32,38.61-38.61v-13.02h62.13c21.29,0,38.61-17.32,38.61-38.61h0ZM245.15,18.39c19.26,0,34.93,15.67,34.93,34.93s-15.67,34.93-34.93,34.93-34.93-15.67-34.93-34.93,15.67-34.93,34.93-34.93ZM144.41,70.01c19.26,0,34.93,15.67,34.93,34.93,0,3.32-.47,6.54-1.34,9.58-2.72,3.93-4.95,8.17-6.65,12.63-6.41,7.77-16.11,12.72-26.95,12.72-19.26,0-34.93-15.67-34.93-34.93s15.67-34.93,34.93-34.93ZM77.84,159.63c19.26,0,34.93,15.67,34.93,34.93s-15.67,34.93-34.93,34.93-34.93-15.67-34.93-34.93,15.67-34.93,34.93-34.93ZM203.86,242.24c0,11.15-9.07,20.23-20.23,20.23h-34.67c-7.09-13.75-19.28-24.46-34.06-29.61,10.02-9.7,16.25-23.28,16.25-38.29,0-13.49-5.04-25.83-13.34-35.24,3.07-.7,6.23-1.06,9.42-1.06h34.32c4.18,0,8.31.61,12.27,1.81,17.95,5.44,30.01,21.71,30.01,40.48v41.68h0Z"/>
      <path class="cls-2" d="M457.83,324.83c-73.33,0-133,59.66-133,133s59.66,133,133,133,133-59.66,133-133-59.66-133-133-133ZM457.83,572.43c-63.2,0-114.61-51.41-114.61-114.61s51.41-114.61,114.61-114.61,114.61,51.41,114.61,114.61-51.41,114.61-114.61,114.61Z"/>
      <path class="cls-2" d="M595.39,358.32c-2.98-4.11-8.73-5.03-12.84-2.05s-5.03,8.73-2.05,12.84c18.78,25.92,28.71,56.6,28.71,88.72,0,83.47-67.91,151.38-151.38,151.38s-151.38-67.91-151.38-151.38,67.91-151.38,151.38-151.38c35.67,0,70.31,12.64,97.53,35.6,3.88,3.27,9.68,2.78,12.95-1.1,3.27-3.88,2.78-9.68-1.1-12.95-30.54-25.75-69.38-39.93-109.38-39.93-93.61,0-169.77,76.16-169.77,169.77s76.16,169.77,169.77,169.77,169.77-76.16,169.77-169.77c0-36.02-11.14-70.43-32.2-99.51h0Z"/>
      <path class="cls-2" d="M469.28,398.43v-12.85c0-5.08-4.12-9.19-9.19-9.19s-9.19,4.11-9.19,9.19v12.85c-14.31,2.28-25.29,14.71-25.29,29.66v8.9c0,16.56,13.47,30.03,30.03,30.03h17.18c1.86,0,3.37,1.51,3.37,3.36v17.18c0,6.42-5.22,11.64-11.64,11.64h-8.9c-6.42,0-11.64-5.22-11.64-11.64v-4.45c0-5.08-4.12-9.19-9.19-9.19s-9.19,4.11-9.19,9.19v4.45c0,14.95,10.98,27.38,25.29,29.66v12.85c0,5.08,4.12,9.19,9.19,9.19s9.19-4.11,9.19-9.19v-12.85c14.31-2.28,25.29-14.71,25.29-29.66v-17.18c0-11.99-9.76-21.75-21.75-21.75h-17.18c-6.42,0-11.64-5.22-11.64-11.64v-8.9c0-6.42,5.22-11.64,11.64-11.64h8.9c6.42,0,11.64,5.22,11.64,11.64v4.45c0,5.08,4.12,9.19,9.19,9.19s9.19-4.11,9.19-9.19v-4.45c0-14.95-10.98-27.38-25.29-29.66Z"/>
      <path class="cls-2" d="M405.6,107.03c51.27,0,93.79,38.13,100.7,87.53l-7.05-5.21c-4.08-3.02-9.84-2.15-12.86,1.93-3.02,4.08-2.15,9.84,1.93,12.86l22.69,16.76c1.59,1.18,3.51,1.8,5.46,1.8.48,0,.96-.04,1.44-.11,2.43-.38,4.61-1.73,6.04-3.73l17.38-24.29c2.96-4.13,2-9.87-2.13-12.83-4.13-2.95-9.87-2-12.83,2.13l-2.59,3.62c-10.05-56.12-59.22-98.84-118.19-98.84-5.08,0-9.19,4.11-9.19,9.19s4.11,9.19,9.19,9.19h0Z"/>
      <path class="cls-2" d="M192.87,505.05c-3.02-4.09-8.78-4.95-12.86-1.93-4.08,3.02-4.95,8.77-1.93,12.86l5.21,7.05c-49.39-6.91-87.53-49.43-87.53-100.7,0-5.08-4.12-9.19-9.19-9.19s-9.19,4.11-9.19,9.19c0,58.96,42.72,108.13,98.84,118.19l-3.62,2.59c-4.13,2.96-5.08,8.7-2.13,12.83,1.79,2.51,4.62,3.85,7.48,3.85,1.85,0,3.72-.56,5.34-1.72l24.29-17.38c2-1.43,3.35-3.61,3.73-6.04s-.22-4.92-1.69-6.9l-16.76-22.69Z"/>
    </g>
  </g>
</svg>