<?xml version="1.0" encoding="UTF-8"?>
<svg id="Layer_2" data-name="Layer 2" xmlns="http://www.w3.org/2000/svg" viewBox="0 0 116.26 121.37">
  <defs>
    <style>
      .cls-1 {
        fill: #c4c4c4;
      }

      .cls-1, .cls-2, .cls-3, .cls-4, .cls-5, .cls-6, .cls-7, .cls-8, .cls-9, .cls-10, .cls-11, .cls-12, .cls-13, .cls-14, .cls-15, .cls-16, .cls-17, .cls-18, .cls-19, .cls-20 {
        stroke-width: 0px;
      }

      .cls-2 {
        fill: #b1b1b1;
      }

      .cls-3 {
        fill: #b7b7b7;
      }

      .cls-4 {
        fill: #d4d4d4;
      }

      .cls-5 {
        fill: #b3b3b3;
      }

      .cls-6 {
        fill: #d9d9d9;
      }

      .cls-7 {
        fill: #ebebeb;
      }

      .cls-8 {
        fill: #f4f4f4;
      }

      .cls-9 {
        fill: #e6e6e6;
      }

      .cls-10 {
        fill: #e7e7e7;
      }

      .cls-11 {
        fill: #bcbcbc;
      }

      .cls-12 {
        fill: #aaa;
      }

      .cls-13 {
        fill: #dedede;
      }

      .cls-14 {
        fill: #d5d5d5;
      }

      .cls-15 {
        fill: #b5b5b5;
      }

      .cls-16 {
        fill: #cfcfcf;
      }

      .cls-17 {
        fill: #bfbfbf;
      }

      .cls-18 {
        fill: #f3f3f3;
      }

      .cls-19 {
        fill: #c5c5c5;
      }

      .cls-20 {
        fill: #d8d8d8;
      }
    </style>
  </defs>
  <g id="Objects">
    <g>
      <path class="cls-2" d="M83.2,3.49c-1.01.31-2.02.05-3.03.04-.68,0-1.44-.24-2.03.37-.65,2.79-.86,7.26-.47,10.04-.54.84-.02,1.76-.18,2.63.07.9-.27,1.87.45,2.66-.27.83-.86,1.66.03,2.48-.1.32-.01.58.24.79-.11.19-.25.37-.34.57-.1.25-.31.54,0,.76.3.21.55,0,.78-.19.41.26.86.43,1.35.43,3,0,5.99.46,8.99.11.36.17.69-.02,1.02-.12.37.21.73.4,1.13.05.07-.16.15-.31.22-.47h-.04c.18.1.36.19.55.27.27.15.55.27.86.11.18-.02.36-.04.54-.06.4.18.79.29,1.13-.11.3.05.61.1.91.15-.22.53-.45,1.06-.67,1.58-2.28.49-4.6.22-6.89.42-2.39.21-4.77-.21-7.16-.19-1.26.01-2.5-.02-3.69-.27-.93-1.23-.91-2.61-.84-3.96.05-.89.08-1.74-.23-2.58.2-.38.11-.75-.08-1.1-.13-.15-.29-.45-.38-.43-.4.09-.32.4-.2.68-.3.32-.27.68-.14,1.06-.1.78-.13,1.58-.33,2.33-.42,1.56-1.14,2.92-2.93,3.28-.4-.57.08-1.01.21-1.5.36-.82,1.63-1.16,1.22-2.46-1.14-.35-1.55.89-2.41,1.12-.1-.18-.21-.38-.36-.66-1.07.27-1.7,1-2.11,1.99-.36.02-.72.03-1.08.05.35-.8-.22-1.26-.72-1.87-.67.02-1.42.03-2.16.05-.59.05-.8.56-1.13.92-.49-2.17-.56-4.39-.57-6.58-.02-3.94.02-7.89-.25-11.82-.09-1.32-.3-1.58-1.69-1.72-.79-.08-1.57-.16-2.36-.24.21-.45.42-.91.63-1.36.39-.02.79-.09,1.18-.05,1.33.13,2.65.2,4.01.1,2.82-.21,5.55.36,8.08,1.71,1.01.54,1.74,1.3,2.3,2.34.58,1.08.42,2.16.4,3.26,0,.54-.22,1.12.5,1.4.73-.42.78-1.15.81-1.87.04-.8.11-1.6.03-2.39-.11-1.07.24-1.99.58-2.97.37-.1.68-.26.98-.24,1.9.12,3.82-.21,5.71.17-.13.43-.26.86-.4,1.29ZM70.08,18.32h-.02c.39.19.67-.17,1.02-.2.41.25.82.5,1.23.75.17.64.59.75.96.27.53-.66.56-1.42,0-2.13.05-.14.11-.28.16-.42.1-.28.24-.62-.06-.8-.47-.29-.63.15-.82.46-.28-.08-.51-.02-.66.25l.02-.02c-.55-.17-.89.22-1.28.49-.14-.08-.29-.14-.42-.23-.96-.63-2.02-.23-3.03-.31-.93-.07-1.65-1.08-2.84-.5-.44.99.04,2.08-.06,3.08,1.36.94,2.81.4,4.16.61.48.07.74-.15.8-.62h-.01c.63.2.71-.27.85-.68ZM71.57,13.71c-.02.22-.03.45-.05.66.75.21,1.22-.24,1.71-.5q.43-1.67.11-3.48c-2.87-.08-5.76-.08-8.78.21-.26,1.29-.57,2.49-.05,3.88,1.68.13,3.39.75,4.77-.88.07.26.14.49.2.72.89.53,1.25-.96,2.1-.57l-.02-.04ZM64.14,8.59c3.12.52,6.04.13,8.85.36.62-.43.66-.99.62-1.55-.07-1-.4-1.39-1.42-1.64-1.16-.28-2.34-.42-3.54-.41-1.41.02-2.82-.03-4.39-.05-.15,1.29.26,2.2-.12,3.28ZM75.15,15.66c.48.24.84.07.85-.23.06-1.33.06-2.67.04-4.01,0-.33-.28-.54-.94-.63-.4,1.74-.08,3.34.05,4.87ZM66.26,2.58c-.29.32-.54.53-.33,1,1.43.04,2.9.21,4.55.59-1.02-2.44-2.91-1.08-4.22-1.6ZM63.87,3.03c-.01.14.3.46.4.43.54-.14.67-.54.49-1.05-.63-.28-.83.12-.88.62Z"/>
      <path class="cls-15" d="M42.07,67.84c-.2-.95-1.05-1.34-1.71-1.81-1.94-1.36-4.05-2.44-6.21-3.41-.51-.23-1.01-.45-1.55-.69.61-.51,1.05.38,1.59.09-.11-.63-.71-.61-1.12-.82-.41-.21-.8-.54-1.32-.45q-.42.96-.3,2.35c.55.25,1.19.53,1.83.82l-.33.79c-.36-.11-.72-.23-1.19-.37-.22.92-.62,1.77.11,2.59-.32.61-.19,1.23-.03,2,1.92.85,4.19,1.12,6.02,2.41,1.03.92,2.05,1.84,3,2.69.54-.02.62-.36.78-.62.57,1.07-.41,1.52-.95,2.32.13.67,1.05,1.35.43,2.25-1.75-.82-3.54-1.58-5.05-2.82.27-.26.54-.52.78-.75-.03-.68-.5-1.03-.83-1.43-.4-.5.12-1.09-.39-1.69-.76-.34-1.68-.75-2.59-1.16-.35-.16-.66-.46-1.29-.27-.19,1.29-.4,2.66-.61,4.1,1.38.62,2.69,1.19,3.98,1.79.64.3,1.39.43,1.81,1.1-.05.31-.03.63.25.82,1.21.78,2.43,1.54,3.65,2.3-.16,1.08-.02,1.21,1.05.97.37.14.74.27,1.11.41.52.89.71,1.8.18,2.76-.42-.16-.84-.33-1.26-.49.02-.42.26-.99-.37-1.11-.58-.11-.99.25-1.2.81-.21.06-.55.23-.59.17-.59-.74-1.5-.61-2.26-.87-.04-.33-.17-.62-.49-.74-.99-.37-1.67-1.12-2.37-1.9.12-.22.37-.48.32-.62-.39-1.04-.76-2.1-1.3-3.07-.29-.53-1-.33-1.54-.32-.36-.12-.67-.4-1.12-.29-.66,1.47-1.01,3.04-1.23,4.64.19,1.41,1.44,1.15,2.32,1.48-.32.46-.11.96-.15,1.45-.85.69-1.62.47-2.32-.23-1.26-1.26-1.29-2.83-1.04-4.44.22-1.4.46-2.81.82-4.18.71-2.72.82-5.5.68-8.27-.18-3.64-.57-7.27-.9-10.9-.09-1.04-.15-2.06.37-3.02.15.07.29.14.44.2.37.5.12,1.29.77,1.66-.31.74-.7,1.48-.16,2.28,0,.56-.01,1.12.44,1.67,1.2.36,2.48.74,3.76,1.12,1.14.54,2.27,1.07,3.41,1.62,1.2.58,2.47,1.03,3.42,2.04.22.23.53.33.88.24.33-.25.36-.65.42-1.03.35.12.7.24,1.04.36.56,2.09.23,4.09-.62,6.04-.44-.19-.87-.38-1.31-.57ZM39.31,81.6c-.41-.56-.85-.79-1.71-.44.54.84,1.04.89,1.71.44Z"/>
      <path class="cls-2" d="M14,89.99c-1.51,1.32-1.66,3.15-1.81,4.95-.08.94.05,1.9-.01,2.84-.08,1.26-.29,2.48-.92,3.63-.64,1.17-.84,2.48-.74,3.83q1.45.11,1.21,1.43c-.38-.06-.76-.12-1.14-.18-.29.93-.31,1.85.17,2.73.29-.34.32-.86.79-1.1.55.29.56,1.12,1.24,1.29.48-.62.93-1.26,1.44-1.86.45-.53,1-.75,1.67-.37,1.04,0,2.09-.02,3.11.26.84-.14,1.59.15,2.34.47.32-.41.71-.59,1.22-.34.32.09.63.19.95.28.56-.38,1.06,0,1.58.13.91-.35,1.77-.25,2.59.27.58-.19,1.17-.26,1.75-.02.39.05.78.11,1.18.16.39-.29.78-.27,1.16.03.22.09.44.18.65.27.26-.24.49-.56.91-.5.33.12.66.25.98.37.7-.41,1.41-.65,2.16-.12.1,0,.2,0,.3.04.47-.47.92-.75,1.25.13.83-.05,1.67-.67,2.47.1.17.08.34.15.51.23.2-.1.41-.2.61-.3.56-.51,1.01-.01,1.5.16.59-.34,1.02-.32,1.12.48l.03-.02c.5-.57,1.05-.92,1.82-.52.07.82-.36,1.38-.83,1.91-.48.54-.82,1.14-1.05,1.81.42.18.84.36,1.27.55.41-1.46,1.5-2.67,1.42-4.25.82-.16,1.34.24,1.91.43.47.05.95.1,1.42.15.51-.31.83-.15,1.01.39.09.02.16.06.21.14q.78-.76,1.82-.22c.14.05.27.11.4.17.46-.72,1.01-.58,1.59-.18l.99.28c.21-.09.43-.17.64-.26.73-.33,1.45-.32,2.17.03.29.11.58.22.87.33,1.67-.11,3.35-.16,5.02-.36,1.3-.15,2.51-.06,3.7.48.33-.3.63-.78,1.12-.21-.14,1.65-1.44,2.72-2.07,4.12.36.14.71.21,1.02-.12.85-1.91,1.7-3.82,2.54-5.73-2.3,0-4.61.02-6.92,0-5.33-.05-10.64-.41-15.94-.9-5.79-.54-11.59-.82-17.39-.86-3.83-.03-7.61-.53-11.42-.79-1.9-.13-3.82-.18-5.73-.23-.56-.02-1.11-.03-1.76-.3-.18-1.93,1.19-3.49,1.49-5.32.09-.76.41-1.47.26-2.3-.15-.84-.06-1.72-.07-2.59-.14-1.7.84-2.99,1.6-4.36-.46-.19-.93-.38-1.39-.57Z"/>
      <path class="cls-12" d="M45.48,113.01c-.42-.18-.85-.36-1.27-.55-.24.1-.47.19-.71.29-.53.36-.98-.15-1.48-.14-.74.42-1.27-.25-1.91-.36-.34.38-.71.68-1.25.35-.29-.08-.59-.16-.88-.24-.41.21-.81.45-1.3.35-.42-.15-.84-.3-1.26-.45-.23.14-.46.25-.74.11-.35.35-.72.16-1.08.05-.51.27-.94.29-1.13-.38-.22-.16-.44-.33-.66-.49-.27.24-.54.48-.8.72-.55.56-1.02.03-1.51-.12-.33.29-.7.29-1.09.13-.5.31-.94-.08-1.42-.1-.54.28-1.09.46-1.68.14-.43-.16-.87-.21-1.31-.04-.55.21-1.03.11-1.44-.31-.44.21-.88.43-1.36.08-.29-.07-.57-.14-.86-.21-.26.09-.53.17-.79.26-1.22-.08-2.44-.16-3.66-.23-.47-.26-.96-.41-1.52-.36-.47.03-.91-.1-1.03-.66v-.12q-.93-.09-.71-.88c.04-.15.1-.29.15-.44-.68-.17-.69-.99-1.24-1.29-.47.23-.5.76-.79,1.1-.16.72.12,1.38.31,2.05,1.36.95.96,2.17.49,3.39h0c.44.19.88.39,1.32.58.11-.5.34-.87.92-.9l.06-.18c.22-.36.44-.71.89-.82,1.11-.3,1.87.59,2.82.83.21-.11.42-.22.64-.32.58-.36,1.03.11,1.52.26.3-.18.61-.2.91,0,.46.13.91.16,1.37,0,.64-.23,1.22-.01,1.79.23.52-.42,1.07-.14,1.62-.06.51-.76,1.07-.17,1.61-.05.18-.01.35-.02.53-.03.54-.18.92.3,1.4.33.29-.22.57-.24.69-.09.38.7-.46,1.14-.03,1.71.53-.31.54-.96.92-1.37.46-.51,1.01-.78,1.7-.42.36-.26.7-.09,1.04.06.16.02.32.04.47.06.5-.33.91.08,1.37.17.26-.1.51-.19.77-.29.8-.42.85.49,1.27.73.31-.44.67-.76,1.26-.48,1,.06,2.04-.33,2.99.25.36-.21.7-.47,1.16-.34,1.45.47,2.93.32,4.39.12.42-.06.77-.05,1.1.54-.3.66-.65,1.44-1,2.22.15.08.3.15.46.23.34-.63.66-1.28,1.04-1.88.37-.59.9-.9,1.62-.56.19.07.37.15.56.22,1.02-.31,1.68.19,2.21.99.29-.42.65-.63,1.17-.44.34-.29.7-.23,1.1-.13.99.26,2,.35,3.01.31.31.14.63.29.94.43.14.03.28.06.41.11.15-.17.38-.52.45-.49,1.11.48,2.3-.22,3.4.22.14.04.28.09.42.14.49-.45.96-.02,1.44.03.2-.23.39-.47.55-.47.67.09.41.71.83.85.58-.59,1.11-1.33,2.12-.85.34-.32.7-.19,1.06-.04.22-.09.44-.19.67-.29.38-.33.8-.47,1.32-.39.46.07.94.07,1.41.1.56-1.63.4-3.33.53-5.01-.39-.18-.79-.37-1.18-.55-.23,1.31-.39,2.64-1.24,3.73-.33.01-.27-.35-.57-.54-.51.61-1.08,1.31-2.06.82-.3.33-.66.26-1.02.12-.28.16-.57.28-.96-.06.12-.38.26-.81.39-1.25-1.05.03-.81,1.3-1.71,1.7-1.4-.27-2.95.04-4.28.13-.7-.63.28-1.11-.29-1.7-.65,1.64-1.89,1.75-3.34,1.32-.77.54-1.3-.2-1.94-.35-.32.26-.65.26-1,.05-.31-.11-.62-.22-.93-.33-.56.39-1.04.07-1.52-.19-.35.35-.71.16-1.08.04-.17-.05-.35-.11-.52-.16-1.34-.02-2.69.05-4.01-.33-.32.3-.68.2-1.04.09Z"/>
      <path class="cls-5" d="M72.6,109.93c.39.18.79.37,1.18.55.36-1.72.45-3.45.25-5.21-.28-2.4-1.38-4.17-3.57-5.28-1.42-.72-2.81-1.51-4.18-2.32-1.33-.79-2.21-1.86-2.72-3.43-1.16-3.51-3.35-6.31-6.65-8.1-1.89-1.03-3.86-1.92-5.92-2.55-1.16-.36-2.21-.92-3.22-1.55-1.75-1.09-2.48-2.74-1.96-4.69.96-3.63,1.42-7.33,1.68-11.05.21-3,.1-6.02-.75-8.95-.25.57-.66.72-1.22.44-.16,1.51.2,3,.33,4.49.22,2.57-.16,5.08-.39,7.6-.2,2.13-.52,4.25-1.2,6.32-.79,2.41.05,4.62,1.57,6.44.71.85,1.94,1.33,3,1.83,2.3,1.07,4.7,1.94,6.97,3.06,2.71,1.34,4.77,3.38,5.92,6.26.18.44.43.87.55,1.32.57,2.18,2.18,3.42,4,4.47,1.23.71,2.49,1.37,3.71,2.1,2.01,1.2,2.99,3.41,2.52,5.71-.05.26-.4.46-.61.7.04.69.9,1.07.72,1.85Z"/>
      <path class="cls-15" d="M98.34,23.67c1.21-.27,2.46-.54,3.26-1.65.56.19,1.16.2,1.56-.23.57-.61,1.38-.76,2.13-1.28.18-1.24.25-2.56.05-3.88.44-2.21.17-4.45.25-6.68.05-1.33-1.24-2.58-2.71-2.84-.31-.06-.32.29-.45.47l.06.03c.46-.43.38-.82-.1-1.15-1.06-.72-2.24-1.26-3.46-1.51-2.44-.51-4.92-.87-7.43-.92-2.06-.56-4.13-.65-6.22-.19-.12-.04-.23-.02-.33.06-.58-.14-1.16-.27-1.75-.41.13-.43.26-.86.4-1.29.69-.22,1.4-.14,2.11-.16,3.52-.08,6.97.61,10.46.78,3.68.18,6.7,1.87,9.47,4.07,1.01.8,2,1.54,3.2,2.01.66.26,1.35.49,1.92,1.12.25.47.07,1.2.68,1.78,1.74.06,3.47.5,4.82,1.91-.09,1.34-.77,2.28-1.61,3.15-1.24,0-2.41.02-3.53.02-.15.33-.25.55-.35.77-.57.09-.68.38-.36.85-.46.81-1.26,1.16-2.06,1.49-1.18.49-2.21,1.1-2.96,2.22-.52.78-1.42,1.24-2.29,1.65-2.68,1.26-5.46,2-8.46,1.74.22-.53.45-1.06.67-1.58,1.01-.11,2.04-.12,3.03-.34ZM108.73,10.49c-.54-.31-1.14-.53-1.89-.86-.36,1.29.29,2.49.17,3.69.67,1.81,0,3.59-.17,5.4,2.47-.55,3.23-1.58,2.9-3.97-.02-.17-.35-.3-.53-.45h0c.14-.34.29-.68.43-1.02.21-.5.02-.85-.42-1.11.21-.66.18-1.29-.48-1.66ZM111.47,15.38c1.04-.13,2.44.81,3.08-1.1-.81-1-1.84-1.09-3.07-.86-.25.74-.45,1.26-.01,1.96Z"/>
      <path class="cls-15" d="M14,89.99c.46.19.93.38,1.39.57,1.75-.96,3.37-2.12,4.73-3.59,1.98-2.12,2.7-4.61,1.32-7.26-2.48-4.75-2.89-9.87-3.09-15.06-.19-4.84.87-9.5,2.05-14.13.94-3.69.45-7.11-1.49-10.35-.12-.2-.33-.34-.5-.51-.24.43-.47.87-.71,1.3.45,1.19.96,2.36,1.32,3.57.44,1.48.26,2.99-.04,4.47-.41,2.03-.86,4.05-1.36,6.05-1.23,4.92-1.09,9.88-.57,14.88.31,2.94.95,5.78,2.02,8.53.2.52.33,1.1.67,1.51,1.31,1.6.83,3.15-.09,4.64-.71,1.16-1.8,2-2.82,2.89-.95.82-2.24,1.25-2.83,2.47Z"/>
      <path class="cls-2" d="M57.68,118.52c.13.51.36.73.7.74,2.04.09,4.09.1,6.12.25,1.33.1,2.22-.4,3.02-1.43.49-.63.99-1.22,1.27-1.97.34-.32.7-.19,1.06-.04-.14.5-.58.9-.41,1.61.63-.54.74-1.29,1.07-1.9.38-.33.8-.47,1.32-.39.46.07.94.07,1.41.1-.17,3.6-2.07,5.68-5.54,5.86-1.5.08-3.02-.08-4.52-.16-3.1-.17-6.17-.61-9.28-.64-3.1-.03-6.2-.02-9.29-.4-1.32-.85-2.64-.86-3.97-.03-1.59-.02-3.17.38-4.77.08-.39-.69-.53-.68-1.07.07l-2.53.05c-.61-.32-1.23-.85-1.75.11-.23,0-.47-.01-.7-.02-.36-.37-.9-.6-.92-1.23.7-1.49,1.9-2.59,2.91-3.84.24.12.49.23.73.35-.14.28-.28.56-.42.84-.63.15-.66.74-.88,1.2-.12.27-.41.5-.1,1.01.95-.04,2,.46,3.04-.2.3.09.61.22.9-.04.76.21,1.51.27,2.22-.18h-.03c.42.28.86.32,1.3.04.25.16.5.19.77.06.9.2,1.8.3,2.67-.09.91.42,1.17-.28,1.5-.86.14.35.27.71.44,1.14,1.25.2,1.89-1.3,3.11-1.2.15.08.3.15.46.23-.05.34-.38.73.34,1.04.97-.98,1.41-2.41,2.32-3.49.19.07.37.15.56.22-.63,1.05-.85,2.3-2.04,3.49,1.33-.18,2.24-.4,3.14-.14,1.17.1,2.35.38,3.47-.21.29.09.57.18,1,.32.52-1.01,1.6-1.57,1.92-2.72.31.14.63.29.94.43-.41.76-.72,1.59-1.49,1.96ZM68.17,119.22c0,.08.23.25.32.24.42-.09.65-.34.56-.81-.53-.16-.88-.02-.88.58Z"/>
      <path class="cls-15" d="M16.8,101.75c.81,1.07,2.09,1.12,3.21,1.18,4.27.22,8.56.29,12.84.41,2.15.06,4.29.11,6.44.16,5.25.13,10.5.22,15.75.39,3.09.1,6.17.37,9.26.46,1.43.04,2.87-.16,4.3-.27.47-.04.95-.13,1.28-.54.13-.54-.26-.68-.64-.82-.15-.05-.32-.06-.47-.05-6.08.39-12.11-.69-18.17-.7-6.15-.02-12.29-.22-18.43-.34-.16,0-.31-.07-.46-.1-1.37.23-2.69.12-3.92-.57-.09.12-.17.33-.28.35-1.36.19-2.73.41-4.03-.27-.17.33-.47.34-.78.35-1.16,0-2.3-.04-3.43-.46-1.31-.48-1.54-.35-2.44.85Z"/>
      <path class="cls-15" d="M44.86,1.83c-1.95.44-3.94.27-5.89.19-3.65-.14-7.29-.09-10.93-.07-1.26,0-2.52-.36-3.79-.06-2.31-.21-4.62-.48-6.92.06-1.1-.21-2.19-.22-3.32.29.75,3.44-.04,6.74-.87,10.03-.04.14-.18.26-.27.39-.58-.23-1.12-.78-1.82-.28-.37-.17-.74-.35-1.11-.52,0-.29-.04-.56-.34-.71v.03c.11-.29.03-.51-.24-.66v.03c.13-.3,0-.51-.24-.67v.03c.09-.28-.04-.49-.24-.67l.02.04c.04-.27-.04-.5-.25-.67v.02c.01-.47-.2-.76-.67-.85h0c.17-.3.05-.5-.24-.63h0c.11-.28.21-.55.32-.83.09-.17.18-.33.27-.5.28.14.56.29.84.43h0c-.02.66.29.53.65.27.37.17.74.34,1.11.51.38.44.15,1.19.77,1.51.04.23-.23.57.2.65.03,0,.15-.35.2-.55.02-.06-.05-.14-.08-.21.24-.69.31-1.37,0-2.06-.23-.51-.3-1.05-.25-1.61.28.09.53.32,1.01.12.27-.72-.01-1.52-.2-2.28-.1-.4-.6-.38-.98-.44.22-.58.18-1.07-.47-1.35.76-.51,1.65-.57,2.51-.61C16.42.1,19.2-.01,21.97,0c5.08.02,10.15.11,15.23.21,2.69.05,5.4-.15,8.08.32-.14.43-.29.87-.43,1.3ZM9.68,7.98c-.06.23.07.44.3.5.07.02.26-.15.28-.26.06-.23-.07-.41-.31-.5-.09.08-.24.15-.27.26Z"/>
      <path class="cls-2" d="M11.61,2.18c.22-.58.18-1.07-.47-1.35C6.12,1.9,3.08,5.22,1.43,9.81c-1.99,5.56-1.8,11.22-.09,16.86.7,2.33,2.35,3.73,4.32,4.84,1.86,1.05,3.84,1.9,5.73,2.92,2.48,1.33,4.27,3.19,5.57,5.62.18.34.5.61.75.92.24-.43.47-.87.71-1.3-.21-.66-.38-1.35-1.01-1.78-.46-.27-1.1-.41-.84-1.19-1.62-2.22-4.08-3.39-6.3-4.88.34-.77.67-1.41.92-2.07.17-.47.07-.94-.31-1.31-.34.4-.75.35-1.17.15-.19.43-.39.86-.58,1.3-.17.42-.22.93-.77,1.08-.91.07-1.27-.58-1.61-1.25-.25.09-.45.51-.77.12-1.81-.93-3.09-2.26-3.35-4.38-.54-1.09-.84-2.22-.46-3.44.02-.5-.45-1.01.07-1.49h0c-.43-.08-.38-.42-.4-.72-.19-.4.03-.7.23-1.01.02-.31-.01-.63.28-.86v.02c-.82-.21-.68-.77-.46-1.35.1-.86-.4-1.81.38-2.57.06-.46.12-.92.18-1.38-.23-.46.06-.76.33-1.06.12-.41.23-.82.35-1.22.22-.45.43-.89.65-1.34.12-.25.24-.49.36-.74.33-1.25,1.35-1.96,2.23-2.78.15-.37.37-.67.83-.67.13-.19.29-.32.54-.28.17-.27.33-.54.5-.8.49-.53,1.15-.7,1.82-.82.39-.17.76-.14,1.1.13.15-.29.31-.58.46-.87Z"/>
      <path class="cls-5" d="M18.53,36.7c.63-.11,1.28-.14,1.88-.33,2.85-.92,4.88.48,6.33,2.59,2.13,3.1,5.04,5.02,8.41,6.38,2.46.99,4.66,2.36,6.75,3.96.92.71,1.34,1.74,2,2.61.34-.67.59-1.4,1.25-1.88.29-.21.17-.54-.01-.81-.49.36-.91.15-1.27-.21-2.34-2.37-5.2-3.93-8.22-5.23-3.2-1.39-6.02-3.25-8.05-6.16-2.28-3.27-6.1-4.15-9.47-2.36-.07.54.04,1.04.4,1.46Z"/>
      <path class="cls-12" d="M46.1,47.02c.88-.09.87-.92,1.19-1.46.24-.41.34-.83-.06-1.22.09-1.49.08-2.99.48-4.44.35-.53.44-1.44,1.45-.96.33.73-.44,1.51.1,2.23-.4.75-.38,1.52-.17,2.3.7.71,1.38.76,2.17-.22-.34-1.34.68-2.69.48-4.21.3.05.53-.03.69-.3.05-.24.1-.49-.23-.58v.03c.42-.47.35-1.1.55-1.65.56-.51,1.11-.24,1.66,0-.04,1.93-.75,3.73-1.06,5.61-.17,1.03-.36,1.99-.13,3.04.29,1.28.13,2.53-.78,3.58-1.13-.29-1.56.42-1.89,1.29-1.09.49-2.17,1.02-3.39.43-.01-.28-.17-.49-.44-.46-.37.03-.58.24-.42.66-.33.92-.29,1.88-.25,2.83-.4.08-.8.16-1.2.24-.32-.62-.64-1.24-.96-1.86.34-.67.59-1.4,1.25-1.88.29-.21.17-.54-.01-.81-.04-.89.55-1.5.97-2.19ZM49.15,44.46c-.97.5-.61,1.5-.82,2.27-.21.78-.8,1.32-1.32,1.96,1.62.4,2.28.2,2.31-.99.03-1.01,1.22-1.54.8-2.59.22.05.43.11.65.16-.01-.11,0-.28-.05-.31-.23-.13-.43-.01-.59.17-.32-.23-.65-.45-.98-.69Z"/>
      <path class="cls-13" d="M25.27,81.88c-.21-.06-.42-.12-.67-.19.05.96.16,1.85.12,2.74-.07,1.38.08,2.85-1.2,3.89-.26.21.04.58.16.87-.5.53-1.51-.03-1.79.68-.35.89-1.62.95-1.65,2.08-.01.34-.38.67-.58,1.01.63.38,1.2.32,1.72-.2.34-.91.97-.73,1.51-.3,1.23.99,2.4,2.04,3.6,3.07.79-1.17,1.78-.66,2.75-.33.13-.77-.43-1.1-.9-1.55-1.07-1.03-1.76-2.23-1.7-3.8.02-.72.46-.95.95-1.22.02-.53-.03-1.08.07-1.59.1-.52.36-1,.49-1.34-.03-.85-.67-1.2-.82-1.81-.4-.23-.93-.36-.98-.91-.07-.69-.59-.86-1.07-1.1Z"/>
      <path class="cls-5" d="M52.75,36.54c.56-.51,1.11-.24,1.66,0,.15-.53.31-1.05.47-1.61,1.63-.13,3.21-.27,4.8-.37,1.45-.09,2.82-.45,4.19-.94,2.28-.82,3.44-2.51,3.86-4.77.16-.85.09-1.75.12-2.62-.41-.15-.81-.45-1.27-.14.18,1.08-.35,2.01-.64,2.99-.58,1.94-1.81,3.12-3.9,3.24-1.93.54-3.92.6-5.91.74-1.97.14-3.98.21-5.62,1.58.34.29.77.51.75,1.06.61.08,1.12.33,1.5.83Z"/>
      <path class="cls-10" d="M24.14,57.69c-.37-.14-.73-.27-1.1-.41-.71.98-.38,1.98-.21,2.96.05.12.45.23.02.38,0-.13-.02-.25-.03-.38-.43-.09-.81-.51-1.33-.18-.22.76.2,1.34.58,1.92.38.59.8,1.16.69,1.93v-.02c.48.19.8.47.59,1.06,1.59,1.52,2.84,3.3,3.94,5.2.94-.58,1.22-1.46.92-2.46-.16-.53-.48-.99-.15-1.56.35-.62.25-1.2-.18-1.77-.32-.42-.23-.91-.02-1.36-.19-.17-.25-.37-.19-.61l.02.02c-.69-.25-1.03-.73-.93-1.48h0c-.67-.11-.81-.87-1.38-1.11-.43-.19-.9-.34-.9-.95v.03c-.36-.32-.28-.66,0-.99-.1-.1-.21-.17-.34-.21Z"/>
      <path class="cls-7" d="M24,79.91c-.43-1.1-.63-2.28-1.41-3.23-.1-.12.19-.55.34-.92-.17-.59-.94-.98-.93-1.76.02-1.87-.24-3.7-.66-5.52-.06-.27.16-.6.26-.91.45.21.91.41,1.36.62h0c.02.34.04.68.06,1.01-.09.8.61.84,1.08,1.1-.05.5.31.67.67.83-.04.58.21,1,.67,1.36.35.27.64.64.95.96.07.3.05.66.22.89.68.94.61,1.91.22,2.91-.88-.88-1.75-1.76-2.65-2.67-.49.51-.34,1.07-.41,1.62.81,1.24,1.85,2.3,3.07,3.18.25,1.23.08,2.55.78,3.69.17.28-.09.57-.29.81-.4-.23-.93-.36-.98-.91-.07-.69-.59-.86-1.07-1.1-.12-.86-.99-1.24-1.27-1.97ZM23.28,73.81l-.04.12.15-.02-.11-.1Z"/>
      <path class="cls-3" d="M42.71,59.11c.03-.7.13-1.42-.49-2.12-.75-.04-1.59-.19-2.35-.62-1.43-.66-2.86-1.32-4.3-1.98-.37-.17-.73-.3-1.12-.08-.41-.21-.81-.43-1.22-.64.13-.28.25-.56.35-.78.79-.34,1.27.23,1.85.38.51.14.93.62,1.76.33-1.64-.77-3.12-1.46-4.61-2.16h0c.24-.54.48-1.07.72-1.6,2.92.33,5.43,1.65,7.87,3.2,2.3,1.46,3.02,3.53,2.72,6.1-.4-.01-.79-.03-1.19-.04ZM42.56,56.43c-1.15-1.37-2.06-2.26-3.73-2.35.81,1.47,2.21,1.57,3.73,2.35Z"/>
      <path class="cls-12" d="M41.66,73.42c.57,1.07-.41,1.52-.95,2.32.13.67,1.05,1.35.43,2.25.21.31.54.6,0,1.04-1.38-.71-2.79-1.44-4.19-2.17-.05.31-.03.63.25.82,1.21.78,2.43,1.54,3.65,2.3.48.18,1.03.29,1.05.97.37.14.74.27,1.11.41-.45-3.16-.35-6.32.06-9.48.15-1.15.83-2.25.3-3.46-.44-.19-.87-.38-1.31-.57-.99-.47-1.98-.96-2.98-1.41-1.92-.87-3.64-2.2-5.8-2.5l-.33.79c1.1.56,2.2,1.12,3.3,1.67.36.13.73.25,1.09.39.53.21.62.63.49,1.14.27.15.54.29.8.44.16-.26.34-.62.67-.52.54.16.3.59.2.95h0c.73.2,1.21.7,1.6,1.31.26.4.08.74-.19,1.05-.15.89.83,1.4.75,2.26Z"/>
      <path class="cls-12" d="M43.9,59.15c-.4-.01-.79-.03-1.19-.04-.78-.52-1.56-1.05-2.34-1.57-.15-.11-.29-.22-.44-.34-.12-.03-.22-.1-.3-.21-1.93-.47-3.63-1.51-5.44-2.26-.89-.37-1.81-.51-2.77-.52.1.68.72.75,1.19.97.85.39,1.73.7,2.46,1.33-.73.06-1.32-.44-2.04-.35-.47.06-.94,0-1.2.51,1.12.59,2.25,1.18,3.37,1.77,2.67,1.01,5.2,2.31,7.75,3.57.35.12.7.24,1.04.36.37-1.09.07-2.15-.1-3.22Z"/>
      <path class="cls-2" d="M12.88,115.24c-.44-.2-.88-.39-1.32-.59.32.97.52,2,.98,2.9.93,1.84,2.68,2.66,4.58,3.05,1.15.24,2.37.25,3.55.25,2.28,0,4.56-.12,6.82-.49.16-.45.32-.9.48-1.34-.5-.04-1.02.04-1.48-.24-.71-.37-1.51-.05-2.36-.28.25-.85-.4-1.02-1-1.23-.5.77-.85,1.86-1.91,1.84-1.44-.02-2.95.28-4.32-.45-.32-.13-.64-.27-.96-.4-.71.35-1.23.01-1.63-.54-.44-.61-1.19-1.16-.56-2.07h0c-.29-.12-.58-.26-.87-.39Z"/>
      <path class="cls-7" d="M13.59,99.8c.09-.76.41-1.47.26-2.3-.15-.84-.06-1.72-.07-2.59.56.02,1.19.26,1.3-.7.03-.29.48-.54.74-.8h.02c.16.09.32.19.48.29-.08.96,1.04,1.48.93,2.45-.21-.07-.43-.14-.72-.23-.22.93.54,1.17,1,1.59.25.67.53,1.3,1.41,1.42.04-.35.07-.65.1-.94.63.13,1.13.49,1.57.92.5.49,1.08.86,1.73,1.12l-.02-.03c.08.68.7.77,1.14,1.06l-.02-.04c-.17.33-.47.34-.78.35-1.16,0-2.3-.04-3.43-.46-1.31-.48-1.54-.35-2.44.85-1.3-.28-2.04-1.46-3.21-1.95ZM21.05,100.41c-.48-.74-.92-.81-1.47-.92.3.6.74.68,1.47.92Z"/>
      <path class="cls-9" d="M27.58,88.63c-.49.27-.92.5-.95,1.22-.05,1.57.63,2.78,1.7,3.8.46.45,1.03.78.9,1.55v.02c.55.16,1.1.29,1.12,1.02h0c.49.22,1.1.31,1.13,1.03h0c.39.14.76.31.69.83v-.02c.49.22,1.07.35,1.12,1.05v-.03q.61.39.2.68c.81,1.08.96,1.05,1.74-.32-1.09-1.2-2.42-2.15-3.38-3.49-.29-.4-.52-.76-.34-1.27-1.35-.74-2.06-2.05-3.05-3.21,1.2-.24,1.45.92,2.21,1.21.47.2.97.39.78,1.08.07.29.13.58.2.87.3.26.6.52.88.79.37.36.76.58,1.25.21.02-.82-.96-.71-1.21-1.29.27-.14.54-.27,1.02-.51-1.98-1.88-3.69-3.88-6-5.23Z"/>
      <path class="cls-9" d="M29.23,95.2c-.97-.33-1.96-.85-2.75.33l-.06.02c1.21,1.56,3.18,2.36,4.19,4.17-1.09.18-1.95-.06-2.73-.85-.89-.89-1.92-1.64-2.89-2.45h0c-.27.24-.55.48-.82.72.18.22.2.47.12.74.42.08.81.18.84.71,1.22.37,1.96,1.31,2.66,2.28v.07c1.22.69,2.54.8,3.91.57.16-.86,1.04-1.2,1.38-1.93.07-.16.13-.31.2-.47v.03c-.48-.23-1.1-.31-1.12-1.05v.02c-.35-.17-.8-.28-.68-.85h0c-.51-.19-1.14-.26-1.13-1.03h0c-.47-.22-1.14-.23-1.11-1.01v-.02Z"/>
      <path class="cls-11" d="M45.29.53c-.14.43-.29.87-.43,1.3,1.86.63,3.79.27,5.68.31,2.61.06,5.23.3,7.83-.05.21-.45.42-.91.63-1.36-4.57-.4-9.14-.51-13.71-.21Z"/>
      <path class="cls-13" d="M24.78,71.12c-.04.58.21,1,.67,1.36.35.27.64.64.95.96.42-.17.84-.34,1.26-.51.07-.15.13-.29.2-.44.52-.95.17-1.7-.56-2.35-1.1-1.89-2.35-3.67-3.94-5.2-.19-.36-.69-.54-.6-1.06v.02c-.29-.13-.58-.26-.88-.4l.03-.02c-.14.3-.27.6-.41.9v-.03c.25.1.51.21.57.54-.28.18-.53.03-.79-.08h.03c-.1.64.36,1.15.44,1.75.75.27,1.24.74,1.2,1.6h0c.75.32,1.38.73,1.34,1.68h0c.77.26,1.35.73,1.62,1.53-.45.19-.75-.16-1.11-.28l-.03.02Z"/>
      <path class="cls-12" d="M66.57,26.1c.46-.31.86-.01,1.27.14.63-.43,1.39-.28,2.07-.47.69-.19,1.4-.31,1.86-.94-.4-.57.08-1.01.21-1.5-1.22.25-2.43.07-3.65,0-.36.02-.72.03-1.08.05-.05.13-.1.26-.15.39.01.14.06.37.02.39-1.08.47-1.75.21-2.47-.94-.1-.56-.66-1.03-.29-1.67-.59.05-.8.56-1.13.92-.18.99-.17,1.96.43,2.83,1,.16,1.84.86,2.9.8Z"/>
      <path class="cls-12" d="M40.37,83.31c-.21.06-.55.23-.59.17-.59-.74-1.5-.61-2.26-.87-1.04,0-2.09.03-3.06-.45-.72-.27-1.43-.53-2.15-.8h.02c-.07.14-.15.29-.22.44-.32.46-.11.96-.15,1.45.46.16.9.44,1.43.28.98-.37,1.1-.33,1.85.57.31.1.62.2.93.29,1.02-.55,1.86-.45,2.52.3.77.22,1.54.43,2.31.65.43-.46.85-.26,1.27.02.71-.12.94-.6.94-1.25-.42-.16-.84-.33-1.26-.49-.61.36-1.09-.02-1.58-.3Z"/>
      <path class="cls-14" d="M21.38,92.76c-.52.52-1.1.58-1.72.2-.08.17-.16.35-.23.52.07.09.23.23.21.27-.14.24-.27.07-.4-.03-.71-.07-.72.4-.69.9,2.01,1.82,3.72,4,6.18,5.46.07-.44.12-.74.16-1.04v.02c-.62-.31-1.55-.28-1.52-1.34-.6-.99-1.76-1.55-2.14-2.72.69-.24,1.2.68,2,.29-.44-1.06-1.21-1.75-1.85-2.53Z"/>
      <path class="cls-20" d="M25.38,59.82c.57.24.71,1,1.38,1.11.46-.76.31-1.5,0-2.27-.73-1.76-1.57-3.45-2.7-5.02-.54-.04-1.07-.08-1.6-.12.31,1.52,1.14,2.79,1.68,4.17.13.05.24.12.34.21.18.33.26.66.02.99v-.03c.49.12.72.5.88.95Z"/>
      <path class="cls-7" d="M24.88,99.04c-.05.3-.09.6-.16,1.04-2.46-1.46-4.17-3.64-6.18-5.46-.5-.19-.99-.37-1.49-.56.19.24.37.48.57.71,1.55,1.78,3.64,3.07,4.75,5.26l-.02-.03c.51.21,1.15.28,1.14,1.06l-.02-.04c1.3.68,2.67.47,4.03.27.11-.02.18-.23.28-.35v-.07c-1.18-.26-1.78-1.44-2.88-1.83Z"/>
      <path class="cls-17" d="M72.6,109.93c.19-.78-.67-1.16-.72-1.85-.24-.1-.46-.1-.62.13-.85,1.91-1.7,3.82-2.54,5.73.98.49,1.55-.21,2.06-.82.3.2.24.55.57.54.86-1.09,1.02-2.43,1.24-3.73Z"/>
      <path class="cls-13" d="M47.06,99.03c.74.24,1.55.05,2.28.41.33.16.57-.11.76-.37-.5-.59-1.01-1.18-1.51-1.78.23-.29.47-.6.7-.92-.97-.86-2.09-.17-3.12-.22-.69-.04-1.43.24-2.19.04-.34-.09-.52.27-.72.5.44.23.88.46,1.32.68.34-.37.72-.16,1.1-.07.16-.18.37-.26.58-.13.32.2.23.49.08.76.29.34.72.58.73,1.1Z"/>
      <path class="cls-13" d="M33.77,95.66c-.49.36-.88.15-1.25-.21-.28-.27-.59-.53-.88-.79l-.14.06c-.18.5.05.86.34,1.27.96,1.33,2.29,2.28,3.38,3.49.2-.44.49-.71,1.04-.6.19.04.41-.12.62-.18-.38-.27-.91-.42-.85-1.04-.12-.67-.92-1.08-.73-1.87-.06-.47-.32-.68-.75-.42-.25.16-.46.37-.79.31Z"/>
      <path class="cls-14" d="M31.43,54.22c.95.01,1.88.16,2.77.52.09-.14.18-.29.27-.43-.41-.21-.81-.43-1.22-.64-1.26-.61-1.29-.72-.64-2.22h0c-.56-.48-.66-1.03-.32-1.68-.34-.25-.69-.35-1.05-.05-.13.24-.15.6-.53.58-.06,0-.11-.25-.16-.39-.77.16-.8.74-.75,1.36.49.3.43.71.23,1.15.37.5.12,1.29.77,1.66.22.05.43.09.65.14Z"/>
      <path class="cls-4" d="M49.29,96.38c-.24.31-.48.62-.7.92.51.6,1.01,1.19,1.51,1.78q1.31.65,3.19-.05c-.68-1.05-1.12-2.19-2.64-2.26-.46-.02-.91-.25-1.36-.38Z"/>
      <path class="cls-4" d="M26.83,77.25c-.88-.88-1.75-1.76-2.65-2.67-.49.51-.34,1.07-.41,1.62.81,1.24,1.85,2.3,3.07,3.18.36-.71.56-1.43,0-2.14Z"/>
      <path class="cls-19" d="M22.36,100.03c-1.1-2.19-3.19-3.48-4.75-5.26-.2-.23-.38-.47-.57-.71l-.71-.36c-.08.96,1.04,1.48.93,2.45l-.02-.04c.36.19.78.33.7.87l-.02-.04c.48.24,1.15.28,1.13,1.05v-.02c.62.13,1.12.49,1.57.92.5.49,1.08.86,1.73,1.12Z"/>
      <path class="cls-16" d="M42.61,99.55c.35.16.69.34,1.05.46.5.16.68-.13.72-.58h0c-.32-.19-.55-.43-.54-.83l-.17-.02c-1.11-.38-1.95-1.09-2.55-2.08q-1.17-.71-1.92.01l-.02-.02c.68.03,1,.45,1.13,1.06h0c1.04.34,1.82.99,2.3,2Z"/>
      <path class="cls-6" d="M39.2,96.52c-.59-.28-1.18-.56-1.78-.83-.06.91.61,1.43,1.12,2,.52.58,1.2,1.01,1.54,1.76.28.15.55.33.83.46.57.26.9.06.95-.57-.71-.43-1.75-.57-1.56-1.79h0c-.55-.15-1.19-.23-1.13-1.05,0,0,.02.02.02.02Z"/>
      <path class="cls-14" d="M35.3,95.77c-.19.79.61,1.2.73,1.87.29.4,1.15.31.95,1.12l.02.09c.41.02.73.17.89.58q1.11.59,1.55-.15c-1.36-.76-2.38-1.86-3.29-3.09-.28-.14-.57-.28-.85-.42Z"/>
      <path class="cls-9" d="M36.16,96.19c.91,1.23,1.93,2.34,3.29,3.09.21.05.43.11.64.16-.34-.74-1.02-1.18-1.54-1.76-.51-.57-1.18-1.1-1.12-2-.13-.62-.45-.7-.85-.25-.19.21-.28.5-.41.76Z"/>
      <path class="cls-20" d="M43.67,98.58l.17.02c.31.19.5.46.54.82h0c.62.2,1.26.47,1.66-.36-.22-.19-.34-.4-.1-.67-.16-.13-.33-.25-.49-.38-.46,0-.86-.08-.87-.67v.02c-.43-.23-.87-.46-1.31-.68-.33-.07-.7-.33-.93.17.63.44,1.08,1,1.35,1.72Z"/>
      <path class="cls-15" d="M18.53,36.7c-.37-.42-.47-.92-.4-1.46-.82.17-1.09.92-1.56,1.46-.26.78.38.92.84,1.19-.11-.85.91-.64,1.12-1.19Z"/>
      <path class="cls-11" d="M44.63,120.14c-1.32-.85-2.64-.86-3.97-.03,1.32.35,2.64.3,3.97.03Z"/>
      <path class="cls-2" d="M11.57,114.65c.46-1.22.86-2.43-.49-3.39-.2,1.18.11,2.29.49,3.39Z"/>
      <path class="cls-12" d="M10.6,106.48c.38.06.76.12,1.14.18q.24-1.32-1.21-1.43c-.21.43-.2.85.07,1.25Z"/>
      <path class="cls-11" d="M27.98,119.01c-.16.45-.32.9-.48,1.34.78.1,1.55.35,2.34.06-.36-.37-.9-.6-.92-1.23-.31-.06-.62-.12-.94-.18Z"/>
      <path class="cls-7" d="M40.31,97.54c-.19,1.21.85,1.36,1.56,1.79l.74.22c-.47-1-1.26-1.65-2.3-2.01Z"/>
      <path class="cls-12" d="M45.52,57.79c.56.28.97.13,1.22-.44.09-.75-.06-1.36-.97-1.65-.6.66-.6,1.35-.25,2.1Z"/>
      <path class="cls-15" d="M38.68,84.69c-.66-.75-1.5-.86-2.52-.3.82.22,1.65.44,2.52.3Z"/>
      <path class="cls-13" d="M43.67,98.58c-.26-.72-.72-1.29-1.35-1.72-.4-.12-.8-.24-1.2-.36.6,1,1.44,1.7,2.55,2.08Z"/>
      <path class="cls-15" d="M35.24,84.1c-.75-.9-.87-.93-1.85-.57.56.36,1.11.78,1.85.57Z"/>
      <path class="cls-13" d="M22.96,68.18c.04-.86-.46-1.33-1.2-1.6-.28-.08-.55-.27-.86-.12.05.49.8.52.7,1.1.45.21.91.41,1.36.62Z"/>
      <path class="cls-12" d="M44.86,53.76c-.04.54,0,1.06.33,1.53.28.39.62.35,1.01.17.35-.67.22-1.31-.14-1.93-.4.08-.8.16-1.2.24Z"/>
      <path class="cls-5" d="M52.44,48.78c-1.13-.29-1.56.42-1.89,1.29.83-.14,1.52-.49,1.89-1.29Z"/>
      <path class="cls-19" d="M32.27,49.77c-.34.64-.24,1.2.32,1.67.24-.53.48-1.06.72-1.6-.33-.26-.69-.13-1.04-.08Z"/>
      <path class="cls-11" d="M32.29,120.31c-.61-.32-1.23-.85-1.75.11.6.22,1.19.21,1.75-.11Z"/>
      <path class="cls-20" d="M26.75,60.92c-.09.75.25,1.22.93,1.48.28-.87-.21-1.24-.93-1.48Z"/>
      <path class="cls-17" d="M110.77,17.65c-.57.09-.68.38-.36.85.44-.15.52-.45.36-.85Z"/>
      <path class="cls-15" d="M42.26,85.36c-.42-.28-.84-.48-1.27-.02.42.32.84.39,1.27.02Z"/>
      <path class="cls-11" d="M35.89,120.19c-.39-.69-.53-.68-1.07.07.37.25.73.18,1.07-.07Z"/>
      <path class="cls-5" d="M47.15,50.5c-.01-.28-.17-.49-.44-.46-.37.03-.58.24-.42.66.29-.06.57-.13.86-.19Z"/>
      <path class="cls-9" d="M37.89,99.43c-.16-.41-.48-.56-.89-.58-.08.3-.16.64.13.83.31.21.56,0,.76-.25Z"/>
      <path class="cls-9" d="M36.98,98.76c.2-.81-.67-.72-.95-1.12-.06.63.47.77.85,1.04l.11.08Z"/>
      <path class="cls-13" d="M21.5,64.4c-.22.02-.48-.33-.65.04-.02.05.3.25.46.38h-.03c.07-.14.14-.29.21-.45v.03Z"/>
      <path class="cls-13" d="M21.88,63.52c-.03-.28-.06-.57-.48-.52-.03.38.32.36.51.5l-.03.02Z"/>
      <path class="cls-7" d="M15.85,93.41c.04-.23-.03-.43-.25-.52-.06-.02-.17.09-.26.14.16.13.32.26.49.39h.02Z"/>
      <path class="cls-20" d="M33.26,99.11c-.07.16-.13.31-.2.47l.22.09.2.13q.41-.29-.21-.68Z"/>
      <path class="cls-13" d="M19.26,92.01s-.09-.12-.14-.13c-.21-.04-.27.04-.15.2.03.04.13.06.19.05.04,0,.07-.08.1-.12Z"/>
      <path class="cls-17" d="M30.01,52.43c.2-.44.26-.85-.23-1.15-.07.32-.14.63-.21.95.15.07.29.14.44.2Z"/>
      <path class="cls-19" d="M30.53,49.92c.05.13.1.38.16.39.38.02.4-.34.53-.58-.23.07-.46.13-.69.2Z"/>
      <path class="cls-13" d="M45.93,98.4c-.24.26-.12.47.1.67.18-.06.36-.11.55-.17-.22-.16-.44-.33-.66-.49h0Z"/>
      <path class="cls-20" d="M45.92,98.41c.22.16.44.33.66.49.16.04.32.09.48.14,0-.53-.44-.77-.73-1.1-.14.16-.27.32-.41.48Z"/>
      <path class="cls-20" d="M27.67,62.38c-.07.24,0,.45.19.61.15-.27.05-.46-.19-.61Z"/>
      <path class="cls-14" d="M18.3,93.34c.06-.02.12-.05.19-.07-.04-.05-.06-.14-.11-.16-.05-.02-.12.04-.18.06.04.05.07.11.11.16Z"/>
      <path class="cls-13" d="M19.23,93.72c.13.11.27.27.4.03.02-.04-.14-.18-.21-.27-.05.09-.12.17-.19.24Z"/>
      <path class="cls-7" d="M27.86,72.5c-.07.15-.13.29-.2.44.47.04.5-.12.2-.44Z"/>
      <path class="cls-3" d="M91.87,23.93c.27.15.55.27.86.11.19-.7.29-1.47,1.22-1.61.44-.13.86.06,1.35-.09,1.17-.35,2.39-.57,3.61-.67.96-.08,1.81-.34,2.6-.84.18-.26.34-.57.7-.59,1.42-.06,1.79-1.14,2.13-2.21.17-.52-.13-1.12.25-1.61-.1-.54-.1-1.11-.31-1.6-.22-.53-.56-1.14-1.35-.67.7.47.36,1.09.24,1.68.77.75.47,1.55.09,2.35-.37.77-1,.89-1.76.71-.58.87-1.41,1.12-2.4.97-.79.16-1.58.29-2.35-.06-2.11,1-4.31,1.27-6.61.88-.14-.08-.29-.17-.43-.25l.03-.08c.09.74-.33.75-.85.59-.3-.11-.61-.22-.91-.33-.48.18-.92.69-1.49.24-.05-.25-.11-.48-.16-.71-2.61,1.62-3.29,1.53-5.43-.67-.02-.29-.08-.61-.07-.93.1-2.58.74-3.33,3.24-3.87.79-.17,1.57-.14,2.36-.15,2.85-.05,5.68.43,8.54.28.92-.05,1.9-.33,2.82.11.37-.31.75-.11,1.12,0,.51-.41,1.04-.56,1.64-.17.65-.25,1.29-.35,1.89.11.19-.24.37-.47.56-.71-.58-.86-1.5-.71-2.33-.74-1.01-.04-2.03.14-3.03-.1-.14.07-.28.2-.42.19-2.46-.05-4.93-.13-7.39-.17-.41,0-.77-.07-1.12-.26-.89.49-1.73.24-2.57-.14h.02c-.44.3-.87.24-1.3-.05l-.08-.07c-1.2.83-2.66.89-3.99,1.34-.57,1.34-1.15,2.67-1.72,4.01.74.69.21,1.43.09,2.16.16.09.32.18.48.27.62.28.94.81,1.12,1.43,1.47.63,3.03,1,4.58.76,1.44-.23,2.81-.1,4.21.06.35.08,1-.62.99.38.27.16.54.31.8.47h-.04c.14-.43.22-.91.78-1.05.28.51-.24.87-.23,1.33Z"/>
      <path class="cls-4" d="M71.57,13.71c-.02.22-.03.45-.05.66.75.21,1.22-.24,1.71-.5q.43-1.67.11-3.48c-2.87-.08-5.76-.08-8.78.21-.26,1.29-.57,2.49-.05,3.88,1.68.13,3.39.75,4.77-.88.07.26.14.49.2.72.89.53,1.25-.96,2.1-.57.09-.24.08-.58.48-.57.08.43-.18.5-.5.52Z"/>
      <path class="cls-20" d="M64.26,5.3c-.15,1.29.26,2.2-.12,3.28,3.12.52,6.04.13,8.85.36.62-.43.66-.99.62-1.55-.07-1-.4-1.39-1.42-1.64-1.16-.28-2.34-.42-3.54-.41-1.41.02-2.82-.03-4.39-.05Z"/>
      <path class="cls-8" d="M84.95,3.9c-.58-.14-1.16-.27-1.75-.41-1.01.31-2.02.05-3.03.04-.68,0-1.44-.24-2.03.37-.65,2.79-.86,7.26-.47,10.04.32-.01.64-.11.78-.41.41-.9,1.21-1.39,1.93-1.97-.71-1.54-.31-3.14-.23-4.71.05-1.05.68-1.75,1.78-1.95.94-.17,1.87-.35,2.81-.53.08-.15.15-.31.23-.46Z"/>
      <path class="cls-19" d="M70.64,16.97c-.14-.08-.29-.14-.42-.23-.96-.63-2.02-.23-3.03-.31-.93-.07-1.65-1.08-2.84-.5-.44.99.04,2.08-.06,3.08,1.36.94,2.81.4,4.16.61.15-.36.32-.68.8-.62h-.01c.16-.38.32-.75.85-.68h-.02c.19-.44.39-.89.58-1.35Z"/>
      <path class="cls-14" d="M89.56,22.8c-1.4-.16-2.77-.29-4.21-.06-1.55.25-3.11-.12-4.58-.76-.33.2-.63.5-.99.58-.62.14-.91.54-1.13,1.07.41.26.86.43,1.35.43,3,0,5.99.46,8.99.11.19-.46.38-.92.57-1.38Z"/>
      <path class="cls-4" d="M101.52,20.82c-.8.5-1.64.76-2.6.84-1.22.1-2.44.32-3.61.67-.49.15-.92-.04-1.35.09-.08.29-.15.58-.23.87.34.05.68.11.68.57l.91.15c1.01-.11,2.04-.12,3.03-.34,1.21-.27,2.46-.54,3.26-1.65.05-.41.32-.83-.08-1.2Z"/>
      <path class="cls-13" d="M80.37,11.56c-.71.59-1.52,1.07-1.93,1.97-.14.3-.45.4-.78.41-.54.84-.02,1.76-.18,2.63.64-.04.88-.51,1.16-.99.4-.71.56-1.58,1.1-2.1.66-.04.76.44,1.06.65,1.33-.45,2.79-.51,3.99-1.34-.66-.26-1.31-.45-2.05-.38-.89.07-1.7-.21-2.37-.84Z"/>
      <path class="cls-14" d="M80.8,14.12c-.3-.21-.4-.69-1.06-.65-.53.51-.69,1.38-1.1,2.1-.27.49-.52.96-1.16.99.07.9-.27,1.87.45,2.66.8.07.91-.57,1.14-1.1.57-1.34,1.15-2.67,1.72-4.01Z"/>
      <path class="cls-3" d="M68.34,23.32c1.22.08,2.43.25,3.65,0,.36-.82,1.63-1.16,1.22-2.46-1.14-.35-1.55.89-2.41,1.12-.1-.18-.21-.38-.36-.66-1.07.27-1.7,1-2.11,1.99Z"/>
      <path class="cls-3" d="M64.38,21.54c-.37.64.19,1.11.29,1.67.75.5,1.66.23,2.45.55.05-.13.1-.26.15-.39.35-.8-.22-1.26-.72-1.87-.67.02-1.42.03-2.16.05Z"/>
      <path class="cls-7" d="M75.1,10.79c-.4,1.74-.08,3.34.05,4.87.48.24.84.07.85-.23.06-1.33.06-2.67.04-4.01,0-.33-.28-.54-.94-.63Z"/>
      <path class="cls-17" d="M70.47,4.18c-1.02-2.44-2.91-1.08-4.22-1.6-.29.32-.54.53-.33,1,1.43.04,2.9.21,4.55.59Z"/>
      <path class="cls-7" d="M78.65,23.63c.21-.53.51-.92,1.13-1.07.36-.08.66-.38.99-.58-.18-.63-.5-1.15-1.12-1.43-.51.63-.52,1.62-1.44,1.94-.11.19-.25.37-.34.57-.1.25-.31.54,0,.76.3.21.55,0,.78-.19Z"/>
      <path class="cls-17" d="M73.27,17.01c.05-.14.11-.28.16-.42.1-.28.24-.62-.06-.8-.47-.29-.63.15-.82.46-.18.19-.39.31-.66.25l.02-.02c-.28.55-.56,1.09-.84,1.64.41.25.82.5,1.23.75l.96-1.86Z"/>
      <path class="cls-9" d="M79.07,18.13c-.23.52-.34,1.17-1.14,1.1-.27.83-.86,1.66.03,2.48.37-.5.46-1.23,1.2-1.42.12-.73.65-1.47-.09-2.16Z"/>
      <path class="cls-19" d="M79.16,20.29c-.74.19-.83.92-1.2,1.42-.1.32-.01.58.24.79.92-.32.93-1.31,1.44-1.94-.16-.09-.32-.18-.48-.27Z"/>
      <path class="cls-19" d="M73.27,17.01l-.96,1.86c.17.64.59.75.96.27.53-.66.56-1.42,0-2.13Z"/>
      <path class="cls-14" d="M71.08,18.12c.28-.55.56-1.09.84-1.64-.55-.17-.89.22-1.28.49-.19.45-.39.91-.58,1.36.39.18.67-.19,1.02-.22Z"/>
      <path class="cls-7" d="M89.56,22.8c-.19.46-.38.92-.57,1.38.36.17.69-.02,1.02-.12.09-.18.18-.35.26-.53.07-.13.17-.25.28-.36,0-1-.64-.3-.99-.38Z"/>
      <path class="cls-17" d="M64.75,2.41c-.63-.28-.83.12-.88.62-.01.14.3.46.4.43.54-.14.67-.54.49-1.05Z"/>
      <path class="cls-3" d="M94.41,23.87c0-.46-.34-.52-.68-.57-.15.23-.3.46-.45.68.4.18.79.29,1.13-.11Z"/>
      <path class="cls-13" d="M93.27,23.98c.15-.23.3-.46.45-.68.08-.29.15-.58.23-.87-.93.14-1.03.91-1.22,1.61.18-.02.36-.04.54-.06Z"/>
      <path class="cls-13" d="M91.87,23.93c0-.46.51-.82.23-1.33-.56.14-.64.63-.78,1.07.18.09.36.17.55.26Z"/>
      <path class="cls-14" d="M69.24,19c-.48-.06-.65.26-.8.62.48.07.74-.15.8-.62Z"/>
      <path class="cls-14" d="M70.08,18.32c-.53-.07-.69.31-.85.69.63.2.71-.28.85-.69Z"/>
      <path class="cls-3" d="M90.27,23.54c-.09.18-.18.35-.26.53.37.21.73.4,1.13.05-.29-.19-.58-.39-.86-.58Z"/>
      <path class="cls-13" d="M90.27,23.54c.29.19.58.39.86.58.07-.16.15-.31.22-.47-.27-.16-.54-.31-.8-.47-.11.1-.21.22-.28.36Z"/>
      <path class="cls-14" d="M71.89,16.5c.28.07.48-.05.66-.25-.28-.08-.51-.02-.66.25Z"/>
      <path class="cls-14" d="M33.29,63.92c2.16.3,3.88,1.64,5.8,2.5,1,.45,1.99.94,2.98,1.41-.2-.95-1.05-1.34-1.71-1.81-1.94-1.36-4.05-2.44-6.21-3.41-.51-.23-1.01-.45-1.55-.69.61-.51,1.05.38,1.59.09-.11-.63-.71-.61-1.12-.82-.41-.21-.8-.54-1.32-.45q-.42.96-.3,2.35c.55.25,1.19.53,1.83.82Z"/>
      <path class="cls-17" d="M34.45,82.16c.97.48,2.02.46,3.06.45-.04-.33-.17-.62-.49-.74-.99-.37-1.67-1.12-2.37-1.9.12-.22.37-.48.32-.62-.39-1.04-.76-2.1-1.3-3.07-.29-.53-1-.33-1.54-.32-.25.2-.49.4-.83.67.6.78-.03,1.89,1,2.67.82.63,1.19,1.81,2.38,2.05-.1.35-.17.58-.23.8Z"/>
      <path class="cls-16" d="M36.95,76.86c1.41.73,2.82,1.46,4.19,2.17.54-.44.2-.73,0-1.04-1.75-.82-3.54-1.58-5.05-2.82-1.1-.61-2.36-.91-3.3-1.77-.44-1.17-.18-2.23.27-3.26-.35-.16-.66-.46-1.29-.27-.19,1.29-.4,2.66-.61,4.1,1.38.62,2.69,1.19,3.98,1.79.64.3,1.39.43,1.81,1.1Z"/>
      <path class="cls-17" d="M33.06,70.14c-.45,1.04-.71,2.09-.27,3.26.94.86,2.2,1.16,3.3,1.77.27-.26.54-.52.78-.75-.03-.68-.5-1.03-.83-1.43-.4-.5.12-1.09-.39-1.69-.76-.34-1.68-.75-2.59-1.16Z"/>
      <path class="cls-14" d="M34.45,82.16c.06-.22.13-.44.23-.8-1.2-.25-1.56-1.43-2.38-2.05-1.03-.78-.4-1.89-1-2.67.34-.27.58-.47.83-.67-.36-.12-.67-.4-1.12-.29-.66,1.47-1.01,3.04-1.23,4.64.19,1.41,1.44,1.15,2.32,1.48.07-.15.15-.3.22-.45-.18-.17-.56-.15-.5-.54.42-.02.51.22.48.55.72.27,1.43.53,2.15.8Z"/>
      <path class="cls-19" d="M36.26,66.39c-1.1-.56-2.2-1.12-3.3-1.67-.36-.11-.72-.23-1.19-.37-.22.92-.62,1.77.11,2.59.33.12.65.25.98.37.14-.18.28-.37.45-.6,1.03.13,1.89.73,2.84,1.05.75.26.79.89.99,1.46.73-.71,1.45-.36,2.17.02.06-.15.12-.31.19-.46h0c-.29-.14-.58-.28-.86-.42-.27-.15-.54-.29-.8-.44-.74-.29-1.75-.3-1.58-1.53Z"/>
      <path class="cls-4" d="M32.86,67.31c-.33-.12-.65-.25-.98-.37-.32.61-.19,1.23-.03,2,1.92.85,4.19,1.12,6.02,2.41.1-.3.19-.6.29-.9-.39-.24-.77-.49-1.16-.73-1.64-.35-2.66-1.79-4.14-2.41Z"/>
      <path class="cls-16" d="M42.96,62.01c-2.56-1.25-5.09-2.56-7.75-3.57-.13.24-.25.47-.38.71,1.14.54,2.27,1.07,3.41,1.62,1.2.58,2.47,1.03,3.42,2.04.22.23.53.33.88.24.33-.25.36-.65.42-1.03Z"/>
      <path class="cls-19" d="M38.16,70.45c-.1.3-.19.6-.29.9,1.03.92,2.05,1.84,3,2.69.54-.02.62-.36.78-.62.08-.86-.91-1.37-.75-2.26-.2-.12-.4-.24-.6-.36-.72-.12-1.43-.23-2.15-.35Z"/>
      <path class="cls-17" d="M31.43,54.22c-.22-.05-.43-.09-.65-.14-.31.74-.7,1.48-.16,2.28.4.1.81.2,1.21.3.26-.51.74-.45,1.2-.51.72-.09,1.31.42,2.04.35-.73-.62-1.61-.94-2.46-1.33-.47-.22-1.09-.29-1.19-.97Z"/>
      <path class="cls-20" d="M31.84,56.67c-.4-.1-.81-.2-1.21-.3,0,.56-.01,1.12.44,1.67,1.2.36,2.48.74,3.76,1.12.13-.24.25-.47.38-.71-1.12-.59-2.25-1.18-3.37-1.77Z"/>
      <path class="cls-17" d="M40.37,83.31c.49.28.96.66,1.58.3.02-.42.26-.99-.37-1.11-.58-.11-.99.25-1.2.81Z"/>
      <path class="cls-17" d="M37.6,81.16c.54.84,1.04.89,1.71.44-.41-.56-.85-.79-1.71-.44Z"/>
      <path class="cls-17" d="M41.91,80.94c-.03-.68-.58-.78-1.05-.97-.16,1.08-.02,1.21,1.05.97Z"/>
      <path class="cls-1" d="M57.53,114.19c1.44.43,2.69.32,3.34-1.32.57.59-.42,1.07.29,1.7,1.33-.09,2.88-.4,4.28-.13.9-.4.66-1.67,1.71-1.7.3-.99,1.45-1.47,1.52-2.59-1.18-.54-2.4-.64-3.7-.48-1.66.2-3.34.24-5.02.36-1.2,1.11-1.65,2.67-2.47,4.01l.06.15Z"/>
      <path class="cls-19" d="M15.9,111.88c1.22.08,2.44.16,3.66.23.59-1.4,1.19-2.79,1.78-4.19-.75-.31-1.5-.61-2.34-.47-.34,1.24-1.32,1.95-2.26,2.69-.28.58-.56,1.16-.84,1.74Z"/>
      <path class="cls-17" d="M46.52,112.91c1.31.38,2.66.31,4.01.33.36-.77.73-1.54,1.08-2.31.17-.38.17-.74-.16-1.05-.05-.08-.12-.13-.21-.14-.58.7-1.33,1.26-1.72,2.19-.82-1.28.38-1.79.71-2.58-.47-.05-.95-.1-1.42-.15-.55,1.37-1.84,2.28-2.29,3.72Z"/>
      <path class="cls-17" d="M22.57,111.97c.41.42.89.52,1.44.31.45-.17.88-.12,1.31.04.73-1.39,1.79-2.59,2.36-4.07-.82-.52-1.68-.62-2.59-.27-.52,1.53-1.89,2.52-2.52,3.98Z"/>
      <path class="cls-3" d="M16.74,110.14c.94-.74,1.92-1.45,2.26-2.69-1.02-.28-2.06-.27-3.11-.26-.85,1.18-1.71,2.36-2.56,3.54v.12c.95-.22,1.96-.15,2.77-.83.1-.09.42.07.64.12Z"/>
      <path class="cls-1" d="M55.58,113.84c.64.16,1.18.9,1.94.35l-.06-.15c-.23-.05-.53-.23-.39-.41.9-1.2,1.3-2.64,2-3.93-.72-.35-1.45-.35-2.17-.03.29.35.26.73.08,1.11-.47,1.02-.94,2.03-1.4,3.05Z"/>
      <path class="cls-16" d="M52.13,113.37c.48.26.96.58,1.52.19.54-1.3,1.08-2.6,1.62-3.9-.58-.4-1.14-.54-1.59.18-.52,1.18-1.03,2.36-1.55,3.53Z"/>
      <path class="cls-4" d="M27.68,108.26c-.57,1.48-1.63,2.68-2.36,4.07.59.32,1.14.14,1.68-.14.81-1.32,1.62-2.63,2.43-3.95-.59-.23-1.17-.17-1.75.02Z"/>
      <path class="cls-6" d="M32.48,112.04c.19.68.62.65,1.13.38.96-1.33,1.91-2.66,2.87-3.99-.75-.53-1.46-.29-2.16.12-.56,1.19-1,2.44-1.84,3.48Z"/>
      <path class="cls-6" d="M36.69,112.72c.49.09.89-.14,1.3-.35.62-1.37,1.46-2.58,2.51-3.66-.79-.77-1.64-.16-2.47-.1-.06.09-.12.18-.18.27.29.44.19.87-.02,1.31-.39.84-.76,1.69-1.14,2.53Z"/>
      <path class="cls-4" d="M22.57,111.97c.63-1.46,2-2.46,2.52-3.98-.52-.12-1.02-.51-1.58-.13-.43,1.58-1.49,2.82-2.3,4.2.48.34.92.12,1.36-.08Z"/>
      <path class="cls-19" d="M46.52,112.91c.44-1.44,1.74-2.35,2.29-3.72-.57-.19-1.09-.59-1.91-.43.08,1.57-1.01,2.79-1.42,4.25.36.11.72.21,1.04-.09Z"/>
      <path class="cls-1" d="M29.43,108.23c-.81,1.32-1.62,2.63-2.43,3.95.47.02.92.41,1.42.1.36-.79.62-1.63,1.29-2.24.49-.44.68-1.05.9-1.65-.39-.05-.78-.11-1.18-.16Z"/>
      <path class="cls-17" d="M40.11,112.25c.64.11,1.17.78,1.91.36l-.05-.18c-.33-.36-.15-.71,0-1.07.38-.85.76-1.71,1.14-2.56-.49-.17-.94-.67-1.5-.16.52.68.05,1.23-.36,1.63-.58.57-.96,1.21-1.14,1.98Z"/>
      <path class="cls-16" d="M68.66,110.15c-.07,1.12-1.22,1.61-1.52,2.59-.14.43-.27.87-.39,1.25.4.34.68.23.96.06.64-1.4,1.94-2.46,2.07-4.12-.49-.57-.79-.09-1.12.21Z"/>
      <path class="cls-19" d="M21.21,112.05c.81-1.38,1.87-2.61,2.3-4.2-.32-.09-.63-.19-.95-.28-.23.74-.47,1.48-1.07,2.03-.66.6-.93,1.41-1.13,2.24.29.07.57.14.86.21Z"/>
      <path class="cls-16" d="M13.34,110.72c.85-1.18,1.71-2.36,2.56-3.54-.67-.39-1.22-.17-1.67.37-.5.6-.96,1.24-1.44,1.86-.05.15-.11.29-.15.44q-.23.78.69.88Z"/>
      <path class="cls-16" d="M55.58,113.84c.47-1.02.94-2.03,1.4-3.05.18-.39.2-.76-.08-1.11-.21.09-.43.17-.64.26-.56,1.32-1.12,2.63-1.68,3.95.34.22.68.21,1-.05Z"/>
      <path class="cls-17" d="M29.5,112.15c.5.15.96.68,1.51.12-.5-.87.17-1.45.59-2.01.37-.49.81-.9.81-1.57-.22-.09-.44-.18-.65-.27-.75,1.24-1.82,2.29-2.26,3.73Z"/>
      <path class="cls-19" d="M43.51,112.75c.24-.1.47-.19.71-.29.23-.68.57-1.27,1.05-1.81.47-.52.9-1.09.83-1.91-.77-.4-1.32-.05-1.82.52.25.22.41.49.31.83-.19.61-.42,1.2-.94,1.62-.37.3-.4.65-.13,1.04Z"/>
      <path class="cls-17" d="M43.51,112.75c-.26-.39-.23-.74.13-1.04.52-.42.75-1.01.94-1.62.11-.34-.06-.61-.31-.83l-.03.02c-.74,1.06-1.72,1.95-2.26,3.15l.05.18c.5-.01.95.5,1.48.14Z"/>
      <path class="cls-17" d="M40.49,108.71c-1.05,1.07-1.89,2.29-2.51,3.66.29.08.59.16.88.24.94-1.09,1.6-2.34,2.13-3.67-.17-.08-.34-.15-.51-.23Z"/>
      <path class="cls-6" d="M29.5,112.15c.44-1.43,1.51-2.48,2.26-3.73-.38-.29-.77-.32-1.16-.03-.22.59-.41,1.2-.9,1.65-.67.61-.93,1.46-1.29,2.24.39.15.75.16,1.09-.13Z"/>
      <path class="cls-17" d="M54.58,113.89c.56-1.32,1.12-2.63,1.68-3.95l-.99-.28c-.54,1.3-1.08,2.6-1.62,3.9.31.11.62.22.93.33Z"/>
      <path class="cls-4" d="M20.36,111.85c.2-.84.48-1.64,1.13-2.24.6-.55.84-1.29,1.07-2.03-.51-.25-.9-.07-1.22.34-.59,1.4-1.19,2.79-1.78,4.19.26-.09.53-.17.79-.26Z"/>
      <path class="cls-17" d="M52.13,113.37c.52-1.18,1.03-2.36,1.55-3.53-.13-.06-.27-.11-.4-.17-1.08,1.04-1.62,2.41-2.22,3.74.37.12.73.3,1.08-.04Z"/>
      <path class="cls-17" d="M32.48,112.04c.84-1.04,1.28-2.29,1.84-3.48-.33-.12-.66-.25-.98-.37-.5,1.12-1.01,2.24-1.51,3.36.22.16.44.33.66.49Z"/>
      <path class="cls-1" d="M36.48,108.44c-.96,1.33-1.91,2.66-2.87,3.99.37.12.74.3,1.08-.05l.39-.88c.12-.28.25-.55.37-.83.75-.54,1.25-1.24,1.33-2.18-.1-.04-.2-.05-.3-.04Z"/>
      <path class="cls-14" d="M41,108.94c-.54,1.32-1.2,2.57-2.13,3.67.54.32.91.03,1.25-.35.18-.78.57-1.41,1.14-1.98.41-.41.88-.95.36-1.63-.2.1-.41.2-.61.3Z"/>
      <path class="cls-6" d="M41.97,112.43c.54-1.2,1.52-2.09,2.26-3.15-.1-.8-.53-.82-1.12-.48-.38.85-.76,1.71-1.14,2.56-.16.35-.34.71,0,1.07Z"/>
      <path class="cls-14" d="M31.82,111.55c.5-1.12,1.01-2.24,1.51-3.36-.43-.05-.65.26-.91.5,0,.66-.44,1.08-.81,1.57-.42.56-1.09,1.14-.59,2.01.27-.24.54-.48.8-.72Z"/>
      <path class="cls-19" d="M51.05,113.41c.61-1.33,1.14-2.7,2.22-3.74q-1.04-.55-1.82.22c.33.31.34.67.16,1.05-.36.77-.72,1.54-1.08,2.31.17.05.35.11.52.16Z"/>
      <path class="cls-14" d="M59.08,109.7c-.71,1.29-1.1,2.73-2,3.93-.14.19.16.36.39.41.82-1.34,1.28-2.91,2.47-4.01-.29-.11-.58-.22-.87-.33Z"/>
      <path class="cls-19" d="M50.23,109.35c-.33.79-1.53,1.3-.71,2.58.39-.93,1.14-1.49,1.72-2.19-.18-.54-.5-.7-1.01-.39Z"/>
      <path class="cls-16" d="M36.78,108.48c-.08.95-.58,1.64-1.33,2.18.38.12.81.27,1.05-.16.35-.63.84-1.13,1.34-1.62.06-.09.12-.18.18-.27-.33-.88-.78-.6-1.25-.13Z"/>
      <path class="cls-3" d="M15.93,118.24c.32.13.64.27.96.4.44-.43.5-1.18,1.14-1.37.76-.05.63.91,1.21.97.37-.19.71-.42,1.08-.53.43-.13.89.4,1.35,0,.7-1.14,1.75-2.04,2.12-3.39-.58-.24-1.16-.46-1.79-.23-.46.17-.91.13-1.37,0-.16.66-.69.88-1.24,1.16-.11-.51.18-.81.33-1.16-.5-.15-.94-.62-1.52-.26.29.34.28.71.07,1.08-.39.69-.86,1.28-1.7,1.45h.02c-.25.6-.65,1.16-.66,1.86Z"/>
      <path class="cls-1" d="M59.58,116.67c-.05.84.35,1.35,1.13,1.6.71.22,1.2-.16,1.72-.56.47-.35.75-.81.99-1.31.14.04.28.09.42.14-.19.55-.63,1.05-.4,1.9.98-.36,1.47-1.05,1.84-1.87.2-.23.39-.47.55-.47.67.09.41.71.83.85.58-.59,1.11-1.33,2.12-.85-.28.75-.78,1.34-1.27,1.97-.8,1.03-1.69,1.53-3.02,1.43-2.04-.15-4.08-.16-6.12-.25-.34-.01-.57-.23-.7-.74.77-.37,1.08-1.2,1.49-1.96.14.03.28.06.41.11ZM65.27,118.34s.06.13.09.2c.1-.1.21-.2.29-.32.02-.03-.06-.13-.09-.2-.1.1-.21.2-.29.32Z"/>
      <path class="cls-17" d="M43.52,117.45c.14.35.27.71.44,1.14,1.25.2,1.89-1.3,3.11-1.2.35-.78.7-1.56,1-2.22-.33-.59-.68-.6-1.1-.54-1.47.2-2.94.34-4.39-.12-.06,1.08-1.27,1.54-1.46,2.48.37.68.9.36,1.32.45h-.02c.56-.77.69-.78,1.04-.11l.08.14Z"/>
      <path class="cls-17" d="M23.13,117.25c.6.21,1.25.38,1,1.23.86.22,1.65-.1,2.36.28.67-1.5,1.41-2.96,2.46-4.24-.49-.04-.87-.52-1.4-.33-.32.71-.6,1.44-.97,2.13-.19.36-.47.8-1.1.49.17-1.09,1.21-1.64,1.54-2.58-.54-.12-1.1-.71-1.61.05-.14.65-.63,1.01-1.12,1.38-.56.42-1.07.85-1.16,1.6Z"/>
      <path class="cls-19" d="M28.96,114.52c-1.05,1.28-1.8,2.74-2.46,4.24.46.28.98.2,1.48.24.31.06.62.12.94.18.7-1.49,1.9-2.59,2.91-3.84.14-.33.28-.66.42-.99-.69-.35-1.24-.08-1.7.42-.37.41-.38,1.06-.92,1.37-.43-.57.41-1.01.03-1.71-.12-.15-.4-.13-.69.09Z"/>
      <path class="cls-3" d="M38.58,118.35c.25.16.5.19.77.06.43-1.34,1.84-2.1,2.07-3.56-.96-.59-1.99-.2-2.99-.25-.24,1.01-1.13,1.62-1.6,2.39-.06.59.15.98.49,1.32h-.03c.45-.48.87-.2,1.3.04Z"/>
      <path class="cls-14" d="M23.13,117.25c.09-.75.6-1.19,1.16-1.6.49-.36.98-.73,1.12-1.38-.54-.08-1.09-.36-1.62.06-.37,1.34-1.43,2.25-2.12,3.39-.46.39-.91-.13-1.35,0-.37.11-.71.34-1.08.53-.58-.06-.46-1.02-1.21-.97-.64.19-.71.94-1.14,1.37,1.38.73,2.88.43,4.32.45,1.07.02,1.42-1.07,1.91-1.84Z"/>
      <path class="cls-1" d="M50.74,115.4c-.63,1.05-.85,2.3-2.04,3.49,1.33-.18,2.24-.4,3.14-.14.17-.63.48-1.14,1.03-1.53.29-.2.28-.53.08-.83-.53-.79-1.19-1.3-2.21-.99Z"/>
      <path class="cls-3" d="M17.57,114.17c-.95-.24-1.71-1.13-2.82-.83.17.23.39.46.12.75-.3.32-.66.13-1,.07l-.06.18-.05,1.31h0c.8.06,1.1.96,1.59,1.11.57-.18.92-.28,1.26-.39h-.02c.33-.72.66-1.46.99-2.19Z"/>
      <path class="cls-17" d="M55.31,118.53c.29.09.57.18,1,.32.52-1.01,1.6-1.57,1.92-2.72-1.02.04-2.03-.05-3.01-.31-.39-.1-.76-.16-1.1.13-.32.59-.2,1.19,0,1.78.6-.02,1.07.14,1.2.8Z"/>
      <path class="cls-11" d="M59.58,116.67c-.05.84.35,1.35,1.13,1.6.71.22,1.2-.16,1.72-.56.47-.35.75-.81.99-1.31-1.1-.44-2.29.27-3.4-.22-.07-.03-.3.32-.45.49Z"/>
      <path class="cls-11" d="M32.14,116.53c-.63.15-.66.74-.88,1.2.36.14.72.27,1.1.41,1.29-.93,2.12-2.14,2.76-3.5-.45-.09-.86-.5-1.37-.17-.23.5-.45,1.01-.69,1.51-.18.38-.45.64-.92.55Z"/>
      <path class="cls-16" d="M35.12,114.64c-.64,1.36-1.47,2.57-2.76,3.5-.38-.14-.74-.28-1.1-.41-.12.27-.41.5-.1,1.01.95-.04,2,.46,3.04-.2-.08-.53-.25-1.04.25-1.52.5-.48.88-1.08,1.34-1.61.3-.35.32-.68.11-1.06-.26.1-.51.19-.77.29Z"/>
      <path class="cls-11" d="M35.89,114.35c.2.38.19.72-.11,1.06-.46.52-.84,1.13-1.34,1.61-.5.48-.33.99-.25,1.52.3.09.61.22.9-.04.49-1.26,1.74-2.05,2.07-3.41-.42-.24-.47-1.15-1.27-.73Z"/>
      <path class="cls-16" d="M41.42,114.85c-.22,1.46-1.64,2.22-2.07,3.56.9.2,1.8.3,2.67-.09.13-.29.27-.59.4-.88-.42-.09-.95.24-1.32-.45.19-.93,1.41-1.4,1.46-2.48-.46-.12-.8.13-1.16.34Z"/>
      <path class="cls-14" d="M55.31,118.53c-.13-.66-.6-.82-1.2-.8-.19-.6-.31-1.19,0-1.78-.51-.19-.88.01-1.17.44.2.3.21.62-.08.83-.55.38-.86.9-1.03,1.53,1.17.1,2.35.38,3.47-.21Z"/>
      <path class="cls-14" d="M37.16,115.08c-.33,1.36-1.58,2.15-2.07,3.41.76.21,1.51.27,2.22-.18-.34-.34-.55-.73-.49-1.32.47-.78,1.35-1.38,1.6-2.39-.59-.28-.95.04-1.26.48Z"/>
      <path class="cls-17" d="M37.85,108.88c-.5.5-.99.99-1.34,1.62-.24.43-.67.29-1.05.16-.12.28-.25.55-.37.83.11.26.23.52.34.78.42.15.84.3,1.26.45.38-.84.75-1.69,1.14-2.53.21-.44.31-.87.02-1.31Z"/>
      <path class="cls-19" d="M47.53,117.62c-.05.34-.38.73.34,1.04.97-.98,1.41-2.41,2.32-3.49-.72-.34-1.25-.04-1.62.56-.38.61-.69,1.25-1.04,1.88Z"/>
      <path class="cls-2" d="M16.74,110.14c-.22-.05-.53-.21-.64-.12-.81.69-1.82.61-2.75.83.12.56.56.7,1.03.66.56-.04,1.05.11,1.52.36.28-.58.56-1.16.84-1.74Z"/>
      <path class="cls-15" d="M63.86,116.54c-.19.55-.63,1.05-.4,1.9.98-.36,1.47-1.05,1.84-1.87-.48-.05-.95-.49-1.44-.03Z"/>
      <path class="cls-14" d="M27.03,114.22c-.33.95-1.37,1.49-1.54,2.58.63.31.91-.13,1.1-.49.37-.68.65-1.42.97-2.13-.18.01-.35.02-.53.03Z"/>
      <path class="cls-19" d="M17.57,114.17c-.33.73-.66,1.47-.99,2.2.84-.17,1.31-.77,1.7-1.45.21-.37.21-.73-.07-1.08-.21.11-.42.22-.64.32Z"/>
      <path class="cls-16" d="M19.73,114.11c-.15.35-.44.65-.33,1.16.55-.27,1.08-.5,1.24-1.16-.3-.2-.61-.18-.91,0Z"/>
      <path class="cls-11" d="M32.24,114.35c-.14.33-.28.66-.42.99.24.12.49.23.73.35.24-.42.48-.85.72-1.27-.34-.15-.67-.32-1.04-.06Z"/>
      <path class="cls-16" d="M33.28,114.41c-.24.42-.48.85-.72,1.27-.14.28-.28.56-.42.84.47.09.74-.17.92-.55.24-.5.46-1.01.69-1.51-.16-.02-.32-.04-.47-.06Z"/>
      <path class="cls-17" d="M69.86,116.07c-.14.5-.58.9-.41,1.61.63-.54.74-1.29,1.07-1.9-.22.1-.44.19-.67.29Z"/>
      <path class="cls-19" d="M13.86,114.16c.34.05.7.24,1-.07.27-.28.05-.52-.12-.75-.45.11-.67.46-.89.82Z"/>
      <path class="cls-19" d="M13.75,115.64l.05-1.31c-.58.02-.8.4-.92.9.29.14.58.27.87.41Z"/>
      <path class="cls-16" d="M35.42,112.27c-.11-.26-.23-.52-.34-.78l-.39.88c.27.15.51.04.74-.11Z"/>
      <path class="cls-18" d="M102.94,14.13c.79-.47,1.12.14,1.35.67.21.49.22,1.06.31,1.6.25.08.49.15.74.23.44-2.21.17-4.45.25-6.68.05-1.33-1.24-2.58-2.71-2.84-.31-.06-.32.29-.45.47.75.89,1.58,1.75,1.13,3.08.35.27.51.59.26,1-1.9.09-3.8.17-5.69.26-.17.45-.33.9-.5,1.35,1,.24,2.02.06,3.03.1.83.03,1.75-.12,2.33.74l-.06.02Z"/>
      <path class="cls-17" d="M103.57,10.67c.44-1.33-.39-2.19-1.13-3.08l.06.03c-2.67-1.64-5.58-2.36-8.7-2.36-.13.29-.26.57-.39.86.75.46,1.61.62,2.46.69.62.05,1.24,0,1.81.31.39.07.63.34.87.61.47-.07.99-.53,1.35.19.89.03,1.62.28,2.06,1.18.26.53.77.94,1.17,1.4.13.09.28.15.44.16Z"/>
      <path class="cls-1" d="M109.2,14.3c.14-.34.29-.68.43-1.03.21-.5.02-.85-.42-1.11-.8.27-1.21,1.28-2.21,1.16.67,1.81,0,3.59-.17,5.4,2.47-.55,3.23-1.58,2.9-3.97-.02-.17-.35-.3-.53-.45-.29.37-.22,1.12-1.29.91.51-.4.66-.92,1.29-.91Z"/>
      <path class="cls-13" d="M93.79,5.26c3.11,0,6.03.72,8.7,2.36.46-.43.38-.82-.1-1.15-1.06-.72-2.24-1.26-3.46-1.51-2.44-.51-4.92-.87-7.43-.92v.58c.77.22,1.53.43,2.29.65Z"/>
      <path class="cls-16" d="M105.34,16.63c-.25-.08-.49-.15-.74-.23-.38.49-.09,1.1-.25,1.61-.35,1.07-.71,2.16-2.13,2.21-.36.01-.52.33-.7.59.4.38.13.8.08,1.2.56.19,1.16.2,1.56-.23.57-.61,1.38-.76,2.13-1.28.18-1.24.25-2.56.05-3.88Z"/>
      <path class="cls-6" d="M107.01,13.32c1,.12,1.41-.89,2.21-1.16.21-.66.18-1.29-.48-1.66-.54-.31-1.14-.53-1.89-.86-.36,1.29.29,2.49.17,3.69Z"/>
      <path class="cls-13" d="M91.5,4.03c-2.06-.56-4.13-.65-6.22-.19.04.14.08.28.12.42q1.43.36.99,1.44c.29.15.59.26.88,0q.27-1.16,1.53-1.15c.9.02,1.8.04,2.71.06v-.58Z"/>
      <path class="cls-9" d="M111.48,13.42c-.25.74-.45,1.26-.01,1.96,1.04-.13,2.44.81,3.08-1.1-.81-1-1.84-1.09-3.07-.86Z"/>
      <path class="cls-13" d="M84.95,3.9c-.08.15-.15.31-.23.46.25.12.47.07.68-.11-.04-.14-.08-.28-.12-.42-.12-.04-.23-.02-.33.06Z"/>
      <path class="cls-17" d="M42.43,117.43c-.13.29-.27.59-.4.88.91.42,1.17-.28,1.5-.86l-.08-.14c-.35.04-.69.08-1.04.12h.02Z"/>
      <path class="cls-17" d="M69.05,118.64c-.53-.16-.88-.02-.88.58,0,.08.23.25.32.24.42-.09.65-.34.56-.81Z"/>
      <path class="cls-16" d="M38.58,118.35c-.43-.24-.85-.52-1.3-.04.42.28.86.32,1.3.04Z"/>
      <path class="cls-17" d="M7.73,7.16h0c-.14.29-.04.5.24.63h0c-.1.54.26.72.68.84v-.02c-.12.3,0,.51.24.67l-.02-.04c-.08.29.02.5.25.67v-.03c-.09.28,0,.5.24.67v-.03c-.06.27.02.49.24.66v-.03c-.07.32.08.54.33.71.37.17.74.35,1.11.52.14.72.04,1.39-.3,2.06-.64,1.27-1.21,2.57-1.81,3.86l-.59-.86v.02c.07-.52-.25-.73-.68-.85v.02c.13-.29.06-.52-.24-.65h0c.15-.29.03-.49-.25-.64v.02c.12-.29.04-.51-.24-.64h0c.09-.73-.2-1.24-.92-1.47h0c.14-.29.06-.51-.24-.64h0c.13-.28.02-.49-.25-.64v.02c.11-.29.03-.5-.24-.65h0c.08-.73-.22-1.23-.93-1.47v.03c.1-.29.01-.51-.24-.66v.03c.19-.33.28-.66-.01-.98.33-1.25,1.35-1.96,2.23-2.78.54.49.47,1.47,1.38,1.66ZM6.83,9.69c0,.05-.03.12-.01.15.04.06.1.1.16.15.03.11.07.21.1.32.01-.05.04-.11.03-.15-.03-.06-.09-.11-.14-.16-.04-.1-.08-.2-.13-.31ZM6.27,8.78c.07-.02.14-.24.11-.34-.03-.11-.17-.23-.28-.26-.19-.05-.27.07-.21.27.07.18.1.43.37.34Z"/>
      <path class="cls-12" d="M11.04,12.39c.14.72.04,1.39-.3,2.06-.64,1.27-1.21,2.57-1.81,3.86l-.31.75c-.39,1.1-1.15,2.11-.88,3.38.36,1.12-.56,1.88-.81,2.82-.03.15-.07.29-.14.43.39.22.77.44,1.16.66,1.13.31,1.23,1.44,1.75,2.23.42.2.83.25,1.17-.15-.02-.81-.43-1.44-.96-2.01-.99-.38-1-.39-.68-1.36-.18-1.69.19-3.28.84-4.84.79-1.9,1.56-3.81,2.3-5.73.22-.58.33-1.21.49-1.82-.58-.23-1.12-.78-1.82-.28Z"/>
      <path class="cls-9" d="M24.25,3.07c0-.39,0-.78,0-1.17-2.31-.21-4.62-.48-6.92.06.54.96-.05,1.65-.62,2.27-.38.41-.74.81-.84,1.37-.18.91.44,1.34,1.56,1.09.74-1.87,1.4-2.63,3.18-3.53-.4.68-.67,1.26-1.05,1.75-.44.57-.87,1.13-1.11,1.82.35-.02.7-.04,1.05-.06.29-.73.63-1.41,1.31-1.9.57-.41,1.07-.91,1.39-1.56.11-.23.24-.2.32.2.19.24-.57.6-.2.94,1-.04,1.06-1.21,1.94-1.3Z"/>
      <path class="cls-20" d="M11.14,3.06c-.34-.27-.71-.31-1.1-.13-.28.52-.14,1.01.07,1.52.35.84.8,1.64.82,2.59.38.44.15,1.19.77,1.51.11-.03.22-.07.32-.1.24-.69.31-1.37,0-2.06-.23-.51-.3-1.05-.25-1.61-.71-.39-.95-.95-.63-1.72Z"/>
      <path class="cls-17" d="M10.93,7.03c-.01-.94-.47-1.75-.82-2.59-.21-.52-.35-1-.07-1.52-.67.13-1.33.29-1.82.82,1.11.54,1.35,1.4.94,2.51h0c.22.08.44.17.65.27.37.17.74.34,1.11.51Z"/>
      <path class="cls-16" d="M11.14,3.06c-.32.77-.08,1.33.63,1.72.28.09.53.32,1.01.12.27-.72-.01-1.52-.2-2.28-.1-.4-.6-.38-.98-.44-.15.29-.31.58-.46.87Z"/>
      <path class="cls-6" d="M9.16,6.26c.41-1.11.17-1.97-.94-2.51-.17.27-.33.54-.5.8.42.32.64.73.6,1.27.28.14.56.29.84.43Z"/>
      <path class="cls-14" d="M6.35,5.51c.54.49.47,1.47,1.38,1.66.11-.28.21-.56.32-.84-.55-.35-.86-.83-.87-1.5-.46,0-.67.3-.83.67Z"/>
      <path class="cls-17" d="M7.18,4.83c0,.66.32,1.15.87,1.5.09-.17.18-.33.27-.5.05-.54-.17-.95-.6-1.27-.25-.04-.41.09-.54.28Z"/>
      <path class="cls-6" d="M9.95,7.72c-.09.08-.24.15-.27.26-.06.23.07.44.3.5.07.02.26-.15.28-.26.06-.23-.07-.41-.31-.5Z"/>
      <path class="cls-14" d="M7.96,7.79c-.1.55.26.72.68.85,0-.47-.22-.76-.68-.85Z"/>
      <path class="cls-20" d="M11.69,8.55c.04.23-.23.57.2.65.03,0,.15-.35.2-.55.02-.06-.05-.14-.08-.21-.11.03-.22.07-.32.1Z"/>
      <path class="cls-14" d="M9.6,11.15c-.06.32.09.54.34.71,0-.29-.04-.56-.34-.71Z"/>
      <path class="cls-14" d="M9.36,10.52c-.05.27.03.49.25.66.1-.29.02-.51-.25-.66Z"/>
      <path class="cls-14" d="M9.11,9.88c-.07.28.02.5.25.67.11-.3,0-.51-.25-.67Z"/>
      <path class="cls-14" d="M8.87,9.25c-.08.29.02.5.25.67.07-.28-.05-.49-.25-.67Z"/>
      <path class="cls-14" d="M8.63,8.62c-.11.3.01.51.25.67.04-.27-.04-.5-.25-.67Z"/>
      <path class="cls-14" d="M7.72,7.16c-.14.3-.04.5.24.64.17-.31.05-.5-.24-.64Z"/>
      <path class="cls-6" d="M9.81,6.53c-.22-.09-.44-.18-.65-.28-.02.67.29.54.65.28Z"/>
      <path class="cls-1" d="M7.95,26.35c-.39-.22-.77-.44-1.16-.66-.64-.29-1-.76-.93-1.49h0c-.9-.4-1.17-1.17-1.16-2.09h0c-.75-.32-1.08-.82-.77-1.63.02-.09.05-.19.08-.28-.1-.04-.21-.08-.31-.1-.3-.15-.49-.37-.42-.74l.02.03c-.41-.21-.83-.41-1.24-.62-.21.31-.42.61-.23,1.01.28.16.49.37.4.73h0c.9.4,1.09,1.22,1.2,2.08.62.29.95.76.91,1.47.05.05.12.1.15.17.02.04-.02.1-.03.15-.04-.11-.07-.22-.11-.32-.69-.25-.98-.74-.93-1.46-.42-.2-.84-.4-1.25-.61-.38,1.22-.08,2.34.46,3.44.21-.07.42-.14.74-.25.53.98.97,1.97,1.82,2.75.42.39,1.05,1.04.79,1.88.32.4.52-.03.77-.12.34.67.7,1.32,1.61,1.25.55-.15.6-.66.77-1.08-.7-1.07-1.28-2.18-1.17-3.52Z"/>
      <path class="cls-3" d="M6.6,21.43c.04-.09.08-.18.12-.28.14-.32.1-.61-.18-.84v.02c.07-.52-.27-.72-.68-.86v.03c.11-.29.02-.51-.24-.67v.03c.12-.3,0-.5-.24-.66v.03c.06-.27-.02-.49-.24-.66v.03c.04-.5-.29-.7-.68-.85v.02c.12-.29.04-.51-.23-.65h0c.14-.94-.74-1.57-.72-2.12-.1-.87.49-.87.75-1.37-.03-.82-.19-1.71-1.15-2.25.22-.45.43-.89.65-1.34.11.1.24.18.38.24v-.03c-.06.27.02.49.24.66v-.03c-.02.69.19,1.25.91,1.48h0c-.16.29-.04.5.25.64v-.02c-.13.3-.01.5.24.65h0c-.11.28-.04.49.24.63,0,0,0,0,0,0-.05.72.24,1.22.92,1.47h0c-.14.3-.01.49.25.64,0,0,0-.02,0-.02-.11.29-.02.5.25.65h0c-.08.27,0,.48.25.64v-.02c-.07.52.2.76.68.85v-.02c-.46.63-.12,1.13.27,1.61-.39,1.1-1.15,2.11-.88,3.38-.56-.13-.8-.63-1.14-1.01ZM5.3,15.41c.42-.17.07-.28-.03-.42.03-.15.09-.29.09-.44,0-.23-.05-.47-.31-.54-.1-.03-.29.04-.35.13-.14.22-.01.44.15.6.1.11.24.18.36.27.03.13.06.26.09.4ZM6.03,16.23l.03-.11-.14.02.1.09Z"/>
      <path class="cls-17" d="M6.6,21.43c.04-.09.08-.18.12-.28-.06-.28-.12-.56-.18-.84v.02c-.41-.13-.71-.36-.68-.86v.03c-.19-.17-.28-.39-.24-.67v.03c-.22-.17-.35-.37-.24-.66v.03c-.24-.16-.34-.37-.24-.66v.03c-.4-.14-.76-.32-.68-.85v.02c-.27-.14-.38-.35-.23-.65h0c-.66-.13-1.08-.51-1.35-1.13-.15-.35-.41-.64-.62-.96-.78.76-.28,1.71-.38,2.57.3.4.57.81.47,1.35v-.02c.63.28.95.78.95,1.48l-.02-.03c.14.25.28.49.42.74.11.02.21.06.31.1.88-.2.52.49.62.85h0c.61.37,1.29.4,1.97.37Z"/>
      <path class="cls-14" d="M2.25,14.02c.21.32.47.62.62.96.27.62.7,1,1.35,1.14.14-.94-.74-1.58-.72-2.13-.1-.87.49-.87.75-1.37-.03-.82-.19-1.71-1.15-2.25-.12.41-.23.81-.35,1.22.21.27.58.48.4.91-.16.38-.47.2-.73.15-.06.46-.12.92-.18,1.38Z"/>
      <path class="cls-14" d="M5.96,29.81c.26-.84-.36-1.49-.79-1.88-.85-.77-1.29-1.77-1.82-2.75-.32.11-.53.18-.74.25.26,2.11,1.54,3.45,3.35,4.38Z"/>
      <path class="cls-15" d="M7.95,26.35c-.11,1.34.47,2.45,1.17,3.52.19-.43.39-.86.58-1.3-.52-.79-.62-1.92-1.75-2.23Z"/>
      <path class="cls-14" d="M3.42,22.6c-.11-.86-.3-1.68-1.2-2.09-.51.47-.05.99-.07,1.49.42.2.84.4,1.25.61h.02Z"/>
      <path class="cls-14" d="M3.29,19.4c0-.7-.32-1.19-.96-1.48-.29.22-.26.55-.28.86.41.21.83.41,1.24.62Z"/>
      <path class="cls-3" d="M2.44,12.65c.27.05.57.23.73-.15.18-.42-.19-.64-.4-.91-.28.3-.56.6-.33,1.06Z"/>
      <path class="cls-14" d="M2.34,17.94c.1-.54-.17-.95-.47-1.35-.22.58-.36,1.13.47,1.35Z"/>
      <path class="cls-14" d="M3.76,9.02c.11.1.24.18.38.24.18-.33.27-.66-.02-.98-.12.25-.24.49-.36.74Z"/>
      <path class="cls-14" d="M2.23,20.52c.08-.36-.12-.57-.4-.73.02.3-.02.65.4.73Z"/>
      <path class="cls-17" d="M49.27,41.17c-.4.75-.38,1.52-.17,2.3.7.71,1.38.76,2.17-.22-.34-1.34.68-2.69.48-4.21-.24-.11-.48-.23-.72-.34-.22-.06-.43-.11-.83-.22-.03,1-.57,1.81-.93,2.69Z"/>
      <path class="cls-17" d="M50.13,45.15c-.32-.23-.65-.45-.98-.69-.97.5-.61,1.5-.82,2.27-.21.78-.8,1.32-1.32,1.96,1.62.4,2.28.2,2.31-.99.03-1.01,1.22-1.54.8-2.59v.02Z"/>
      <path class="cls-5" d="M48.55,36.48c-.9.99-1.17,2.13-.84,3.42.35-.53.44-1.44,1.45-.96.12-.32.23-.64.35-.96-.79-.2-.41-1.15-.97-1.5Z"/>
      <path class="cls-19" d="M49.52,37.98c-.12.32-.23.64-.35.96.33.73-.44,1.51.1,2.23.36-.88.9-1.68.93-2.69.4.1.61.16.83.22-.12-.6-.23-1.2-.35-1.8-.76-.03-.74.76-1.16,1.09Z"/>
      <path class="cls-5" d="M47.23,44.34c-.43.87-.95,1.71-1.13,2.68.88-.09.87-.92,1.19-1.46.24-.41.34-.83-.06-1.22Z"/>
      <path class="cls-5" d="M50.68,36.89c.12.6.23,1.2.35,1.8.24.11.48.23.72.34.3.05.53-.03.69-.3-.26-.12-.32-.32-.23-.58v.03c-.66-.4-.58-1.31-1.18-1.76-.12.15-.23.31-.35.46Z"/>
      <path class="cls-14" d="M51.02,36.42c.6.45.51,1.36,1.19,1.76.41-.47.34-1.1.53-1.65-.38-.5-.89-.75-1.5-.83-.07.24-.15.48-.22.72Z"/>
      <path class="cls-17" d="M50.12,45.12c.22.05.43.11.65.16-.01-.11,0-.28-.05-.31-.23-.13-.43-.01-.59.17v-.02Z"/>
      <path class="cls-14" d="M52.2,38.15c-.1.26-.03.46.23.58.05-.24.1-.49-.23-.58Z"/>
      <path class="cls-19" d="M21.38,92.76c.64.78,1.41,1.47,1.85,2.53-.8.39-1.31-.53-2-.29.38,1.17,1.54,1.73,2.14,2.72.3.09.6.18.9.27v-.11c.09-.27.07-.52-.11-.74-.13-.08-.27-.15-.38-.25-.35-.31-.35-.71-.05-1,.34-.34.69-.18.95.18.09.12.2.23.3.35h0c.2-.76,1.03-.47,1.44-.87l.06-.02c-1.2-1.03-2.37-2.08-3.6-3.07-.54-.44-1.17-.61-1.51.3Z"/>
      <path class="cls-7" d="M63.67,25.3c-.19.5-.38.99-.56,1.49.6,1.12-.8,1.9-.55,3.09.5-.53.94-.97,1.36-1.43.4-.45.39-1.19,1.03-1.52-.84,2.61-.6,2.41-3.02,4.66.04.25.07.5.11.76,2.09-.13,3.32-1.3,3.9-3.24.29-.98.82-1.91.64-2.99-1.06.06-1.9-.64-2.9-.8Z"/>
      <path class="cls-12" d="M51.02,36.42c.07-.24.15-.48.22-.72.02-.54-.4-.77-.75-1.06h0c-.1.63-.4.95-1.07.73-.44.25-.74.61-.88,1.1.56.35.17,1.31.97,1.5.41-.33.4-1.12,1.16-1.09.12-.15.23-.31.35-.46Z"/>
      <path class="cls-13" d="M24.31,69.86c.04-.95-.59-1.36-1.34-1.67.02.34.04.67.06,1.01.43.22.85.44,1.28.66Z"/>
      <path class="cls-13" d="M24.31,69.86c-.43-.22-.85-.44-1.28-.66-.09.8.61.84,1.08,1.1h.01c.05-.16.11-.3.18-.44h0Z"/>
      <path class="cls-13" d="M24.11,70.29c-.05.5.31.67.67.83l.03-.02c0-.46-.34-.65-.69-.82h-.01Z"/>
      <polygon class="cls-4" points="23.39 73.91 23.28 73.81 23.24 73.93 23.39 73.91"/>
      <path class="cls-19" d="M34.46,54.31c-.09.14-.18.29-.27.43,1.82.75,3.51,1.79,5.44,2.26.08-.21.16-.42.23-.63-1.43-.66-2.86-1.32-4.3-1.98-.37-.17-.73-.3-1.12-.08Z"/>
      <path class="cls-19" d="M32.6,51.45c-.65,1.51-.62,1.61.64,2.22.13-.28.25-.56.35-.78.79-.34,1.27.23,1.85.38.51.14.93.62,1.76.33-1.64-.77-3.12-1.46-4.61-2.16Z"/>
      <path class="cls-14" d="M39.87,56.37c-.08.21-.15.42-.23.63.07.11.17.17.3.21.36-.16.44.02.44.34.78.52,1.56,1.05,2.34,1.57.03-.7.13-1.42-.49-2.12-.75-.04-1.59-.19-2.35-.62Z"/>
      <path class="cls-19" d="M38.83,54.08c.81,1.47,2.21,1.57,3.73,2.35-1.15-1.37-2.06-2.26-3.73-2.35Z"/>
      <path class="cls-5" d="M40.31,70.79c.2.12.4.24.6.36.27-.31.45-.65.19-1.05-.39-.61-.87-1.11-1.6-1.31-.06.15-.12.31-.19.46.02.31.15.55.43.69.35.18.53.47.56.86Z"/>
      <path class="cls-5" d="M36.26,66.39c-.17,1.23.84,1.24,1.58,1.53.13-.51.04-.92-.49-1.14-.36-.14-.73-.26-1.09-.39Z"/>
      <path class="cls-5" d="M38.64,68.36c.29.14.58.28.86.43.1-.36.35-.79-.2-.95-.33-.1-.51.26-.67.52Z"/>
      <path class="cls-19" d="M40.37,57.54c0-.31-.08-.5-.44-.34.15.11.29.22.44.34Z"/>
      <path class="cls-19" d="M16.6,116.36c-.35.11-.69.21-1.26.39-.49-.15-.79-1.04-1.59-1.12-.62.91.13,1.47.56,2.07.39.55.91.88,1.63.54.01-.7.42-1.26.66-1.88Z"/>
      <path class="cls-14" d="M17.53,97.51c.25.67.53,1.3,1.41,1.42.04-.35.07-.65.1-.94v.02c-.39-.22-.78-.43-1.18-.65-.11.05-.23.1-.34.15Z"/>
      <path class="cls-14" d="M17.26,96.16c-.21-.07-.43-.14-.72-.23-.22.93.54,1.17,1,1.59.11-.06.22-.11.34-.15,0-.14.03-.27.05-.4l.02.04c-.33-.21-.69-.41-.7-.87l.02.04Z"/>
      <path class="cls-14" d="M19.58,99.49c.3.6.74.68,1.47.92-.48-.74-.92-.81-1.47-.92Z"/>
      <path class="cls-19" d="M23.47,101.06c.01-.78-.63-.84-1.14-1.06.08.68.7.77,1.14,1.06Z"/>
      <path class="cls-13" d="M30.66,92.72c-.76-.29-1.01-1.45-2.21-1.21.99,1.16,1.7,2.47,3.05,3.21l.14-.06c-.07-.29-.13-.58-.2-.87-.3-.33-.7-.58-.78-1.08Z"/>
      <path class="cls-13" d="M29.24,95.22c-.03.77.65.78,1.11,1.02-.02-.72-.57-.86-1.11-1.02Z"/>
      <path class="cls-20" d="M30.35,96.23c-.01.77.62.84,1.13,1.04-.03-.72-.64-.82-1.13-1.04Z"/>
      <path class="cls-20" d="M32.14,98.09c.02.74.64.82,1.13,1.05-.05-.71-.63-.83-1.13-1.05Z"/>
      <path class="cls-20" d="M31.47,97.26c-.12.57.32.68.69.85.07-.53-.3-.69-.69-.85Z"/>
      <path class="cls-14" d="M26.42,95.56c-.41.4-1.24.11-1.44.87.97.81,2.01,1.56,2.89,2.45.79.79,1.65,1.03,2.73.85-1-1.81-2.98-2.61-4.19-4.17Z"/>
      <path class="cls-14" d="M24.88,99.04c1.1.4,1.71,1.57,2.89,1.83-.71-.97-1.44-1.91-2.66-2.28h-.02c-.07.16-.13.31-.2.46v-.02Z"/>
      <path class="cls-14" d="M24.98,96.42c-.1-.12-.21-.22-.3-.35-.27-.36-.61-.51-.95-.18-.3.3-.3.69.05,1,.11.1.26.17.38.25.27-.24.55-.48.82-.72Z"/>
      <path class="cls-14" d="M24.27,97.88v.11c.27.21.54.41.82.62h.02c-.03-.55-.42-.65-.84-.72Z"/>
      <path class="cls-13" d="M24.12,70.29c.35.17.68.36.69.82.36.12.66.47,1.11.28-.27-.8-.85-1.27-1.62-1.54-.08.14-.14.28-.18.44Z"/>
      <path class="cls-16" d="M67.12,23.76c-.79-.32-1.7-.05-2.45-.55.73,1.15,1.39,1.41,2.47.94.04-.02-.01-.26-.02-.39Z"/>
      <path class="cls-7" d="M25.09,98.61c-.28-.21-.55-.41-.83-.62-.3-.09-.6-.18-.9-.27-.03,1.06.9,1.03,1.53,1.34.07-.15.13-.3.2-.45Z"/>
      <path class="cls-20" d="M45.45,98.01c.56-.08.54-.34.23-.71-.37-.09-.75-.3-1.1.07v-.02c.28.22.57.44.87.66Z"/>
      <path class="cls-7" d="M17.93,96.95c-.03.13-.04.27-.05.4.4.22.79.43,1.19.65.02-.77-.65-.81-1.13-1.05Z"/>
      <path class="cls-7" d="M17.24,96.12c.02.47.37.66.7.87.08-.54-.34-.68-.7-.87Z"/>
      <path class="cls-13" d="M44.38,99.42c-.04-.36-.23-.63-.54-.82,0,.4.22.64.54.82Z"/>
      <path class="cls-13" d="M45.45,98.01c-.29-.22-.58-.44-.88-.66,0,.59.41.67.87.67h0Z"/>
      <path class="cls-15" d="M38.19,36.89c-.26-1.85.6-3.14,2.19-4,2.34-.96,4.66-.34,5.58,1.5,1.02,2.04.13,4.23-2.32,5.67-.81.37-1.66-.68-2.49.16-.27.27-.77.04-1.09-.22-.43-.35-.83-.74-1.24-1.11-.22-.67-.53-1.32-.63-2.01ZM43.39,34.22c-.95-.46-2.17-.05-2.62.89-.59,1.22.07,2.73,1.42,3.27.82.32,1.84-.07,2.19-.86.54-1.19.06-2.78-1-3.3Z"/>
      <path class="cls-10" d="M61.83,27.25c-1.14-.2-1.31.92-1.94,1.57-.05-.51-.08-.88-.13-1.41-1.21.33-1.54,1.48-2.35,2.21-.37-.69.54-1.19.25-1.84-.81-.1-1.01.58-1.35,1.07-.71.69-1.31,1.66-2.56,1.06-.16,0-.33.01-.49.02-.24.53-.48,1.07-.72,1.6,1.47.44,2.9-.31,4.38-.11.97.13,2-.13,3-.21.31-.57.61-1.13.92-1.7.33-.75.66-1.5.99-2.25Z"/>
      <path class="cls-17" d="M27.74,16.84c-3.12-.96-9.39-1.13-11.35-.35.07.55.41.84.93.9.47.06.95.09,1.42.13,2.59.26,5.21.04,7.78.58.8.17,1.1-.38,1.22-1.26Z"/>
      <path class="cls-3" d="M17,26.35c.08.57.43.84.97.86,1.03.05,2.06.07,3.09.13,1.82.11,3.64.26,5.46.35.9.04.94-.04,1.13-1.51-2.98-.31-5.95-.6-8.95-.47-.6.03-1.29.01-1.7.64Z"/>
      <path class="cls-17" d="M27.44,20.77c-.14-.85-.72-1.02-1.25-1.07-3.14-.3-6.28-.58-9.34.17-.19.84.31,1,.77,1.07.86.13,1.73.29,2.59.23,2.13-.16,4.25.09,6.38.11.34,0,.6-.15.85-.51Z"/>
      <path class="cls-17" d="M27.46,13.53c-2.07-.6-8.86-.72-10.39-.23-.12.72.35,1.08.91,1.11,2.68.17,5.36.43,8.05.3.64-.03,1.27-.2,1.43-1.18Z"/>
      <path class="cls-17" d="M26.02,28.78c-1.31-.26-7.62.01-10.08.43-.05.65.47.79.9.88,2.84.57,5.67.28,8.5-.1.6-.08,1.01-.5.68-1.21Z"/>
      <path class="cls-1" d="M16.67,23.2c.63.98,1.28,1.13,1.88,1.13,2.73-.03,5.48.3,8.2-.29.08-.02.12-.27.17-.41-.08-.47-.44-.66-.83-.71-3.07-.38-6.11-.19-9.42.29Z"/>
      <path class="cls-13" d="M38.82,38.9c-.22-.67-.53-1.32-.63-2.01-.26-1.85.6-3.14,2.19-4-.18-.4-.36-.81-.53-1.21-1.68.63-2.56,2.34-4.26,2.69-.37,2.33.13,3.3,2.11,4.14.36.15.75.25,1.12.38Z"/>
      <path class="cls-13" d="M24.25,3.07c-.87.1-.94,1.27-1.94,1.3-.36-.35.39-.7.2-.94-.08-.4-.21-.43-.32-.2-.32.65-.82,1.15-1.39,1.56-.68.49-1.02,1.16-1.31,1.9.06.24.2.53.44.47,1.17-.28,2.45-.16,3.49-.91.11-.28.22-.56.32-.83-.33-.35-.18-.69-.02-1.05.18-.42.35-.85.52-1.28Z"/>
      <path class="cls-10" d="M29.35,5.77c.51.16,1.02.69,1.54.31.79-.59,1.6-.35,2.34-.2.64-.48.91-1.01.95-1.66-.1-.13-.18-.32-.29-.35-1.24-.35-2.46-.14-3.67.19-.29.57-.58,1.14-.87,1.72Z"/>
      <path class="cls-14" d="M60.84,29.51c-.31.57-.61,1.13-.92,1.7.67.12,1.33.24,2,.37,2.42-2.25,2.18-2.04,3.02-4.66-.63.33-.62,1.07-1.03,1.52-.41.46-.85.9-1.36,1.43-.24-1.19,1.15-1.96.55-3.09-.16.24-.33.47-.49.71-.36.87-.92,1.57-1.78,2.01Z"/>
      <path class="cls-6" d="M29.35,5.77c.29-.57.58-1.14.87-1.72-.77-.12-1.4.64-2.29.26-.63-.27-1.12.44-1.61.82-.45.35-.88.7-.57,1.46.83.23,1.15-.65,1.79-.87.57.65,1.18.67,1.81.06Z"/>
      <path class="cls-7" d="M52.54,31.52c.24-.53.48-1.07.72-1.6.1-.35.34-.71-.06-1.14-1.15.3-1.59,1.36-2.33,2,.36.94,1.11.59,1.67.74Z"/>
      <path class="cls-19" d="M18.45,6.73c.23-.69.66-1.25,1.11-1.82.38-.49.65-1.07,1.05-1.75-1.78.9-2.44,1.66-3.18,3.53.33.19.67.35,1.02.05Z"/>
      <path class="cls-6" d="M23.75,5.4c-.11.28-.22.56-.32.83.03.24.1.45.57.51.59-.68,1.54-1.23,1.66-2.58-.97.05-1.45.63-1.91,1.24Z"/>
      <path class="cls-7" d="M53.75,29.9c1.25.6,1.84-.37,2.56-1.06-1.17-.43-2.08-.21-2.56,1.06Z"/>
      <path class="cls-10" d="M47.96,30.26c.69.11,1.17.13,1.61-.1.19-.1.34-.3.51-.46-1.07-.85-1.12-.83-2.12.56Z"/>
      <path class="cls-7" d="M60.84,29.51c.85-.44,1.42-1.14,1.78-2.01-.26-.08-.53-.16-.79-.24-.33.75-.66,1.5-.99,2.25Z"/>
      <path class="cls-15" d="M9.23,25.05c-.32.97-.31.98.68,1.36-.1-.52-.3-.98-.68-1.36Z"/>
      <path class="cls-5" d="M49.43,35.38c.67.22.97-.1,1.07-.72-.53-.02-.82.32-1.07.72Z"/>
      <path class="cls-8" d="M97.8,14.89c-.92-.44-1.9-.16-2.82-.11-2.86.15-5.69-.33-8.54-.28-.79.01-1.57-.02-2.36.15-2.5.54-3.15,1.28-3.24,3.87-.01.31.04.63.07.93,2.14,2.2,2.83,2.29,5.43.67.05.23.1.46.16.71.57.45,1.01-.06,1.49-.24.21-1.03,1.02-1.55,1.81-2.02.8-.48,1.1-1.66,2.48-1.72-.37.81-.65,1.44-.93,2.07.77-.02,1.07-.9,1.8-.99.31.44-.41.88-.09,1.4.97-1,1.86-1.91,2.87-2.95.12.85-.61,1.31-.38,1.97,1.05-.73,1.62-1.88,2.43-2.81.08-.09-.11-.42-.18-.64Z"/>
      <path class="cls-11" d="M85.4,4.26c-.2.18-.43.22-.68.11-.94.18-1.87.37-2.81.53-1.1.2-1.73.9-1.78,1.95-.08,1.57-.48,3.17.23,4.71.67.63,1.48.91,2.37.84.74-.06,1.39.13,2.05.38l.08.07c.44-.32.87-.18,1.3.05h-.02c.2-.34.42-.65.9-.59.62.07,1.24.13,1.86.19,2.32-.93,4.79-.18,7.16-.65.64-.13,1.4-.33,2.08.06,1.89-.08,3.78-.17,5.69-.26.26-.41.1-.72-.26-1-.16-.02-.31-.07-.44-.16-1.77.25-3.54.33-5.27-.27h-.01c-.13.3-.39.29-.65.27-.46-.02-.91-.03-1.37-.05-.16-.05-.31-.11-.47-.16-1.43.47-2.82.27-4.17-.31-.49.42-1,.77-1.73.53.02-.35.03-.7.05-1.06-.62.41-1.05,1.08-1.87.99-.3-.26-.15-.58-.17-.89-.76-.14-1.15.91-1.96.6l-.04-.03c-.29.67-.73.87-1.38.46-.22.08-.44.17-.67.25-1.67.62-1.96.4-1.99-1.52-.35-1.02.04-1.93.32-2.85,1.54-.69,3.08-.79,4.64-.74q.44-1.07-.99-1.44Z"/>
      <path class="cls-7" d="M97.8,14.89c.07.22.26.55.18.64-.81.94-1.38,2.08-2.43,2.81-.23-.66.5-1.12.38-1.97-1.01,1.04-1.9,1.95-2.87,2.95-.32-.52.39-.96.09-1.4-.73.09-1.03.97-1.8.99h.01c-.17.21-.38.3-.65.24h.02c-.19.49-.38,1-.57,1.5,2.29.39,4.5.12,6.61-.88.06-.17.11-.34.17-.5-.34-.7-.13-1.12.63-1.25h-.01c.46-1.04.92-2.09,1.37-3.14-.37-.11-.75-.3-1.12,0Z"/>
      <path class="cls-20" d="M96.93,19.27c-.06.17-.11.34-.17.5.78.35,1.56.23,2.35.06.48-.61,1.1-1.17,1.42-1.86.53-1.13,1.77-1.82,1.91-3.16-.61-.46-1.25-.36-1.89-.11-.73,1.35-1.73,2.47-3.01,3.32h.01c-.21.41-.42.83-.63,1.24Z"/>
      <path class="cls-13" d="M98.14,11.92c-.68-.4-1.44-.19-2.08-.06-2.37.46-4.84-.28-7.16.65-.06.18-.12.36-.19.54.35.19.71.25,1.12.26,2.46.04,4.93.12,7.39.17.14,0,.28-.13.42-.19.17-.45.33-.9.5-1.35Z"/>
      <path class="cls-18" d="M102.45,14.82c-.14,1.35-1.39,2.03-1.91,3.16-.32.69-.94,1.24-1.42,1.86.99.16,1.82-.1,2.4-.97.38-1.12.63-2.3,1.67-3.06.12-.59.46-1.21-.24-1.68l.06-.02c-.19.24-.37.47-.56.71Z"/>
      <path class="cls-7" d="M91.34,18.91c.28-.63.56-1.26.93-2.07-1.39.06-1.69,1.24-2.48,1.72-.79.47-1.6,1-1.81,2.02.3.11.61.22.91.33.18-.34.36-.7.85-.59l-.03.08c.17-.55.27-1.16,1.01-1.26h-.02c.17-.19.38-.31.65-.24h-.01Z"/>
      <path class="cls-20" d="M103.18,15.81c-1.04.76-1.29,1.94-1.67,3.06.76.18,1.39.06,1.76-.71.39-.8.69-1.59-.09-2.35Z"/>
      <path class="cls-13" d="M97.55,18.03c1.28-.85,2.27-1.97,3.01-3.32-.59-.39-1.13-.23-1.64.17-.46,1.05-.92,2.1-1.37,3.15Z"/>
      <path class="cls-16" d="M88.72,13.04c.06-.18.12-.36.19-.54-.62-.06-1.24-.12-1.86-.19-.48-.06-.7.25-.9.59.84.38,1.68.63,2.57.14Z"/>
      <path class="cls-8" d="M90.72,19.15c-.73.1-.84.71-1.01,1.26.14.08.29.17.43.25l.57-1.51Z"/>
      <path class="cls-8" d="M89.74,20.33c-.49-.11-.67.25-.85.59.53.16.94.15.85-.59Z"/>
      <path class="cls-16" d="M86.16,12.9c-.42-.22-.85-.36-1.3-.05.42.29.85.35,1.3.05Z"/>
      <path class="cls-2" d="M71.57,13.71c.32-.02.58-.1.5-.52-.4,0-.39.33-.48.57l-.02-.04Z"/>
      <path class="cls-17" d="M32.31,81.36c.03-.34-.06-.58-.48-.55-.06.39.32.38.5.54h-.02Z"/>
      <path class="cls-5" d="M32.86,67.31c1.49.62,2.5,2.05,4.14,2.41.05-.16.09-.33.14-.49-.2-.57-.25-1.2-.99-1.46-.95-.33-1.8-.93-2.84-1.05-.17.23-.31.41-.45.6Z"/>
      <path class="cls-12" d="M37.14,69.22c-.05.16-.09.33-.14.49.39.24.77.49,1.16.73.72.12,1.43.23,2.15.35-.04-.39-.21-.68-.56-.86-.28-.14-.41-.38-.43-.69-.72-.39-1.44-.73-2.17-.02Z"/>
      <path class="cls-12" d="M65.56,118.03c-.1.1-.21.2-.29.32-.02.03.06.13.09.2.1-.1.21-.2.29-.32.02-.03-.06-.13-.09-.2Z"/>
      <path class="cls-16" d="M42.4,117.44c.35-.04.69-.08,1.04-.12-.35-.67-.47-.66-1.04.12Z"/>
      <path class="cls-9" d="M86.39,5.7c-1.56-.05-3.1.05-4.64.74-.28.93-.67,1.83-.32,2.85,1.47-1.3,3.43-1.2,5.11-1.84.37.47.12.82-.15,1.07-.5.44-.87.92-.88,1.62.81.32,1.21-.73,1.96-.6.02.31-.13.63.17.89.82.09,1.26-.57,1.87-.99-.02.37-.03.71-.05,1.06.73.23,1.24-.12,1.73-.53.75-.88,1.98-1.82,2.85-2.18.17.49-.42.89-.17,1.38.71-.33,1-1.42,2.02-1.24.21.73-.45.85-.65,1.26-.2.41-.17.76.13,1.09.16.05.31.11.47.16.37-.53.74-1.07,1.11-1.6.24-.58.49-1.15.73-1.73-.57-.3-1.19-.26-1.81-.31-.85-.06-1.7-.23-2.46-.69-1.31.02-2.57-.21-3.81-.6-.75.31-1.55.04-2.31.18-.3.25-.59.14-.88,0Z"/>
      <path class="cls-7" d="M97.86,10.23c1.73.61,3.5.52,5.27.27-.4-.46-.91-.87-1.17-1.4-.44-.91-1.17-1.15-2.06-1.18l-.18.56c.2.19.21.42.05.62-.25.32-.53.2-.79,0-.41.34-.95.56-1.12,1.14Z"/>
      <path class="cls-11" d="M89.59,5.52c1.24.39,2.51.62,3.81.6.13-.29.26-.57.39-.86-.76-.22-1.52-.43-2.28-.65-.9-.02-1.8-.04-2.71-.06-.05.58.39.75.78.97Z"/>
      <path class="cls-18" d="M99.72,8.48l.18-.56c-.36-.71-.88-.26-1.35-.19-.3.52-.6,1.03-.9,1.55-.1.26-.19.52-.29.78.16.06.32.12.49.17h.01c.17-.59.71-.81,1.12-1.14.25-.2.49-.41.74-.61Z"/>
      <path class="cls-7" d="M97.65,9.28c.3-.52.6-1.03.9-1.55-.24-.27-.49-.54-.87-.61-.24.58-.49,1.15-.73,1.73.23.14.47.29.7.43Z"/>
      <path class="cls-15" d="M109.2,14.3c-.64,0-.78.51-1.29.91,1.07.2,1-.55,1.29-.91h0Z"/>
      <path class="cls-17" d="M89.59,5.52c-.39-.22-.84-.39-.78-.97q-1.26,0-1.53,1.15c.76-.15,1.56.13,2.31-.18Z"/>
      <path class="cls-14" d="M8.34,17.45c-.45.63-.11,1.13.28,1.61l.31-.75-.59-.86Z"/>
      <path class="cls-14" d="M4.37,9.88c0,.69.2,1.25.93,1.48.08-.74-.22-1.24-.93-1.48Z"/>
      <path class="cls-14" d="M6.02,13.26c-.05.72.24,1.22.92,1.47.09-.74-.2-1.24-.92-1.47Z"/>
      <path class="cls-2" d="M5.9,8.44c.07.18.1.43.38.34.07-.02.14-.24.11-.34-.03-.11-.17-.23-.28-.26-.19-.05-.27.07-.21.27Z"/>
      <path class="cls-14" d="M7.66,16.62c-.06.52.21.76.69.85.06-.52-.26-.73-.69-.85Z"/>
      <path class="cls-14" d="M7.42,15.99c-.08.28,0,.5.25.65.12-.29.05-.52-.25-.65Z"/>
      <path class="cls-14" d="M7.18,15.35c-.11.29-.02.5.25.65.15-.31.03-.51-.25-.65Z"/>
      <path class="cls-14" d="M6.94,14.72c-.14.3-.01.5.25.64.11-.29.03-.51-.25-.64Z"/>
      <path class="cls-14" d="M5.78,12.62c-.11.29-.04.51.24.64.14-.3.06-.51-.24-.64Z"/>
      <path class="cls-14" d="M5.54,11.98c-.13.3,0,.5.25.65.13-.3.02-.5-.25-.65Z"/>
      <path class="cls-14" d="M5.29,11.35c-.16.31-.04.51.25.65.1-.29.02-.5-.25-.65Z"/>
      <path class="cls-14" d="M4.13,9.24c-.05.27.03.49.25.66.09-.29,0-.51-.25-.66Z"/>
      <path class="cls-2" d="M6.98,9.99c.03.11.07.21.1.32.01-.05.04-.11.03-.15-.03-.06-.09-.11-.14-.16h.02Z"/>
      <path class="cls-2" d="M6.96,10c-.04-.1-.08-.2-.13-.31,0,.05-.03.12-.01.15.04.06.1.1.16.15h-.02Z"/>
      <path class="cls-15" d="M6.6,21.43c-.69.03-1.37,0-1.97-.38.02.35.05.71.07,1.06h0c.85.46,1.1,1.23,1.16,2.11h0c.55.15.7.71,1.07,1.05.25-.95,1.17-1.7.81-2.82-.56-.13-.8-.63-1.14-1.01Z"/>
      <path class="cls-19" d="M6.94,25.26c-.37-.34-.52-.9-1.07-1.06-.07.73.29,1.2.93,1.49.07-.14.12-.28.14-.43Z"/>
      <path class="cls-19" d="M5.87,24.21c-.06-.88-.32-1.65-1.16-2.1,0,.92.26,1.68,1.16,2.1Z"/>
      <path class="cls-19" d="M4.7,22.1c-.02-.35-.05-.71-.07-1.06h0c-.24-.18-.47-.37-.71-.56-.31.81.03,1.31.77,1.62Z"/>
      <path class="cls-14" d="M3.41,22.61c-.05.72.25,1.21.93,1.46h-.01c.05-.7-.29-1.17-.91-1.47h-.02Z"/>
      <path class="cls-15" d="M3.93,20.48c.24.19.47.38.71.58-.1-.36.25-1.06-.62-.85-.03.09-.06.18-.08.28Z"/>
      <path class="cls-14" d="M4.34,24.07c.04.11.07.22.11.32.01-.05.05-.12.03-.15-.03-.06-.1-.11-.15-.17h.01Z"/>
      <path class="cls-14" d="M3.7,20.1c-.14-.25-.28-.49-.42-.74-.07.36.12.58.42.74Z"/>
      <path class="cls-14" d="M5.27,15c.03-.15.09-.29.09-.44,0-.23-.05-.47-.31-.54-.1-.03-.29.04-.35.13-.14.22-.01.44.15.6.1.11.24.18.36.27l.06-.02Z"/>
      <path class="cls-14" d="M5.86,19.48c-.03.5.28.72.7.86.06-.52-.28-.72-.7-.86Z"/>
      <path class="cls-14" d="M4.46,16.74c-.08.54.28.72.69.85.03-.5-.3-.7-.69-.85Z"/>
      <path class="cls-14" d="M6.54,20.31c.06.28.12.56.18.84.14-.32.1-.61-.18-.84Z"/>
      <path class="cls-14" d="M5.62,18.84c-.05.27.05.49.25.67.1-.29,0-.51-.25-.67Z"/>
      <path class="cls-14" d="M5.38,18.21c-.11.29.02.5.25.66.11-.3-.02-.5-.25-.66Z"/>
      <path class="cls-14" d="M5.14,17.57c-.1.29,0,.51.25.66.05-.27-.03-.49-.25-.66Z"/>
      <path class="cls-14" d="M4.23,16.12c-.14.3-.03.51.24.65.11-.29.03-.51-.24-.65Z"/>
      <polygon class="cls-14" points="5.93 16.14 6.03 16.23 6.06 16.12 5.93 16.14"/>
      <path class="cls-14" d="M5.22,15.02c.03.13.06.26.09.4.42-.17.07-.28-.03-.42l-.06.02Z"/>
      <path class="cls-8" d="M44.39,37.51c.54-1.19.06-2.78-1-3.3-.95-.46-2.17-.05-2.62.89-.59,1.22.07,2.73,1.42,3.27.82.32,1.84-.07,2.19-.86Z"/>
      <path class="cls-7" d="M85.5,10.15c0-.69.38-1.17.88-1.62.28-.25.53-.61.15-1.07-1.68.64-3.64.54-5.11,1.84.03,1.93.32,2.15,1.99,1.52.22-.08.44-.17.67-.25.08-.22.15-.43.23-.65-.37-.55.17-.28.32-.36.28.18.55.37.83.55l.04.03Z"/>
      <path class="cls-7" d="M95.36,10.29c-.3-.34-.33-.68-.13-1.09.2-.4.86-.53.65-1.26-1.02-.19-1.31.91-2.02,1.24-.25-.49.35-.88.17-1.38-.86.35-2.1,1.3-2.85,2.18,1.35.59,2.74.78,4.17.31Z"/>
      <path class="cls-17" d="M97.65,9.28c-.23-.14-.47-.29-.7-.43-.37.53-.74,1.07-1.11,1.6.46.02.91.03,1.37.05.05-.15.11-.29.16-.44.1-.26.19-.52.29-.78Z"/>
      <path class="cls-9" d="M84.31,9.92c-.08.22-.15.43-.23.65.65.41,1.09.21,1.38-.46-.28-.18-.55-.37-.83-.55-.11.12-.21.24-.32.36Z"/>
      <path class="cls-7" d="M97.36,10.06c-.05.15-.11.29-.16.44.26.01.52.03.65-.27-.16-.06-.32-.12-.49-.17Z"/>
      <path class="cls-13" d="M96.93,19.27c.21-.42.42-.83.63-1.25-.77.13-.97.55-.63,1.25Z"/>
      <path class="cls-8" d="M91.36,18.91c-.27-.07-.48.05-.65.25.27.06.48-.03.65-.25Z"/>
      <path class="cls-17" d="M99.72,8.48c-.25.2-.49.41-.74.61.26.21.54.33.79,0,.16-.2.15-.43-.05-.62Z"/>
      <path class="cls-11" d="M84.31,9.92c.11-.12.21-.24.32-.36-.16.08-.69-.19-.32.36Z"/>
    </g>
  </g>
</svg>