<?xml version="1.0" encoding="UTF-8"?>
<svg id="Layer_2" data-name="Layer 2" xmlns="http://www.w3.org/2000/svg" viewBox="0 0 19.99 160.91">
  <defs>
    <style>
      .cls-1 {
        fill: #d3d3d3;
      }

      .cls-1, .cls-2, .cls-3, .cls-4, .cls-5, .cls-6, .cls-7, .cls-8, .cls-9, .cls-10, .cls-11, .cls-12, .cls-13, .cls-14, .cls-15, .cls-16, .cls-17, .cls-18, .cls-19 {
        stroke-width: 0px;
      }

      .cls-2 {
        fill: #aeaeae;
      }

      .cls-3 {
        fill: #b9b9b9;
      }

      .cls-4 {
        fill: #9b9b9b;
      }

      .cls-5 {
        fill: #f5f5f5;
      }

      .cls-6 {
        fill: #b2b2b2;
      }

      .cls-7 {
        fill: #dedede;
      }

      .cls-8 {
        fill: #919191;
      }

      .cls-9 {
        fill: #f6f6f6;
      }

      .cls-10 {
        fill: #c6c6c6;
      }

      .cls-11 {
        fill: #cfcfcf;
      }

      .cls-12 {
        fill: #a3a3a3;
      }

      .cls-13 {
        fill: #bfbfbf;
      }

      .cls-14 {
        fill: #dadada;
      }

      .cls-15 {
        fill: #e4e4e4;
      }

      .cls-16 {
        fill: #ececec;
      }

      .cls-17 {
        fill: #9e9e9e;
      }

      .cls-18 {
        fill: #f0f0f0;
      }

      .cls-19 {
        fill: #9d9d9d;
      }
    </style>
  </defs>
  <g id="Objects">
    <g>
      <path class="cls-19" d="M14.17,20.98c.43,2.61,0,5.24.07,7.86.07,2.3,0,4.61.06,6.92.07,3.18-.07,6.37-.09,9.56-.04,5.41.03,10.83-.14,16.24-.08,2.45-.01,4.91-.46,7.36-.31,1.69-.54,3.48.49,5.09.32.49.19,1.08.19,1.79,1,.53,1.8,1.38,2.01,2.5.7.58,1.49.44,2.14.74,1.11.51,1.63,1.28,1.4,2.47-.21,1.09-.58,2.12-1.3,3.04-.84,1.06-1.51,2.22-1.78,3.61-.25,1.25-.19,2.35.64,3.38.5.62.88,1.33,1.32,1.99,1.09,1.62.92,3.54,1.09,5.33.18,1.95-.08,3.94-.15,5.92-.44.2-.87.41-1.31.61-.23-.91-.12-1.85-.17-2.77-.08-1.47.31-2.96-.24-4.4.19-1.64.14-3.21-1.29-4.37-.19-.27-.37-.53-.56-.8-.4-.87-.81-1.74-1.21-2.61.07-.34.19-.68.02-1.02.14-.55-.13-1.04-.22-1.55.6-.22.85-.7.95-1.3.29-.92.8-1.72,1.38-2.49.67-.89,1.22-1.83,1.23-3.02-1.1-.72-2.32-.77-3.47-.81-3.25-.1-6.5-.05-9.75-.13-.83-.02-1.3.48-1.89.85l-.18-.05-.63-1.09c.66-1.48,2.11-1.18,3.35-1.45.7-.81,1.09-1.96,2.17-2.25.29-1.35.25-2.58,1.05-3.58.36-.45.21-1.07.24-1.63.39-7.56.01-15.13.24-22.7.08-2.79-.06-5.57-.05-8.36,0-4.86.15-9.72.24-14.58.09-4.7.25-9.39.28-14.09.01-1.9-.47-3.79-.26-5.72.19-1.77.96-3.34,1.63-4.94.24-.58.84-.7,1.7-.31,1.16,2.55,2.46,5.27,1.78,8.46-.42,0-.85.01-1.27.02.06-2.01-.3-3.93-1.21-5.69-.58.08-.71.52-.8.87-.45,1.79-.77,3.63-.47,5.45.37,2.22.43,4.44.39,6.67-.03,1.67-.17,3.34-.17,5.01-.01,3.97-.04,7.93-.24,11.9-.1,1.98-.04,3.97-.04,5.96,0,3.1.12,6.19.04,9.29-.08,3.25-.3,6.51.11,9.76-.07,1.85-.14,3.7-.21,5.54-.03.98.26,1.97-.1,2.96-.23.62.1,1.19.31,1.77,0,.54.08,1.02.7,1.2.39-.57.3-1.06.02-1.55.59-1.2.89-2.4.07-3.63.34-.34.64-.72.66-1.23.03-1.27.05-2.53.07-3.8.07-5.1.23-10.2.19-15.3-.02-2.7.22-5.4.13-8.09-.13-3.74-.03-7.48-.04-11.22,0-1.26-.14-2.56.3-3.8.35.07.7.15,1.05.22ZM14.74,78.52c-1.12-1.36-2.11-1.12-3.02-1.11-2.7.04-2.7.05-4.07,1.04,2.35.02,4.46.04,7.1.07ZM9.95,74.03c-.34.53-.88.97-.43,1.73.99-.04,2-.07,2.91-.11.41-.79.16-1.23-.42-1.68-.62.02-1.33.04-2.06.06ZM11.77,72.38c.07-1.07-.25-1.74-.51-2.56-.81,1.1-.73,1.54.51,2.56Z"/>
      <path class="cls-4" d="M19.67,106.32c.21,3.08.37,6.16.28,9.26-.13,4.37-.05,8.75-.06,13.12,0,1.19.01,2.38.01,3.57.01,3.58-.07,7.16.06,10.73.08,2.31-.07,4.6-.26,6.89-.03.4-.14.8-.1,1.19.21,2.47-1.03,4.45-2.17,6.46-.71,1.24-1.92,1.99-3.12,2.51-1.75.76-3.65,1.07-5.59.68-.18-.5-.34-.99.08-1.46,1.26-.15,2.52-.24,3.77-.45,1.78-.3,2.67-.99,3.55-2.72-4.21.71-8.34,1.14-12.47.23-.17.24-.31.43-.45.62-.07-.06-.15-.12-.23-.17.07-.54.1-1.08-.19-1.59-.17-.29-.12-.59.09-.87.12-.07.23-.14.34-.22.16-.04.31-.09.45-.15.38.46.79.88,1.47.78.16-.06.31-.13.47-.19.81.53,1.7.51,2.58.43.17-.33.31-.6.45-.87.33.45.72.84,1.29.91.58.07.59-.32.5-.74.14-.07.26-.16.37-.28.28.27.52.6.84.79.37.21.85.47,1.08-.21,1.05.35,2.06.25,3.01-.32.66-.25,1.32-.5,1.97-.76.48-3.15.89-6.25.76-9.34-.28-6.35-.14-12.69-.18-19.04-.03-4.44.16-8.88,0-13.33-.06-1.81-.26-3.64.09-5.45.43,0,.86-.02,1.29-.03Z"/>
      <path class="cls-4" d="M.41,152.38c-.53-2.12-.47-4.28-.25-6.41.44-4.36.34-8.75.57-13.12.38-7.33.04-14.67.14-22,.05-3.34-.1-6.68-.17-10.03-.03-1.53.19-3.03.6-4.49.37-1.3.83-2.56,1.9-3.52,1.56-1.41,1.69-3.19,1.05-5.06-.57-1.66-1.2-3.29-1.8-4.94.32-.17.65-.33.97-.5,1.33,1.45,1.73,3.33,2.35,5.1.67,1.92.51,3.72-.74,5.37-.44.23-.65.6-.69,1.09-.89,1.11-1.89,2.17-1.41,3.79-.64,1.09-1.18,2.19-.4,3.45.09.29.17.58.26.87-.63.53-.88,1.14-.46,1.92-.13.71.32,1.27.5,1.9-.36.34-.29.71-.05,1.08-.59.47-.38,1.08-.24,1.65.13.5.34.99.51,1.48l-.2.09c-.61,1.45-.49,2.94-.21,4.44-.46.28-.45.67-.26,1.11.1.33.19.66.29.99-.14.44.08.88-.09,1.36-.3.87-.4,1.8.2,2.63-.66.76-.33,1.56-.11,2.36-.39.39-.42.83-.18,1.3-.13.76.06,1.47.34,2.16-.83,1.8-.36,3.68-.37,5.54-.17,1.01-.25,2.03-.25,3.06,0,3.95-.18,7.89-.54,11.83-.14,1.55-.19,3.13.22,4.67-.1.08-.2.16-.3.23-.39.2-.79.4-1.18.6Z"/>
      <path class="cls-12" d="M8.79,159.28c-.42.47-.26.96-.08,1.46-1.54.39-3.01-.06-4.43-.51-1.28-.4-2.04-1.43-2.35-2.75.34-.23.68-.46,1.02-.69.08.05.16.1.23.17.81,1.3,2.08,1.83,3.52,2.04.69.1,1.39.19,2.08.28Z"/>
      <path class="cls-8" d="M2.96,156.79c-.34.23-.68.46-1.02.69-1.02-1.55-1.38-3.29-1.53-5.1.39-.2.79-.4,1.18-.6.38.87.43,1.91,1.26,2.56-.2.27-.26.58-.09.87.29.51.27,1.04.19,1.59Z"/>
      <path class="cls-19" d="M13.9,10.66c.03,1.42.06,2.83.09,4.25-.42.17-.83.34-1.25.5-.27-1.99-.61-3.99.31-5.92.28.39.56.78.84,1.18Z"/>
      <path class="cls-19" d="M14.05,16.6c.33,1.45.07,2.92.12,4.38-.35-.07-.7-.15-1.05-.22-.32-1.48-.57-2.96-.25-4.47.34.31.74.4,1.18.31Z"/>
      <path class="cls-12" d="M14.05,16.6c-.44.08-.84,0-1.18-.31-.18-.27-.24-.56-.13-.88.42-.17.83-.34,1.25-.5.22.56.42,1.11.06,1.69Z"/>
      <path class="cls-12" d="M13.9,10.66c-.28-.39-.56-.78-.84-1.18-.02-.32.11-.57.33-.79.42,0,.85-.01,1.27-.02.05.78-.52,1.32-.76,1.98Z"/>
      <path class="cls-17" d="M19.67,106.32c-.43,0-.86.02-1.29.03-.01-.31-.02-.63-.04-.94.44-.2.87-.41,1.31-.61.13.51.38,1.01.02,1.53Z"/>
      <path class="cls-19" d="M3.43,82.31c-.32.17-.65.33-.97.5-.3-.25-.43-.57-.37-.96.44-.17.58-.6.84-.93l.18.05c.11.45.21.89.32,1.34Z"/>
      <path class="cls-4" d="M2.92,80.92c-.27.32-.41.76-.84.93-.23-.7-.42-1.4.21-2.02l.63,1.09Z"/>
      <path class="cls-9" d="M13.39,8.7c-.23.21-.36.47-.33.79-.92,1.93-.58,3.93-.31,5.92-.11.31-.05.6.13.88-.32,1.51-.08,2.99.25,4.47-.44,1.24-.3,2.54-.3,3.8,0,3.74-.1,7.48.04,11.22.1,2.69-.15,5.39-.13,8.09.03,5.1-.12,10.2-.19,15.3-.47-.46-.69-1.24-1.52-1.26-.41-3.25-.19-6.51-.11-9.76.08-3.1-.04-6.19-.04-9.29,0-1.99-.06-3.98.04-5.96.2-3.96.22-7.93.24-11.9,0-1.67.14-3.34.17-5.01.04-2.23-.01-4.45-.39-6.67-.3-1.81.01-3.66.47-5.45.09-.35.22-.78.8-.87.91,1.76,1.26,3.68,1.21,5.69Z"/>
      <path class="cls-14" d="M11.01,57.91c.84.03,1.05.8,1.52,1.26-.02,1.27-.04,2.53-.07,3.8-.01.51-.31.89-.66,1.23-.31-.28-.47-.76-1-.75.07-1.85.14-3.7.21-5.54Z"/>
      <path class="cls-15" d="M14.74,78.52c-2.63-.02-4.75-.04-7.1-.07,1.37-.99,1.37-1,4.07-1.04.91-.01,1.9-.25,3.02,1.11Z"/>
      <path class="cls-13" d="M14.67,87.88c-.55-.07-.73-.51-.96-.92-.58-1.04-.86-2.15-1.07-3.52,1.06.45,1.2,1.38,1.63,2.05.34.54.55,1.15,1.35,1.1-.09.59-.34,1.08-.95,1.3Z"/>
      <path class="cls-10" d="M11.37,84.75c.94,1.49,2.19,2.77,2.94,4.39.07.15.38.19.58.29.18.34.06.68-.02,1.02-.26.09-.53.17-.79.26-.74-1.21-1.47-2.41-2.21-3.62-.31-.72-.63-1.44-.94-2.16.15-.06.29-.11.44-.16Z"/>
      <path class="cls-18" d="M9.95,74.03c.73-.02,1.44-.04,2.06-.06.58.45.83.9.42,1.68-.91.03-1.92.07-2.91.11-.45-.76.09-1.2.43-1.73Z"/>
      <path class="cls-15" d="M10.8,63.46c.53,0,.69.47,1,.75.82,1.23.52,2.43-.07,3.63-.24.12-.48.23-.72.35-.21-.57-.54-1.15-.31-1.77.37-.99.07-1.97.1-2.96Z"/>
      <path class="cls-15" d="M11.77,72.38c-1.24-1.02-1.32-1.46-.51-2.56.26.82.58,1.49.51,2.56Z"/>
      <path class="cls-18" d="M11.01,68.18c.24-.12.48-.23.72-.35.29.49.37.98-.02,1.55-.62-.18-.71-.66-.7-1.2Z"/>
      <path class="cls-16" d="M16.65,93.86l-.56.24c-.13-.26-.25-.52-.38-.77.11-.11.24-.2.38-.27.19.27.37.53.56.8Z"/>
      <path class="cls-17" d="M2.39,115.64c-.2-.43-.2-.83.26-1.11.6.66.71,1.71,1.77,2.26.23-1.28-.13-2.4-.12-3.51.01-1.15-.9-2.15-1.45-3.19l.2-.09c.47.28.52,1.23,1.52.85.12-1.25-.96-2.06-1.23-3.14.09-.05.18-.09.27-.13.12-.04.24-.08.36-.15.2.06.4.12.61.17.17-.75-.18-1.34-.39-1.97.37-.25.74-.51,1.19-.81.19.22.38.45.57.67.08.68.16,1.36.23,2.03.04.32.12.59.5.63v-.02c-.59-.18-.68.28-.69.65-.03,1.75.01,3.5-.02,5.25-.01.65.01,1.27.27,1.87-.29.59-.11,1.07.32,1.5v-.05c-.48.1-.38.39-.22.69v-.05c-.6.99-.6,1.37.03,2.19v-.04c-.54.07-.34.39-.22.68v-.04c-.66.87-.37,1.85-.34,2.81-.05.23-.13.46-.14.69-.03,3.58-.05,7.16-.05,10.74,0,.95.18,1.91.1,2.85-.16,1.82-.12,3.64-.11,5.46,0,2.3-.04,4.6-.07,6.9l.04-.04c-.22.16-.26.4-.24.65-1.11,1.32-.52,2.52.27,3.7-.16.06-.31.13-.47.19-.18-.48-.34-.97-.55-1.44-.15-.36-.41-.61-.85-.49-.71-.12-.94-.58-.85-1.25,1.02-.34,1.18-1.2,1.22-2.1.05-1.26.09-2.53.07-3.79-.03-2.99-.23-5.99.1-8.98.11-1.03-.03-2.05-.38-3.03.46-.8.4-1.69.25-2.5-.23-1.17,0-2.29.07-3.43.08-.97-.18-1.88-.52-2.78l.12-.11c.85-.87.44-1.76.05-2.65.2-.33.62-.71.56-.98-.38-1.62.12-3.43-1.03-4.87-.13-.51-.37-.88-.99-.7Z"/>
      <path class="cls-9" d="M15.56,152.63c-.5.61-.04,1.11.17,1.63-.96.57-1.96.66-3.01.32l-.12-.12c.42-.67.01-1.17-.38-1.64-.34-.41-.74-.77-1.11-1.15.76-1.72,1.52-3.44,1.22-5.39.13-2.04.36-4.09.36-6.13-.01-5.56-.19-11.12-.19-16.68,0-5.87.13-11.74.22-17.6,0-.35.18-.59.58-.58.36.04.57.24.58.6.08,2.39.21,4.77.22,7.16,0,5.73-.06,11.46-.06,17.19,0,4.3.07,8.59-.02,12.9-.06,2.83-.31,5.73.49,8.56.34.3.69.62,1.05.94Z"/>
      <path class="cls-18" d="M5.52,150.26c.03-2.3.08-4.6.07-6.9,0-1.82-.04-3.64.11-5.46.08-.94-.1-1.9-.1-2.85,0-3.58.03-7.16.05-10.74,0-.23.09-.46.14-.69.28-.1.56-.2.84-.3.04.47.13.95.12,1.42-.21,7.54.11,15.07.23,22.61.05,3.21.09,3.21,2.47,5.23-.41.97.4,1.27.95,1.71.09.42.08.81-.5.74-.57-.07-.96-.46-1.29-.91-.57-1.4-1.23-2.75-2.16-4.03-.34.06-.64.11-.94.16Z"/>
      <path class="cls-18" d="M8.79,159.28c-.69-.09-1.39-.18-2.08-.28-1.45-.21-2.71-.74-3.52-2.04.14-.19.28-.38.45-.62,4.13.91,8.26.48,12.47-.23-.88,1.73-1.77,2.42-3.55,2.72-1.25.21-2.51.3-3.77.45Z"/>
      <path class="cls-11" d="M5.52,150.26c.3-.05.6-.1.94-.16.93,1.28,1.59,2.63,2.16,4.03-.14.27-.28.54-.45.87-.88.08-1.77.11-2.58-.43-.8-1.18-1.39-2.37-.27-3.7.37.41.45,1.04,1.04,1.31-.09-.74-.43-1.36-.8-1.96l-.04.04Z"/>
      <path class="cls-16" d="M12.6,154.46l.12.12c-.24.68-.72.43-1.08.21-.32-.19-.57-.52-.84-.79-.32-.56-.63-1.12-.95-1.68.23-.33.57-.46.95-.51.37,1.04.94,1.94,1.81,2.64Z"/>
      <path class="cls-7" d="M2.87,151.57c-.09.67.14,1.13.85,1.25-.12.03-.23.07-.33.13-.5.32-.32.75-.19,1.18-.11.08-.23.15-.34.22-.83-.65-.88-1.69-1.26-2.56.11-.07.21-.15.3-.23.32.25.65.17.98.02Z"/>
      <path class="cls-1" d="M3.39,152.94c.11-.06.22-.1.33-.13.44-.11.7.14.85.49.2.47.37.96.55,1.44-.68.1-1.09-.32-1.47-.78-.09-.34-.18-.69-.26-1.03Z"/>
      <path class="cls-10" d="M9.84,152.33c.32.56.63,1.12.95,1.68-.11.11-.23.21-.37.28-.55-.44-1.36-.74-.95-1.71l.17-.14.2-.1Z"/>
      <path class="cls-2" d="M3.39,152.94c.09.34.18.69.26,1.03-.15.06-.3.11-.45.15-.13-.42-.31-.86.19-1.18Z"/>
      <path class="cls-9" d="M2.87,151.57c-.33.15-.66.23-.98-.02-.41-1.54-.35-3.12-.22-4.67.35-3.94.54-7.88.54-11.83,0-1.04.08-2.05.25-3.06.47.56.95,1.13,1.42,1.69.35.98.49,2,.38,3.03-.33,2.99-.13,5.98-.1,8.98.01,1.26-.02,2.53-.07,3.79-.04.89-.2,1.76-1.22,2.1Z"/>
      <path class="cls-12" d="M15.7,93.33c.13.26.25.52.38.77-.83.65-1.69,1.08-2.83,1.05-2.3-.06-4.6.08-6.9.05-.88-.01-1.77-.23-2.01-1.32.04-.48.25-.86.69-1.09.09.29.14.67.51.7.94.07,1.89.14,2.84.12,2.44-.07,4.88-.18,7.32-.28Z"/>
      <path class="cls-15" d="M3.88,133.67c-.47-.56-.95-1.13-1.42-1.69,0-1.85-.46-3.74.37-5.54.55.33.6,1.18,1.36,1.29-.06,1.14-.3,2.26-.07,3.43.16.82.21,1.71-.25,2.5Z"/>
      <path class="cls-7" d="M2.85,110.09c.55,1.04,1.46,2.04,1.45,3.19-.01,1.11.35,2.23.12,3.51-1.07-.56-1.17-1.61-1.77-2.26-.28-1.49-.4-2.98.21-4.44Z"/>
      <path class="cls-1" d="M3.37,116.34c1.15,1.45.66,3.25,1.03,4.87.06.27-.36.65-.56.98-.35-.52-.71-1.05-1.06-1.57-.6-.83-.5-1.76-.2-2.63.16-.48-.06-.92.09-1.36.23-.1.47-.19.7-.29Z"/>
      <path class="cls-10" d="M2.93,97.66c.19-.1.38-.13.55.05.12.19.24.37.36.56.23.47.49.93.69,1.41.25.6-.03,1-.57,1.27-.1-.07-.19-.14-.29-.21.02.12.04.23.06.35l-.23.05c-.33,0-.65,0-.98-.01-.78-1.26-.23-2.36.4-3.45Z"/>
      <path class="cls-16" d="M4.18,105.65c.21.62.56,1.22.39,1.97-.21-.06-.41-.12-.61-.17-.26-.63-.45-1.31-1.14-1.64-.18-.63-.63-1.19-.5-1.9.55-.15.65.48,1.05.59.27.38.54.77.81,1.15Z"/>
      <path class="cls-15" d="M3.34,107.72c.27,1.09,1.35,1.89,1.23,3.14-1,.38-1.05-.57-1.52-.85-.17-.49-.38-.98-.51-1.48-.14-.57-.35-1.18.24-1.65.1.15.2.3.3.45.03.16.12.29.25.38Z"/>
      <path class="cls-16" d="M2.79,120.62c.35.52.71,1.05,1.06,1.57.39.89.8,1.78-.05,2.65-.2-.73-.53-1.37-1.12-1.86-.22-.8-.55-1.6.11-2.36Z"/>
      <path class="cls-16" d="M4.2,127.73c-.76-.11-.82-.96-1.36-1.29-.28-.69-.47-1.4-.34-2.16.6-.13.78.46,1.18.67.35.89.6,1.8.52,2.78Z"/>
      <path class="cls-14" d="M2.53,101.12c.33,0,.65,0,.98.01.46.84.91,1.68,1.37,2.52-.28.17-.26.86-.85.49-.37-.74-.56-1.59-1.24-2.15-.09-.29-.17-.58-.26-.87Z"/>
      <path class="cls-6" d="M2.79,101.98c.68.57.87,1.41,1.24,2.15-.22.12-.44.24-.65.36-.4-.11-.5-.75-1.05-.59-.42-.78-.16-1.39.46-1.92Z"/>
      <path class="cls-6" d="M3.08,107.33c-.1-.15-.2-.3-.3-.45-.24-.37-.31-.73.05-1.08.69.33.88,1.01,1.14,1.64-.11.06-.23.11-.36.15-.11-.21-.29-.3-.52-.25Z"/>
      <path class="cls-10" d="M3.68,124.95c-.4-.21-.58-.8-1.18-.67-.24-.48-.21-.91.18-1.3.59.49.92,1.14,1.12,1.86l-.12.11Z"/>
      <path class="cls-7" d="M3.37,116.34c-.23.1-.47.19-.7.29-.1-.33-.19-.66-.29-.99.62-.17.85.19.99.7Z"/>
      <path class="cls-17" d="M15.56,152.63c-.36-.32-.71-.63-1.05-.94-.8-2.83-.56-5.72-.49-8.56.09-4.3.03-8.6.02-12.9,0-5.73.07-11.46.06-17.19,0-2.39-.14-4.77-.22-7.16-.01-.36-.22-.57-.58-.6l-.02.03c.68-.36.68-.65,0-1.1v.03c.6-.05.41-.37.22-.68v.05c.34-.1.3-.37.25-.64.24-.35.22-.71.07-1.08.29-1.28.48-2.58,1.11-3.78.41-.77,1.03-.92,1.75-.85.33.03.47.37.44.73-1.43.96-1.71,2.42-1.69,3.98.04,2.94.18,5.87.2,8.81.02,3.48-.09,6.97-.07,10.45.02,4.04.17,8.09.19,12.13.02,3.09-.08,6.18-.12,9.27-.02,1.91-.02,3.81-.07,5.72-.03,1.14.1,2.19.99,2.85-.12.77-.44,1.19-.99,1.44Z"/>
      <path class="cls-10" d="M9.01,84.33c.73,1.05,1.46,2.1,2.19,3.16.49,1.43,1.79,2.32,2.44,3.65-.32.28-.77.52-1.02.13-.56-.87-1.22-1.09-2.18-.8-.18.05-.49-.32-.74-.49-.4-.75-.69-1.56-1.36-2.16-.84-.75-1.01-1.7-.63-2.75.95,1.51,1.54,3.31,3.44,4.5-.76-1.48-1.38-2.68-1.99-3.89-.22-.42-.47-.85-.13-1.34Z"/>
      <path class="cls-14" d="M7.69,85.05c-.38,1.05-.22,2,.63,2.75.67.6.96,1.41,1.36,2.16-.18,0-.36.02-.54.03-.19-.43-.46-.65-.92-.34-1.06-1.04-1.44-2.42-1.97-3.52.17-.93.61-1.34,1.25-1.57.06.16.12.32.19.48Z"/>
      <path class="cls-15" d="M7.69,85.05c-.06-.16-.12-.32-.19-.48.49-.13.89-.84,1.5-.24-.33.48-.08.91.13,1.34.61,1.2,1.23,2.4,1.99,3.89-1.9-1.19-2.48-2.99-3.44-4.5Z"/>
      <path class="cls-16" d="M13.63,91.13c-.64-1.33-1.95-2.21-2.44-3.65.22-.13.45-.27.67-.4.74,1.21,1.47,2.41,2.21,3.62l-.45.43Z"/>
      <path class="cls-10" d="M8.22,89.66c.46-.31.73-.09.92.34-.46.32-.76.18-.92-.34Z"/>
      <path class="cls-16" d="M11.37,84.75c-.15.05-.3.11-.44.16.03-.14.06-.27.09-.41.12.08.23.16.35.25Z"/>
      <path class="cls-19" d="M13.3,105.29c-.4-.01-.57.23-.58.58-.08,5.87-.21,11.74-.22,17.6,0,5.56.17,11.12.19,16.68,0,2.04-.23,4.09-.36,6.13-.34.08-.68.17-1.02.25-.12-2.68-.25-5.36-.37-8.04.53-.81.06-1.52-.22-2.25.54-.3.75-.77.68-1.36-.13-1.06-.47-2.08-.26-3.19.07-.37-.34-.84-.53-1.26.11-.12.29-.23.3-.35.14-1.78.29-3.54,0-5.33-.16-.98-.4-2.09-.11-2.98.33-1.03-.08-1.84-.17-2.75.72-.71.29-1.4-.04-2.1.32-.38.63-.75.47-1.3.06-.53.1-1.05-.31-1.48.34-.25.34-.56.16-.91.44-.87-.13-1.49-.53-2.16-.4-.68-1.22-1.04-1.39-1.88.21-.1.41-.21.62-.31.29.02.51-.09.66-.33,1.12-.88,1.14-.96.58-2.78.94-.6.3-1.31.12-1.98.31-.5.67-1.01-.44-1.14.21-.51.71-.88.65-1.45.33-1.27-.11-2.17-1.12-2.86-1.04.67-.28,1.14-.07,1.64-.68.49-1.13-.37-1.74-.29-.19-.04-.39-.08-.58-.13.07-.89.27-1.66,1.21-2.09,2.34-1.09,3.98-.08,4.08,2.56.03.7.1,1.4.15,2.1-.23.17-.22.38-.07.59-.03.38-.09.78.45.88v-.05c-.54.07-.6.3-.22.68v-.03c-.53.38-.53.6.01,1.1l.02-.03ZM11.13,109.48c-.19-.07-.4-.19-.43-.16-.13.17-.22.39-.02.57.1.09.25.1.39.15.02-.2.05-.4.07-.56Z"/>
      <path class="cls-17" d="M11.32,146.54c.34-.08.68-.17,1.02-.25.3,1.96-.46,3.68-1.22,5.39-.13.01-.23.06-.33.15-.38.05-.72.17-.95.51l-.2.1-.17.14c-2.39-2.01-2.43-2.01-2.47-5.23-.11-7.53-.43-15.07-.23-22.61.01-.47-.08-.95-.12-1.42,0-.61,0-1.22-.03-1.84-.01-.3-.07-.61-.46-.67v.04c.58-.06.41-.37.22-.68v.04c.65-.74.5-1.47-.03-2.19v.05c.37-.13.31-.41.22-.69v.05c.24-.56.25-1.13.1-1.72.31-2.07.34-4.16.27-6.25-.01-.45.16-.94-.26-1.3v.02c.71-2.05.3-4.17.32-6.26,0-.06-.26-.12-.4-.18v.04c.39.04.48-.22.6-.51.22-.55-.02-1.23.47-1.7.19.04.39.08.58.13.07.63-.05,1.31.38,1.87-.15,1.44-.73,2.93.43,4.24-.41.27-.64.61-.4,1.11.12.35.23.7.35,1.04-.3.21-.5.46-.4.86-.5.72.02,1.33.2,1.98-.44.32-.46.71-.21,1.16-.59.7-.02,1.31.15,1.96-.16.26-.44.48-.33.84-.44.88.03,1.59.42,2.32-.19.25-.52.48-.54.75-.19,2.19-.54,4.4-.2,6.58.19,1.2.18,2.33.07,3.5-.05.7-.19,1.41-.14,2.11.09,1.3-.18,2.64.45,3.88-.41.47-.31.95-.03,1.44-.04.15-.11.31-.11.46-.02,4.36-.05,8.72-.04,13.08,0,.64.27,1.25,1,1.52,1-.13,1.46-.8,1.64-1.74.14-.7.01-1.44.37-2.1Z"/>
      <path class="cls-17" d="M4.88,103.65c-.46-.84-.91-1.68-1.37-2.52l.23-.05.11-.08.12-.06c.53-.27.81-.67.57-1.27-.2-.48-.45-.94-.69-1.41.04-.21.08-.43.12-.64.79-.27,1.19.2,1.39.84.21.66.28,1.36.48,2.02.14.47,0,1.16.76,1.28v-.04c-.37-.14-.56.06-.61.38-.1.58-.17,1.17-.25,1.75-.32.06-.62.02-.87-.21Z"/>
      <path class="cls-15" d="M13.04,102.73c-.15-.22-.16-.42.07-.59.24-.08.47-.17.71-.25.15.37.18.74-.07,1.08-.24-.08-.47-.16-.71-.24Z"/>
      <path class="cls-12" d="M3.97,97.63c-.04.21-.08.43-.12.64-.12-.19-.24-.37-.36-.56.16-.03.32-.05.48-.08Z"/>
      <path class="cls-16" d="M6.67,108.15c.42.37.25.85.26,1.3.07,2.09.04,4.17-.27,6.25-.15.07-.29.15-.44.22-.25-.6-.28-1.22-.27-1.87.03-1.75,0-3.5.02-5.25,0-.36.09-.83.69-.65Z"/>
      <path class="cls-16" d="M5.75,103.86c.08-.58.15-1.17.25-1.75.06-.32.24-.51.61-.38.14.06.4.12.4.18-.02,2.09.38,4.2-.33,6.26-.38-.04-.47-.31-.5-.63-.07-.68-.16-1.36-.23-2.03.19-.58-.05-1.11-.19-1.65Z"/>
      <path class="cls-12" d="M5.75,103.86c.13.54.37,1.07.19,1.65-.19-.23-.38-.45-.57-.67-.44.3-.81.56-1.19.81-.27-.38-.54-.77-.81-1.15.22-.12.44-.24.65-.36.59.37.57-.32.85-.49.25.23.55.27.87.21Z"/>
      <path class="cls-15" d="M6.15,120.81c.39.06.45.37.46.67.03.61.02,1.22.03,1.84-.28.1-.56.2-.84.3-.03-.95-.32-1.94.35-2.81Z"/>
      <path class="cls-15" d="M6.34,118.01c.53.73.67,1.45.02,2.19-.63-.82-.63-1.2-.02-2.19Z"/>
      <path class="cls-18" d="M5.56,150.22c.37.6.71,1.22.8,1.96-.59-.27-.67-.9-1.04-1.31-.02-.25.02-.48.24-.65Z"/>
      <path class="cls-15" d="M6.23,115.92c.15-.07.29-.15.44-.22.15.59.13,1.16-.11,1.72-.43-.43-.61-.92-.32-1.5Z"/>
      <path class="cls-15" d="M6.37,120.16c.19.31.36.62-.23.68-.12-.29-.32-.61.23-.68Z"/>
      <path class="cls-15" d="M6.56,117.37c.09.29.15.56-.23.69-.16-.31-.26-.6.23-.69Z"/>
      <path class="cls-12" d="M3.08,107.33c.24-.05.41.04.52.25-.09.04-.18.08-.27.13-.14-.09-.22-.22-.25-.38Z"/>
      <path class="cls-10" d="M10.79,151.82c.09-.09.2-.14.33-.15.37.38.77.74,1.11,1.15.39.47.8.97.38,1.64-.87-.69-1.44-1.6-1.81-2.64Z"/>
      <path class="cls-12" d="M3.97,100.94l-.12.06-.11.08c-.02-.12-.04-.23-.06-.35.1.07.19.14.29.21Z"/>
      <path class="cls-9" d="M13.29,105.31c-.54-.5-.54-.71,0-1.1.69.45.69.74,0,1.1Z"/>
      <path class="cls-9" d="M13.04,102.73c.24.08.47.16.71.24.05.27.09.54-.26.64-.53-.1-.47-.5-.45-.88Z"/>
      <path class="cls-9" d="M13.27,104.24c-.39-.38-.32-.61.23-.68.19.32.37.63-.23.68Z"/>
      <path class="cls-18" d="M11.32,146.54c-.36.66-.24,1.4-.37,2.1-.18.94-.63,1.61-1.64,1.74-.73-.28-1-.88-1-1.52-.01-4.36.02-8.72.04-13.08,0-.15.07-.31.11-.46.83,1.06,1.66,2.12,2.49,3.18.12,2.68.25,5.36.37,8.04Z"/>
      <path class="cls-14" d="M8.19,127.89c.11-1.17.11-2.3-.07-3.5-.34-2.17,0-4.39.2-6.58.02-.26.35-.5.54-.75.66.59,1.47,1.05,1.77,1.97.1.91.5,1.72.17,2.75-.29.89-.05,2,.11,2.98.29,1.78.15,3.55,0,5.33,0,.12-.2.24-.3.35-.82,0-.92-.74-1.25-1.24-.33-.5-.37-1.25-1.18-1.32Z"/>
      <path class="cls-7" d="M8.19,127.89c.81.07.85.82,1.18,1.32.33.5.43,1.23,1.25,1.24.19.42.6.88.53,1.26-.21,1.11.13,2.13.26,3.19.07.59-.14,1.06-.68,1.36-.44-.01-.67-.31-.82-.66-.3-.72-.89-1.18-1.41-1.72-.63-1.24-.35-2.58-.45-3.88-.05-.7.09-1.41.14-2.11Z"/>
      <path class="cls-3" d="M8.67,106.9c-.24-.51,0-.84.4-1.11.21.08.42.11.58-.1.02-.63-.67-1.05-.51-1.75.89.33,1.2,1.18,1.7,1.84.56,1.81.55,1.9-.58,2.78-.55-.54-.7-1.46-1.6-1.65Z"/>
      <path class="cls-6" d="M8.64,101.55c-.43-.56-.31-1.24-.38-1.87.61-.08,1.06.78,1.74.29.4.41.79.82,1.19,1.23.06.58-.44.95-.65,1.45,1.12.14.76.65.44,1.14-.76-.04-.92-.71-1.23-1.2-.29-.45-.47-.97-1.1-1.04Z"/>
      <path class="cls-7" d="M8.64,101.55c.63.07.82.59,1.1,1.04.31.49.47,1.17,1.23,1.2.18.67.82,1.37-.12,1.98-.51-.66-.81-1.51-1.7-1.84-.16.7.53,1.12.51,1.75-.16.21-.37.18-.58.1-1.17-1.31-.59-2.79-.43-4.24Z"/>
      <path class="cls-5" d="M8.49,133.88c.52.53,1.11,1,1.41,1.72.15.35.38.64.82.66.29.73.75,1.44.22,2.25-.83-1.06-1.66-2.12-2.49-3.18-.28-.49-.38-.97.03-1.44Z"/>
      <path class="cls-16" d="M10.62,119.03c-.3-.91-1.11-1.37-1.77-1.97-.4-.73-.86-1.44-.42-2.32.56.5,1.14.98,1.46,1.69.13.29.37.46.69.5.33.69.76,1.38.04,2.1Z"/>
      <path class="cls-13" d="M8.61,111.94c-.25-.44-.23-.84.21-1.16.65.86,1.21,1.79,2.09,2.46.17.34.18.65-.16.91-1.26-.21-1.58-1.31-2.13-2.21Z"/>
      <path class="cls-16" d="M10.9,113.24c-.88-.66-1.44-1.6-2.09-2.46-.19-.65-.71-1.26-.2-1.98.12.13.25.26.37.39.17.84.99,1.21,1.39,1.88.4.68.97,1.29.53,2.16Z"/>
      <path class="cls-15" d="M8.61,111.94c.55.89.88,2,2.13,2.21.41.43.37.95.31,1.48-.62.1-1.05-.18-1.41-.65-.28-.37-.59-.72-.89-1.08-.17-.64-.74-1.26-.15-1.96Z"/>
      <path class="cls-10" d="M8.76,113.9c.3.36.61.71.89,1.08.36.47.79.75,1.41.65.16.55-.16.93-.47,1.3-.32-.04-.56-.21-.69-.5-.32-.71-.9-1.19-1.46-1.69-.11-.37.17-.58.33-.84Z"/>
      <path class="cls-18" d="M11.18,101.2c-.4-.41-.79-.82-1.19-1.23-.21-.5-.97-.96.07-1.64,1.01.69,1.46,1.6,1.12,2.86Z"/>
      <path class="cls-3" d="M8.99,109.2c-.12-.13-.25-.26-.37-.39-.1-.4.1-.65.4-.86.2.31.4.63.59.94-.21.1-.41.21-.62.31Z"/>
      <path class="cls-1" d="M9.61,108.89c-.2-.31-.4-.63-.59-.94-.12-.35-.23-.7-.35-1.04.9.19,1.06,1.11,1.6,1.65-.15.24-.38.36-.66.33Z"/>
      <path class="cls-1" d="M11.13,109.48c-.02.15-.04.36-.07.56-.13-.05-.29-.06-.39-.15-.2-.18-.11-.4.02-.57.02-.03.24.09.43.16Z"/>
    </g>
  </g>
</svg>