<svg version="1.1" id="svg3252" xml:space="preserve" width="300" height="300" viewBox="0 0 682.66669 682.66669" xmlns="http://www.w3.org/2000/svg" xmlns:svg="http://www.w3.org/2000/svg" xmlns:xlink="http://www.w3.org/1999/xlink" xmlns:svgjs="http://svgjs.dev/svgjs"><g transform="matrix(1,0,0,1,0,0)"><defs id="defs3256"><clipPath clipPathUnits="userSpaceOnUse" id="clipPath3266"><path d="M 0,512 H 512 V 0 H 0 Z" id="path3264" fill="#000000ff" data-original-color="#000000ff" stroke="none"/></clipPath></defs><g id="g3258" transform="matrix(1.3333333,0,0,-1.3333333,0,682.66667)"><g id="g3260"><g id="g3262" clip-path="url(#clipPath3266)"><g id="g3268" transform="translate(296.1772,244.7842)"><path d="m 0,0 c 23.892,5.754 43.614,17.852 58.643,38.801 l 68.27,95.158 c 26.489,36.923 26.145,86.704 -0.854,123.257 L -27.494,42.396" style="fill-opacity: 1; fill-rule: nonzero;" id="path3270" fill="#faf7f5ff" data-original-color="#faf7f5ff" stroke="none"/></g><g id="g3272" transform="translate(188.7388,253.0254)"><path d="M 0,0 -32.415,-45.577 28.711,-89.386 60.99,-43.999" style="fill-opacity: 1; fill-rule: nonzero; stroke-linecap: round; stroke-linejoin: round; stroke-miterlimit: 10; stroke-dasharray: none; stroke-opacity: 1;" id="path3274" fill="#848484ff" data-original-color="#ffe6b4ff" stroke="#000000ff" data-original-stroke-color="#000000ff" stroke-width="20" data-original-stroke-width="20"/></g><g id="g3276" transform="translate(262.2759,209.0195)"><path d="M 0,0 32.274,-45.38 93.4,-1.571 60.985,44.006" style="fill-opacity: 1; fill-rule: nonzero; stroke-linecap: round; stroke-linejoin: round; stroke-miterlimit: 10; stroke-dasharray: none; stroke-opacity: 1;" id="path3278" fill="#848484ff" data-original-color="#ffe6b4ff" stroke="#000000ff" data-original-stroke-color="#000000ff" stroke-width="20" data-original-stroke-width="20"/></g><g id="g3280" transform="translate(294.5498,163.6396)"><path d="m 0,0 110.226,-153.64 v 0 c 33.759,24.196 41.503,71.162 17.295,104.904 L 61.126,43.809 Z" style="fill-opacity: 1; fill-rule: nonzero;" id="path3282" fill="#ff8d3cff" data-original-color="#99ebfaff" stroke="none"/></g><g id="g3284" transform="translate(294.5498,163.6396)"><path d="m 0,0 110.226,-153.64 v 0 c 33.759,24.196 41.503,71.162 17.295,104.904 L 61.126,43.809 Z" style="stroke-linecap: round; stroke-linejoin: round; stroke-miterlimit: 10; stroke-dasharray: none; stroke-opacity: 1;" id="path3286" fill="none" stroke="#000000ff" data-original-stroke-color="#000000ff" stroke-width="20" data-original-stroke-width="20"/></g><g id="g3288" transform="translate(217.4502,163.6396)"><path d="m 0,0 -110.226,-153.64 v 0 c -33.759,24.196 -41.503,71.162 -17.295,104.904 l 66.395,92.545 z" style="fill-opacity: 1; fill-rule: nonzero;" id="path3290" fill="#ff8d3cff" data-original-color="#99ebfaff" stroke="none"/></g><g id="g3292" transform="translate(217.4502,163.6396)"><path d="m 0,0 -110.226,-153.64 v 0 c -33.759,24.196 -41.503,71.162 -17.295,104.904 l 66.395,92.545 z" style="stroke-linecap: round; stroke-linejoin: round; stroke-miterlimit: 10; stroke-dasharray: none; stroke-opacity: 1;" id="path3294" fill="none" stroke="#000000ff" data-original-stroke-color="#000000ff" stroke-width="20" data-original-stroke-width="20"/></g><g id="g3296" transform="translate(243.3257,287.167)"><path d="m 0,0 -153.562,214.833 c -26.999,-36.553 -27.343,-86.334 -0.854,-123.257 l 68.27,-95.158 c 15.041,-20.965 34.785,-33.069 58.699,-38.814" style="fill-opacity: 1; fill-rule: nonzero; stroke-linecap: round; stroke-linejoin: round; stroke-miterlimit: 10; stroke-dasharray: none; stroke-opacity: 1;" id="path3298" fill="#faf7f5ff" data-original-color="#faf7f5ff" stroke="#000000ff" data-original-stroke-color="#000000ff" stroke-width="20" data-original-stroke-width="20"/></g><g id="g3300" transform="translate(294.5498,248.168)"><path d="m 0,0 c 0,-21.265 -17.248,-38.503 -38.523,-38.503 -21.276,0 -38.523,17.238 -38.523,38.503 0,21.265 17.247,38.503 38.523,38.503 C -17.248,38.503 0,21.265 0,0" style="fill-opacity: 1; fill-rule: nonzero;" id="path3302" fill="#cfd3dfff" data-original-color="#cfd3dfff" stroke="none"/></g><g id="g3304" transform="translate(294.5498,248.168)"><path d="m 0,0 c 0,-21.265 -17.248,-38.503 -38.523,-38.503 -21.276,0 -38.523,17.238 -38.523,38.503 0,21.265 17.247,38.503 38.523,38.503 C -17.248,38.503 0,21.265 0,0 Z" style="stroke-linecap: round; stroke-linejoin: round; stroke-miterlimit: 10; stroke-dasharray: none; stroke-opacity: 1;" id="path3306" fill="none" stroke="#000000ff" data-original-stroke-color="#000000ff" stroke-width="20" data-original-stroke-width="20"/></g><g id="g3308" transform="translate(296.1772,244.7842)"><path d="m 0,0 c 23.892,5.754 43.614,17.852 58.643,38.801 l 68.27,95.158 c 26.489,36.923 26.145,86.704 -0.854,123.257 L 26.274,116.969" style="stroke-linecap: round; stroke-linejoin: round; stroke-miterlimit: 10; stroke-dasharray: none; stroke-opacity: 1;" id="path3310" fill="none" stroke="#000000ff" data-original-stroke-color="#000000ff" stroke-width="20" data-original-stroke-width="20"/></g><g id="g3312" transform="translate(296.1772,325.1914)"><path d="M 0,0 V 0" style="stroke-linecap: round; stroke-linejoin: round; stroke-miterlimit: 10; stroke-dasharray: none; stroke-opacity: 1;" id="path3314" fill="none" stroke="#000000ff" data-original-stroke-color="#000000ff" stroke-width="20" data-original-stroke-width="20"/></g></g></g></g></g></svg>