<svg width="20" height="12" viewBox="0 0 20 12" fill="none" xmlns="http://www.w3.org/2000/svg">
<path d="M20 10.75C20 10.336 19.664 10 19.25 10H0.75C0.336 10 0 10.336 0 10.75C0 11.164 0.336 11.5 0.75 11.5H19.25C19.664 11.5 20 11.164 20 10.75ZM20 5.75C20 5.336 19.664 5 19.25 5H0.75C0.336 5 0 5.336 0 5.75C0 6.164 0.336 6.5 0.75 6.5H19.25C19.664 6.5 20 6.164 20 5.75ZM20 0.75C20 0.336 19.664 0 19.25 0H0.75C0.336 0 0 0.336 0 0.75C0 1.164 0.336 1.5 0.75 1.5H19.25C19.664 1.5 20 1.164 20 0.75Z" fill="white"/>
</svg>
