<?xml version="1.0" encoding="UTF-8"?>
<svg id="Layer_2" data-name="Layer 2" xmlns="http://www.w3.org/2000/svg" viewBox="0 0 289.05 492">
  <defs>
    <style>
      .cls-1 {
        fill: #fff;
        stroke-width: 0px;
      }
    </style>
  </defs>
  <g id="Layer_1-2" data-name="Layer 1">
    <path class="cls-1" d="M0,245.91c-.02,7.22,2.77,14,7.85,19.09l219.15,219.14c5.06,5.07,11.82,7.86,19.03,7.86s13.96-2.79,19.03-7.86l16.12-16.12c5.06-5.07,7.86-11.83,7.86-19.04s-2.8-13.96-7.86-19.03L97.13,245.9,280.98,62.04c10.49-10.49,10.49-27.56,0-38.06l-16.12-16.12C259.8,2.79,253.04,0,245.83,0s-13.97,2.79-19.03,7.86L7.85,226.8C2.77,231.88-.02,238.67,0,245.91Z"/>
  </g>
</svg>