<?xml version="1.0" encoding="UTF-8"?>
<svg id="Layer_2" data-name="Layer 2" xmlns="http://www.w3.org/2000/svg" viewBox="0 0 322.3 610.2">
  <defs>
    <style>
      .cls-1 {
        fill: #231f20;
      }

      .cls-1, .cls-2, .cls-3 {
        stroke-width: 0px;
      }

      .cls-2 {
        fill: #ee8228;
      }

      .cls-3 {
        fill: #cf4e27;
      }
    </style>
  </defs>
  <g id="Layer_1-2" data-name="Layer 1">
    <g>
      <path class="cls-3" d="M213.14,420.54l-146.17,177.49c-1.03,1.24-2.52,1.89-4.04,1.89-.91,0-1.83-.24-2.66-.73-2.22-1.31-3.16-4.03-2.22-6.43l68.07-179.66H56.3c-1.83,0-3.54-.96-4.49-2.53-.95-1.57-1.01-3.53-.16-5.15l74.83-142.66H15.52c-1.83,0-3.53-.95-4.48-2.51-.95-1.56-1.02-3.51-.19-5.13L135.18,13.13c.9-1.75,2.7-2.85,4.67-2.85h153.23c1.88,0,3.62,1,4.55,2.63.94,1.63.93,3.63-.02,5.26l-73.63,126.25h82.78c1.92,0,3.68,1.05,4.6,2.73.92,1.68.85,3.73-.18,5.35l-106.09,166.15h80.84c2.03,0,3.89,1.18,4.75,3.02.86,1.84.59,4.02-.72,5.58l-56.09,68.11"/>
      <path class="cls-2" d="M51.94,400.87c-.85,1.63-.79,3.58.16,5.15.95,1.57,2.65,2.53,4.49,2.53h69.82l-68.07,179.66c-.94,2.4,0,5.12,2.22,6.43.15.09.3.16.46.23l152.81-231.59h-78.82c-1.84,0-3.54-.96-4.49-2.53-.95-1.57-1.01-3.53-.16-5.15l74.83-142.66h-91.68c-1.83,0-3.53-.95-4.48-2.51-.95-1.56-1.02-3.51-.19-5.13L211.36,5.74h-71.23c-1.97,0-3.77,1.1-4.67,2.85L11.13,250.56c-.84,1.63-.76,3.57.19,5.13.95,1.56,2.65,2.51,4.48,2.51h110.97l-74.83,142.66Z"/>
      <g>
        <path class="cls-1" d="M62.94,610.2c-2.77,0-5.49-.74-7.88-2.15-6.61-3.89-9.37-11.9-6.57-19.04l62.75-165.62h-54.93c-5.4,0-10.49-2.87-13.29-7.49-2.8-4.63-2.98-10.47-.46-15.26l66.93-127.6H15.52c-5.37,0-10.45-2.85-13.26-7.43-2.8-4.6-3.02-10.42-.56-15.19L126.04,8.43c2.67-5.2,7.97-8.43,13.82-8.43h79.38c5.68,0,10.28,4.61,10.28,10.28s-4.61,10.28-10.28,10.28h-76.31L23.77,252.47h102.72c3.6,0,6.94,1.88,8.8,4.96,1.86,3.08,1.98,6.91.31,10.1l-70.96,135.29h61.49c3.38,0,6.54,1.66,8.46,4.44s2.35,6.33,1.15,9.49l-57.26,151.13,126.72-153.88c3.61-4.38,10.09-5.01,14.48-1.4,4.38,3.61,5.01,10.09,1.4,14.48l-146.17,177.49c-2.98,3.59-7.33,5.64-11.98,5.64Z"/>
        <path class="cls-1" d="M233.87,405.65c-2.3,0-4.62-.77-6.53-2.34-4.38-3.61-5.01-10.09-1.4-14.48l49.33-59.9h-70.17c-3.76,0-7.21-2.05-9.02-5.34-1.8-3.3-1.67-7.31.35-10.48l101.15-158.4h-73.59c-3.68,0-7.08-1.97-8.92-5.16-1.83-3.19-1.82-7.12.03-10.3l69.22-118.68h-30.38c-5.68,0-10.28-4.61-10.28-10.28s4.61-10.28,10.29-10.28h39.15c5.55,0,10.71,2.99,13.47,7.8,2.76,4.8,2.74,10.76-.05,15.55l-64.61,110.78h64.88c5.68,0,10.9,3.09,13.62,8.07,2.73,4.99,2.52,11.05-.53,15.83l-95.99,150.32h62.08c6,0,11.51,3.51,14.06,8.94,2.54,5.43,1.71,11.91-2.12,16.52l-56.07,68.08c-2.03,2.47-4.98,3.75-7.94,3.75Z"/>
      </g>
    </g>
  </g>
</svg>