<?xml version="1.0" encoding="UTF-8"?>
<svg id="Layer_2" data-name="Layer 2" xmlns="http://www.w3.org/2000/svg" viewBox="0 0 424 480">
  <defs>
    <style>
      .cls-1 {
        fill: #f2643d;
      }

      .cls-1, .cls-2, .cls-3 {
        stroke-width: 0px;
      }

      .cls-2 {
        fill: #000;
        fill-rule: evenodd;
      }

      .cls-3 {
        fill: #fff;
      }
    </style>
  </defs>
  <g id="Layer_1-2" data-name="Layer 1">
    <path class="cls-1" d="M186.15,0c-3.05,0-5.84,1.71-7.18,4.4l-106.15,212.9c-1.22,2.44-1.07,5.32.39,7.63,1.46,2.31,4.03,3.71,6.79,3.71h95.17l-78.79,241.09c-1.2,3.67.48,7.66,3.97,9.41,3.49,1.76,7.76.77,10.08-2.34l240-320.18c1.79-2.39,2.06-5.57.7-8.22-1.36-2.65-4.12-4.32-7.14-4.32h-82.18L339.04,11.79c1.42-2.44,1.42-5.43-.01-7.86C337.59,1.5,334.95,0,332.1,0h-145.95Z"/>
    <g>
      <path class="cls-2" d="M178.96,4.4c1.34-2.7,4.13-4.4,7.18-4.4h145.95c2.85,0,5.49,1.5,6.92,3.93,1.43,2.43,1.44,5.43.01,7.86l-77.22,132.29h82.18c3.02,0,5.78,1.67,7.14,4.32,1.36,2.65,1.09,5.83-.7,8.22L110.44,476.8c-2.33,3.1-6.6,4.09-10.08,2.34-3.49-1.76-5.17-5.74-3.97-9.41l78.79-241.09h-95.17c-2.76,0-5.33-1.4-6.79-3.71-1.46-2.3-1.61-5.19-.39-7.63L178.96,4.4ZM191.13,15.74l-98.3,197.16h93.31c2.56,0,4.96,1.2,6.46,3.23,1.51,2.03,1.93,4.65,1.15,7.04l-67.18,205.57,201.58-268.93h-80.16c-2.85,0-5.49-1.5-6.92-3.93s-1.44-5.43-.01-7.86L318.28,15.74h-127.15Z"/>
      <path class="cls-3" d="M376,149.51c0-4.35,3.58-7.87,8-7.87h32c4.42,0,8,3.52,8,7.87s-3.58,7.87-8,7.87h-32c-4.42,0-8-3.52-8-7.87Z"/>
      <path class="cls-3" d="M391.66,181.16c-3.59-2.53-8.59-1.72-11.16,1.81s-1.75,8.45,1.84,10.98l26.01,18.34c3.59,2.53,8.59,1.72,11.16-1.81,2.57-3.53,1.75-8.45-1.84-10.98l-26.01-18.34Z"/>
      <path class="cls-3" d="M380.75,116.39c-2.64-3.49-1.9-8.42,1.64-11.01l25.67-18.8c3.54-2.6,8.56-1.87,11.19,1.61,2.64,3.49,1.9,8.42-1.64,11.01l-25.67,18.8c-3.54,2.6-8.56,1.87-11.19-1.61h0Z"/>
      <path class="cls-3" d="M40,237.37c4.42,0,8-3.52,8-7.87s-3.58-7.87-8-7.87H8c-4.42,0-8,3.52-8,7.87s3.58,7.87,8,7.87h32Z"/>
      <path class="cls-3" d="M43.51,196.04c-2.57,3.53-7.57,4.34-11.16,1.81l-26.01-18.34c-3.59-2.53-4.42-7.45-1.84-10.98,2.57-3.53,7.57-4.34,11.16-1.81l26.01,18.34c3.59,2.53,4.42,7.45,1.84,10.98Z"/>
      <path class="cls-3" d="M41.61,273.62c3.54-2.6,4.28-7.52,1.64-11.01-2.64-3.49-7.65-4.21-11.19-1.61l-25.67,18.8c-3.54,2.6-4.28,7.52-1.64,11.01,2.64,3.49,7.65,4.21,11.19,1.61l25.67-18.8Z"/>
    </g>
  </g>
</svg>