<?xml version="1.0" encoding="UTF-8"?>
<svg id="Capa_1" data-name="Capa 1" xmlns="http://www.w3.org/2000/svg" version="1.1" viewBox="0 0 512 512">
  <defs>
    <style>
      .cls-1 {
        fill: #000;
      }

      .cls-1, .cls-2, .cls-3 {
        stroke-width: 0px;
      }

      .cls-2 {
        fill: #3f3f3f;
      }

      .cls-3 {
        fill: #606060;
      }
    </style>
  </defs>
  <g>
    <path class="cls-3" d="M251.8,12.8l-153.9,56c-2.7,1-4.9,2.9-6.4,5.3L9.7,216c-1.4,2.5-1.9,5.4-1.4,8.2l28.4,161.3c.5,2.8,2,5.4,4.2,7.2l125.5,105.3c2.2,1.8,4.9,2.8,7.8,2.8h163.8c2.9,0,5.6-1,7.8-2.8l125.5-105.3c2.2-1.8,3.7-4.4,4.2-7.2l28.4-161.3c.5-2.8,0-5.7-1.4-8.2l-81.9-141.8c-1.4-2.5-3.7-4.4-6.4-5.3L260.2,12.8c-2.7-1-5.6-1-8.3,0h0Z"/>
    <path class="cls-2" d="M502.3,216l-81.9-141.8c-1.4-2.5-3.7-4.4-6.4-5.3L260.2,12.8c-2.7-1-5.6-1-8.3,0l-30.4,11,142.8,52c2.7,1,4.9,2.9,6.4,5.3l81.9,141.8c1.4,2.5,1.9,5.4,1.4,8.2l-28.4,161.3c-.5,2.8-2,5.4-4.2,7.2l-120.5,101.1h37c2.9,0,5.6-1,7.8-2.8l125.5-105.3c2.2-1.8,3.7-4.4,4.2-7.2l28.4-161.3c.5-2.8,0-5.7-1.4-8.2Z"/>
  </g>
  <g>
    <path class="cls-1" d="M511,216l-86.3-149.5c-.9-1.5-2.3-2.7-3.9-3.3L258.6,4.2c-1.7-.6-3.5-.6-5.1,0l-109.3,39.8c-3.9,1.4-5.9,5.7-4.5,9.6,1.4,3.9,5.7,5.9,9.6,4.5l106.7-38.8,157.1,57.2,83.6,144.8-29,164.6-34.2,28.7c-3.2,2.7-3.6,7.4-.9,10.6,2.7,3.2,7.4,3.6,10.6.9l36.3-30.5c1.4-1.1,2.3-2.7,2.6-4.4l30-170c.3-1.7,0-3.5-.9-5.1h0Z"/>
    <path class="cls-1" d="M411.1,433.2l-71.6,60h-167.1l-128-107.4L15.4,221.2,98.9,76.4l23.1-8.4c3.9-1.4,5.9-5.7,4.5-9.6-1.4-3.9-5.7-5.9-9.6-4.5l-25.7,9.3c-1.7.6-3,1.8-3.9,3.3L1,216c-.9,1.5-1.2,3.3-.9,5.1l30,170c.3,1.7,1.2,3.3,2.6,4.4l132.2,111c1.4,1.1,3.1,1.8,4.8,1.8h172.6c1.8,0,3.5-.6,4.8-1.8l73.7-61.8c3.2-2.7,3.6-7.4.9-10.6-2.7-3.2-7.4-3.6-10.6-.9h0Z"/>
  </g>
</svg>