<svg version="1.1" id="Layer_1" xmlns="http://www.w3.org/2000/svg" xmlns:xlink="http://www.w3.org/1999/xlink" x="0px" y="0px" viewBox="0 0 512.001 512.001" style="enable-background:new 0 0 512.001 512.001;" xml:space="preserve" width="300" height="300" xmlns:svgjs="http://svgjs.dev/svgjs"><g transform="matrix(1,0,0,1,0,0)"><rect x="109.338" y="337.953" style="" width="293.315" height="166.434" fill="#b5b6baff" data-original-color="#b5b6baff" stroke="none"/><path style="" d="M153.37,504.386h-44.03V337.952h21.38C140.03,385.312,126.409,442.671,153.37,504.386z" fill="#92949bff" data-original-color="#92949bff" stroke="none"/><path style="" d="M402.649,427.545v76.841H109.344v-64.324c27.543-2.609,31.969,24.172,60.628,20.152&#10;&#9;c29.329-4.112,25.38-32.263,54.71-36.375c29.329-4.112,33.279,24.04,62.608,19.929c29.34-4.112,25.39-32.263,54.72-36.375&#10;&#9;C370.67,403.372,375.097,430.164,402.649,427.545z" fill="#ff6a1dff" data-original-color="#ea3d3dff" stroke="none"/><rect x="109.348" y="337.953" style="" width="293.315" height="20.894" fill="#92949bff" data-original-color="#92949bff" stroke="none"/><path style="" d="M362.676,216.777h-42.101c-16.67,0-29.725-14.365-28.111-30.954l12.04-124.81&#10;&#9;c2.761-28.619-19.746-53.4-48.497-53.4c-27.157,0-48.74,22.081-48.74,48.639c0,1.584,0.081,3.167,0.233,4.761l12.051,124.81&#10;&#9;c1.594,16.589-11.452,30.954-28.131,30.954c0,0-0.02,0-0.061,0h-42.03c-22.081,0-39.989,13.878-39.989,30.994v90.181h293.315&#10;&#9;v-90.181C402.655,230.655,384.757,216.777,362.676,216.777z M256.008,76.668c-10.152,0-18.385-8.223-18.385-18.385&#10;&#9;c0-10.142,8.233-18.365,18.385-18.365c10.142,0,18.375,8.223,18.375,18.365C274.383,68.444,266.15,76.668,256.008,76.668z" fill="#4b4b4bff" data-original-color="#e8b33fff" stroke="none"/><path style="" d="M145.949,337.952H109.34v-90.181c0-17.116,17.908-30.994,39.989-30.994h42.03&#10;&#9;C189.044,216.777,122.325,217.812,145.949,337.952z" fill="#6f6f6fff" data-original-color="#d39f37ff" stroke="none"/><path d="M362.674,209.168h-42.096c-5.894,0-11.321-2.403-15.282-6.766c-3.956-4.359-5.822-9.987-5.254-15.85l12.044-124.805&#10;&#9;c1.518-15.778-3.724-31.558-14.382-43.291C287.051,6.727,271.852,0,256.006,0c-31.072,0-56.349,25.236-56.349,56.256&#10;&#9;c0,1.765,0.09,3.61,0.269,5.492l5.677,58.822c0.404,4.186,4.119,7.255,8.311,6.848c4.186-0.404,7.252-4.125,6.848-8.311&#10;&#9;l-5.676-58.81c-0.132-1.395-0.199-2.754-0.199-4.042c0-22.623,18.446-41.028,41.121-41.028c11.733,0,22.538,4.783,30.428,13.468&#10;&#9;c7.778,8.562,11.604,20.077,10.495,31.59l-12.042,124.799c-0.975,10.039,2.354,20.082,9.134,27.552&#10;&#9;c6.784,7.473,16.464,11.759,26.558,11.759h42.096c17.847,0,32.368,10.484,32.368,23.371v82.574H116.959v-82.574&#10;&#9;c0-12.886,14.521-23.371,32.368-23.371h42.095c10.09,0,19.769-4.284,26.554-11.753c6.784-7.468,10.119-17.511,9.151-27.554&#10;&#9;l-3.996-41.405c-0.403-4.186-4.117-7.25-8.311-6.848c-4.186,0.404-7.252,4.125-6.848,8.311l3.996,41.404&#10;&#9;c0.565,5.863-1.306,11.493-5.266,15.854c-3.961,4.361-9.389,6.763-15.281,6.763h-42.095c-26.245,0-47.596,17.315-47.596,38.599&#10;&#9;v256.62c0,4.205,3.409,7.614,7.614,7.614h293.31c4.206,0,7.614-3.409,7.614-7.614V247.766&#10;&#9;C410.27,226.483,388.918,209.168,362.674,209.168z M148.893,345.569v57.426c0,4.205,3.409,7.614,7.614,7.614&#10;&#9;s7.614-3.409,7.614-7.614v-57.426h17.936v62.311c0,4.205,3.409,7.614,7.614,7.614s7.614-3.409,7.614-7.614v-62.311h17.936v18.691&#10;&#9;c0,4.205,3.409,7.614,7.614,7.614s7.614-3.409,7.614-7.614v-18.691h17.936v37.679c0,4.205,3.409,7.614,7.614,7.614&#10;&#9;c4.205,0,7.614-3.409,7.614-7.614v-37.679h17.936v56.666c0,4.205,3.408,7.614,7.614,7.614s7.614-3.409,7.614-7.614v-56.666h17.936&#10;&#9;v37.679c0,4.205,3.408,7.614,7.614,7.614s7.614-3.409,7.614-7.614v-37.679h17.935v18.691c0,4.205,3.408,7.614,7.614,7.614&#10;&#9;s7.614-3.409,7.614-7.614v-18.691h31.94v74.255c-6.655-0.991-11.501-4.479-17.265-8.641c-8.52-6.153-19.118-13.812-36.818-11.329&#10;&#9;c-17.696,2.48-25.782,12.758-32.282,21.017c-6.033,7.669-10.801,13.727-22.439,15.358c-11.634,1.628-17.879-2.883-25.787-8.596&#10;&#9;c-8.521-6.155-19.127-13.815-36.821-11.333c-17.698,2.481-25.784,12.76-32.282,21.02c-6.032,7.668-10.797,13.725-22.428,15.355&#10;&#9;c-11.627,1.631-17.877-2.88-25.786-8.593c-6.967-5.032-14.698-10.608-26.175-11.642v-86.868h31.932V345.569z M116.959,496.772&#10;&#9;v-48.987c6.653,0.992,11.497,4.479,17.259,8.64c7.391,5.338,16.349,11.809,30.147,11.808c2.107,0,4.327-0.151,6.671-0.48&#10;&#9;c17.698-2.481,25.784-12.76,32.282-21.02c6.032-7.668,10.797-13.725,22.428-15.355c11.637-1.631,17.88,2.883,25.788,8.596&#10;&#9;c8.521,6.154,19.12,13.814,36.82,11.333c17.704-2.481,25.793-12.761,32.294-21.022c6.031-7.667,10.797-13.723,22.428-15.353&#10;&#9;c11.632-1.631,17.877,2.881,25.785,8.593c6.969,5.033,14.696,10.611,26.181,11.643v61.602H116.959V496.772z" fill="#000000ff" data-original-color="#000000ff" stroke="none"/><path d="M256.006,32.304c-14.334,0-25.994,11.656-25.994,25.983c0,14.334,11.661,25.994,25.994,25.994&#10;&#9;C270.339,84.282,282,72.62,282,58.287C282.001,43.96,270.34,32.304,256.006,32.304z M256.006,69.054&#10;&#9;c-5.937,0-10.766-4.83-10.766-10.766c0-5.93,4.83-10.755,10.766-10.755c5.936,0,10.766,4.824,10.766,10.755&#10;&#9;C266.773,64.223,261.943,69.054,256.006,69.054z" fill="#000000ff" data-original-color="#000000ff" stroke="none"/><path d="M231.818,302.83c0,4.205,3.409,7.614,7.614,7.614h130.245c4.206,0,7.614-3.409,7.614-7.614c0-4.205-3.408-7.614-7.614-7.614&#10;&#9;H239.432C235.227,295.216,231.818,298.625,231.818,302.83z" fill="#000000ff" data-original-color="#000000ff" stroke="none"/><path d="M142.324,295.216c-4.205,0-7.614,3.409-7.614,7.614c0,4.205,3.409,7.614,7.614,7.614h71.728&#10;&#9;c4.205,0,7.614-3.409,7.614-7.614c0-4.205-3.409-7.614-7.614-7.614H142.324z" fill="#000000ff" data-original-color="#000000ff" stroke="none"/><g>
</g><g>
</g><g>
</g><g>
</g><g>
</g><g>
</g><g>
</g><g>
</g><g>
</g><g>
</g><g>
</g><g>
</g><g>
</g><g>
</g><g>
</g></g></svg>