<svg height="512" viewBox="0 0 64 64" width="512" xmlns="http://www.w3.org/2000/svg"><g id="Fill_Outline" data-name="Fill Outline"><g id="Color"><path d="m15 25h7v4h-7z" fill="#fcea42"/><path d="m22 25v4h-7v-4h1a2 2 0 0 0 4 0z" fill="#fdc741"/><path d="m42 11h15v8h-15z" fill="#ade8f4"/><path d="m57 11v8h-15v-8h2v1a4 4 0 0 0 4 4h3a4 4 0 0 0 4-4v-1z" fill="#48cae4"/><path d="m57 9h4v12h-4z" fill="#fcea42"/><path d="m21 17v21h-18v8h20a6 6 0 0 0 6-6v-21h8v-8h-10a6 6 0 0 0 -6 6z" fill="#ade8f4"/><path d="m34.91 11a6 6 0 0 1 -5.91 5h-7.91a6 6 0 0 0 -.09 1v21a4 4 0 0 1 -4 4h-7a4 4 0 0 1 -4-4h-3v8h20a5.971 5.971 0 0 0 2-.349v-4.651a4 4 0 0 1 4-4v-6h-5v-2a4 4 0 0 1 4-4h1v-6h8v-8z" fill="#48cae4"/><rect fill="#fcea42" height="4" rx="2" width="12" x="19" y="19"/><rect fill="#fcea42" height="4" rx="2" width="12" x="19" y="31"/><rect fill="#ef5350" height="12" rx="2" width="4" x="11" y="21"/><path d="m27 57a4 4 0 0 1 -8 0c0-3 4-7 4-7s4 4 4 7z" fill="#ade8f4"/><path d="m43.785 3a7.194 7.194 0 0 0 -6.785 7.293v30.207a2.5 2.5 0 0 0 2.5 2.5 2.5 2.5 0 0 0 2.5-2.5v-29.5h11a8 8 0 0 0 -8-8z" fill="#e9f1f2"/><path d="m39 14v4a3 3 0 0 0 3 3v12a3 3 0 0 0 -3 3v2a3 3 0 0 0 2.95 3 2.5 2.5 0 0 1 -4.95-.5v-30.21a7.385 7.385 0 0 1 4.06-6.62 4 4 0 0 0 3.94 3.33h6.92a7.851 7.851 0 0 1 1.08 4h-11a3 3 0 0 0 -3 3z" fill="#d0d8da"/><path d="m42 40.5v.5h-.05a2.734 2.734 0 0 0 .05-.5z" fill="#d0d8da"/><path d="m46 18h7v5h-7z" fill="#d0d8da"/><path d="m34 27a4 4 0 0 0 4 4h8l.167 5h-3.424a1.744 1.744 0 0 0 -1.743 1.743 1.742 1.742 0 0 0 1.192 1.657l4.134 1.378.552 13.29a3.063 3.063 0 0 0 3.06 2.932 3.062 3.062 0 0 0 3.062-3.062v-30.938h-15a4 4 0 0 0 -4 4z" fill="#ef5350"/><path d="m53 11h-9v-4h7.92a7.851 7.851 0 0 1 1.08 4z" fill="#d0d8da"/><path d="m53 11h-9v-4h2.18a2.968 2.968 0 0 0 2.82 2h3.75a8.239 8.239 0 0 1 .25 2z" fill="#b8bebf"/><path d="m53 52.59v1.35a3.073 3.073 0 0 1 -3.06 3.06 3.062 3.062 0 0 1 -3.06-2.94l-.55-13.28-4.14-1.38a1.745 1.745 0 0 1 .55-3.4h3.43l-.17-5h-8a4 4 0 0 1 0-8h.1a4.98 4.98 0 0 0 4.9 4h2a5 5 0 0 1 5 5v16a5.029 5.029 0 0 0 3 4.59z" fill="#e53935"/><path d="m53 21v2h-7v-5h2a3 3 0 0 0 3 3z" fill="#b8bebf"/><g fill="#fdc741"><path d="m31 33a2.015 2.015 0 0 1 -2 2h-8a2.006 2.006 0 0 1 -2-2 2.015 2.015 0 0 1 2-2 2.006 2.006 0 0 0 2 2z"/><path d="m31 21a2.015 2.015 0 0 1 -2 2h-8a2.006 2.006 0 0 1 -2-2 2.015 2.015 0 0 1 2-2 2.006 2.006 0 0 0 2 2z"/><path d="m61 19v2h-4v-12h2v8a2.006 2.006 0 0 0 2 2z"/></g><path d="m26.97 57.48a4 4 0 0 1 -7.97-.48c0-1.87 1.55-4.12 2.72-5.55a5.91 5.91 0 0 0 -.72 2.55 4 4 0 0 0 5.97 3.48z" fill="#48cae4"/><path d="m15 31a2 2 0 0 1 -4 0v-8a2.006 2.006 0 0 1 2-2v8a2.006 2.006 0 0 0 2 2z" fill="#e53935"/></g><g id="Outline_copy" fill="#323232" data-name="Outline copy"><path d="m61 8a1 1 0 0 0 -1 1v11h-2v-11a1 1 0 0 0 -2 0v1h-2.059a8.992 8.992 0 0 0 -8.941-8h-1.25a8.2 8.2 0 0 0 -7.74 8h-9.01a7.008 7.008 0 0 0 -7 7v1.184a2.982 2.982 0 0 0 0 5.632v.184h-4v-1a3 3 0 0 0 -6 0v8a3 3 0 0 0 6 0v-1h4v.171a2.992 2.992 0 0 0 0 5.645v1.184h-17a1 1 0 0 0 0 2h18a1 1 0 0 0 1-1v-2h6v4a5.006 5.006 0 0 1 -5 5h-3a1 1 0 0 0 0 2h3a7.008 7.008 0 0 0 7-7v-4.184a2.982 2.982 0 0 0 0-5.632v-6.355a3.006 3.006 0 0 0 2-2.829 2.966 2.966 0 0 0 -.184-1h1.184a1 1 0 0 0 0-2h-11v-1a5.006 5.006 0 0 1 5-5h9v10.424a5 5 0 0 0 2 9.576h3v3.643a2.716 2.716 0 0 0 0 4.21v.647a1.5 1.5 0 0 1 -3 0v-5.642a1 1 0 0 0 -2 0v5.642a3.492 3.492 0 0 0 6.978.213l2.377.793.524 12.6a4.062 4.062 0 0 0 8.121-.168v-17.938a1 1 0 0 0 -2 0v17.938a2.062 2.062 0 0 1 -4.123.085l-.552-13.289a1 1 0 0 0 -.682-.907l-4.134-1.378a.743.743 0 0 1 .234-1.449h3.424a1 1 0 0 0 1-1.033l-.167-5a1 1 0 0 0 -1-.967h-8a3 3 0 0 1 0-6h14v8a1 1 0 0 0 2 0v-12h2v1a1 1 0 0 0 1 1h4a1 1 0 0 0 1-1v-12a1 1 0 0 0 -1-1zm-47 23a1 1 0 0 1 -2 0v-8a1 1 0 0 1 2 0zm2-3v-2h4v2zm14-7a1 1 0 0 1 -1 1 1 1 0 0 0 -1 1v7h-3a1 1 0 0 0 0 2h4a1 1 0 0 1 0 2h-8a1 1 0 0 1 0-2 1 1 0 0 0 1-1v-7h3a1 1 0 0 0 0-2h-4a1 1 0 0 1 0-2h8a1 1 0 0 1 1 1zm15.133 14h-2.133v-3h2.033zm6.185-27a6.936 6.936 0 0 1 .612 2h-6.93v-2zm-13.318 2.293a6.2 6.2 0 0 1 5.784-6.293h1.216a6.951 6.951 0 0 1 4.89 2h-5.89a1 1 0 0 0 -1 1v3h-1a1 1 0 0 0 -1 1v11h-3zm7 11.707h-2v-2h2zm2 0v-3h5v3zm7-4a1 1 0 0 0 -1-1h-7a1 1 0 0 0 -1 1h-2v-6h13v6z"/><path d="m16 45h-13a1 1 0 0 0 0 2h13a1 1 0 0 0 0-2z"/><path d="m39 26a1 1 0 0 0 0 2h10a1 1 0 0 0 0-2z"/><path d="m22.293 49.293c-.439.439-4.293 4.389-4.293 7.707a5 5 0 0 0 10 0c0-3.318-3.854-7.268-4.293-7.707a1 1 0 0 0 -1.414 0zm.707 10.707a3 3 0 0 1 -3-3c0-1.727 1.784-4.14 3-5.53 1.216 1.39 3 3.8 3 5.53a3 3 0 0 1 -3 3z"/></g></g></svg>