<svg id="pay_per_click" viewBox="0 0 64 64" xmlns="http://www.w3.org/2000/svg" width="262.5" height="262.5" version="1.1" xmlns:xlink="http://www.w3.org/1999/xlink" xmlns:svgjs="http://svgjs.dev/svgjs"><g transform="matrix(1,0,0,1,0,0)"><path d="m44.14 51.5h-35.53c-2.54 0-4.61-2.06-4.61-4.59v-24.94h52.23v17.48c0 .55.45 1 1 1s1-.45 1-1v-26.12c0-3.63-2.97-6.59-6.61-6.59h-43.01c-3.64 0-6.61 2.96-6.61 6.59v33.58c0 3.63 2.97 6.59 6.61 6.59h35.53c.55 0 1-.45 1-1s-.45-1-1-1zm-34.37-40.34c1.76 0 3.2 1.43 3.2 3.2s-1.44 3.2-3.2 3.2-3.21-1.44-3.21-3.2 1.44-3.2 3.21-3.2zm20.27 3.2c0 1.76-1.44 3.2-3.21 3.2s-3.21-1.44-3.21-3.2 1.44-3.2 3.21-3.2 3.21 1.43 3.21 3.2zm-8.53 0c0 1.76-1.44 3.2-3.21 3.2s-3.21-1.44-3.21-3.2 1.44-3.2 3.21-3.2 3.21 1.43 3.21 3.2z" fill="#ffffffff" data-original-color="#000000ff" stroke="none"/><path d="m61.71 52.37-3.77-3.76 2.1-2.09c.25-.25.35-.61.26-.95-.08-.34-.34-.62-.68-.72l-12.61-3.79c-.35-.1-.74-.01-1 .25s-.35.65-.25 1l3.81 12.58c.1.34.37.59.71.68s.7-.01.95-.26l2.1-2.1 3.77 3.76c.2.19.45.29.71.29s.51-.1.71-.29l3.19-3.18c.18-.19.29-.45.29-.71s-.11-.52-.29-.71z" fill="#ffffffff" data-original-color="#000000ff" stroke="none"/><path d="m18.47 36.74c0 6.45 5.22 11.69 11.65 11.69s11.64-5.24 11.64-11.69-5.22-11.7-11.64-11.7-11.65 5.25-11.65 11.7zm10.06-1.64c.19.14.68.42 1.8.66 1.14.25 1.98.58 2.56 1.01.68.5 1.03 1.24 1.03 2.14s-.37 1.64-1.1 2.23c-.47.39-1.04.63-1.7.76v.88c0 .55-.45 1-1 1s-1-.45-1-1v-.9c-.68-.13-1.27-.38-1.74-.78-.66-.56-1.02-1.26-1.07-2.08-.03-.55.39-1.03.94-1.06.57-.03 1.02.39 1.05.94.02.19.07.41.37.67.33.28.83.42 1.49.42.61 0 1.08-.13 1.4-.39.32-.27.36-.49.36-.69 0-.34-.11-.45-.22-.53-.2-.15-.69-.43-1.8-.67-1.14-.24-1.98-.58-2.56-1.01-.68-.5-1.03-1.24-1.03-2.14s.37-1.63 1.1-2.23c.47-.39 1.04-.63 1.71-.75v-.89c0-.55.44-1 1-1s1 .45 1 1v.9c.67.13 1.26.39 1.73.79.66.56 1.02 1.26 1.07 2.08.03.55-.39 1.02-.94 1.05-.54.02-1.02-.39-1.06-.94-.01-.19-.06-.41-.36-.67-.33-.28-.83-.42-1.49-.42-.61 0-1.08.14-1.4.4s-.36.48-.36.68c0 .34.11.45.22.54z" fill="#ffffffff" data-original-color="#000000ff" stroke="none"/></g></svg>