<?xml version="1.0" encoding="UTF-8"?>
<svg id="Layer_2" data-name="Layer 2" xmlns="http://www.w3.org/2000/svg" viewBox="0 0 662.5 628.86">
  <defs>
    <style>
      .cls-1 {
        fill: #000;
      }

      .cls-1, .cls-2, .cls-3, .cls-4, .cls-5, .cls-6, .cls-7, .cls-8, .cls-9, .cls-10, .cls-11 {
        stroke-width: 0px;
      }

      .cls-2 {
        fill: #893637;
      }

      .cls-3 {
        fill: #9e5d48;
      }

      .cls-4 {
        fill: #e3f4f8;
      }

      .cls-5 {
        fill: #686868;
      }

      .cls-6 {
        fill: #f57f21;
      }

      .cls-7 {
        fill: #848484;
      }

      .cls-8 {
        fill: #fff;
      }

      .cls-9 {
        fill: #cf4e27;
      }

      .cls-10 {
        fill: #fbc5bb;
      }

      .cls-11 {
        fill: #fedbc5;
      }
    </style>
  </defs>
  <g id="Layer_1-2" data-name="Layer 1">
    <g>
      <g>
        <g>
          <g>
            <path class="cls-9" d="M241.56,503.42l-115.94,115.73-12.1-103.65-103.83-12.09,104.58-104.41,63.64,52.2,63.65,52.21Z"/>
            <path class="cls-6" d="M241.56,503.42l-115.94,115.73-12.1-103.65,64.39-64.3,63.65,52.21Z"/>
          </g>
          <g>
            <path class="cls-9" d="M420.94,503.42l115.94,115.73,12.1-103.65,103.83-12.09-104.58-104.41-63.64,52.2-63.65,52.21Z"/>
            <path class="cls-6" d="M420.94,503.42l115.94,115.73,12.1-103.65-64.39-64.3-63.65,52.21Z"/>
          </g>
        </g>
        <path class="cls-6" d="M586.76,264.66c0,140.82-114.35,254.97-255.4,254.97-4.67,0-9.32-.13-13.94-.38-134.56-7.22-241.45-118.45-241.45-254.6S182.87,17.3,317.43,10.08c4.62-.25,9.26-.38,13.94-.38,141.05,0,255.4,114.15,255.4,254.96h0Z"/>
        <path class="cls-9" d="M586.76,264.66c0,140.82-114.35,254.97-255.4,254.97-4.67,0-9.32-.13-13.94-.38,134.56-7.23,241.44-118.45,241.44-254.6S451.98,17.31,317.43,10.08c4.62-.25,9.26-.38,13.94-.38,141.05,0,255.4,114.15,255.4,254.96h0Z"/>
        <path class="cls-8" d="M539.46,264.66c0,66.66-31.46,125.99-80.35,164.01-35.26,27.41-79.59,43.74-127.74,43.74-6.51,0-12.94-.3-19.29-.89-40.77-3.73-78.14-19.22-108.68-43.02-48.77-38.02-80.12-97.27-80.12-163.83,0-108.21,82.86-197.09,188.71-206.85,6.38-.6,12.85-.89,19.38-.89,114.93,0,208.09,93.01,208.09,207.74h0Z"/>
        <path class="cls-4" d="M539.46,264.66c0,66.66-31.46,125.99-80.35,164.01-35.26,27.41-79.59,43.74-127.74,43.74-6.51,0-12.94-.3-19.29-.89,104.19-11.36,185.27-99.63,185.27-206.85s-81.13-195.53-185.36-206.85c6.38-.6,12.85-.89,19.38-.89,114.93,0,208.09,93.01,208.09,207.74h0Z"/>
        <g>
          <path class="cls-7" d="M459.1,417.48v11.19c-35.26,27.41-79.59,43.74-127.74,43.74-6.51,0-12.94-.3-19.29-.89-40.77-3.73-78.14-19.22-108.68-43.02v-11.01c0-29.28,23.72-53.03,52.96-53.03h149.79c20.42,0,38.12,11.55,46.96,28.49,3.84,7.34,6,15.68,6,24.53h0Z"/>
          <path class="cls-5" d="M459.1,417.48v11.19c-35.26,27.41-79.59,43.74-127.74,43.74-6.51,0-12.94-.3-19.29-.89,57.15-6.24,107.36-35.61,141.03-78.57,3.84,7.34,6,15.68,6,24.53h0Z"/>
        </g>
        <g>
          <path class="cls-11" d="M356.5,340.82c-.93,7.81-.85,15.7.25,23.49,0,14.11-11.41,25.55-25.49,25.55-7.39,0-14.05-3.16-18.7-8.2-4.22-4.56-6.78-10.65-6.78-17.35,1.09-7.79,1.16-15.69.23-23.49-25.37-20.59-38.25-38.73-38.25-53.9,0-1.62.06-3.23.19-4.78.66-6.69.8-28.78.44-48.52l62.86-38.87,39.4,24.36,23.46,14.51c-.35,19.73-.21,41.81.45,48.49.13,1.59.19,3.2.19,4.82,0,15.17-12.87,33.31-38.26,53.9h0Z"/>
          <path class="cls-10" d="M356.5,340.82c-.93,7.81-.85,15.7.25,23.49,0,14.11-11.41,25.55-25.49,25.55-7.39,0-14.05-3.16-18.7-8.2,11.89-2.15,20.9-12.58,20.9-25.12-1.1-7.79-1.18-15.68-.25-23.49,25.39-20.59,38.26-38.73,38.26-53.9,0-1.62-.06-3.23-.19-4.82-.49-4.99-.7-33.11-.62-55.22l23.46,14.51c-.35,19.73-.21,41.81.45,48.49.13,1.59.19,3.2.19,4.82,0,15.17-12.87,33.31-38.26,53.9h0Z"/>
          <path class="cls-3" d="M417.15,200.62c0,17.1-12.85,31.19-29.41,33.09-1.26.14-2.54.22-3.83.22-14.14,0-26.22-8.86-31.02-21.34-6.02,4.56-13.51,7.26-21.63,7.26s-15.61-2.7-21.62-7.26c-4.8,12.48-16.89,21.34-31.03,21.34-18.35,0-33.23-14.91-33.23-33.31,0-12.27,6.63-22.97,16.47-28.75-4.46-4.21-7.25-10.18-7.25-16.81,0-12.75,10.3-23.08,23.02-23.08,3.92,0,7.61.98,10.84,2.71,4.13-7.92,12.4-13.32,21.92-13.32,8.72,0,16.39,4.52,20.81,11.35h.14c4.41-6.83,12.07-11.35,20.79-11.35,11.44,0,21.05,7.76,23.9,18.31,2.35-1.01,4.96-1.58,7.69-1.58,10.73,0,19.42,8.72,19.42,19.48,0,4.98-1.86,9.52-4.93,12.96,11.21,5.36,18.94,16.82,18.94,30.09h0Z"/>
          <path class="cls-2" d="M417.15,200.62c0,17.1-12.85,31.19-29.41,33.09,2.26-4.5,3.53-9.58,3.53-14.95,0-13.27-7.74-24.72-18.94-30.09,3.07-3.43,4.93-7.98,4.93-12.96,0-10.75-8.7-19.48-19.42-19.48-2.73,0-5.33.57-7.69,1.58-2.83-10.51-7.49-24.97-18.81-25.1,4.41-6.83,12.07-11.35,20.79-11.35,11.44,0,21.05,7.76,23.9,18.31,2.35-1.01,4.96-1.58,7.69-1.58,10.73,0,19.42,8.72,19.42,19.48,0,4.98-1.86,9.52-4.93,12.96,11.21,5.36,18.94,16.82,18.94,30.09h0Z"/>
        </g>
      </g>
      <g>
        <path class="cls-1" d="M659.65,496.55l-99.12-98.95c22.84-39.09,35.93-84.51,35.93-132.94,0-35.73-7.01-70.39-20.84-103.03-2.09-4.94-7.79-7.24-12.72-5.15-4.94,2.09-7.24,7.79-5.15,12.72,12.81,30.23,19.3,62.35,19.3,95.46,0,135.24-110.21,245.26-245.69,245.26s-245.69-110.02-245.69-245.26S195.9,19.41,331.37,19.41c42.49,0,84.36,11,121.09,31.81,35.62,20.18,65.91,49.21,87.59,83.94,2.84,4.55,8.83,5.93,13.37,3.09,4.55-2.84,5.93-8.82,3.09-13.37-23.39-37.46-56.06-68.77-94.49-90.55C422.39,11.87,377.21,0,331.37,0,185.2,0,66.27,118.73,66.27,264.67c0,48.36,13.06,93.73,35.84,132.79L2.85,496.55c-2.63,2.63-3.53,6.54-2.31,10.05s4.35,6.02,8.05,6.45l96.2,11.2,11.22,96.02c.43,3.69,2.94,6.82,6.45,8.04,1.04.36,2.12.54,3.19.54,2.53,0,5.01-.99,6.86-2.84l111.61-111.42c27.34,9.54,56.71,14.73,87.27,14.73s59.81-5.17,87.1-14.67l111.54,111.36c1.85,1.85,4.33,2.84,6.86,2.84,1.07,0,2.15-.18,3.19-.54,3.51-1.22,6.02-4.35,6.45-8.04l11.22-96.02,96.2-11.2c3.7-.43,6.82-2.94,8.05-6.45,1.22-3.52.32-7.42-2.31-10.05h0ZM30.77,496.1l82-81.86c11.89,17.27,25.78,33.06,41.33,47.05l-44.11,44.03-79.22-9.22ZM132.95,598.14l-9.24-79.09,45.34-45.26c16.94,13.14,35.52,24.27,55.36,33.04l-91.46,91.31ZM529.55,598.14l-91.39-91.23c19.86-8.76,38.44-19.88,55.39-33.01l45.24,45.16-9.24,79.08ZM552.51,505.33l-43.99-43.92c15.56-13.98,29.46-29.76,41.36-47.02l81.86,81.72-79.22,9.22Z"/>
        <path class="cls-1" d="M331.37,462.71c-18.43,0-36.67-2.52-54.23-7.5-5.16-1.46-10.52,1.53-11.98,6.69-1.46,5.16,1.53,10.52,6.69,11.98,19.27,5.46,39.3,8.23,59.52,8.23,120.09,0,217.8-97.68,217.8-217.73S451.46,46.65,331.37,46.65s-217.8,97.67-217.8,217.73c0,81.67,45.08,155.78,117.66,193.41,4.76,2.47,10.61.61,13.08-4.15s.61-10.62-4.15-13.08c-9.56-4.96-18.6-10.61-27.07-16.88v-6.28c0-23.92,19.41-43.38,43.26-43.38h41.05c1.62,5.69,4.66,10.91,8.96,15.22,6.65,6.66,15.49,10.33,24.89,10.33,16.05,0,29.62-10.81,33.84-25.55h41.06c23.85,0,43.26,19.46,43.26,43.38v6.29c-33,24.5-73.85,39.01-118.03,39.01h0ZM350.38,333.29c-1.96,1.59-3.22,3.88-3.52,6.39-1,8.39-.94,16.87.17,25.22-.31,8.47-7.26,15.26-15.77,15.26-4.21,0-8.17-1.64-11.15-4.63-2.85-2.85-4.48-6.61-4.62-10.63,1.11-8.35,1.17-16.83.17-25.23-.3-2.51-1.56-4.8-3.52-6.39-11.95-9.69-20.98-18.79-26.85-27.06-5.19-7.31-7.82-13.81-7.82-19.31,0-1.39.05-2.71.15-3.83.62-6.37.78-23.43.63-39.45.12,0,.24,0,.36,0,13.85,0,26.75-6.83,34.72-17.74,5.61,2.41,11.67,3.65,17.93,3.65s12.32-1.25,17.93-3.65c7.97,10.91,20.88,17.74,34.72,17.74.12,0,.25,0,.37,0-.15,16,0,33.03.62,39.29.11,1.26.16,2.6.16,3.99,0,5.5-2.63,12-7.82,19.31-5.87,8.27-14.9,17.37-26.85,27.07h0ZM268.5,164.81c-2.71-2.56-4.21-6.02-4.21-9.74,0-7.37,5.98-13.37,13.32-13.37,2.21,0,4.32.53,6.25,1.56,2.28,1.22,4.96,1.48,7.44.72,2.48-.76,4.55-2.48,5.75-4.78,2.62-5,7.72-8.11,13.33-8.11,5.12,0,9.85,2.58,12.65,6.91,1.79,2.77,4.86,4.44,8.15,4.44h.15c3.3,0,6.37-1.67,8.15-4.44,2.79-4.33,7.52-6.91,12.65-6.91,6.78,0,12.76,4.58,14.53,11.14.73,2.72,2.62,4.99,5.15,6.21,2.54,1.22,5.48,1.28,8.07.17,1.21-.52,2.49-.78,3.83-.78,5.36,0,9.72,4.38,9.72,9.77,0,2.41-.88,4.72-2.47,6.51-2.03,2.28-2.87,5.38-2.26,8.37.6,2.99,2.57,5.52,5.33,6.84,8.15,3.9,13.42,12.27,13.42,21.33,0,13.02-10.56,23.61-23.53,23.61-9.66,0-18.49-6.07-21.96-15.11-1.09-2.85-3.46-5.01-6.39-5.85-.88-.25-1.77-.37-2.66-.37-2.09,0-4.15.67-5.85,1.96-4.57,3.46-10.03,5.29-15.78,5.29s-11.2-1.83-15.78-5.29c-2.43-1.84-5.58-2.43-8.52-1.59-2.93.84-5.3,3-6.39,5.85-3.48,9.04-12.3,15.11-21.96,15.11-12.97,0-23.53-10.59-23.53-23.61,0-8.35,4.48-16.16,11.68-20.39,2.63-1.55,4.39-4.24,4.73-7.28.35-3.04-.76-6.06-2.98-8.15h0ZM406.15,354.61h-40.53c-.11-2.95-.06-5.9.16-8.85,26.03-21.77,38.69-41.05,38.69-58.84,0-1.94-.08-3.83-.24-5.76-.54-5.47-.73-23.82-.48-42.39,13.72-7.19,23.11-21.59,23.11-38.15,0-12.97-5.94-25.17-15.7-33.24,1.11-3.12,1.69-6.43,1.69-9.8,0-16.09-13.07-29.18-29.13-29.18-.67,0-1.33.02-1.99.07-6.11-10.21-17.26-16.8-29.58-16.8-7.68,0-14.96,2.52-20.87,7.04-5.91-4.51-13.19-7.04-20.87-7.04-9.92,0-19.15,4.23-25.59,11.41-2.35-.53-4.76-.8-7.17-.8-18.05,0-32.73,14.71-32.73,32.78,0,5.22,1.26,10.34,3.6,14.92-8.08,8-12.83,19.03-12.83,30.64,0,16.56,9.39,30.96,23.11,38.15.25,18.58.06,36.95-.49,42.52-.16,1.77-.23,3.66-.23,5.62,0,17.8,12.66,37.07,38.69,58.84.21,2.95.27,5.91.16,8.86h-40.53c-31.35,0-57.4,23.19-61.96,53.35-38.75-36.86-61.41-88.32-61.41-143.58,0-109.36,89-198.33,198.39-198.33s198.39,88.97,198.39,198.33c0,56.43-23.69,107.42-61.65,143.57-4.57-30.16-30.61-53.34-61.96-53.34Z"/>
      </g>
    </g>
  </g>
</svg>