<?xml version="1.0" encoding="UTF-8"?>
<svg id="Layer_2" data-name="Layer 2" xmlns="http://www.w3.org/2000/svg" viewBox="0 0 289.05 492">
  <defs>
    <style>
      .cls-1 {
        fill: #fff;
        stroke-width: 0px;
      }
    </style>
  </defs>
  <g id="Layer_1-2" data-name="Layer 1">
    <path class="cls-1" d="M281.2,226.8L62.25,7.86C57.19,2.79,50.43,0,43.22,0s-13.97,2.79-19.03,7.86L8.06,23.98c-10.49,10.5-10.49,27.58,0,38.06l183.86,183.86L7.86,429.96c-5.06,5.07-7.86,11.82-7.86,19.03s2.8,13.97,7.86,19.04l16.12,16.12c5.07,5.07,11.82,7.86,19.03,7.86s13.97-2.79,19.03-7.86l219.15-219.14c5.08-5.08,7.86-11.87,7.85-19.09.02-7.24-2.77-14.03-7.85-19.11Z"/>
  </g>
</svg>