<?xml version="1.0" encoding="UTF-8"?>
<svg id="Layer_2" data-name="Layer 2" xmlns="http://www.w3.org/2000/svg" viewBox="0 0 167.45 167.41">
  <defs>
    <style>
      .cls-1 {
        fill: #fff;
        stroke-width: 0px;
      }
    </style>
  </defs>
  <g id="Layer_1-2" data-name="Layer 1">
    <g>
      <path class="cls-1" d="M166.33,5.13l-.63-3.43-3.42-.59c-27.34-4.73-54.98,5.89-72.13,27.71l-4.85,6.17-12.31-.34c-8.58-.23-16.98,3.11-23.05,9.18l-18.15,18.15h0s-4.47,4.48-4.47,4.48l6.98,6.98,4.47-4.47c5.51-5.51,13.56-7.51,21.01-5.22l2.36.73-4.72,6.01,7.64,7.64-13.57,13.57,24.57,24.57,13.57-13.57,7.33,7.33,6.02-4.72.73,2.36c2.29,7.45.29,15.5-5.22,21.01l-4.47,4.47,6.98,6.98,22.62-22.62c6.07-6.07,9.42-14.47,9.18-23.05l-.34-12.26,6.12-4.8c21.89-17.17,32.52-44.85,27.75-72.26h0ZM157.12,10.33c.5,4.18.59,8.35.29,12.47-3.06-.74-5.9-2.3-8.18-4.58-2.28-2.28-3.83-5.12-4.57-8.17,4.11-.3,8.28-.21,12.46.28ZM62.67,54.31c-2.61-.8-5.27-1.24-7.91-1.34l2.15-2.15c4.16-4.16,9.92-6.45,15.8-6.29l4.99.14-9.04,11.5-6-1.84ZM76.06,102.31l-10.62-10.62,6.59-6.59,10.62,10.62-6.59,6.59ZM122.93,94.72c.16,5.88-2.13,11.64-6.29,15.8l-2.15,2.15c-.1-2.65-.54-5.31-1.34-7.91l-1.84-5.98,11.5-9.02.14,4.96ZM132.49,69.62l-34.73,27.24-27.17-27.17,27.33-34.78c9.45-12.03,22.57-20.13,36.97-23.41,1.07,5.12,3.59,9.9,7.38,13.68,3.79,3.79,8.58,6.32,13.71,7.38-3.27,14.43-11.4,27.58-23.47,37.05h0Z"/>
      <path class="cls-1" d="M108.25,37.57c-5.96,5.96-5.96,15.66,0,21.62,2.98,2.98,6.9,4.47,10.81,4.47s7.83-1.49,10.81-4.47c5.96-5.96,5.96-15.66,0-21.62-5.96-5.96-15.66-5.96-21.62,0ZM122.89,52.21c-2.11,2.11-5.55,2.11-7.66,0-2.11-2.11-2.11-5.55,0-7.66,1.06-1.06,2.44-1.59,3.83-1.59s2.78.53,3.83,1.58c2.11,2.11,2.11,5.55,0,7.66h0Z"/>
      <path class="cls-1" d="M.5,130.2l6.98-6.98,6.98,6.98-6.98,6.98-6.98-6.98Z"/>
      <path class="cls-1" d="M14.49,116.21l22.69-22.69,6.98,6.98-22.69,22.69-6.98-6.98Z"/>
      <path class="cls-1" d="M30.24,159.94l6.98-6.98,6.98,6.98-6.98,6.98-6.98-6.98Z"/>
      <path class="cls-1" d="M44.22,145.96l22.69-22.69,6.98,6.98-22.69,22.69-6.98-6.98Z"/>
      <path class="cls-1" d="M0,160.44l41.39-41.39,6.98,6.98L6.98,167.41l-6.98-6.98Z"/>
    </g>
  </g>
</svg>