<?xml version="1.0" encoding="UTF-8"?>
<svg id="Layer_2" data-name="Layer 2" xmlns="http://www.w3.org/2000/svg" viewBox="0 0 93.41 149.76">
  <defs>
    <style>
      .cls-1 {
        fill: #d3d3d3;
      }

      .cls-1, .cls-2, .cls-3, .cls-4, .cls-5, .cls-6, .cls-7, .cls-8, .cls-9, .cls-10, .cls-11, .cls-12, .cls-13, .cls-14, .cls-15, .cls-16, .cls-17, .cls-18, .cls-19, .cls-20, .cls-21, .cls-22, .cls-23, .cls-24 {
        stroke-width: 0px;
      }

      .cls-2 {
        fill: #aeaeae;
      }

      .cls-3 {
        fill: #b9b9b9;
      }

      .cls-4 {
        fill: #9b9b9b;
      }

      .cls-5 {
        fill: #f5f5f5;
      }

      .cls-6 {
        fill: #b2b2b2;
      }

      .cls-7 {
        fill: #a8a8a8;
      }

      .cls-8 {
        fill: #9c9c9c;
      }

      .cls-9 {
        fill: #dedede;
      }

      .cls-10 {
        fill: #919191;
      }

      .cls-11 {
        fill: #f6f6f6;
      }

      .cls-12 {
        fill: #c6c6c6;
      }

      .cls-13 {
        fill: #cfcfcf;
      }

      .cls-14 {
        fill: #a3a3a3;
      }

      .cls-15 {
        fill: #a2a2a2;
      }

      .cls-16 {
        fill: #bfbfbf;
      }

      .cls-17 {
        fill: #dadada;
      }

      .cls-18 {
        fill: #e4e4e4;
      }

      .cls-19 {
        fill: #ececec;
      }

      .cls-20 {
        fill: #9e9e9e;
      }

      .cls-21 {
        fill: #939393;
      }

      .cls-22 {
        fill: #cbcbcb;
      }

      .cls-23 {
        fill: #f0f0f0;
      }

      .cls-24 {
        fill: #9d9d9d;
      }
    </style>
  </defs>
  <g id="Objects">
    <g>
      <path class="cls-8" d="M39.65,96.15c.08.21.25.43.24.63-.39,5.69-.53,11.4-1.31,17.06-.22,1.56-.17,3.16-.24,4.66.78.68,1.59.57,2.37.62,2.36.16,4.73.24,7.09-.06.1-.1.21-.21.31-.31q1.4.25,1.57-1.29c.18-.35.01-.65-.17-.93-.07-.34.09-.78-.41-.92v.06c.24.05.35-.07.4-.31.14-.6-.28-.92-.62-1.29,0-.16-.07-.29-.21-.38h0c.69-.26.94-.74.86-1.48-.21-1.92-.41-3.83-.57-5.75-.1-1.23.28-2.48-.03-3.71.14-.6,0-1.17-.17-1.74.35-.26.46-.59.3-1.01-.19-.5-.38-1-.57-1.5-.18-.46-.37-.91-.55-1.37l.19-.06.12-.16c.19-.13.39-.27.6-.41-.11-1.36-.92-2.33-1.63-3.38-.65-.97-1.76-1.64-2.04-3.15.54.27.96.47,1.38.68.36-.36-.21-.7,0-1.03.06-.19.16-.18.32,0,.46.52.92,1.04,1.46,1.65.71-1.68.07-3.33.57-4.85.4-.03.75.09,1.05.36.07.39.24.79.19,1.17-.28,2.08.12,4.13.18,6.19.09,3.56.31,7.12.46,10.68.18,4.28.34,8.57.5,12.85.04.95.05,1.91.07,2.86.09,4.36.2,8.72.28,13.08.05,3.1-.19,6.19-.68,9.26-.4,2.51-1.72,4.39-3.86,5.73-.72-.5-.78-.47-.98.35-1.44.84-3.09.86-4.64.84-2.67-.02-4.35-1.74-5.49-4-1.05-2.07-.99-4.34-.9-6.57.26-6.04,1.07-12.05,1.47-18.08.33-4.93.83-9.83,1.28-14.74.27-3,.29-6.03.63-9.04.06-.57.14-1.1.5-1.54.41-.2.57.05.71.35ZM43.93,139.7c.29-.11.58-.21.86-.32,1.6.02,3.25.32,4.81-.8-.11-1.14.78-2.3.17-3.58.17-.38.08-.76-.05-1.13.18-1.07.37-2.13.05-3.21.08-.43-.05-.8-.34-1.11.54-1.34.42-2.7.09-4.06.09-1.74.22-3.47.06-5.35-.92.36-1.67.51-2.46.58-.77.07-1.6-.03-2.3.46-.55-.33-1.11-.46-1.71-.15-1.56-.13-3.11-.6-4.76-.26-.55,1.49-.38,3.02-.52,4.51-.36,3.8-.71,7.61-1.03,11.42-.07.86-.25,1.77.43,2.51-.39.44-.53.93-.29,1.49-.7,1.09-.07,2.18.07,3.24.21,1.54,1.36,2.48,2.53,3.33,1.01.74,2.1,1.03,3.37.54.49-.19,1.11-.01,1.66-.09,1.3-.19,2.45-.71,3.26-1.79.38-.51.71-1.06,1.06-1.59.12-.05.19-.15.21-.28.48-1.26.9-2.52.42-3.96-.84.09-1.61.2-2.28.64-.88.57-1.78.56-2.72.21-.2-.42-.39-.83-.59-1.25Z"/>
      <path class="cls-8" d="M50.7,28.39c-.95.31-1.91.11-2.87.02l-.64-1.54c2.39-.22,4.74.15,7.11.35,3,.26,6,.71,9.01.18.34.28.74.21,1.13.21,2.43-.01,4.86-.05,7.3-.04,1.48,0,2.94.41,4.43.12.54.3,1.11.36,1.71.18,1.35.18,2.7.59,4.05-.02l.03.05c1.32.99,2.71.42,4.23.36-.33-.7-.56-1.19-.79-1.68.32-.57.44-1.15.05-1.74.04-.3-.05-.56-.27-.77l-.1-.04c.08-.31,0-.58-.22-.81-.25-.26-.5-.51-.75-.77.4-.51.68-1.09.61-1.75-.14-1.31.3-2.48.84-3.61-.21-.56-.41-1.07-.6-1.59.13-.13.26-.26.38-.39-.2-.16-.38-.05-.54.07-.06.04-.1.09-.15.14l-.11-.02c-.14-.58-.17-1.06.68-1.01.23.01.37-.23.34-.5,1.21-.23,1.38-.03,1.3,1.49.22,2.37.24,4.78-.74,6.37.18.3.39.64.59.97.21,1.74.16,3.54,1.1,5.22.62,0,1.15-.29,1.65-.67.28-.08.55-.15.83-.23.55,1.21.12,2.57.56,3.8-.37.8-.53,1.63-.4,2.51.07.45.01.96.58,1.16h.01c-.65-.24-.88.21-.93.68-.11,1.09-.21,2.18-.18,3.27.05,1.41-.65,2.33-1.7,3.13-.74.56-1.41,1.21-2.11,1.82-3.23,2.16-6.56,4.18-9.67,6.5-4.63,3.46-9.32,6.82-13.99,10.23-1.09.79-2.13,1.64-3.19,2.47-.44.35-.54.76-.17,1.22-.39.16-.79.32-1.18.48-.94-.23-1.08-.17-1.4.71-.21.27-.41.55-.62.82-.38-.36-.76-.2-1.14,0-.33.15-.63.34-.67.75-.15.1-.3.21-.45.31-.26.12-.51.23-.77.35-1.15.47-2.23,1.03-2.68,2.32-.68-.45-1.22-.02-1.72.32-.7.49-1.34,1.06-2.01,1.6-1.5.68-1.97,1.97-1.95,3.47.01.96-.11,1.88-.32,2.8-.35.14-.69.27-1.04.41-.55-1.48-.28-2.99-.11-4.48.14-1.2.76-2.27,1.67-3.1.59-.54,1.22-1.03,1.87-1.48,4.08-2.79,8.2-5.52,12.24-8.36,2.41-1.69,4.81-3.41,7.15-5.21,3.16-2.43,6.47-4.66,9.73-6.95,3.78-2.66,7.58-5.3,11.36-7.96.45-.32.86-.71,1.39-1.15-.2-3.34.72-6.69.37-10.33-1.68,1.15-3.38,1.01-5.14,1.02-3.76.02-7.47-.34-11.19-.74-1.43-.15-2.86.04-4.29.03-1.98,0-3.97-.15-5.97.06-1.56.17-3.18-.07-4.76-.23-1.74-.17-3.5-.07-5.21-.53-.38-.87-.99-.52-1.58-.3Z"/>
      <path class="cls-24" d="M47.2,26.88l.64,1.54c-4.52,0-9.05-.13-13.56.04-5.96.23-11.91-.44-17.87-.11-2.85.16-5.72-.05-8.57-.22-1.34-.08-2.68-.41-4-.72-1.43-.33-2.58-1.62-2.6-3.07-.02-1.82-.69-3.51-.97-5.27-.22-1.43-.46-2.78-.02-4.23.32-1.05.46-2.2.4-3.3-.11-2,.41-3.91.54-5.87.07-1.07.39-2.03.94-2.93.34-.55.74-1.12,1.38-1.28C5.19,1.05,6.74.23,8.55.1c3.6-.27,7.18.13,10.77.09,9.34-.1,18.65.8,27.99.9,1.91.02,3.83-.28,5.73.07-.46.4-.54.87-.29,1.41-.55.08-1.1.24-1.64.24-5.24-.07-10.48-.15-15.72-.29-1.9-.05-3.8-.3-5.7-.35-5.96-.17-11.92-.31-17.88-.42-2.78-.05-5.54.25-8.26,1.1-1.14,1.94-.88,4.16-1.17,6.21-.16,1.2-.26,2.52-.15,3.79-.2,1.21-.39,2.42-.59,3.62-.74.79-.07,1.42.32,1.98.26.37.63.62.46,1.14-.4.65-.05,1.19.17,1.79.21.57.82,1.12.52,1.77-.52,1.13.27,1.77.77,2.58.7.1,1.4.21,2.1.29.13.01.28-.12.43-.19.56.47,1.03.02,1.53-.16.15.25.23.58.58.64.81.14,1.62.41,2.46.17.46.34.84.04,1.23-.16.43.36.94.15,1.42.18.13.12.27.15.43.09,3.39-.03,6.79-.05,10.18-.08.23-.05.46-.1.68-.15,1.54.47,3.1.38,4.67.24.34.3.7.29,1.09.09,3.39-.02,6.78-.07,10.17-.04,2.12.02,4.25-.22,6.35.22Z"/>
      <path class="cls-8" d="M52.75,2.56c-.25-.54-.17-1.01.29-1.41,1.27-.02,2.55-.12,3.81-.04,5.33.33,10.66.24,16,.21,4.12-.02,8.29-.16,12.39.62,1.17.22,2.39.3,3.47.99.11.17.23.37.37.56,1.55,2.26,2.13,4.73,1.79,7.46-.36,2.84.09,5.72-.37,8.51.12.19.18.41.29.44,1.68.42,2.25,1.67,2.34,3.2.12,2.06.33,4.12.26,6.19-.1,2.86-.14,5.72-.11,8.57,0,.73-.06,1.43-.15,2.14-.15,1.15-.64,2.05-1.71,2.7-4.53,2.77-8.77,5.94-13.02,9.11-1.13.84-2.19,1.86-3.6,2.3-.17-.36-.34-.72-.5-1.08,1.03-1,2.15-1.86,3.32-2.7,2.96-2.11,5.89-4.27,8.84-6.42,1.08-.66,2.13-1.4,3.26-1.95,1.8-.87,2.36-2.23,1.92-4.11.23-.33.16-.68.06-1.04.1-.89-.29-1.65-.66-2.41h-.01c.2-.09.57-.21.57-.29-.13-1.18.38-2.41-.22-3.56.15-.27.47-.57.44-.81-.26-1.59-.19-3.15-.04-4.74.05-.5.27-1.31-.51-1.72-.2.04-.43.08-.66.12-.13-.36-.19-.71.1-1.02.24-.12.6-.11.63-.48.04-.47-.32-.57-.68-.65q-.52-1.04-1.59-.85c-.17-1.34-.24-2.67.03-4.01.08-.4,0-.79-.2-1.15.55-2.59.24-5.22.35-7.82.03-.74-.39-1.53-.71-2.25-.31-.69-.93-1.09-1.68-1.21-2.51-.38-5.01-.84-7.57-.72-.96.05-1.9-.07-2.85-.12-2.14-.11-4.29-.15-6.42.08-.54.06-.92.23-.85.86l-.02.02c-.08-.52-.3-.9-.89-.91-1.1,0-2.21.04-3.31,0-2.43-.09-4.87.12-7.28-.36q-.67-.78-1.07.02c-.4.2-.76.17-1.09-.14-.6-.67-.69-.67-1.06,0-.6.31-1.14.06-1.7-.15Z"/>
      <path class="cls-4" d="M74.3,53.03c.17.36.34.72.5,1.08-.68.91-1.66,1.46-2.56,2.11-3.98,2.9-7.93,5.85-11.92,8.74-3.41,2.47-6.86,4.88-10.29,7.32-.45.32-.87.71-1.34,1.01-1,.63-1.26,1.62-1.3,2.67-.05,1.03.02,2.06.04,3.13.56.69,1.44.51,2.19.68,2.25.53,2.64,1.16,1.9,3.36-.12.36-.43.65-.65.98-.4.09-.8.18-1.19.27-.25-.83.7-1.44.41-2.31-.45-.6-1.23-.72-1.89-.78-2.44-.22-4.89-.38-7.34-.43-1.34-.03-1.8.88-1.23,2.06.22.45,1.04.62.63,1.35-.27.1-.53.2-.8.3-1.35-.49-1.59-1.69-1.77-2.88-.08-.57.15-1.09.63-1.47.76-.6,1.56-1.13,2.56-1.19.71-.05,1.43-.08,2.14-.12.44.25.77-.04,1.13-.22.37.76.91.76,1.69.28.03-1.18.14-2.45.08-3.7-.04-1.02.24-1.88.87-2.64,1.23-.6,2.28-1.43,3.13-2.51.17-.09.34-.17.51-.26,1.03-.29,1.54-1.3,2.44-1.79.29-.16.06-.58,0-.89.26-.12.51-.23.77-.35.15.11.31.24.46.05.06-.07,0-.24-.02-.36.04-.41.34-.6.67-.75q.7.84,1.14,0c.21-.27.41-.55.62-.82.47-.24.93-.48,1.4-.71.39-.16.79-.32,1.18-.48,3.04-1.62,5.61-3.91,8.41-5.88,2.27-1.6,4.32-3.5,6.79-4.83Z"/>
      <path class="cls-7" d="M39.47,84.57c.27-.1.53-.2.8-.3.49,1.03.84,2.06.18,3.15-.29.09-.57.19-.86.28.05-.53.04-1.08.16-1.6.14-.58,0-1.06-.29-1.54Z"/>
      <path class="cls-8" d="M40.33,91.45c-.04,1.03-.06,2.07-.14,3.1-.03.37-.13.8-.64.87-.64-.11-.71-.53-.54-1.06.25-.26.28-.54.08-.84.05-.97-.2-1.99.42-2.88.28.3.55.6.83.9v-.08Z"/>
      <path class="cls-7" d="M49.67,84.38c.4-.09.8-.18,1.19-.27q-.68.94-.93,2.65c-.3-.27-.64-.39-1.05-.36-.28-.88.02-1.54.78-2.02Z"/>
      <path class="cls-15" d="M44.16,78.68c-.36.17-.69.47-1.13.22.05-.27.09-.53.14-.8.35-.14.69-.27,1.04-.41.09.33.14.67-.05.99Z"/>
      <path class="cls-8" d="M39.59,87.71c.29-.09.57-.19.86-.28.01.61.41,1.23-.08,1.81-.52.29-.86.1-.92-.45-.04-.35.09-.72.15-1.08Z"/>
      <path class="cls-24" d="M50.7,28.39c.59-.22,1.2-.57,1.58.3-.58.16-1.11.1-1.58-.3Z"/>
      <path class="cls-7" d="M46.09,148.92c.2-.82.26-.84.98-.35-.22.41-.55.52-.98.35Z"/>
      <path class="cls-7" d="M40.33,91.54c-.28-.3-.55-.6-.83-.9.44-.19.79-.13.95.38-.05.18-.09.36-.14.55v-.03Z"/>
      <path class="cls-7" d="M39.08,93.52c.2.3.17.58-.08.84-.1-.29-.1-.57.08-.84Z"/>
      <path class="cls-3" d="M48.93,102.74c.31,1.24-.07,2.48.03,3.71.16,1.92.36,3.84.57,5.75.08.73-.17,1.22-.86,1.48-.89-1.27-1.78-2.53-2.94-4.2,1.4.49,1.68,1.64,2.76,1.9-.55-1.91-2.46-2.88-3-4.84,1.13.36,1.55,1.57,2.76,1.92-.58-2.02-2.43-3.09-3.2-4.84.42-.31.72.26,1.09.09.19.34.38.68.7,1.24q-.2-.86-.72-1.2c-.28-1.36-1.74-2.04-2.08-3.54,1.85.63,2.53,2.4,3.92,3.36.05-1.58-1.78-2.16-1.92-3.78.74.44,1.22.99,1.57,1.66.3.58.65,1.08,1.31,1.29Z"/>
      <path class="cls-3" d="M49.5,116.53c.19.29.35.58.17.93-.88-.01-1.37.46-1.57,1.29-.1.1-.21.21-.31.31-.42-.75-.85-1.49-1.26-2.25-.11-.2-.19-.43-.21-.66-.15-1.85-.15-1.85-.71-2.69.13-.47.26-.99.4-1.5.65.09,1,.5,1.28.99.31.53.77.76,1.37.72.14.09.21.22.21.38-.39.59,0,1.08.2,1.6v-.06c-.38.66-.32.8.42.92Z"/>
      <path class="cls-6" d="M41.3,83.85c-.21-.28-.19-.59-.05-1.05,1.96-.35,3.99-.09,6.02,0,.38.02.78.16.93.6,0,.27-.1.47-.35.53-1.29.32-5.14.27-6.55-.07Z"/>
      <path class="cls-16" d="M48.48,98.49c.19.5.38,1,.57,1.5.16.42.05.74-.3,1.01-.2-.12-.48-.2-.6-.38-.99-1.5-1.95-3.01-2.95-4.58.89-.01,1.14,1.05,1.98.87l-.04-.02c.34.62.41,1.47,1.34,1.6Z"/>
      <path class="cls-16" d="M48.24,96.9l-.12.16-.19.06c-.26-.08-.52-.16-.79-.23l.04.02c-.67-1.58-2.2-2.6-3.06-4.64,1.9,1.5,3.43,2.69,4.12,4.64Z"/>
      <path class="cls-19" d="M46.1,130.79c-.37-1.25-1.38-2.11-2.05-3.19.61-.45.5-1.14.67-1.76,1.58.63,1.95,2.52,3.66,3.26-.63-1.77-1.85-2.84-2.93-3.94-1.18-1.2-1.55-2.77-2.35-4.13.6-.31,1.16-.18,1.71.15,1.21,1.4,2.38,2.83,3.86,3.98.26.2.5.35.84.33.33,1.36.46,2.72-.09,4.06-.46.83-.44.86.34,1.11.32,1.08.13,2.14-.05,3.21-.38,0-.76,0-1.14,0h.02c-.44-.69-.44-1.71-1.46-1.99h0c-.26-.45-.32-1.1-1.06-1.1h0ZM45.84,128.46c.11-.37-.02-.61-.36-.76-.21.41-.07.65.36.76Z"/>
      <path class="cls-9" d="M44.43,134.18c-.1-.28-.21-.57-.31-.85,1.32.4,1.95,1.54,2.74,2.51.64.79,1.23,1.61,1.84,2.41-.04-.94-.3-1.76-.97-2.35-.51-.44-.75-1.02-1.01-1.6-.08-.19-.02-.28.19-.3.28.11.29.56.68.51.12-.29.24-.57.36-.85.18.18.39.29.65.21h-.02c.25.52.4,1.16,1.19,1.13.61,1.28-.28,2.43-.17,3.58-1.57,1.11-3.21.82-4.81.8.51-.97-.37-1.61-.58-2.41.48-.39,1,.2,1.49-.07-.43-.91-.85-1.81-1.28-2.72Z"/>
      <path class="cls-13" d="M47.05,144.14c-.69.84-1.07,2.04-2.56,2.08-.63-.73-.96-1.67-1.25-2.57.32-.73.85.01,1.24-.3-.25-.64-.51-1.29-.77-1.94.27-.15.54-.3.8-.44.94.35,1.84.36,2.72-.21.67-.43,1.44-.55,2.28-.64.48,1.44.05,2.7-.42,3.96-.39-.56-.38-1.35-1.05-1.8-.55-.06-1.14-.11-1.97-.2.38.81.67,1.43.96,2.05Z"/>
      <path class="cls-18" d="M49.52,125.51c-.33.02-.58-.13-.84-.33-1.47-1.15-2.64-2.58-3.86-3.98.69-.49,1.53-.39,2.3-.46.79-.07,1.54-.21,2.46-.58.15,1.88.02,3.61-.06,5.35Z"/>
      <path class="cls-14" d="M44.52,140.95c-.27.15-.54.3-.8.44-2.27-.12-4.53-.22-6.77-.68-.24-.56-.1-1.05.29-1.49,1.09.12,2.18.24,3.27.37.93.12,1.86.26,2.77-.1.22.07.43.14.65.21.2.42.39.83.59,1.25Z"/>
      <path class="cls-6" d="M47.05,144.14c-.29-.62-.58-1.24-.96-2.05.83.08,1.41.14,1.97.2.67.44.66,1.23,1.05,1.8-.01.13-.08.23-.21.28-.26-.4-.61-.39-.99-.21-.29.14-.57.2-.86,0Z"/>
      <path class="cls-23" d="M43.93,139.7c-.22-.07-.43-.14-.65-.21-.25-.74-.33-1.46.14-2.15.27-.12.54-.24.81-.36h-.02c.21.79,1.08,1.43.58,2.41-.29.11-.58.21-.86.32Z"/>
      <path class="cls-13" d="M81.99,17.09c.69-.23,1.03-.84,1.46-1.36.37-.14.73-.29,1.1-.43l.11.02c.08.11.18.17.31.18.2.51.39,1.03.6,1.59-.54,1.14-.97,2.31-.84,3.61.07.66-.21,1.23-.61,1.75-.1.01-.2,0-.3-.01-.58-1.51-1.77-2.38-3.21-3.02.54.97,1.24,1.81,1.51,2.88-1.07.14-.42.95-.56,1.44-.26.27-.8-.02-.95.48,0,.51.21.88.77.93.55.05.75.48,1.01.86-.3.21-.59.44-.89.64-.56.37-.96.19-1.22-.38.06-.22.23-.56.15-.63-.88-.76-1.6-1.77-2.84-2.03-.89-2.1-2.8-3.36-4.17-5.07.8-.63,1.6-1.25,2.4-1.88h-.03c.14.27.3.54.41.83.28.72,1.21-.3,1.54.63.17.48.68,1.01,1.3,1.18.88-.56-.05-1.14.08-1.76.27.17.53.34.64.41.86-.24.99-1.38,1.94-.98-.11.15-.26.37-.01.46.23.09.29-.16.32-.36ZM80.81,22.11c-.29-.73-.26-1.49-1.24-1.42-.49.56-.83,1.22-.97,2.08.42.27.79.51,1.22.79.06-.71.34-1.14.99-1.45ZM77.27,19.67c.2-.16.29-.37.15-.59-.13-.21-.38-.27-.51-.02-.09.17-.05.41-.07.63.14,0,.29,0,.43-.01ZM78,20.68c0-.15,0-.3-.02-.44,0-.04-.13-.06-.2-.08-.04.12-.16.27-.12.34.05.1.22.13.34.19Z"/>
      <path class="cls-18" d="M63.32,27.41c-.03-.95.84-.97,1.39-1.29.52-.3.89-.6.59-1.25.2.07.43.11.6.23,1.19.77,1.41.66,1.76-.91.47-.16.9-.12,1.33.18.45.31.9.65,1.41.81.73.23,1.41.11,1.66-.78.08-.08.17-.14.27-.2.93.65,1.78.06,2.65-.18.42.8,1.16,1.22,1.94,1.58.01.43-.21.72-.56.92-.31.18-.39.45-.33.78.08.12.13.25.16.39-1.49.29-2.95-.12-4.43-.12-2.43,0-4.86.03-7.3.04-.39,0-.79.07-1.13-.21Z"/>
      <path class="cls-23" d="M74.3,53.03c-2.46,1.33-4.52,3.23-6.79,4.83-2.79,1.97-5.37,4.26-8.41,5.88-.38-.47-.27-.88.17-1.22,1.06-.83,2.11-1.67,3.19-2.47,4.67-3.41,9.36-6.77,13.99-10.23,3.11-2.32,6.44-4.34,9.67-6.5.11.2.22.39.33.59-2.94,2.14-5.87,4.3-8.84,6.42-1.17.83-2.29,1.7-3.32,2.7Z"/>
      <path class="cls-3" d="M84.54,15.3c-.37.14-.73.29-1.1.43-.89-.61-1.38-1.51-1.57-2.53-.22-1.21-.24-2.44-.63-3.49.68-.58.93.4,1.41.05l-.04-.02c-.02.33.14.58.37.8.4.39.64.31.73-.24.43-.23.87-.45,1.3-.68q1.01.27.79-.81c.98-.49,1.25.26,1.58.91-.22.48-.53.87-1.07,1.01-.54-.31-1.09-.38-1.22.36-.08.47.47.47.84.52-.12.73-.24,1.46-.36,2.19.03.27-.1.51-.34.5-.85-.05-.81.43-.68,1.01Z"/>
      <path class="cls-19" d="M86.46,43.92c-.11-.2-.22-.39-.33-.59.7-.61,1.37-1.26,2.11-1.82,1.05-.8,1.75-1.71,1.7-3.13-.04-1.09.07-2.18.18-3.27.05-.48.28-.92.93-.7.37.76.76,1.52.66,2.41-.27.13-.62.23-.65.56-.03.36.25.49.59.48.43,1.87-.12,3.23-1.92,4.11-1.14.55-2.18,1.29-3.26,1.95Z"/>
      <path class="cls-22" d="M86.86,15.29c.67-.47,1.37.23,2.04-.03.2.36.28.75.2,1.15-.27,1.34-.19,2.67-.03,4.01-.08.23-.15.47-.23.7-.89.25-1.18,1.35-2.13,1.52-.2-.33-.41-.67-.59-.97.98-1.59.96-4,.74-6.37Z"/>
      <path class="cls-16" d="M86.71,22.64c.95-.17,1.24-1.27,2.13-1.52.03.15.06.3.09.46.33,1.86-.23,3.8.53,5.61-.5.37-1.03.67-1.65.67-.94-1.67-.89-3.47-1.1-5.22Z"/>
      <path class="cls-23" d="M44.16,78.68c.19-.32.14-.65.05-.99.21-.92.33-1.85.32-2.8-.02-1.51.45-2.79,1.95-3.47.11.4.22.8.33,1.2-.63.77-.91,1.62-.87,2.64.05,1.25-.05,2.52-.08,3.7-.78.48-1.32.48-1.69-.28Z"/>
      <path class="cls-3" d="M90.6,23.42c.23-.04.46-.08.66-.12.78.41.56,1.22.51,1.72-.16,1.59-.22,3.16.04,4.74.04.24-.28.54-.44.81-.18.06-.35.13-.53.19-.45-1.23-.02-2.58-.56-3.8.1-1.18.21-2.36.31-3.54Z"/>
      <path class="cls-10" d="M90.6,23.42c-.1,1.18-.21,2.36-.31,3.54-.28.08-.55.15-.83.23-.76-1.82-.2-3.76-.53-5.61-.03-.15-.06-.3-.09-.46.08-.23.15-.47.23-.7q1.07-.19,1.59.85c-.31.39-.11.76.05,1.13-.3.31-.23.66-.1,1.02Z"/>
      <path class="cls-23" d="M80.28,26.28c.27.57.66.75,1.22.38.3-.2.59-.43.89-.64.79-.34,1.42-.87,1.86-1.6.2-.4.41-.8.61-1.19.22.23.3.5.22.81l-.04.11.14-.07c.22.21.31.47.27.77-.85.56-1.52,1.35-2.49,1.76-.53.23-.8.74-1.04,1.24-1.35.61-2.7.2-4.05.02-.04-.11-.1-.22-.17-.31.58-.4,1.17-.8,1.75-1.19.27-.03.54-.06.81-.09Z"/>
      <path class="cls-7" d="M46.81,72.62c-.11-.4-.22-.8-.33-1.2.67-.54,1.31-1.12,2.01-1.6.5-.35,1.04-.78,1.72-.32h0c-.09.2-.18.41-.28.62-.85,1.07-1.9,1.91-3.13,2.51Z"/>
      <path class="cls-23" d="M85.41,26.59c.23.49.46.97.79,1.68-1.52.06-2.91.63-4.23-.36.83-.09,1.46-.51,2.01-1.13.39-.44.88-.69,1.43-.18Z"/>
      <path class="cls-1" d="M90.85,30.76c.18-.06.35-.13.53-.19.6,1.15.09,2.38.22,3.56,0,.08-.37.2-.57.31-.57-.2-.52-.71-.58-1.16-.13-.88.03-1.71.4-2.51Z"/>
      <path class="cls-13" d="M85.41,26.59c-.55-.5-1.04-.26-1.43.18-.55.62-1.18,1.04-2.01,1.13l-.03-.05c.24-.5.51-1.02,1.04-1.24.96-.41,1.64-1.2,2.49-1.76.39.59.27,1.17-.05,1.74Z"/>
      <path class="cls-7" d="M52.89,67.17c.05.3.29.72,0,.89-.9.5-1.4,1.5-2.44,1.79-.09-.11-.17-.24-.23-.37h0c.44-1.28,1.52-1.84,2.68-2.31Z"/>
      <path class="cls-19" d="M77.71,27.56c.07.1.13.2.17.31-.59.18-1.16.12-1.71-.18-.03-.14-.08-.27-.16-.39.58-.36,1.16-.73,1.74-1.09.54-.33,1.08-.83,1.6.02-.63.34-1.62.23-1.64,1.32Z"/>
      <path class="cls-13" d="M84.87,23.23c-.2.4-.41.8-.61,1.19-.39-.42-.78-.84-1.16-1.26l.72-.72c.1.02.2.02.3.01l.75.77Z"/>
      <path class="cls-7" d="M55.91,65.76q-.44.84-1.14,0c.38-.2.76-.36,1.14,0Z"/>
      <path class="cls-7" d="M57.93,64.23c-.47.24-.93.48-1.4.71.32-.88.46-.95,1.4-.71Z"/>
      <path class="cls-3" d="M84.96,15.51c-.13-.01-.23-.08-.31-.18.05-.05.1-.1.15-.14.17-.12.34-.22.54-.07-.13.13-.26.26-.38.39Z"/>
      <path class="cls-7" d="M54.1,66.51c0,.12.07.29.02.36-.15.19-.32.06-.46-.05.15-.1.3-.21.45-.31Z"/>
      <polygon class="cls-13" points="85.19 24.08 85.05 24.14 85.09 24.04 85.19 24.08"/>
      <path class="cls-3" d="M14.05,26.6c-.16.05-.31.02-.43-.09-.11-.42-.38-.66-.8-.76-.36-.68-.72-1.36-1.09-2.03-.28-.52-.72-.49-1.18-.32-.06-.15-.11-.3-.17-.45.28-1.39-.63-2.32-1.3-3.33-.29-.44-.58-.87-.85-1.31-.17-.27-.4-.42-.73-.34-.18-.47-.36-.94-.54-1.41.5-.53-.56-1.42.41-1.87,1.05,1.79,2.12,3.54,3.1,5.33.54,1,1.1,1.92,2.24,2.44-.49-1.14-.89-2.24-1.7-3.18-.45-.53-.72-1.23-1.01-1.88-.15-.35-.16-.77.45-.98.65,1.51,1.55,2.9,2.59,4.19.23.28.53.31.86.26.33.54.66,1.07.98,1.61.35.64.46,1.54,1.52,1.42-.06.5-.33.8-.82.95-.87.26-1.35.9-1.53,1.77Z"/>
      <path class="cls-18" d="M14.05,26.6c.19-.87.66-1.5,1.53-1.77.49-.15.76-.45.82-.95l.09-.02c.08-.02.16-.08.23-.07.96.12,1.85,1.01,2.9.18.25-.2.58.06.84.27.32.26.71.34,1.36.15.35-.45.44-1.36,1.2-1.74.15.16.3.32.44.48q.17.85,1.03.47c.81-.09,1.68.11,2.42-.41,0,.46-.31.7-.69.84-.85.31-1.35,1.05-1.98,1.62-.27.24-.09.59,0,.88-3.39.03-6.79.05-10.18.08Z"/>
      <path class="cls-17" d="M2.22,12.84c.22.32.44.64.66.95.42,2.09,1.14,4.05,2.33,5.84.01.12.05.24.1.35.21.32.42.65.63.97.22.55.43,1.1.65,1.65-.35.17-.71.41-1.09.11-.49-.39-.95-.78-1.19-1.42-.43-1.1-.91-2.19-1.47-3.23-.31-.58-.32-1.45-1.21-1.6.2-1.21.39-2.42.59-3.62Z"/>
      <path class="cls-11" d="M32.92,23.63c-.08.63-.65.69-1.08.92-.97.44-1.7,1.16-2.26,2.06-1.57.14-3.13.23-4.67-.24.19-.14.38-.27.58-.41.45-.29,1.15-.32,1.16-1.09l-.02.03c.82-.42,1.71-.72,2.34-1.44.09,0,.18.02.27.06.13.34.27.67.4,1.01-.29.24-.85.18-.92.87.55-.14.92-.29.94-.86.48-.25.8-.58.55-1.17.32-.03.65-.06.97-.09.18.46.47.6.91.33.29-.18.56-.3.83.03Z"/>
      <path class="cls-3" d="M1.62,16.46c.89.16.9,1.02,1.21,1.6.56,1.04,1.05,2.13,1.47,3.23.25.64.71,1.03,1.19,1.42.38.3.74.06,1.09-.11l.16-.1.18-.04c.06.17.13.33.19.5-.48.19-1.03.32-.98,1.01.03.45.34.61.75.65.2.5.68.71,1.04,1.04-.5.18-.96.63-1.53.16-.06-.14-.09-.33-.19-.43-1.81-1.59-2.85-3.67-3.8-5.82.16-.52-.2-.77-.46-1.14-.39-.56-1.06-1.19-.32-1.98Z"/>
      <path class="cls-15" d="M7.12,22.97c-.06-.17-.13-.33-.19-.5.5-.42,1.01-.83,1.51-1.25.47,0,.59.42.85.69.2.33.39.65.81.74.08.1.17.21.27.3.06.15.11.3.17.45-.33,1.13.04,1.9,1.2,2.2.36.09.43.39.61.61l-.16.11c-.39.2-.77.5-1.23.16-.21-.67-.82-1.06-1.34-1.26-.85-.33-1.39-.99-2.1-1.47-.13-.26-.27-.52-.4-.79Z"/>
      <path class="cls-17" d="M2.41,19.59c.94,2.15,1.99,4.23,3.8,5.82.11.09.13.28.19.43-.14.07-.29.2-.43.19-.7-.08-1.4-.19-2.1-.29-.5-.81-1.29-1.46-.77-2.58.3-.65-.31-1.19-.52-1.77-.22-.6-.57-1.15-.17-1.79Z"/>
      <path class="cls-12" d="M7.53,23.75c.7.48,1.25,1.14,2.1,1.47.52.2,1.13.59,1.34,1.26-.84.23-1.64-.03-2.46-.17-.35-.06-.43-.39-.58-.64-.36-.34-.85-.55-1.04-1.04.21-.29.43-.58.64-.87Z"/>
      <path class="cls-5" d="M25.49,25.96c-.19.14-.38.27-.58.41-.23.05-.46.1-.68.15-.09-.3-.27-.64,0-.88.63-.57,1.13-1.31,1.98-1.62.38-.14.68-.38.69-.84,0-.34-.38-.68.02-1.01.14.23.28.47.42.7.14.46.3.92-.24,1.26-.29.18-.45.43-.48.77l.02-.03c-.47.27-1.08.4-1.16,1.09Z"/>
      <path class="cls-18" d="M29.58,26.61c.56-.9,1.28-1.62,2.26-2.06-.06.9-1.17,1.23-1.17,2.15-.38.2-.75.21-1.09-.09Z"/>
      <path class="cls-18" d="M12.81,25.74c.42.1.69.35.8.76-.48-.03-.98.18-1.42-.18l.16-.11c.15-.16.31-.31.46-.47Z"/>
      <path class="cls-22" d="M72.29,9.26c-.32,1.04-1.39.3-1.88.85-.87-.4-1.34-1.05-1.54-1.92.13-.95-.48-1.58-.95-2.28.03-.3.12-.56.45-.64.11.26.2.53.53.59.16-.3,0-.53-.15-.77.14-.33.27-.66.41-.99l.02-.02c.72.79,1.09,1.85,1.96,2.52.39.88.77,1.77,1.16,2.65ZM70.71,8.44c-.19-.58-.27-.87-.39-1.14-.12-.27-.19-.59-.64-.74.02.71.29,1.22,1.03,1.87Z"/>
      <path class="cls-24" d="M55.51,2.71c-.35,0-.71,0-1.06,0,.38-.67.46-.67,1.06,0Z"/>
      <path class="cls-24" d="M57.67,2.84c-.35.12-.71.22-1.07.02q.4-.8,1.07-.02Z"/>
      <path class="cls-1" d="M91.65,37.87c-.34.01-.62-.12-.59-.48.03-.33.39-.42.65-.56.1.35.17.7-.06,1.04Z"/>
      <path class="cls-3" d="M90.7,22.39c-.15-.37-.35-.74-.05-1.13.36.08.71.18.68.65-.03.37-.39.36-.63.48Z"/>
      <path class="cls-8" d="M50.21,69.48c.06.13.14.26.23.37-.17.09-.34.17-.51.26.09-.21.18-.42.28-.63Z"/>
      <path class="cls-23" d="M47.95,133.67c-.12.28-.24.56-.36.85-.39.05-.4-.4-.68-.51-.21.02-.27.11-.19.3.26.58.51,1.15,1.01,1.6.67.59.93,1.41.97,2.35-.61-.81-1.21-1.63-1.84-2.41-.78-.97-1.42-2.12-2.74-2.51-.62-.5-1.37-.97-.92-1.95.25-.55-.15-1.07.05-1.6,1.13-.14,1.89.72,2.86,1h0c.26.45.32,1.1,1.06,1.1,0,0,0,0,0,0,.27.59.54,1.19.8,1.78ZM46,133.08c-.09-.08-.18-.16-.27-.24-.02.06-.09.15-.06.18.08.1.18.17.27.25.02-.06.04-.13.07-.19Z"/>
      <path class="cls-23" d="M44.43,134.18c.42.91.85,1.81,1.28,2.72-.49.28-1.01-.32-1.49.07h.02c-.13-.26-.26-.54-.4-.81q-.5-1.27.59-1.98Z"/>
      <path class="cls-9" d="M43.84,136.17c.13.27.26.54.4.81-.27.12-.54.24-.81.36-.36-.57-.17-.95.42-1.18Z"/>
      <path class="cls-9" d="M43.22,146.29c-.38-.03-.5-.29-.47-.62.02-.29-.06-.62.21-.85q.46.74.27,1.46Z"/>
      <path class="cls-16" d="M49.92,23.49c.09.49-.14.84-.61.71-.88-.23-1.69-.41-2.15.66-.88-.58-1.53-1-2.06-1.35-.91-.16-1.48.4-2.27.56-1.78-.89-4.09-.77-5.58-2.52-.46-.83-1.19-1.43-1.86-2.08-.26-.26-.22-.55,0-.83.6.16.78.91,1.43,1,.15.24.3.49.64.51.13-.46-.13-.68-.52-.81-.52-1.07-1.06-2.13-1.56-3.2-.2-.43-.34-.9.07-1.31q3.8,5.28,5.78,5.9c-.82-1.74-1.56-3.33-2.49-5.3,1.32.61,1.78,1.48,2.46,2.08,3.33,4.4,3.98,5.05,6.11,5.75-1.92-2.26-3.77-4.06-5.23-6.16-.01-.14-.06-.27-.13-.39.26-.12.52-.23.77-.35l1.27,1.43c1.21,2.03,3.01,3.53,4.69,5.13.32.31.72.62,1.24.57ZM41.75,21.19c-.06-.03-.12-.06-.19-.09-.02.07-.04.13-.06.2.08.02.16.04.25.07,0-.06,0-.12,0-.17Z"/>
      <path class="cls-3" d="M74.98,24.02c-.87.23-1.72.82-2.65.18.35-.24.77-.43.76-.96.23-.2.56-.31.59-.83-.37-.7-.96-1.3-2.12-1.84.39,1.22,1.4,1.69,1.48,2.65-.74-.24-1.48-.48-2.23-.72-.09.99.76,1.32,1.25,1.89-.25.9-.93,1.02-1.66.78-.5-.16-.96-.5-1.41-.81-.43-.3-.86-.34-1.33-.18h.03c-.23-.68-.73-1.13-1.3-1.56-.67-.51-1.42-.93-1.89-1.66-.15-.4-.33-.8.07-1.17.34.17.68.33,1.02.5,1.23-.75-.11-1.48.02-2.28,1,.34,1.58,1.39,2.65,1.51q.3-1.16.14-2.25c1.17.29,1.57,1.54,2.56,2.02.7-.02.77-.51.58-.97-.33-.77-.77-1.49-1.06-2.34,1.1.73,2.12,1.53,2.93,2.57,1.37,1.71,3.28,2.97,4.17,5.07-.25.18-.49.42-.82.3-.57-.21-1.13-.46-1.69-.69-.4-.16-.74-.13-1.03.25.31.18.62.36.93.54ZM69.52,23.02c-.86-1.83-1-1.92-2.55-1.58.74.74,1.48,1.27,2.55,1.58ZM71.04,21.26c-.07-.02-.16-.08-.2-.06-.09.06-.14.16-.21.25.07.02.16.09.19.07.08-.06.14-.16.22-.26ZM72.4,19.58c-.07-.03-.17-.09-.21-.07-.09.07-.15.18-.23.27.07.03.17.09.21.07.09-.07.15-.18.23-.27ZM69.93,20.13c-.08-.03-.16-.06-.23-.08,0,.12-.02.24,0,.36,0,.04.13.05.2.08,0-.12.02-.24.02-.35Z"/>
      <path class="cls-17" d="M13.89,20.85c-.33.05-.63.02-.86-.26-1.04-1.29-1.94-2.68-2.59-4.19-.62.21-.61.63-.45.98.28.65.55,1.36,1.01,1.88.8.94,1.21,2.04,1.7,3.18-1.13-.52-1.69-1.45-2.24-2.44-.98-1.8-2.05-3.54-3.1-5.33-.97.45.09,1.34-.41,1.87-.4-.53-.75-1.16-1.59-.87-.21-.5-.37-1.03-1.04-1.09-.7-.06-.79-.63-.95-1.15.73-.34,1.46-.23,2.1.19.44-1-.36-1.88.4-2.76,1.13.84,1.17,2.36,2.13,3.4.43-.68.3-1.31.05-1.94-.21-.52-.06-.91.37-1.23.16.28.32.56.48.83.15.36.21.83.47,1.08,1.14,1.06,1.64,2.49,2.35,3.8.14.25.22.55.72.67-.54-1.59-1.05-3.12-1.17-5.3,1.34,1.51,1.79,3.02,3.2,3.62.91,2.05,2.56,3.74,3.09,5.96-1.7-.71-1.57-3.22-3.62-3.63-.3.65.07,1.05.14,1.5-.42.35-.12.82-.2,1.23Z"/>
      <path class="cls-3" d="M18.4,19.26c-.31-.55-.69-1.08-.91-1.67-.3-.81-1.05-1.63.16-2.46.39-.27-.37-1.19.15-1.76,1.15.65,1.09,2.04,1.82,2.95.71.89,1.11,2.08,2.53,2.4.83-2.13-1.46-3.3-1.36-5.34,1.22.81,1.62,2.07,2.49,2.87.87.8,1.58,1.74,2.37,2.68.84-1.94-1.01-3.12-1.17-5.04,1.54,1.43,2.77,2.8,3.86,4.31.26.57.53,1.15.79,1.72-.37.67-.59,1.43-1.21,1.95-.85-.55-1.26-1.66-2.51-1.96.2.42.31.71.46.97.2.33.43.65.64.97-1.42.28-2.16-.8-3.09-1.53.03-.64-.14-1.16-.85-1.61-.19.37-.32.62-.45.88-1.14.22-1.45-.83-2.05-1.49-.26.32-.44.56-.63.79-.35.13-.7.25-1.05.38Z"/>
      <path class="cls-6" d="M19.44,18.89c.19-.23.37-.47.63-.79.61.66.91,1.72,2.05,1.49.13.1.19.23.18.39-.3.31-.33.67-.14,1.04.27.54.56,1.08.84,1.62-.76.38-.85,1.29-1.2,1.74-.65.19-1.03.11-1.36-.15-.26-.21-.6-.47-.84-.27-1.05.83-1.94-.05-2.9-.18-.07,0-.15.04-.23.07-.11-.68-.32-1.31-.79-1.84-.53-.8-1.07-1.6-1.6-2.39-.08-.45-.45-.85-.14-1.5,2.05.41,1.92,2.92,3.62,3.63-.54-2.22-2.18-3.91-3.09-5.96-.07-.62-.15-1.24-.23-1.99.82.79,1.02,1.83,1.58,2.65.58.84,1.08,1.73,1.66,2.57.29.42.38,1.07,1.08,1.12.51.7,1.11,1.29,1.72,1.71.55-.08.71-.33.8-.73-.53-.73-1.09-1.49-1.64-2.25Z"/>
      <path class="cls-12" d="M19.79,6.9c.62-.65-.35-1.34.08-2.05.33-.48.99-.21,1.33-.59,1.03.65,1.09,1.86,1.85,2.53,1.29-.25.2-1.13.53-1.66.35.74.68,1.45.99,2.12-.02.52-.58.6-.71.88-.69,1.52-2.1.98-3.23,1.21-.11.02-.3-.34-.45-.52v.04c.56-.79.06-1.38-.38-1.99v.03Z"/>
      <path class="cls-3" d="M32.92,23.63c-.27-.33-.54-.2-.83-.03-.44.27-.74.13-.91-.33-.39-.67-.52-1.51-1.29-1.95-.19-.11-.14-.42.03-.63,1.08-.32,1.63,1.42,2.8.73,0-.09.03-.17.02-.25-.05-.63-.66-.86-.96-1.3-.35-.51-.78-1.06-.23-1.72.16.1.32.2.47.3.69.82,1.39,1.63,2.06,2.47.69.87,1.52,1.25,2.61.81.25.39.51.78.76,1.17-.04.1-.07.19-.11.29-.44.15-.88.31-1.39.49-.7-.43-1.42-.87-2.25-1.38.04.7-.07,1.23-.79,1.33Z"/>
      <path class="cls-16" d="M50.85,20.95c-.27-1.37-1.45-2.23-2.03-3.39.7-.64.83.32,1.27.27.41-.5-.38-.94-.07-1.43.44.03.72.32.99.61,1.09,1.16,2.16,2.33,3.57,3.14.25.14.36.52.53.79-.31.4-.28.83-.09,1.27-.08.22-.16.44-.25.66-1.24-.69-1.92-2.1-3.29-2.72-.17.31-.28.51-.38.71-.09.01-.18.05-.26.1Z"/>
      <path class="cls-12" d="M36.7,21.73c-1.09.44-1.91.06-2.61-.81-.67-.84-1.37-1.64-2.06-2.47.21-.23.42-.46.58-.63.26-.97-.74-1.44-.65-2.39,1.5.71,2.38,2.06,3.43,3.22-.22.28-.26.58,0,.83.67.65,1.4,1.24,1.86,2.08-.18.06-.36.11-.55.17Z"/>
      <path class="cls-3" d="M62.51,24.53c-.49.35-.89.05-1.27-.19-.49-.31-.98-.45-1.53-.19-.26-.54-.46-1.14-1.22-1.14-.14-.38-.27-.77-.41-1.15-.17-.25-.41-.35-.71-.3-.06-.06-.1-.13-.11-.22-.21-.52-.25-1.17-.98-1.32-.99-1.21-2.07-2.35-3.08-4.26,2.24,1.12,3.02,2.98,4.49,4.07,1.08,1.01,2.02,2.15,3.28,2.98.59.39,1.26.94,1.53,1.73Z"/>
      <path class="cls-1" d="M54.09,23.73c-.31.31-.46.81-1.18.93-.83-.27-1.55-1.19-2.63-1.33-.1-.22-.14-.49-.29-.64-1.67-1.55-3.27-3.17-4.71-4.94-.13-.16-.43-.18-.64-.27-.23-.31-.54-.59-.45-1.02.3-.34.56-.21.8.02.78.77,1.54,1.58,2.35,2.32.86.79,1.76,1.54,2.67,2.28.3.24.59,0,.86-.16.08-.05.16-.09.26-.1-.08.9.26,1.53,1.11,1.91.64.29,1.25.65,1.87.97Z"/>
      <path class="cls-22" d="M64.56,19.8c-.4.37-.22.77-.07,1.17-.54.06-.68.52-.9.9-.09.02-.18.05-.26.08.06-.81-.91-.74-1.13-1.31.21-.39.59-.73.36-1.25q-.56.17-.8.75c-.27-.02-.55-.05-.82-.07-.14-.3-.28-.61-.43-.91.34-.18.69-.36.96-.51.3-.95-.93-1.18-.72-1.99.13-.05.33-.19.37-.15,1.15,1.09,2.45,2.02,3.44,3.28Z"/>
      <path class="cls-23" d="M44.63,17.49c.22.09.51.11.64.27,1.44,1.77,3.04,3.39,4.71,4.94.16.15.2.42.29.64l-.18.09-.19.07c-.52.05-.92-.26-1.24-.57-1.68-1.6-3.48-3.1-4.69-5.13.21-.1.43-.2.64-.3Z"/>
      <path class="cls-17" d="M31.55,18.15c-.55.65-.12,1.21.23,1.72.3.44.91.67.96,1.3,0,.08-.01.16-.02.25-1.17.69-1.72-1.05-2.8-.73-.2-.33-.39-.67-.8-.77-.26-.57-.53-1.15-.79-1.72.39-.17.79-.35,1.18-.53.64-.11,1.12.9,1.83.25.1.05.17.13.2.23Z"/>
      <path class="cls-18" d="M72.29,9.26c-.39-.88-.77-1.77-1.16-2.65.55-.59-.39-1.15-.06-1.76,1.29.1,2.32.54,2.72,1.89.45.94.89,1.87,1.34,2.81-.15.07-.3.14-.45.22-.68-.96-1.36-1.93-2.21-3.13-.04,1.01.72,1.51.56,2.24-.25.13-.5.26-.75.39Z"/>
      <path class="cls-3" d="M3.36,13.44c.16.52.25,1.09.95,1.15.68.06.84.59,1.04,1.09.61,1.34.54,2.66-.15,3.95-1.19-1.78-1.9-3.75-2.33-5.84.16-.12.32-.23.48-.35Z"/>
      <path class="cls-9" d="M62.51,24.53c-.27-.79-.93-1.33-1.53-1.73-1.27-.84-2.21-1.97-3.28-2.98.42-.19.85-.39,1.27-.58.51.4,1.01.79,1.52,1.19,0,1.38.84,1.89,2.06,2.03.25.66,1.2.81,1.21,1.69-.42.12-.85.24-1.27.36l.02.02Z"/>
      <path class="cls-20" d="M58.08,21.86l.41,1.15c-.4.3-.79.6-1.19.89-.15.02-.3.07-.43.15-.01-.4-.14-.62-.57-.38h.02c.08-.92-.81-1.02-1.29-1.47-.2-.44-.22-.86.09-1.27.28-.08.57-.16.85-.24.32.43.79.57,1.3.64.01.09.05.16.11.22.17.25.41.36.71.3Z"/>
      <path class="cls-19" d="M42.08,17.1c1.47,2.1,3.31,3.9,5.23,6.16-2.12-.7-2.78-1.35-6.11-5.75.29-.14.58-.27.87-.41Z"/>
      <path class="cls-6" d="M87.38,9.72c-.33-.65-.6-1.4-1.58-.91-.1-.3-.32-.63-.26-.88.2-.81.52-1.59.78-2.35.81-.02,1.28.4,1.11,1-.26.96-.21,1.79.33,2.62.04.07-.25.35-.38.53Z"/>
      <path class="cls-2" d="M75.13,9.54c-.45-.94-.89-1.87-1.34-2.81.55-.14,1.11-.24,1.56.21.44.44.91.88,1.06,1.54.15.67-.2.97-1.29,1.06Z"/>
      <path class="cls-12" d="M60.49,20.43c-.51-.4-1.01-.8-1.52-1.19-.38-.95-1.66-1.46-1.37-2.93,1.34.66,1.85,2.06,2.91,2.86.14.3.28.61.43.91-.15.12-.3.24-.45.36Z"/>
      <path class="cls-15" d="M19.44,18.89c.56.76,1.11,1.52,1.64,2.25-.1.39-.26.65-.8.73-.6-.42-1.21-1.01-1.72-1.71-.06-.29-.11-.59-.17-.88.35-.13.7-.25,1.05-.38Z"/>
      <path class="cls-12" d="M31.35,17.91c-.71.66-1.2-.35-1.83-.25-.76-1.07-1.73-2.02-1.85-3.67,1.31,1.39,2.5,2.65,3.69,3.91Z"/>
      <path class="cls-13" d="M20.17,8.81c-.33.19-.61.54-1.26.27-.31-1.05-.47-2.23-.48-3.62.89.28.94,1.03,1.35,1.44v-.03c-.52.78.22,1.33.38,1.99v-.04Z"/>
      <path class="cls-2" d="M8.9,11.93c-.16-.28-.32-.56-.48-.83q.33-1.85,2.04-1.78c-.32,1.03-.48,2.07-1.55,2.62Z"/>
      <path class="cls-3" d="M82.65,9.76c-.37-1.02.06-1.93.41-3.13.52.88.93,1.58,1.34,2.27-.43.2-.85.4-1.28.59-.17.08-.34.16-.51.24l.04.02Z"/>
      <path class="cls-12" d="M73.03,8.87c.16-.72-.6-1.22-.56-2.24.85,1.2,1.53,2.17,2.21,3.13-.04.42-.17.77-.67.79-.38.01-.56-.28-.67-.56-.14-.36-.21-.75-.31-1.12Z"/>
      <path class="cls-22" d="M68.33,8.55c-.06.14-.11.28-.18.41-.03.06-.12.09-.3.22-.99-.84-1.27-1.96-1.36-3.17.47-.25.6.07.79.29.35.75.7,1.5,1.05,2.25Z"/>
      <path class="cls-22" d="M6.93,7.59c-.28-1.48.35-1.99,1.32-2.44q-.03,1.15-1.32,2.44Z"/>
      <path class="cls-18" d="M68.33,8.55c-.35-.75-.7-1.5-1.05-2.25.21-.13.42-.25.64-.38.47.69,1.08,1.33.95,2.28-.18.12-.35.24-.53.35Z"/>
      <path class="cls-6" d="M85.92,11.6c-.37-.04-.92-.05-.84-.52.13-.74.68-.67,1.22-.36.04.36-.06.67-.38.88Z"/>
      <path class="cls-6" d="M83.12,9.5c.43-.2.85-.4,1.28-.59l.6.71c-.43.23-.87.45-1.3.68-.19-.27-.39-.53-.58-.8Z"/>
      <path class="cls-16" d="M57.26,21.34c-.5-.07-.97-.21-1.3-.64.11-.23.21-.45.32-.68.72.15.76.8.98,1.32Z"/>
      <path class="cls-19" d="M42.72,16.37c-.26.12-.52.23-.77.35-.17-.32-.48-.72.02-.95.49-.22.61.26.75.6Z"/>
      <path class="cls-3" d="M64.72,17.28s-.06-.02-.09-.03c.01-.05.03-.1.04-.14.02.06.03.11.05.17Z"/>
      <path class="cls-18" d="M68.74,5.09c.15.24.31.47.15.77-.32-.06-.42-.33-.53-.59.13-.05.25-.11.37-.18Z"/>
      <path class="cls-13" d="M77.29,16.48c-.04.09-.07.19-.11.28,0-.04-.02-.1,0-.13.03-.05.09-.09.14-.14h-.03Z"/>
      <path class="cls-13" d="M77.32,16.5c0-.08-.02-.21,0-.22.14-.05.13.03-.04.21h.03Z"/>
      <path class="cls-13" d="M75.82,16.67c0-.08-.02-.21,0-.22.14-.05.13.03-.04.21h.03Z"/>
      <path class="cls-3" d="M62.48,24.51c.42-.12.85-.24,1.27-.36,0-.88-.96-1.03-1.21-1.69.26-.17.53-.35.79-.52.09-.03.17-.06.26-.08.02.54.42.8.8,1.05.75.5,1.56.92,2.08,1.67.49-.16.85-.28,1.21-.39h-.03c-.35,1.56-.57,1.67-1.76.9-.18-.11-.4-.15-.6-.23-.49-.07-.88.13-1.29.37-.83.48-1.28.08-1.51-.72Z"/>
      <path class="cls-15" d="M54.09,23.73c-.62-.33-1.23-.69-1.87-.97-.85-.38-1.19-1.01-1.11-1.91.11-.2.21-.39.38-.71,1.37.62,2.05,2.02,3.29,2.72.15.27.3.53.44.8-.07.12-.13.25-.19.38-.31-.1-.63-.2-.94-.31Z"/>
      <path class="cls-16" d="M57.3,23.91c.4-.3.79-.6,1.19-.89.76,0,.96.6,1.22,1.14-.88.69-1.67.47-2.41-.24Z"/>
      <path class="cls-15" d="M55.63,24.61c-.2-.19-.4-.38-.6-.57.06-.13.12-.25.19-.38.36-.1.72.39,1.09.02h-.02c.06.24.21.39.46.45-.05.08-.08.16-.07.25-.41-.18-.72.06-1.05.23Z"/>
      <path class="cls-17" d="M55.63,24.61c.33-.17.64-.41,1.05-.23-.25.51-.59.65-1.05.23Z"/>
      <path class="cls-17" d="M56.75,24.13c-.25-.05-.4-.21-.46-.46.43-.24.56-.02.57.38l-.12.08Z"/>
      <path class="cls-3" d="M37.46,22.9c.2,0,.46.03.38.28-.08.25-.32.11-.49,0,.04-.1.07-.19.11-.29Z"/>
      <path class="cls-2" d="M74.98,24.02c-.31-.18-.62-.35-.93-.54.29-.38.64-.42,1.03-.25.56.23,1.12.48,1.69.69.33.12.58-.12.82-.3,1.24.26,1.96,1.27,2.84,2.03.07.06-.1.41-.15.63-.27.03-.54.06-.81.09l-.11-.13c-.52-.85-1.06-.35-1.6-.02-.23-.27-.44-.58-.84-.61-.78-.36-1.52-.78-1.94-1.58Z"/>
      <path class="cls-16" d="M83.09,23.16c.39.42.78.84,1.16,1.26-.45.74-1.07,1.27-1.86,1.6-.26-.38-.46-.81-1.01-.86-.56-.05-.77-.43-.77-.93.16-.51.69-.21.95-.48.14-.5-.51-1.31.56-1.44.06.08.11.16.16.25.12.29.35.43.66.45l.15.16Z"/>
      <path class="cls-12" d="M82.28,22.55c-.05-.09-.1-.17-.16-.25-.27-1.07-.97-1.91-1.51-2.88,1.44.64,2.62,1.51,3.21,3.02l-.72.72-.15-.16c-.09-.33-.33-.46-.66-.45Z"/>
      <path class="cls-7" d="M80.81,22.11c-.65.31-.93.75-.99,1.45-.43-.28-.8-.52-1.22-.79.14-.86.48-1.52.97-2.08.98-.07.95.69,1.24,1.42Z"/>
      <path class="cls-6" d="M72.06,24.39c-.49-.57-1.34-.9-1.25-1.89.75.24,1.49.48,2.23.72l.05.02c0,.53-.41.72-.76.96-.1.06-.19.12-.27.2Z"/>
      <path class="cls-1" d="M76.91,25.6c.4.03.61.34.84.61-.58.36-1.16.73-1.74,1.09-.05-.33.03-.6.33-.78.36-.2.58-.49.56-.92Z"/>
      <path class="cls-1" d="M79.35,26.23l.11.13c-.58.4-1.17.8-1.75,1.19.02-1.09,1.01-.98,1.64-1.32Z"/>
      <path class="cls-10" d="M5.21,19.63c.68-1.29.75-2.61.15-3.95.85-.29,1.19.33,1.59.87.18.47.36.94.54,1.41.05.83.47,1.53.8,2.26.05.33.11.66.16.99-.5.42-1.01.83-1.51,1.25,0,0-.18.04-.18.04l-.16.1c-.22-.55-.43-1.1-.65-1.65q.46-.98-.63-.97c-.06-.11-.09-.23-.1-.35Z"/>
      <path class="cls-12" d="M12.81,25.74c-.15.16-.31.31-.46.47-.18-.22-.26-.52-.61-.61-1.16-.31-1.53-1.07-1.2-2.2.47-.17.9-.2,1.18.32.37.67.73,1.35,1.09,2.03Z"/>
      <path class="cls-12" d="M8.45,21.21c-.05-.33-.11-.66-.16-.99.26-.2.52-.41.78-.61.67,1.02,1.58,1.94,1.3,3.33-.09-.1-.18-.2-.27-.3-.12-.41-.26-.8-.81-.74-.25-.27-.38-.69-.85-.69Z"/>
      <path class="cls-17" d="M14.88,22.46c.27-.15.55-.3.82-.45.47.52.68,1.16.79,1.84l-.09.02c-1.06.13-1.17-.78-1.52-1.42Z"/>
      <path class="cls-11" d="M9.07,19.61c-.26.2-.52.41-.78.61-.34-.73-.75-1.43-.8-2.26.34-.08.56.07.73.34.28.44.57.87.85,1.31Z"/>
      <path class="cls-15" d="M23.01,22.64c-.28-.54-.57-1.08-.84-1.62-.19-.37-.16-.73.14-1.04.37.11.74.22,1.12.34.92.72,1.67,1.81,3.09,1.53.14.11.28.21.41.32-.4.33-.02.67-.02,1.01-.74.53-1.6.33-2.42.41-.24-.38-.56-.59-1.03-.47-.15-.16-.3-.32-.44-.48Z"/>
      <path class="cls-6" d="M23.46,23.12c.47-.12.79.09,1.03.47q-.86.38-1.03-.47Z"/>
      <path class="cls-3" d="M5.31,19.98q1.09,0,.63.97c-.21-.32-.42-.65-.63-.97Z"/>
      <path class="cls-21" d="M29.13,19.92c.41.1.6.44.8.77-.18.2-.22.52-.03.63.77.44.9,1.28,1.29,1.95-.32.03-.65.06-.97.09-.36-.18-.67-.02-.97.15-.09-.04-.18-.06-.27-.06-.19-.24-.39-.49-.58-.73-.16-.28-.31-.57-.47-.85.62-.51.84-1.28,1.21-1.95Z"/>
      <path class="cls-9" d="M28.39,22.72c.19.24.39.49.58.73-.63.72-1.52,1.02-2.34,1.44.03-.34.19-.59.48-.77.54-.33.38-.79.24-1.25.35-.05.69-.1,1.04-.15Z"/>
      <path class="cls-18" d="M29.24,23.51c.3-.17.61-.34.97-.15.25.59-.07.92-.55,1.17,0,0-.02,0-.02,0-.13-.34-.27-.67-.4-1.01Z"/>
      <path class="cls-9" d="M25.49,25.96c.08-.69.68-.82,1.16-1.09,0,.77-.7.8-1.16,1.09Z"/>
      <path class="cls-18" d="M29.66,24.53c-.02.57-.39.72-.94.86.07-.69.63-.63.92-.87h.02Z"/>
      <path class="cls-18" d="M7.53,23.75c-.21.29-.43.58-.64.87-.4-.04-.72-.19-.75-.65-.04-.69.5-.82.98-1.01.13.26.27.52.4.79Z"/>
      <path class="cls-3" d="M9.29,21.9c.56-.07.69.33.81.74-.42-.08-.62-.41-.81-.74Z"/>
      <path class="cls-14" d="M28.39,22.72c-.35.05-.69.1-1.04.15-.14-.23-.28-.47-.42-.7-.14-.11-.28-.21-.41-.32-.22-.32-.45-.64-.64-.97-.15-.26-.27-.55-.46-.97,1.24.3,1.66,1.41,2.51,1.96.16.28.31.57.47.85Z"/>
      <path class="cls-18" d="M70.71,8.44c-.73-.65-1-1.16-1.03-1.87.45.14.52.46.64.74.12.27.19.56.39,1.14Z"/>
      <path class="cls-9" d="M46,133.08c-.02.07-.04.13-.07.19-.09-.08-.2-.15-.27-.25-.02-.03.04-.12.06-.18.09.08.18.16.27.24Z"/>
      <path class="cls-18" d="M67.68,24.2c-.36.12-.72.23-1.21.39-.52-.75-1.33-1.17-2.08-1.67-.38-.25-.78-.51-.8-1.05.22-.38.36-.84.9-.9.48.73,1.23,1.15,1.89,1.66.56.43,1.07.88,1.3,1.57Z"/>
      <path class="cls-2" d="M73.04,23.22c-.08-.96-1.09-1.43-1.48-2.65,1.16.54,1.75,1.14,2.12,1.84-.03.53-.36.63-.59.83l-.05-.02Z"/>
      <path class="cls-17" d="M56.31,23.69c-.37.36-.72-.12-1.09-.02-.15-.27-.3-.53-.44-.8.08-.22.16-.44.25-.66.48.45,1.36.55,1.29,1.48Z"/>
      <path class="cls-16" d="M58.08,21.86c-.3.06-.54-.05-.71-.3.3-.05.54.05.71.3Z"/>
      <path class="cls-10" d="M63.34,21.94c-.26.17-.53.35-.79.52-1.22-.14-2.06-.65-2.06-2.03.15-.12.3-.24.45-.36.27.02.55.05.82.07.04.26.19.43.45.5.22.57,1.19.49,1.13,1.31Z"/>
      <path class="cls-13" d="M82.28,22.55c.33-.01.56.11.66.45-.31-.02-.54-.15-.66-.45Z"/>
    </g>
  </g>
</svg>