<svg id="Layer_1" enable-background="new 0 0 128 128" viewBox="0 0 128 128" xmlns="http://www.w3.org/2000/svg" width="262.5" height="262.5" version="1.1" xmlns:xlink="http://www.w3.org/1999/xlink" xmlns:svgjs="http://svgjs.dev/svgjs"><g transform="matrix(1,0,0,1,0,0)"><path d="m103.8 2c-1 .1-1.8 1-1.8 2v17.2l-16.9 18.8h-1.1c-1.1 0-2 .9-2 2v16c0 1.1.9 2 2 2h1v44.8c-7.4.9-13.4 2.4-15.6 3.1l.9-13.3c4.8-6 7.9-13.6 8.5-21.9 1-.1 1.9-.9 1.9-2v-7.1c0-1.1-.9-2-2-2h-19l-6.1-21.2c-.2-.6-.6-1.1-1.2-1.3-.3-.1-.6-.2-.9-.1-.3 0-.6.1-.9.3l-13 7.5-12-20.8c4.2-2.8 5.6-8.4 3-12.8l-2.2-3.8c-.3-.6-.9-1-1.6-1-.4 0-.8.1-1.1.3l-20.7 11.9c-1 .6-1.3 1.8-.7 2.7l2.2 3.8c2.5 4.4 8.1 6 12.6 3.8l12 20.8-13 7.5c-.8.5-1.2 1.5-.9 2.4h-11.2c-1.1 0-2 .9-2 2v7.1c0 1.1.8 1.9 1.9 2 .6 8.3 3.7 15.9 8.5 21.9l1.1 15.4h-9.5c-1.1 0-2 .9-2 2s.9 2 2 2h9.7l.6 8h-10.3c-1.1 0-2 .9-2 2s.9 2 2 2h120c1.1 0 2-.9 2-2s-.9-2-2-2h-55.6l.7-10c.2 0 .3 0 .5-.1 16.8-5 35.9-5.3 53.9 0 1.1.3 2.2-.3 2.5-1.3.3-1.1-.3-2.2-1.4-2.5l-1.6-.4v-47.7h1c1.1 0 2-.9 2-2v-16c0-1.1-.9-2-2-2h-1.1l-16.9-18.8v-7.2h18c1.1 0 2-.9 2-2v-8c0-1.1-.9-2-2-2-.3 0-19.9 0-20.2 0zm2.2 4h16v4h-16zm-81.9 7 1.2 2.1c1.5 2.7.6 6-2 7.6l-7.7 4.4c-2.7 1.5-6 .6-7.6-2l-1.3-2.1zm79.9 12 13.5 15h-1.5c-1.1 0-2 .9-2 2v5h-4v-5c0-1.1-.9-2-2-2h-8c-1.1 0-2 .9-2 2v5h-4v-5c0-1.1-.9-2-2-2h-1.5zm-81.7 2.9 12 20.8-1.7 1-12-20.8zm83.7 2.1c-1.1 0-2 .9-2 2s.9 2 2 2 2-.9 2-2c0-1.1-.9-2-2-2zm-8 4c-1.1 0-2 .9-2 2s.9 2 2 2 2-.9 2-2c0-1.1-.9-2-2-2zm-47.5 9.9 5 17.6h-35l-.2-.2 13.4-7.7 3 5.2c.6 1 1.8 1.3 2.7.7 1-.6 1.3-1.8.7-2.7l-3-5.2zm35.5.1h4v3c0 2.2 1.8 4 4 4h4c2.2 0 4-1.8 4-4v-3h4v3c0 2.2 1.8 4 4 4h4c2.2 0 4-1.8 4-4v-3h4v12h-36zm4 6c-1.1 0-2 .9-2 2s.9 2 2 2c1.1 0 2-.9 2-2 0-1.1-.9-2-2-2zm14 0c-1.1 0-2 .9-2 2s.9 2 2 2 2-.9 2-2-.9-2-2-2zm14 0c-1.1 0-2 .9-2 2s.9 2 2 2 2-.9 2-2c0-1.1-.9-2-2-2zm-29 10h30v46.7c-10.3-2.3-20-3.2-30-2.3zm8.9 2c-1.1 0-2 .9-2 2 0 1.1.9 2 2 2 1.1 0 2-.9 2-2s-.9-2-2-2zm14.1 2c-1.1 0-2 .9-2 2 0 1.1.9 2 2 2 1.1 0 2-.9 2-2 0-1.1-.9-2-2-2zm-106 1.6h1.3v3.1h-1.3zm5.3 0h60v6.7h-60zm64 0h1.3v3.1h-1.3zm20.6 8.4c-1.1 0-2 .9-2 2s.9 2 2 2c1.1 0 2-.9 2-2s-.9-2-2-2zm-87.6 1.9c.3.2.7.3 1.1.3h1.6l.7 10.2c-1.6-3.2-2.8-6.7-3.4-10.5zm66.1 0c-.6 3.8-1.8 7.3-3.5 10.5l.7-10.2h1.7c.4 0 .8-.1 1.1-.3zm-59.3.3h52.4l-1.1 16.8c-13.1 15.1-37.3 14.9-50.2 0zm90.8 1.8c-1.1 0-2 .9-2 2 0 1.1.9 2 2 2 1.1 0 2-.9 2-2s-.9-2-2-2zm8 4c-1.1 0-2 .9-2 2 0 1.1.9 2 2 2 1.1 0 2-.9 2-2s-.9-2-2-2zm-17.9 6c-1.1 0-2 .9-2 2 0 1.1.9 2 2 2h.2c1.1-.1 1.9-.9 1.9-2 0-.9-.7-1.7-1.6-1.9-.2-.1-.4-.1-.5-.1zm18 6c-1.1 0-2 .9-2 2s.9 2 2 2 2-.9 2-2c0-1.1-.9-2-2-2zm-10 4c-1.1 0-2 .9-2 2 0 1.1.9 2 2 2 1.1 0 2-.9 2-2s-.9-2-2-2zm-87.3 1.1c13.6 12.2 35.7 12.2 49.4 0l-1.6 22.9h-46.3zm62.5 12.3c-1.1 0-2 .9-2 2s.9 2 2 2 2-.9 2-2-.9-2-2-2zm16.7 0c-1.1 0-2 .9-2 2 0 1.1.9 2 2 2 1.1 0 2-.9 2-2s-.9-2-2-2zm16 0c-1.1 0-2 .9-2 2s.9 2 2 2c1.1 0 2-.9 2-2s-.9-2-2-2zm12.1 4c-1.1 0-2 .9-2 2 0 1.1.9 2 2 2 1.1 0 2-.9 2-2 0-1.1-.9-2-2-2zm-120 0c-1.1 0-2 .9-2 2s.9 2 2 2 2-.9 2-2-.9-2-2-2zm81.9 0c-1.1 0-2 .9-2 2 0 1.1.9 2 2 2 1.1 0 2-.9 2-2s-.9-2-2-2zm18 0c-1.1 0-2 .9-2 2 0 1.1.9 2 2 2 1.1 0 2-.9 2-2s-.9-2-2-2zm-30.7 2c-1.1 0-2 .9-2 2s.9 2 2 2c1.1 0 2-.9 2-2s-.9-2-2-2zm-63.2 0c-1.1 0-2 .9-2 2s.9 2 2 2 2-.9 2-2-.9-2-2-2z" fill="#ffffffff" data-original-color="#000000ff" stroke="none"/></g></svg>