<svg version="1.1" id="Capa_1" xmlns="http://www.w3.org/2000/svg" xmlns:xlink="http://www.w3.org/1999/xlink" x="0px" y="0px" viewBox="0 0 512.002 512.002" style="enable-background:new 0 0 512.002 512.002;" xml:space="preserve" width="300" height="300" xmlns:svgjs="http://svgjs.dev/svgjs"><g transform="matrix(1,0,0,1,0,0)"><polygon style="" points="461.249,176.205 417.386,220.069 388.811,216.93 385.671,245.505 357.097,242.366 &#10;&#9;353.957,270.941 325.382,267.802 322.243,296.377 293.668,293.238 290.528,321.813 261.953,318.673 258.813,347.249 &#10;&#9;230.239,344.109 227.1,372.685 198.524,369.545 195.385,398.12 166.809,394.981 163.67,423.556 135.094,420.417 131.955,448.992 &#10;&#9;103.381,445.853 100.215,474.91 33.499,408.193 335.161,106.531 " fill="#d7d7e6ff" data-original-color="#d7d7e6ff" stroke="none"/><path style="" d="M493.518,143.937l-34.557,34.557h-51.838l-71.962-71.962l60.476-60.476&#10;&#9;c11.334-11.334,29.709-11.334,41.042,0l56.839,56.839C504.852,114.228,504.852,132.603,493.518,143.937z" fill="#ff763aff" data-original-color="#ff5a5aff" stroke="none"/><polygon style="" points="441.044,50.42 388.152,103.108 422.647,137.602 444.832,137.602 486.631,96.007 " fill="#ffffffff" data-original-color="#ffffffff" stroke="none"/><g>
	<path style="" d="M109.1,88.547L98.788,78.234c-4.419-4.419-4.419-11.583,0-16.001l21.989-21.989&#10;&#9;&#9;c4.419-4.419,11.583-4.419,16.001,0l10.313,10.313L109.1,88.547z" fill="#676767ff" data-original-color="#e09248ff" stroke="none"/>
	<path style="" d="M233.03,125.77l22.16,33.705c32.038,48.727,68.96,94.06,110.197,135.297l123.857,123.857&#10;&#9;&#9;c6.263,6.263,6.263,16.415,0,22.678l-29.067,29.067c-7.799,7.799-20.961,5.579-25.77-4.347l-14.387-29.696L318.251,334.56&#10;&#9;&#9;c-40.096-40.096-76.118-84.071-107.537-131.276l-22.057-33.141L233.03,125.77z" fill="#676767ff" data-original-color="#e09248ff" stroke="none"/>
</g><path style="" d="M460.695,390.078l28.551,28.551c6.263,6.262,6.263,16.415,0,22.678l-29.067,29.067&#10;&#9;c-7.799,7.799-20.96,5.579-25.77-4.347l-6.918-14.277c-3.019-6.231-6.67-12.122-10.875-17.593L460.695,390.078z" fill="#878791ff" data-original-color="#878791ff" stroke="none"/><path style="" d="M9.999,154.029L9.999,154.029l100.625-65.863l37.038-37.038c5.531-5.531,14.496-5.531,20.027,0&#10;&#9;l59.979,59.979c5.531,5.531,5.531,14.496,0,20.027l-37.038,37.038l-65.863,100.624l0,0C61.976,267.385,11.41,216.82,9.999,154.029z" fill="#d7d7e6ff" data-original-color="#d7d7e6ff" stroke="none"/><path d="M263.045,308.733c-5.499-0.599-10.43,3.358-11.032,8.849l-2.048,18.635l-18.635-2.048c-2.636-0.288-5.28,0.481-7.349,2.14&#10;&#9;c-2.069,1.659-3.394,4.072-3.684,6.709l-2.047,18.636l-18.635-2.048c-5.498-0.607-10.43,3.358-11.032,8.849l-2.048,18.635&#10;&#9;l-18.635-2.048c-5.498-0.608-10.43,3.358-11.033,8.849l-2.047,18.635l-18.635-2.048c-2.636-0.289-5.28,0.48-7.349,2.14&#10;&#9;c-2.069,1.659-3.394,4.072-3.684,6.709l-2.047,18.635l-18.635-2.047c-2.64-0.293-5.283,0.481-7.352,2.143&#10;&#9;c-2.069,1.661-3.394,4.077-3.681,6.715l-0.906,8.316l-44.892-44.895L204.71,251.125c3.905-3.905,3.905-10.237,0-14.142&#10;&#9;c-3.905-3.904-10.237-3.904-14.142,0L26.429,401.122c-3.905,3.905-3.905,10.237,0,14.142l66.715,66.716&#10;&#9;c1.908,1.907,4.464,2.929,7.073,2.929c1.112,0,2.234-0.186,3.319-0.567c3.629-1.277,6.204-4.524,6.621-8.35l2.082-19.106&#10;&#9;l18.626,2.046c5.491,0.607,10.429-3.36,11.032-8.849l2.047-18.635l18.635,2.048c5.499,0.607,10.429-3.359,11.033-8.849l2.047-18.635&#10;&#9;l18.635,2.048c5.499,0.594,10.429-3.359,11.032-8.849l2.048-18.635l18.635,2.048c2.639,0.29,5.28-0.48,7.349-2.14&#10;&#9;c2.069-1.659,3.394-4.072,3.684-6.709l2.048-18.636l18.635,2.048c5.499,0.609,10.429-3.359,11.033-8.849l3.14-28.575&#10;&#9;C272.496,314.276,268.535,309.336,263.045,308.733z" fill="#000000ff" data-original-color="#000000ff" stroke="none"/><path d="M372.459,287.701c-34.176-34.176-65.494-71.411-93.379-110.947l56.082-56.082l64.891,64.892&#10;&#9;c1.875,1.875,4.419,2.929,7.071,2.929h27.695l-21.11,21.111l-23.805-2.615c-5.491-0.61-10.429,3.358-11.032,8.849l-2.047,18.635&#10;&#9;l-18.635-2.048c-5.499-0.611-10.43,3.358-11.032,8.849c-0.604,5.489,3.358,10.429,8.848,11.032l28.575,3.14&#10;&#9;c0.372,0.041,0.74,0.061,1.104,0.061c5.033,0,9.366-3.79,9.928-8.909l2.048-18.635l18.635,2.047&#10;&#9;c3.019,0.332,6.019-0.725,8.163-2.869l41.555-41.556c0.006-0.006,0.013-0.012,0.02-0.018l34.558-34.558&#10;&#9;c15.214-15.214,15.214-39.97,0-55.185l-56.839-56.839c-15.214-15.214-39.97-15.214-55.185,0l-60.477,60.476l-60.535,60.535&#10;&#9;c-1.341-2.002-2.686-4.001-4.009-6.013l-21.737-33.06c-0.051-6.38-2.555-12.37-7.072-16.885L174.76,44.06&#10;&#9;c-6.897-6.897-16.953-8.721-25.547-5.519l-5.364-5.364c-4.025-4.026-9.378-6.244-15.071-6.244c-5.693,0-11.046,2.218-15.07,6.243&#10;&#9;L91.718,55.165c-8.31,8.311-8.31,21.831,0,30.143l1.986,1.986l-89.18,58.369c-2.889,1.892-4.599,5.14-4.521,8.592&#10;&#9;c1.535,68.3,56.239,123.005,124.539,124.539c0.075,0.002,0.15,0.003,0.226,0.003c3.367,0,6.516-1.697,8.366-4.523l55.937-85.46&#10;&#9;l13.319,20.012c31.714,47.65,68.316,92.332,108.791,132.807l78.438,78.438c14.691,14.69,26.733,31.62,35.792,50.316&#10;&#9;c3.667,7.568,10.807,12.922,19.099,14.32c1.437,0.242,2.879,0.361,4.314,0.361c6.847,0,13.509-2.708,18.426-7.624l29.066-29.066&#10;&#9;c4.917-4.918,7.625-11.456,7.625-18.409c0-6.955-2.708-13.492-7.625-18.41L372.459,287.701z M472.397,95.916&#10;&#9;c-0.071,0.067-0.147,0.126-0.217,0.196l-31.49,31.491h-13.901l-24.495-24.494l38.441-38.441c0.07-0.07,0.129-0.145,0.196-0.217&#10;&#9;L472.397,95.916z M402.707,53.127c6.454-6.453,16.426-7.285,23.793-2.509l-45.418,45.419c-3.905,3.905-3.905,10.237,0,14.142&#10;&#9;l34.495,34.494c1.875,1.875,4.418,2.929,7.071,2.929h22.185c2.652,0,5.196-1.054,7.071-2.929l34.419-34.42&#10;&#9;c0.068-0.068,0.126-0.143,0.192-0.213c7.345,7.423,7.325,19.432-0.068,26.825l-31.628,31.629h-43.553l-61.963-61.964L402.707,53.127&#10;&#9;z M160.617,58.199l59.979,59.979c1.061,1.061,1.219,2.299,1.219,2.942s-0.158,1.882-1.219,2.942l-30.919,30.919l-65.864-65.863&#10;&#9;l30.919-30.92C156.354,56.577,158.995,56.576,160.617,58.199z M105.858,69.304l21.989-21.989c0.511-0.511,1.348-0.511,1.859,0.001&#10;&#9;l3.813,3.813l-23.848,23.849l-3.813-3.813C105.346,70.651,105.346,69.817,105.858,69.304z M119.528,258.541&#10;&#9;c-53.197-3.855-95.418-46.076-99.272-99.273l87.893-57.53l68.91,68.909l-36.351,55.536l-15.192,0.293&#10;&#9;c-35.546-0.891-65.065-25.78-71.827-60.591c-1.053-5.422-6.3-8.963-11.723-7.91c-5.421,1.053-8.963,6.302-7.91,11.723&#10;&#9;c4.086,21.04,15.349,40.288,31.713,54.2c16.548,14.068,37.679,22.086,59.499,22.576c0.075,0.002,0.149,0.003,0.225,0.003&#10;&#9;c0.064,0,0.128-0.001,0.193-0.002l1.763-0.034L119.528,258.541z M325.322,327.49c-39.54-39.54-75.3-83.193-106.284-129.746&#10;&#9;l-17.518-26.321l29.899-29.9l15.416,23.447c32.345,49.193,69.851,95.244,111.481,136.874l88.086,88.086l-29.937,29.937&#10;&#9;c-4.013-4.823-8.245-9.477-12.706-13.937L325.322,327.49z M482.174,434.236l-29.066,29.066c-1.987,1.986-4.35,1.84-5.272,1.684&#10;&#9;c-0.923-0.155-3.203-0.791-4.428-3.32c-4.328-8.932-9.274-17.497-14.8-25.659l31.937-31.936l21.63,21.63&#10;&#9;c1.14,1.14,1.768,2.655,1.768,4.269C483.943,431.579,483.315,433.096,482.174,434.236z" fill="#000000ff" data-original-color="#000000ff" stroke="none"/><path d="M351.397,311.755c-3.905-3.904-10.237-3.904-14.142,0c-3.905,3.905-3.905,10.237,0,14.142l29.905,29.905&#10;&#9;c1.953,1.952,4.512,2.929,7.071,2.929s5.119-0.977,7.071-2.929c3.905-3.905,3.905-10.237,0-14.142L351.397,311.755z" fill="#000000ff" data-original-color="#000000ff" stroke="none"/><path d="M321.199,285.69c-2.64,0-5.22,1.07-7.08,2.931c-1.86,1.859-2.93,4.439-2.93,7.069c0,2.641,1.07,5.21,2.93,7.07&#10;&#9;c1.87,1.87,4.44,2.93,7.08,2.93c2.63,0,5.2-1.06,7.07-2.93c1.86-1.86,2.92-4.43,2.92-7.07c0-2.63-1.06-5.21-2.92-7.069&#10;&#9;C326.399,286.76,323.829,285.69,321.199,285.69z" fill="#000000ff" data-original-color="#000000ff" stroke="none"/><g>
</g><g>
</g><g>
</g><g>
</g><g>
</g><g>
</g><g>
</g><g>
</g><g>
</g><g>
</g><g>
</g><g>
</g><g>
</g><g>
</g><g>
</g></g></svg>