<svg id="seo" viewBox="0 0 64 64" xmlns="http://www.w3.org/2000/svg" width="262.5" height="262.5" version="1.1" xmlns:xlink="http://www.w3.org/1999/xlink" xmlns:svgjs="http://svgjs.dev/svgjs"><g transform="matrix(1,0,0,1,0,0)"><path d="m54.98 2.65h-45.96c-3.87 0-7.02 3.17-7.02 7.05v36.46c0 3.89 3.15 7.05 7.02 7.05h12.83c2.78 2.27 6.32 3.62 10.15 3.62 3 0 5.83-.83 8.24-2.28l5.57 5.6c.77.77 1.79 1.2 2.88 1.2s2.11-.43 2.88-1.2c1.59-1.59 1.59-4.19 0-5.78l-1.15-1.16h4.56c3.87 0 7.02-3.16 7.02-7.05v-36.46c0-3.88-3.15-7.05-7.02-7.05zm-31.58 4.36c2.09 0 3.79 1.71 3.79 3.82s-1.7 3.82-3.79 3.82-3.79-1.71-3.79-3.82 1.7-3.82 3.79-3.82zm-10.78 0c2.09 0 3.79 1.71 3.79 3.82s-1.7 3.82-3.79 3.82-3.79-1.71-3.79-3.82 1.7-3.82 3.79-3.82zm19.38 47.82c-3.46 0-6.62-1.25-9.09-3.33-3.12-2.64-5.11-6.6-5.11-11.03 0-7.92 6.37-14.36 14.2-14.36s14.2 6.44 14.2 14.36-6.37 14.36-14.2 14.36zm28-8.67c0 2.78-2.25 5.05-5.02 5.05h-6.55l-2.46-2.48c1.42-2.43 2.23-5.25 2.23-8.26 0-9.02-7.27-16.36-16.2-16.36s-16.2 7.34-16.2 16.36c0 4.11 1.51 7.87 3.99 10.74h-10.77c-2.77 0-5.02-2.27-5.02-5.05v-27.15h56z" fill="#ffffffff" data-original-color="#000000ff" stroke="none"/><path d="m32 29.99c-.55 0-1 .45-1 1s.45 1 1 1c4.61 0 8.36 3.8 8.36 8.48 0 .55.45 1 1 1s1-.45 1-1c0-5.78-4.65-10.48-10.36-10.48z" fill="#ffffffff" data-original-color="#000000ff" stroke="none"/></g></svg>