<?xml version="1.0" encoding="UTF-8"?>
<svg id="Layer_2" data-name="Layer 2" xmlns="http://www.w3.org/2000/svg" viewBox="0 0 204.5 155.77">
  <defs>
    <style>
      .cls-1 {
        fill: #fff;
        stroke-width: 0px;
      }
    </style>
  </defs>
  <g id="Layer_1-2" data-name="Layer 1">
    <g>
      <path class="cls-1" d="M11.98,95.86h11.98v59.91h35.95v-59.91h20.03c19.39,0,38.3,7.45,52.26,20.52v15.43h11.98v-47.93h5.99c9.91,0,17.97-8.06,17.97-17.97s-8.06-17.97-17.97-17.97h-5.99V0h-11.98v15.43c-13.97,13.07-32.87,20.52-52.26,20.52H11.98v23.96H0v11.98h11.98v23.96ZM150.18,59.91c3.3,0,5.99,2.69,5.99,5.99s-2.69,5.99-5.99,5.99h-5.99v-11.98h5.99ZM132.21,100.87c-13.96-10.15-30.88-16.12-48.33-16.9v-36.13c17.45-.78,34.37-6.76,48.33-16.9v69.94ZM47.93,143.79h-11.98v-47.93h11.98v47.93ZM23.96,47.93h47.93v35.95H23.96v-35.95Z"/>
      <path class="cls-1" d="M180.14,59.91h24.36v11.98h-24.36v-11.98Z"/>
      <path class="cls-1" d="M170.83,36.96l17.98-11.98,6.65,9.97-17.98,11.98-6.65-9.97Z"/>
      <path class="cls-1" d="M195.44,96.87l-6.65,9.97-17.98-11.98,6.65-9.97,17.98,11.98Z"/>
    </g>
  </g>
</svg>