<?xml version="1.0" encoding="UTF-8"?>
<svg id="Layer_2" data-name="Layer 2" xmlns="http://www.w3.org/2000/svg" viewBox="0 0 541.59 542.22">
  <defs>
    <style>
      .cls-1 {
        fill: #000;
      }

      .cls-1, .cls-2, .cls-3, .cls-4 {
        stroke-width: 0px;
      }

      .cls-2 {
        fill: #f57f21;
      }

      .cls-3 {
        fill: #848484;
      }

      .cls-4 {
        fill: #cf4e27;
      }
    </style>
  </defs>
  <g id="Layer_1-2" data-name="Layer 1">
    <g>
      <g>
        <path class="cls-2" d="M533.94,271.06c0-145.25-117.75-263-263-263h0C125.69,8.06,7.94,125.81,7.94,271.06h0c0,145.25,117.75,263,263,263h0c55.97,0,107.85-17.48,150.49-47.29l25.4,6.81,61.38,16.45-16.45-61.38-6.67-24.89c30.75-43.05,48.84-95.76,48.84-152.69h0Z"/>
        <path class="cls-4" d="M533.94,271.06c0-145.25-117.75-263-263-263h0c-7.12,0-14.18.28-21.17.84,135.35,10.78,241.83,124.03,241.83,262.16-.45,136.19-109.22,250.97-242.4,262.11,7.17.59,14.42.89,21.74.89h0c55.97,0,107.85-17.48,150.49-47.29l25.4,6.81,61.38,16.45-16.45-61.38-6.67-24.89c30.75-43.05,48.84-95.76,48.84-152.69h0Z"/>
        <path class="cls-3" d="M446.81,175.94l-55.41,55.41-63.58-17.18-17.18-63.58,55.41-55.41c-28.95-4.35-59.45,4.57-81.67,26.79-29.04,29.04-35.36,72.21-19.03,107.59l-145.16,145.16c-12.92,12.92-13.2,33.96-.33,46.94.16.16.32.32.48.48,12.98,12.87,34.01,12.59,46.94-.33l145.16-145.16c35.37,16.33,78.55,10,107.59-19.03,22.22-22.22,31.14-52.72,26.79-81.67h0Z"/>
      </g>
      <g>
        <path class="cls-1" d="M493.72,425.28c71.23-99.58,61.96-245.29-21.21-335.24-2.93-3.26-7.95-3.53-11.21-.6-3.26,2.93-3.53,7.95-.6,11.21,79.17,85.59,87.08,224.64,17.93,318.49-1.38,1.93-1.82,4.38-1.21,6.67l19.56,72.99-73.5-19.69c-2.26-.61-4.68-.18-6.6,1.16-167.14,117.89-402.18-4.54-401-209.21C14.87,58.83,264.93-61.5,430.07,71.74c3.42,2.73,8.42,2.18,11.16-1.24,2.74-3.42,2.18-8.42-1.24-11.16C263.55-81.88-.36,45,0,271.06c-1.31,215.7,245.18,346.2,422.91,224.32l83.24,22.3c5.8,1.55,11.28-3.92,9.72-9.72l-22.16-82.68Z"/>
        <path class="cls-1" d="M223.87,124.86c4.17-1.34,6.47-5.81,5.13-9.99-1.34-4.17-5.81-6.47-9.99-5.13-82.07,24.95-133.66,115.59-113.28,199,.89,3.93,5.59,6.87,9.5,5.98,4.28-.97,6.95-5.22,5.98-9.5-9.93-43.24-.35-89.97,26.26-125.46,19.29-26.05,45.72-45.04,76.41-54.91h0Z"/>
        <path class="cls-1" d="M419.39,310.42c-19.8,78.06-101.52,128.19-180.16,110.9-10.34-1.84-13.46,13.07-3.26,15.54,86.77,19.07,176.91-36.25,198.76-122.38,1.12-4.24-1.41-8.58-5.65-9.7-4.24-1.12-8.58,1.41-9.7,5.65Z"/>
        <path class="cls-1" d="M389.04,222.48l-54.74-14.79-14.79-54.74,52.16-52.16c4.52-4.52,1.89-12.51-4.43-13.46-32.35-4.86-65.43,5.98-88.47,29.02-29.13,29.13-37.98,73.26-22.83,111.39l-141.36,141.36c-16.06,16.06-16.21,42.14-.37,58.13,16.08,15.91,42.5,16.37,58.68.19l59.14-59.14c7.26-7.26-3.97-18.48-11.23-11.23l-59.14,59.14c-9.86,9.86-26.44,9.89-36.17-.13-9.72-9.81-9.59-25.84.31-35.74l145.16-145.16c2.35-2.35,2.99-5.92,1.59-8.94-15.34-33.23-8.33-72.87,17.44-98.65,15.73-15.73,36.21-24.61,57.92-25.49l-42.88,42.88c-2.01,2.01-2.79,4.94-2.05,7.68l17.18,63.57c.74,2.73,2.87,4.86,5.59,5.59l63.57,17.18c2.74.74,5.67-.04,7.68-2.05l42.88-42.88c-.87,21.71-9.75,42.19-25.49,57.92-25.77,25.77-65.41,32.78-98.65,17.44-3.02-1.39-6.59-.76-8.94,1.59l-56.29,56.3c-7.26,7.26,3.97,18.48,11.23,11.23l52.49-52.5c72.8,29.83,153.01-33.39,140.41-111.3-.95-6.32-8.94-8.95-13.46-4.43l-52.16,52.16Z"/>
        <path class="cls-1" d="M164.39,366.41l-23.54,23.53c-7.22,7.59,3.64,18.44,11.22,11.23l23.54-23.53c3.1-3.1,3.1-8.13,0-11.22s-8.13-3.1-11.22,0Z"/>
      </g>
    </g>
  </g>
</svg>