<svg version="1.1" id="svg1644" xml:space="preserve" width="300" height="300" viewBox="0 0 682.66669 682.66669" xmlns="http://www.w3.org/2000/svg" xmlns:svg="http://www.w3.org/2000/svg" xmlns:xlink="http://www.w3.org/1999/xlink" xmlns:svgjs="http://svgjs.dev/svgjs"><g transform="matrix(1,0,0,1,0,0)"><defs id="defs1648"><clipPath clipPathUnits="userSpaceOnUse" id="clipPath1658"><path d="M 0,512 H 512 V 0 H 0 Z" id="path1656" fill="#000000ff" data-original-color="#000000ff" stroke="none"/></clipPath></defs><g id="g1650" transform="matrix(1.3333333,0,0,-1.3333333,0,682.66667)"><g id="g1652"><g id="g1654" clip-path="url(#clipPath1658)"><g id="g1660" transform="translate(494.4556,405.1225)"><path d="m 0,0 10.012,93.334 c 0.371,3.461 -2.549,6.381 -6.011,6.01 L -89.332,89.332 C -96.77,88.535 -103.711,85.215 -109,79.926 l -222.789,-222.79 99.593,-99.593 222.789,222.789 C -4.117,-14.378 -0.798,-7.438 0,0" style="fill-opacity: 1; fill-rule: nonzero;" id="path1662" fill="#a6dbffff" data-original-color="#a6dbffff" stroke="none"/></g><g id="g1664" transform="translate(485.0451,385.4555)"><path d="m 0,0 -222.788,-222.788 -21.213,21.213 222.788,222.788 c 5.289,5.289 8.612,12.233 9.411,19.665 l 8.189,76.311 17.027,1.824 c 3.465,0.368 6.378,-2.546 6.01,-6.01 L 9.412,19.665 C 8.612,12.233 5.289,5.289 0,0" style="fill-opacity: 1; fill-rule: nonzero;" id="path1666" fill="#7accf4ff" data-original-color="#7accf4ff" stroke="none"/></g><g id="g1668" transform="translate(502.8997,502.8988)"><path d="m 0,0 -283.366,-283.366 -49.794,49.794 215.717,215.717 c 5.289,5.29 12.233,8.613 19.664,9.412 L -4.441,1.57 C -2.708,1.761 -1.117,1.117 0,0" style="fill-opacity: 1; fill-rule: nonzero;" id="path1670" fill="#d7f7ffff" data-original-color="#d7f7ffff" stroke="none"/></g><g id="g1672" transform="translate(502.8997,502.8988)"><path d="m 0,0 -24.02,-24.02 2.552,23.765 17.027,1.825 C -2.708,1.761 -1.117,1.117 0,0" style="fill-opacity: 1; fill-rule: nonzero;" id="path1674" fill="#c4c4c4ff" data-original-color="#c4c4c4ff" stroke="none"/></g><g id="g1676" transform="translate(79.5651,29.3816)"><path d="M 0,0 -50.183,50.183 78.206,178.571 128.389,128.389 Z" style="fill-opacity: 1; fill-rule: nonzero;" id="path1678" fill="#cca581ff" data-original-color="#cca581ff" stroke="none"/></g><g id="g1680" transform="translate(207.9513,157.7742)"><path d="m 0,0 -128.389,-128.389 -21.214,21.213 128.39,128.389 z" style="fill-opacity: 1; fill-rule: nonzero;" id="path1682" fill="#b58362ff" data-original-color="#b58362ff" stroke="none"/></g><g id="g1684" transform="translate(207.5676,131.1346)"><path d="m 0,0 -76.432,76.432 c -6.396,6.396 -6.396,16.765 0,23.161 L -53.92,122.105 45.673,22.512 23.161,0 C 16.765,-6.396 6.396,-6.396 0,0" style="fill-opacity: 1; fill-rule: nonzero;" id="path1686" fill="#ddddddff" data-original-color="#ddddddff" stroke="none"/></g><g id="g1688" transform="translate(253.2414,153.6518)"><path d="m 0,0 -22.514,-22.514 c -6.4,-6.4 -16.766,-6.4 -23.158,-0.007 l -21.213,21.213 c 6.392,-6.393 16.758,-6.392 23.158,0.007 l 22.514,22.514 z" style="fill-opacity: 1; fill-rule: nonzero;" id="path1690" fill="#c4c4c4ff" data-original-color="#c4c4c4ff" stroke="none"/></g><g id="g1692" transform="translate(335.7265,135.7668)"><path d="m 0,0 -7.72,7.72 c -4.264,4.264 -11.178,4.264 -15.441,0 l -4.957,-4.956 c -1.953,-1.953 -5.119,-1.953 -7.071,0 l -162.006,162.005 c -1.953,1.953 -1.953,5.119 0,7.071 l 4.957,4.957 c 4.264,4.264 4.264,11.177 0,15.441 l -7.721,7.721 c -4.264,4.264 -11.177,4.264 -15.441,0 l -40.146,-40.146 c -4.264,-4.264 -4.264,-11.177 0,-15.441 l 7.721,-7.721 c 4.264,-4.264 11.177,-4.264 15.441,0 l 4.956,4.957 c 1.953,1.953 5.119,1.953 7.072,0 L -58.351,-20.398 c 1.953,-1.952 1.953,-5.118 0,-7.071 l -4.956,-4.956 c -4.264,-4.264 -4.264,-11.178 0,-15.442 l 7.72,-7.72 c 4.264,-4.264 11.177,-4.264 15.441,0 L 0,-15.441 C 4.264,-11.177 4.264,-4.264 0,0" style="fill-opacity: 1; fill-rule: nonzero;" id="path1694" fill="#ff1c11ff" data-original-color="#ffda71ff" stroke="none"/></g><g id="g1696" transform="translate(68.6002,10.6962)"><path d="m 0,0 -57.903,57.903 c -4.264,4.264 -4.264,11.177 0,15.441 l 7.72,7.72 c 4.264,4.264 11.177,4.264 15.441,0 L 23.161,23.161 c 4.264,-4.264 4.264,-11.177 0,-15.441 L 15.441,0 C 11.177,-4.264 4.264,-4.264 0,0" style="fill-opacity: 1; fill-rule: nonzero;" id="path1698" fill="#ddddddff" data-original-color="#ddddddff" stroke="none"/></g><g id="g1700" transform="translate(91.7594,18.4176)"><path d="m 0,0 -7.722,-7.722 c -4.263,-4.263 -11.179,-4.264 -15.443,0 l -21.213,21.214 c 4.264,-4.264 11.179,-4.264 15.443,-0.001 l 7.722,7.722 c 4.264,4.264 4.264,11.18 0,15.443 L 0,15.443 C 4.264,11.179 4.264,4.264 0,0" style="fill-opacity: 1; fill-rule: nonzero;" id="path1702" fill="#c4c4c4ff" data-original-color="#c4c4c4ff" stroke="none"/></g><g id="g1704" transform="translate(330.5454,230.9522)"><path d="m 0,0 154.504,154.504 c 5.29,5.29 8.609,12.23 9.407,19.668 l 10.012,93.334 c 0.371,3.461 -2.549,6.381 -6.011,6.01 L 74.579,263.504 C 67.141,262.707 60.2,259.387 54.911,254.097 L -160.807,38.38" style="stroke-linecap: round; stroke-linejoin: round; stroke-miterlimit: 10; stroke-dasharray: none; stroke-opacity: 1;" id="path1706" fill="none" stroke="#000000ff" data-original-stroke-color="#000000ff" stroke-width="15" data-original-stroke-width="15"/></g><g id="g1708" transform="translate(269.3317,169.7384)"><path d="M 0,0 36.465,36.465" style="stroke-linecap: round; stroke-linejoin: round; stroke-miterlimit: 10; stroke-dasharray: none; stroke-opacity: 1;" id="path1710" fill="none" stroke="#000000ff" data-original-stroke-color="#000000ff" stroke-width="15" data-original-stroke-width="15"/></g><g id="g1712" transform="translate(335.7273,135.7686)"><path d="m 0,0 -7.72,7.72 c -4.264,4.264 -11.177,4.264 -15.441,0 l -4.957,-4.956 c -1.953,-1.953 -5.119,-1.953 -7.071,0 l -162.006,162.005 c -1.953,1.953 -1.953,5.119 0,7.071 l 4.957,4.957 c 4.264,4.264 4.264,11.177 0,15.441 l -7.721,7.721 c -4.264,4.264 -11.177,4.264 -15.441,0 l -40.146,-40.147 c -4.264,-4.263 -4.264,-11.177 0,-15.44 l 7.721,-7.721 c 4.264,-4.263 11.177,-4.263 15.441,0 l 4.956,4.957 c 1.953,1.953 5.119,1.953 7.071,0 L -58.35,-20.398 c 1.952,-1.952 1.952,-5.118 0,-7.071 l -4.957,-4.957 c -4.264,-4.264 -4.264,-11.176 0,-15.44 l 7.72,-7.721 c 4.264,-4.264 11.177,-4.264 15.441,0 L 0,-15.441 C 4.264,-11.177 4.264,-4.264 0,0 Z" style="stroke-linecap: round; stroke-linejoin: round; stroke-miterlimit: 10; stroke-dasharray: none; stroke-opacity: 1;" id="path1714" fill="none" stroke="#000000ff" data-original-stroke-color="#000000ff" stroke-width="15" data-original-stroke-width="15"/></g><g id="g1716" transform="translate(246.1705,146.5771)"><path d="m 0,0 -15.441,-15.441 c -6.396,-6.396 -16.765,-6.396 -23.161,0 l -76.432,76.432 c -6.396,6.396 -6.396,16.766 0,23.161 l 15.441,15.441" style="stroke-linecap: round; stroke-linejoin: round; stroke-miterlimit: 10; stroke-dasharray: none; stroke-opacity: 1;" id="path1718" fill="none" stroke="#000000ff" data-original-stroke-color="#000000ff" stroke-width="15" data-original-stroke-width="15"/></g><g id="g1720" transform="translate(37.7194,87.902)"><path d="M 0,0 106.542,106.542" style="stroke-linecap: round; stroke-linejoin: round; stroke-miterlimit: 10; stroke-dasharray: none; stroke-opacity: 1;" id="path1722" fill="none" stroke="#000000ff" data-original-stroke-color="#000000ff" stroke-width="15" data-original-stroke-width="15"/></g><g id="g1724" transform="translate(194.4437,144.261)"><path d="M 0,0 -106.542,-106.542" style="stroke-linecap: round; stroke-linejoin: round; stroke-miterlimit: 10; stroke-dasharray: none; stroke-opacity: 1;" id="path1726" fill="none" stroke="#000000ff" data-original-stroke-color="#000000ff" stroke-width="15" data-original-stroke-width="15"/></g><g id="g1728" transform="translate(14.5456,64.7533)"><path d="m 0,0 -3.848,3.848 c -4.263,4.263 -4.263,11.177 0,15.44 l 7.721,7.721 c 4.264,4.264 11.177,4.264 15.441,0 l 57.903,-57.903 c 4.264,-4.264 4.264,-11.177 0,-15.441 l -7.721,-7.72 c -4.264,-4.264 -11.177,-4.264 -15.441,0 l -29.306,29.306" style="stroke-linecap: round; stroke-linejoin: round; stroke-miterlimit: 10; stroke-dasharray: none; stroke-opacity: 1;" id="path1730" fill="none" stroke="#000000ff" data-original-stroke-color="#000000ff" stroke-width="15" data-original-stroke-width="15"/></g><g id="g1732" transform="translate(108.3611,158.5438)"><path d="M 0,0 68.004,-23.998" style="stroke-linecap: round; stroke-linejoin: round; stroke-miterlimit: 10; stroke-dasharray: none; stroke-opacity: 1;" id="path1734" fill="none" stroke="#000000ff" data-original-stroke-color="#000000ff" stroke-width="15" data-original-stroke-width="15"/></g><g id="g1736" transform="translate(79.0236,129.2062)"><path d="M 0,0 74.888,-25.477" style="stroke-linecap: round; stroke-linejoin: round; stroke-miterlimit: 10; stroke-dasharray: none; stroke-opacity: 1;" id="path1738" fill="none" stroke="#000000ff" data-original-stroke-color="#000000ff" stroke-width="15" data-original-stroke-width="15"/></g><g id="g1740" transform="translate(49.686,99.8686)"><path d="M 0,0 74.888,-25.477" style="stroke-linecap: round; stroke-linejoin: round; stroke-miterlimit: 10; stroke-dasharray: none; stroke-opacity: 1;" id="path1742" fill="none" stroke="#000000ff" data-original-stroke-color="#000000ff" stroke-width="15" data-original-stroke-width="15"/></g><g id="g1744" transform="translate(497.4698,497.4699)"><path d="M 0,0 -277.935,-277.935" style="stroke-linecap: round; stroke-linejoin: round; stroke-miterlimit: 10; stroke-dasharray: none; stroke-opacity: 1;" id="path1746" fill="none" stroke="#000000ff" data-original-stroke-color="#000000ff" stroke-width="15" data-original-stroke-width="15"/></g></g></g></g></g></svg>