<?xml version="1.0" encoding="UTF-8"?>
<svg id="Layer_2" data-name="Layer 2" xmlns="http://www.w3.org/2000/svg" viewBox="0 0 168.86 162.2">
  <defs>
    <style>
      .cls-1 {
        fill: #fff;
        stroke-width: 0px;
      }
    </style>
  </defs>
  <g id="Layer_1-2" data-name="Layer 1">
    <g>
      <path class="cls-1" d="M83.59,102.06l34.4,33.03c-1.08,7.34,1.47,14.86,7,20.16,9.64,9.26,25.33,9.26,34.98,0,9.64-9.26,9.64-24.34,0-33.6-5.52-5.3-13.35-7.76-20.99-6.72l-34.4-33.03,14.34-13.78,5.81,5.58,4.83-4.64,7,20.16,32.31-31.04-20.99-6.72,4.83-4.64L115.89,11.43C108.31,4.16,98.21.1,87.44,0c-9.7-.08-15.25,2.88-20.84,4.41l26.66,25.61c1.93,1.85,1.93,4.85-.01,6.71l-3.5,3.36,8.18,7.86-14.34,13.78-16.33-15.7c4.45-11.99,1.38-25.56-8.14-34.7C48.76,1.38,32.92-1.24,19.71,4.83l-6.31,2.9,24.74,23.77c1.93,1.86,1.93,4.86,0,6.72-1.93,1.85-5.07,1.85-7,0L6.4,14.45l-3.02,6.06C-2.93,33.2-.21,48.42,10.15,58.37c9.41,9.04,23.51,12.13,36.12,7.82l16.33,15.7L0,142.04l20.99,20.16,62.6-60.15ZM135.87,125.38c.85-.04,9.82-4.01,17.1,2.98,5.79,5.56,5.79,14.6,0,20.16-5.79,5.56-15.2,5.56-20.99,0-7.26-6.97-3.14-15.66-3.11-16.43l-38.29-36.77,7-6.72,38.29,36.77ZM140.88,71.62l-3.5-10.08,2.67-2.57,10.49,3.36-9.67,9.29ZM103.15,39.52c2.6-5.21,1.74-11.77-2.89-16.22l-14.34-13.78c.48-.02.96-.02,1.44-.02,8.16.07,15.8,3.14,21.54,8.65l29.83,28.66c-2.85,2.74-11.11,10.67-13.99,13.44-1.23-1.18-20.35-19.55-21.58-20.73h0ZM48.46,54.85l-3.16,1.45c-9.44,4.33-20.75,2.46-28.15-4.65-5.59-5.37-8.07-12.9-7-20.17l13.99,13.44c5.8,5.57,15.19,5.57,20.99,0,5.8-5.57,5.8-14.59,0-20.16l-13.99-13.44c7.56-1.03,15.4,1.35,20.99,6.72,7.4,7.11,9.34,17.98,4.84,27.05l-1.51,3.03,21.14,20.33-7,6.72-21.14-20.32ZM104.93,54.67l7,6.72L20.99,148.76l-7-6.72L104.93,54.67Z"/>
      <path class="cls-1" d="M135.45,138.45l6.99-6.72,6.99,6.72-6.99,6.72-6.99-6.72Z"/>
    </g>
  </g>
</svg>