<svg width="32" height="32" viewBox="0 0 32 32" fill="none" xmlns="http://www.w3.org/2000/svg">
<path d="M30.2333 0H1.76667C0.790667 0 0 0.790667 0 1.76667V30.2347C0 31.2093 0.790667 32 1.76667 32H17.0933V19.608H12.9227V14.7787H17.0933V11.2173C17.0933 7.084 19.6173 4.83333 23.3053 4.83333C25.072 4.83333 26.5893 4.96533 27.032 5.024V9.344L24.4747 9.34533C22.4693 9.34533 22.0813 10.2987 22.0813 11.696V14.78H26.864L26.2413 19.6093H22.0813V32H30.236C31.2093 32 32 31.2093 32 30.2333V1.76667C32 0.790667 31.2093 0 30.2333 0Z" fill="white"/>
</svg>
