<svg id="browser-2" viewBox="0 0 64 64" xmlns="http://www.w3.org/2000/svg" width="262.5" height="262.5" version="1.1" xmlns:xlink="http://www.w3.org/1999/xlink" xmlns:svgjs="http://svgjs.dev/svgjs"><g transform="matrix(1,0,0,1,0,0)"><path d="m17.14 36.74c0 7.14 5.82 12.96 12.98 12.96s12.97-5.82 12.97-12.96-5.82-12.96-12.97-12.96-12.98 5.81-12.98 12.96zm9.31-10.32c-.55.94-1 2.07-1.35 3.34h-3.44c1.26-1.51 2.91-2.67 4.79-3.34zm-6.1 5.34h4.3c-.23 1.28-.37 2.63-.42 3.98h-5.03c.12-1.43.53-2.77 1.15-3.98zm0 9.96c-.62-1.22-1.03-2.56-1.15-3.98h5.03c.05 1.35.19 2.69.42 3.98zm1.31 2h3.44c.35 1.26.8 2.4 1.35 3.34-1.88-.67-3.53-1.83-4.79-3.34zm8.46 3.98c-.96 0-2.13-1.44-2.94-3.98h5.87c-.81 2.54-1.98 3.98-2.93 3.98zm-3.45-5.98c-.23-1.18-.39-2.51-.44-3.98h7.77c-.05 1.47-.21 2.8-.44 3.98zm7.11 5.34c.55-.94 1-2.08 1.35-3.34h3.44c-1.26 1.51-2.91 2.67-4.79 3.34zm6.1-5.34h-4.3c.23-1.29.37-2.63.42-3.98h5.03c-.12 1.42-.53 2.76-1.15 3.98zm0-9.96c.62 1.21 1.03 2.55 1.15 3.98h-5.03c-.05-1.35-.19-2.7-.42-3.98zm-1.31-2h-3.44c-.35-1.27-.8-2.4-1.35-3.34 1.88.67 3.53 1.83 4.79 3.34zm-4.57 5.98h-7.77c.05-1.47.21-2.8.44-3.98h6.89c.23 1.18.39 2.51.44 3.98zm-.95-5.98h-5.87c.81-2.55 1.98-3.98 2.94-3.98s2.12 1.43 2.93 3.98z" fill="#ffffffff" data-original-color="#000000ff" stroke="none"/><path d="m44.14 51.5h-35.53c-2.54 0-4.61-2.06-4.61-4.59v-24.94h52.23v17.47c0 .56.45 1 1 1s1-.44 1-1v-26.11c0-3.63-2.97-6.59-6.61-6.59h-43.01c-3.64 0-6.61 2.96-6.61 6.59v33.58c0 3.63 2.97 6.59 6.61 6.59h35.53c.55 0 1-.45 1-1s-.45-1-1-1zm-34.37-40.34c1.76 0 3.2 1.43 3.2 3.2s-1.44 3.2-3.2 3.2-3.21-1.44-3.21-3.2 1.44-3.2 3.21-3.2zm20.27 3.2c0 1.76-1.44 3.2-3.21 3.2s-3.2-1.44-3.2-3.2 1.43-3.2 3.2-3.2 3.21 1.43 3.21 3.2zm-8.53 0c0 1.76-1.44 3.2-3.21 3.2s-3.21-1.44-3.21-3.2 1.44-3.2 3.21-3.2 3.21 1.43 3.21 3.2z" fill="#ffffffff" data-original-color="#000000ff" stroke="none"/><path d="m61.71 52.37-3.77-3.76 2.1-2.09c.25-.25.35-.61.27-.95-.09-.34-.35-.62-.69-.72l-12.61-3.79c-.35-.1-.74-.01-1 .25s-.35.65-.25 1l3.81 12.58c.1.34.37.59.71.68s.7-.01.95-.26l2.1-2.1 3.77 3.76c.2.19.45.29.71.29s.51-.1.71-.29l3.19-3.18c.18-.19.29-.45.29-.71s-.11-.52-.29-.71z" fill="#ffffffff" data-original-color="#000000ff" stroke="none"/></g></svg>