<?xml version="1.0" encoding="UTF-8"?>
<svg id="Layer_2" data-name="Layer 2" xmlns="http://www.w3.org/2000/svg" viewBox="0 0 87.56 98.93">
  <defs>
    <style>
      .cls-1 {
        fill: #f05123;
        stroke-width: 0px;
      }
    </style>
  </defs>
  <g id="Layer_1-2" data-name="Layer 1">
    <g>
      <path class="cls-1" d="M79.98,67.36c-1.82-.91-4.37-1.88-7.1-2.81v29.5c8.97-2.92,14.68-6.06,14.68-6.06,0,0-.84-17.25-7.58-20.62Z"/>
      <path class="cls-1" d="M0,87.98s5.71,3.14,14.68,6.06v-29.5c-2.74.93-5.29,1.9-7.1,2.81C.84,70.72,0,87.98,0,87.98Z"/>
      <path class="cls-1" d="M56.77,79.35h-25.99v-19.52c-.97.25-5.07,1.31-9.73,2.7v33.36c6.65,1.71,14.42,3.04,22.72,3.04s16.08-1.32,22.72-3.04v-33.36c-4.66-1.39-8.76-2.45-9.73-2.7v19.52h0Z"/>
      <path class="cls-1" d="M68.69,20.22c-.46-1.91-2.14-2.72-3.64-3.06-.34-2.7-1.46-7.48-5.24-11.34-2.39-2.45-5.44-4.13-9.1-5.03v10.34h-4.6V.08c-.76-.05-1.53-.08-2.33-.08s-1.57.03-2.33.08v11.04h-4.6V.79c-3.66.9-6.72,2.58-9.12,5.03-3.78,3.86-4.9,8.64-5.23,11.34-1.5.34-3.19,1.15-3.64,3.07-.8,3.34,2.5,5.12,3.78,5.81.13.08.3.15.44.22-.04.78-.05,1.49-.02,2.04-.03.02-.06.04-.08.06-1.71,1.02-3.13,2.16-3.13,5.69,0,4.4,2.03,8.32,5.13,10.09,3.42,7.56,10.22,16,18.79,16s15.38-8.44,18.79-16c3.11-1.78,5.13-5.69,5.13-10.09,0-3.52-1.41-4.66-3.12-5.69-.03-.02-.06-.04-.09-.06.02-.55.01-1.27-.03-2.05.21-.11.45-.21.64-.32,1.08-.59,4.37-2.36,3.59-5.71ZM59.92,40.33c-.56.23-1.01.67-1.24,1.23-2.85,6.74-8.73,13.98-14.9,13.98s-12.04-7.25-14.9-13.98c-.24-.55-.68-1-1.24-1.23-1.58-.65-3.18-3.03-3.18-6.29q0-1.21.9-1.75c.46-.27.96-.58,1.51-1.01.66-.51,1-1.33.87-2.16,0,0-.04-.4-.07-1.01,4.6,1.44,10.52,2.35,16.11,2.35s11.45-.9,16.12-2.37c-.03.62-.08,1.01-.08,1.02-.12.83.21,1.66.87,2.16.55.43,1.07.74,1.52,1.01q.89.54.89,1.75c0,2.93-1.3,5.52-3.18,6.29Z"/>
    </g>
  </g>
</svg>