<svg width="365" height="337" viewBox="0 0 365 337" fill="none" xmlns="http://www.w3.org/2000/svg">
<path fill-rule="evenodd" clip-rule="evenodd" d="M20 0C8.9543 0 0 8.95435 0 20V317C0 328.046 8.95432 337 20 337H345C356.046 337 365 328.046 365 317V20C365 8.95435 356.046 0 345 0H20ZM80 169C80 112.67 125.671 67 182 67C238.329 67 284 112.67 284 169C284 225.33 238.329 271 182 271C125.671 271 80 225.33 80 169ZM265.283 186C266.405 180.509 267 174.823 267 169C267 163.177 266.405 157.491 265.283 152H232.533C233.629 163.721 233.561 175.094 232.533 186H265.283ZM230.102 135H259.852C250.918 114.634 234.241 98.4414 213.544 90.137C221.16 103.116 226.846 118.34 230.102 135ZM190.5 135H212.642C208.495 115.892 200.828 99.3169 190.5 86.907V135ZM173.5 135V86.907C163.172 99.3169 155.505 115.892 151.358 135H173.5ZM173.5 186V152H148.595C147.354 164.095 147.354 173.921 148.595 186H173.5ZM173.5 251.093V203H151.358C155.505 222.108 163.172 238.683 173.5 251.093ZM190.5 203V251.093C200.828 238.683 208.495 222.108 212.642 203H190.5ZM190.5 152V186H215.405C216.646 173.905 216.646 164.079 215.405 152H190.5ZM133.898 135C137.154 118.34 142.84 103.116 150.456 90.137C129.759 98.4414 113.082 114.634 104.148 135H133.898ZM131.467 152H98.717C97.595 157.491 97 163.177 97 169C97 174.823 97.595 180.509 98.717 186H131.467C130.371 174.279 130.439 162.906 131.467 152ZM133.898 203H104.148C113.082 223.366 129.759 239.559 150.456 247.863C142.84 234.884 137.154 219.66 133.898 203ZM230.102 203C226.846 219.66 221.16 234.884 213.544 247.863C234.241 239.559 250.918 223.366 259.852 203H230.102Z" fill="white"/>
</svg>
