<svg width="32" height="31" viewBox="0 0 32 31" fill="none" xmlns="http://www.w3.org/2000/svg">
<path fill-rule="evenodd" clip-rule="evenodd" d="M30.8494 30.3492C31.4351 29.7635 31.4351 28.8138 30.8494 28.2281L18.1213 15.5001L30.8494 2.77203C31.4351 2.18634 31.4351 1.23663 30.8494 0.65094C30.2634 0.0650024 29.3137 0.0650024 28.728 0.65094L16 13.379L3.27197 0.650696C2.68628 0.0650024 1.73657 0.0650024 1.15088 0.650696C0.564941 1.23663 0.564941 2.18634 1.15088 2.77203L13.8789 15.5001L1.15088 28.2281C0.564941 28.8138 0.564941 29.7635 1.15088 30.3494C1.73657 30.9351 2.68628 30.9351 3.27197 30.3494L16 17.6212L28.728 30.3492C29.3137 30.9351 30.2634 30.9351 30.8494 30.3492Z" fill="#D9D9D9"/>
</svg>
