<?xml version="1.0" encoding="UTF-8"?>
<svg id="Layer_2" data-name="Layer 2" xmlns="http://www.w3.org/2000/svg" viewBox="0 0 411.32 103.75">
  <defs>
    <style>
      .cls-1 {
        stroke-width: 0px;
      }

      .cls-1, .cls-2 {
        fill: #fff;
      }

      .cls-2 {
        font-family: MyriadPro-Regular, 'Myriad Pro';
        font-size: 14.58px;
        letter-spacing: .1em;
      }
    </style>
  </defs>
  <g id="Layer_1-2" data-name="Layer 1">
    <g>
      <g>
        <path class="cls-1" d="M358.29,73.62l5.07-12.32,8.89,3.66.87-2.12.87-2.12,5.79-14.08,18.04,7.42,3.53-46c.55-7.21-8.45-10.91-13.13-5.4l-29.86,35.17,17.17,7.06-5.79,14.08-4.64-1.91-.68-.28-3.56-1.47-6.81,16.57-2.12-.87-7.17,17.42c-.87,2.12.14,4.54,2.26,5.41l.83.34c2.12.87,4.54-.14,5.41-2.26l7.17-17.42-2.12-.87ZM380.63,36.36l11.43-27.59c.2-.48.74-.7,1.22-.5.48.2.7.74.5,1.22l-11.43,27.59c-.2.48-.74.7-1.22.5-.48-.2-.7-.74-.5-1.22Z"/>
        <path class="cls-1" d="M19.49,80.55c-1.31,0-1.31,2.04,0,2.04s1.31-2.04,0-2.04Z"/>
        <path class="cls-1" d="M42.22,39.74c-2.09,0-2.09,3.25,0,3.25s2.09-3.25,0-3.25Z"/>
        <path class="cls-1" d="M18.51,14.04c2.09,0,2.09-3.25,0-3.25s-2.09,3.25,0,3.25Z"/>
        <path class="cls-1" d="M351.89,68.68c2.26-5.6,4.51-11.19,6.77-16.79,2.74.93,5.48,1.87,8.21,2.8,1.49-3.3,2.99-6.61,4.48-9.91-5.47-2.25-10.94-4.5-16.42-6.75l25.8-30.39H27.91c-1.96,0-3.71,1.41-3.95,3.35-.28,2.33,1.53,4.32,3.81,4.32h15.6c3.38,0,6.11,2.74,6.11,6.11s-2.74,6.11-6.11,6.11H4.83c-1.39,0-2.67.93-2.94,2.3-.37,1.86,1.04,3.49,2.83,3.49h38.65c3.38,0,6.11,2.74,6.11,6.11v2.6c0,3.38-2.74,6.11-6.11,6.11H4.72c-1.6,0-2.89,1.3-2.89,2.89v.72c0,1.6,1.3,2.89,2.89,2.89h20.58c3.06,0,5.8,2.17,6.24,5.21.54,3.78-2.37,7.02-6.05,7.02H1.83c-1.01,0-1.83.82-1.83,1.83v.88c0,1.01.82,1.83,1.83,1.83h37.77c1.89,0,3.57,1.38,3.75,3.26.21,2.16-1.48,3.97-3.6,3.97h-13.12c-1.39,0-2.52,1.13-2.52,2.52s1.13,2.52,2.52,2.52h314.76c.23-.01.5-.05.8-.12.32-.08.58-.18.8-.27,2.06-5.22,4.12-10.44,6.18-15.65.9.35,1.8.69,2.7,1.04ZM92.38,71.44h-31.93V19.91h12.34v41.37h19.6v10.16ZM143.84,46.4c0,15.02-9.87,25.98-25.69,25.98s-25.55-10.96-25.55-25.98v-1.45c0-15.02,9.8-25.98,25.55-25.98s25.69,10.96,25.69,25.98v1.45ZM171.71,72.38c-15.75,0-25.4-10.81-25.4-25.98v-1.45c0-15.17,10.02-25.98,25.33-25.98,13.06,0,21.41,7.69,22.79,18.58h-12.34c-1.23-5.23-4.79-8.49-10.67-8.49-7.98,0-12.41,6.39-12.41,15.89v1.45c0,9.51,4.57,15.89,12.56,15.89,6.02,0,9.65-3.63,10.74-9h12.27c-1.52,11.1-9.36,19.09-22.86,19.09ZM229.11,71.44l-14.59-21.7-4.14,4.57v17.13h-12.34V19.91h12.34v20.39l17.71-20.39h14.08l-19.52,21.7,20.39,29.83h-13.93ZM263.41,50.53h-29.16v-9.58h29.16v9.58ZM279.91,71.44h-12.27V19.91h12.27v51.53ZM329.91,71.44h-13.57l-20.18-35.56v35.56h-11.61V19.91h14.22l19.6,34.18V19.91h11.54v51.53Z"/>
        <path class="cls-1" d="M118.15,29.05c-8.27,0-12.85,6.17-12.85,15.89v1.45c0,9.72,4.64,15.89,12.85,15.89s12.99-6.17,12.99-15.89v-1.45c0-9.72-4.64-15.89-12.99-15.89Z"/>
        <path class="cls-1" d="M402.44,12.06l-3.38,44.12-18.68-7.68-7.54,18.33-8.89-3.66-3.68,8.94,2.12.87-4.41,10.72h31.18c12.23,0,22.14-9.91,22.14-22.14v-31.76c0-7.25-3.49-13.69-8.88-17.73Z"/>
      </g>
      <text class="cls-2" transform="translate(240.09 100.1) scale(1.06 1)"><tspan x="0" y="0">PLASTERING</tspan></text>
    </g>
  </g>
</svg>