<?xml version="1.0" encoding="UTF-8"?>
<svg id="Layer_2" data-name="Layer 2" xmlns="http://www.w3.org/2000/svg" viewBox="0 0 1012.53 1012.53">
  <defs>
    <style>
      .cls-1 {
        fill: #eff0f7;
        stroke-width: 0px;
      }
    </style>
  </defs>
  <g id="Layer_1-2" data-name="Layer 1">
    <g>
      <path class="cls-1" d="M250.33,633.15c0,1.6.1,3.24.29,4.86l.27.95.12.29c10.13,20.14,30.42,23.03,50.1,25.84,7.66.84,15.3,2.37,22.7,4.54,3.86,1.44,7.62,3.21,11.26,5.3l.88.46c6.57,3.65,13.37,7.42,21.16,7.42,3.52-.01,7.06-.82,10.2-2.29l1.11-.48.69-1.02c13.29-20.31,10.44-49.25-6.95-70.38-16.07-19.56-39.5-26.33-61.21-17.71-23.4,3.53-50.61,16.67-50.61,42.23ZM303.22,599.08l.36-.14c22.15-8.86,41.52,1.93,52.27,15,8.48,10.11,13.24,22.95,13.4,36.16.12,8.24-2.06,16.31-6.3,23.38-7.82,3.03-14.48-.64-22.88-5.25-4.29-2.53-8.84-4.67-13.51-6.35l-.11-.04c-7.71-2.3-15.68-3.93-23.69-4.83h-.57c-17.25-2.48-35.07-5.06-43.36-20.71-2.63-23.82,26.11-34.59,43.71-37.22h.68Z"/>
      <path class="cls-1" d="M113.36,573.92c2.82,1.32,5.94,2.02,9.02,2.02.13,0,.26,0,.39,0,9.63,0,20.53-4.86,33.15-10.48l2.13-.91c4.11-1.79,8.37-3.65,12.59-5.29,10.93-4.08,22.25-7.43,33.65-9.95h.3l.52-.13c18.8-4.66,36.56-9.05,55.07-23.67,17.75-14.05,29.75-33.88,41.35-53.06l.67-1.11c15.48-25.64,30.1-49.86,56.2-56.79,10.08-2.69,22.15-2.41,33.82-2.13h.13c12.41.38,26.48.8,38.34-3.08,25.7-8.58,41.72-26.3,43.95-48.6,1.17-11.13-3.91-20.99-8.85-30.55l-.4-.76c-3.52-7.02-7.16-14.28-8.4-22.05-1.38-9.27,1.87-18.25,5.32-27.79,5.32-14.56,10.81-29.62.1-47.03-11.31-18.43-35.27-25.02-73.27-20.16h-.7l-.34.13c-2.93,1.11-6.06,2.2-9.09,3.26l-7.2,2.51-.44.15c-18.79,6.49-38.23,13.2-54.28,25.19-5.1,4.2-9.85,8.89-14.06,13.87l-1.39,1.51c-4.04,4.56-8.44,8.88-13.03,12.79-7.53,5.9-15.6,11.23-24.03,15.85l-.94.54c-9.72,5.33-19.1,11.48-27.9,18.33-16.08,13.21-35.35,32.42-57.28,57.09-2.57,2.86-5.14,5.7-7.74,8.54l-3.43,3.8c-17.05,18.49-33.16,35.96-41.33,55.62l-.04.11c-2.76,7.95-4.78,16.21-5.99,24.46l-.23,1.24c-1.07,5.62-2.17,11.43-3.59,16.67-1.67,6.32-3.93,13.34-6.09,19.98l-.05.17c-5.44,16.91-11.6,36.07-11.6,51.52,0,13.78,5.04,23.27,15.02,28.2ZM118.03,496.56c1.92-5.92,4.37-13.6,6.23-20.41,1.48-5.68,2.62-11.6,3.97-18.81,1.15-7.71,3.03-15.34,5.6-22.7,7.45-18.07,23.01-34.97,39.48-52.86l.2-.21c2.2-2.48,4.44-4.97,6.68-7.47,1.49-1.66,2.99-3.32,4.47-4.98h0c21.86-24.55,40.78-43.43,56.2-56.08,8.38-6.52,17.37-12.42,26.7-17.52,9.17-4.97,17.97-10.76,26.21-17.28,4.86-4.18,9.48-8.72,13.71-13.47l1.76-1.9c3.94-4.56,8.31-8.81,12.91-12.58,15.01-11.22,34.02-17.78,52.41-24.12l5.65-1.96c3.45-1.2,7.01-2.44,10.27-3.69,6.92-.91,13.97-1.39,20.93-1.43,22.2,0,36.57,5.81,43.94,17.74,8.56,13.98,4.22,25.94-.84,39.88l-.12.33v.21c-3.57,9.88-7.21,20.1-5.5,31.34,1.45,9.52,5.77,17.87,9.59,25.24l.4.75c4.37,8.67,8.5,16.86,7.63,25.24-2.77,26.69-27.78,37.94-38.4,41.53-10.13,3.39-22.96,3.04-35.38,2.7h-.16s-.37,0-.37,0h-.15c-12.14-.29-24.7-.57-35.68,2.38-29.7,8.01-45.15,33.74-61.52,60.99-11.24,18.73-22.87,38.1-39.78,51.53-17.31,13.63-33.57,17.62-52.35,22.22-11.79,2.59-23.49,6.05-34.81,10.3-3.86,1.47-7.68,3.13-11.37,4.73l-3.56,1.57c-14.42,6.37-28.04,12.38-35.78,8.63-18.66-9.09-8.3-41.37.84-69.85Z"/>
      <path class="cls-1" d="M150.72,517.71c7.66,6.22,18.28,9.5,30.7,9.5,26.27,0,57.95-14.54,75.33-34.57,10.13-11.67,13.86-27.52,17.16-41.58,1.41-7.3,3.59-14.47,6.47-21.31,7.26-14.92,19.63-22.77,31.61-30.37l.31-.2c10.74-6.76,20.89-13.15,26.61-24.03,5.16-9.79,4.86-20.62,4.58-31.1l-.05-2h-.01c-.2-7.2-.31-14,1.46-19.99,8.88-9.39,23.22-14.55,35.89-19.12l.11-.04c24.06-8.84,48.94-17.98,49.23-50.7v-.19s-.17-.93-.17-.93l-.05-.19c-.87-2.98-2.33-5.71-4.32-8.1-1.99-2.39-4.41-4.31-7.19-5.71l-.43-.21h-.68c-33.91-6.42-63.11,21.8-86.59,44.47l-.32.31c-4.22,4.09-8.59,8.31-12.63,11.98-14.4,12.83-30.1,19.93-45.37,26.83-13.21,5.95-26.86,12.09-39.25,22.16-10.7,8.69-18.87,19.05-26.77,29.07-4.21,5.34-8.04,10.17-12.35,15.18-4.74,5.28-9.83,10.34-15.15,15.06l-.85.76c-7.71,6.68-14.85,14.11-21.25,22.12-9.63,12.77-19.38,37.18-19.38,59.13-.1,14.95,4.51,26.63,13.34,33.79ZM146.46,473.09c2.12-15.77,8.59-32.4,16.84-43.35,5.85-7.33,12.4-14.16,19.49-20.35l.62-.58c5.9-5.13,11.53-10.68,16.76-16.56,3.96-4.66,7.61-9.21,11.03-13.49l1.94-2.48c7.94-9.99,15.44-19.43,25.15-27.24,11.43-9.29,24.03-14.98,37.37-21.02,14.99-6.75,31.97-14.39,47.54-28.23,2.67-2.38,5.38-4.99,8.25-7.76l5.14-4.82c19.82-19.14,44.48-42.96,71-42.96h.1c2.55,0,5.12.23,7.64.67,3.07,1.76,5.33,4.56,6.42,7.92-.53,26.48-20.59,33.85-43.84,42.39l-.15.05c-14.58,5.34-29.66,10.86-39.76,22.15l-.17.19-.42.8-.13.3c-2.53,7.69-2.43,16.08-2.09,24.64l.02,1.88c.14,9.04.28,18.39-3.78,26.02h0c-4.62,8.85-13.73,14.65-23.31,20.75l-.46.27c-12.4,7.85-26.46,16.74-34.83,33.97-2.96,6.92-5.21,14.17-6.67,21.47l-.42,1.78c-3.1,12.98-6.61,27.7-15.26,37.66-11.1,12.84-28.85,23.59-47.49,28.77-19.55,5.43-36.7,3.71-47.07-4.73-11.47-9.26-10.86-27.87-9.48-38.14Z"/>
      <path class="cls-1" d="M179.06,484.31c5.34,4.05,11.98,6.32,18.75,6.39,7.55-.17,14.96-2.86,20.83-7.55,17.77-13.52,30.58-45.11,20.31-72.58l-.76-1.74-1.72-.62c-21.54-7.65-52.07,12.49-63.93,34.88-3.24,5.71-5.05,12.2-5.25,18.83,0,4.41,1.09,8.79,3.15,12.69,2.06,3.9,5.07,7.27,8.62,9.7ZM179.82,447.09c8.65-16.31,29.75-32.31,46.55-32.31,1.93,0,3.8.21,5.59.66,7.61,23.62-3.44,50-18.29,61.15h0c-9.85,7.47-20.37,7.88-29.62,1.14-12.18-8.88-9.02-21.56-4.22-30.63Z"/>
      <path class="cls-1" d="M77.02,516.34l-.51.84c-7.14,11.36-13.89,22.08-16.45,34.6-.56,2.81-.85,5.68-.85,8.54.03,5.99,1.29,11.8,3.75,17.27,2.46,5.47,5.97,10.26,10.4,14.22,11.2,10.63,27.62,16.73,45.05,16.73h.17c5.61,0,11.2-.7,16.63-2.07,12.81-3.29,23.56-10.1,33.96-16.68l.43-.28c12.16-7.76,24.73-15.78,40.42-17.44,6.28-.28,12.54.39,18.62,1.98l.25.06h.48c5.66,1.37,11.48,2.15,17.36,2.31,26.44-.26,45.12-7.13,62.39-22.92l.92-.79.39-1.22c1.64-6.34,2.44-12.87,2.38-19.38v-.95c-.14-5.51.47-11.02,1.79-16.3,5.58-19.13,30.44-64.94,42.34-72.21,13.38-8.14,29.67-6.54,45.43-4.99h.47c15.83,1.42,32.2,2.88,47.15-4.25,21.07-10.03,38.4-33.1,44.13-58.79,2.68-12.29.86-26.08-1.25-42.04l-.22-1.98c-1.04-7.85-2.12-15.96-2.55-24.29-.1-7.2.31-14.48,1.24-21.7l.16-1.77c1.76-18.21,3.75-38.86-2.76-53.1-16.67-36.33-68.73-39.03-117.46-36.87-3.68.15-8,.48-13.57,1.02-15.02,1.35-30.55,2.75-39.88-4.62-4.53-3.57-7.7-10.54-10.77-17.28l-.38-.88c-6.32-14.31-14.19-32.12-38.44-24.51l-.28.09-.75.51c-7.3,4.95-11.26,10.35-12.12,16.53-1.35,10.02,5.85,18.75,13.47,27.98l.4.47c6.3,7.62,12.82,15.51,14.06,23.55,3.92,23.84-17.67,39.83-38.54,55.29l-.03.02c-5.16,3.79-11.86,8.77-17.88,13.83-7.34,6.62-14.21,13.88-20.37,21.52l-1.48,1.7c-5.17,6.38-10.84,12.45-16.82,18.01-9.68,8.78-20.91,15.38-33.5,22.47l-.28.15c-11.94,6.77-24.28,13.77-32.22,22.69-8.31,9.33-19.99,38.06-23.16,56.97-1.21,8.14-1.86,16.45-1.92,24.7v.78c-.41,10.74-.8,20.88-3.78,30.61-3.54,11.82-9.89,22.03-16.02,31.91ZM100.97,486.76c3.33-10.99,3.74-22.47,4.13-33.63.08-7.88.69-15.82,1.8-23.54,2.98-17.74,13.67-44.38,21.17-52.78,6.97-7.78,18.2-14.19,30.08-20.97l.09-.05c12-6.85,24.41-13.93,35.26-23.62,6.52-6.16,12.68-12.8,18.31-19.73l.34-.41c6.04-7.49,12.73-14.56,19.83-20.96,5.46-4.56,11.82-9.27,17.43-13.42l-1.1-1.48,1.1,1.47c20.98-15.5,42.68-31.52,42.68-56.37,0-2.22-.17-4.45-.53-6.6-1.64-10.42-9.2-19.54-15.87-27.58l-.37-.45c-6.45-7.85-12.55-15.26-11.66-21.65.49-3.5,3.11-6.92,8-10.43,16.63-4.98,21.57,6.17,27.81,20.25,3.49,7.95,7.09,16.16,13.42,21.17,11.93,9.42,29.14,7.85,45.79,6.34,4.94-.49,9.25-.82,13.18-1.01,45.93-2.03,94.85.2,109.45,32.08,5.66,12.21,3.73,31.91,2.03,49.28-1.07,7.97-1.54,16.09-1.4,24.22.55,8.96,1.65,17.49,2.72,25.82v.77l.04.44c1.93,14.5,3.76,28.21,1.37,39.11-5.19,23.25-20.72,44.08-39.58,53.06-12.9,6.1-28,4.79-42.6,3.52l-.91-.02c-17.12-1.62-34.83-3.29-50.42,6.21-14.33,8.82-40.59,58.33-46.03,77.03-1.49,5.95-2.18,12.08-2.07,18.17v.93c.08,5.53-.52,11.05-1.76,16.44-15.79,13.93-32.58,19.88-55.92,19.88-5.31-.16-10.61-.91-15.83-2.27l-.46-.09c-6.89-1.79-13.98-2.51-21.09-2.14h-.1c-17.49,1.82-31.01,10.38-44.09,18.67l-.1.07c-9.37,6-19.99,12.81-31.9,15.86-19.08,4.9-40.83-.22-54.17-12.78-4.44-3.96-7.79-9.04-9.67-14.69-1.88-5.65-2.25-11.72-1.07-17.56,2.23-11.17,8.81-21.66,15.21-31.87l.41-.66c6.45-10.37,13.12-21.09,17.05-33.99Z"/>
      <path class="cls-1" d="M732.74,495.61c15.91,3.34,32.23,5.04,48.5,5.04h.31c14.93,0,42.21-1.52,57.15-11.67,14.96-10.16,24.19-23.66,26.71-39.03,2.94-18.11-3.37-38.09-18.25-57.78-24.19-31.81-62.55-68.87-108.02-64.93-12.47.04-24.15,9.03-33.78,26-14.77,26.22-21.38,63.34-21.38,88.51,0,14.19,2.08,25.44,5.85,31.67,5.65,9.5,20.88,17.38,42.91,22.2ZM694.15,420.11c3.01-23.97,9.87-46.8,18.83-62.63,5.56-9.89,14.65-21.68,26.41-21.68h.29c41.68-3.72,77.76,31.45,100.69,61.62,11.31,14.78,17.29,29.87,17.29,43.62-.03,2.51-.26,5.03-.67,7.48-2.23,13.22-9.98,24.44-23.05,33.35-18.05,12.27-65.93,12.66-99.34,5.31-19.07-4.05-33.01-10.81-37.3-18.12-4.75-7.89-5.96-26.65-3.16-48.96Z"/>
      <path class="cls-1" d="M345.34,12.32l1.57.65,1.32-.52c10.43-3.21,18.29-7.31,23.81-12.45h-14.79c-2.91,1.47-6.21,2.81-9.94,4.03-2.16-1.14-4.19-2.49-6.06-4.03h-11.48c4.68,5.79,9.73,9.78,15.57,12.32Z"/>
      <path class="cls-1" d="M284.37,13.22c0,11.85,0,25.29,10.1,35.61,9.97,10.13,32.77,14.74,49.71,14.74.26,0,.51,0,.76,0,5.36,0,10.73-.58,15.98-1.74,28.95-6.78,52.83-36.74,65.37-61.83h-9.29c-12.77,23.7-34.61,48.2-57.96,53.77-19.35,4.51-48.95-.92-58.65-10.75-7.73-7.9-7.73-19.14-7.73-30.01v-.42c.19-4.21,0-8.42-.54-12.59h-8.28c.52,4.1.53,8.57.53,13.22Z"/>
      <path class="cls-1" d="M19.69,118.93c8.25,4.99,17.7,7.76,27.38,8.01h.15c6.8,0,13.57-1.68,19.59-4.86,16.41-8.82,28.17-36.36,37.9-61.47,1.76-4.51,3.8-9.02,6.1-14.01l1.48-3.21c6.03-13.14,12.74-27.8,14.63-43.38h-8.33c-1.89,13.64-7.93,26.85-13.84,39.74l-.14.35c-2.45,5.15-5.26,11.25-7.57,17.38-9.77,25.43-20.67,49.96-34.14,57.2-14.41,7.74-29.14,2.66-38.97-2.96-8.43-4.78-16.63-11.85-23.91-20.12v12.08c6.22,6.15,12.88,11.4,19.69,15.26Z"/>
      <path class="cls-1" d="M57.15,33.89l.28-2.16,2.71.58v-13.93l-2.08-.27.68-2.72h-14.2l-.17,2.09-2.64-.66v14.27l2.05.17-.49,2.65h13.87ZM47.68,23.55l.34-.13c1.03-.52,1.45-1.39,1.66-2.31h2.31c.02.08.05.16.07.24.42,1.33,1.45,1.87,2.44,2.11v2.19c-.29.08-.58.2-.85.35l-1.26.99v.71c-.05.14-.09.28-.12.42h-2.21c-.06-.26-.16-.52-.27-.76l-.09-.17c-.55-.9-1.37-1.27-2.23-1.44l-.07-2.12c.1-.02.19-.04.29-.07Z"/>
      <path class="cls-1" d="M500.3,0c-.07.79-.11,1.58-.11,2.38,0,3.46.71,6.81,2.14,9.97,1.41,3.13,3.43,5.87,5.99,8.14l1.02,1.07h.74c3.89,1.35,7.95,2.04,12.08,2.03h.21c7.63-.08,15.16-2.13,21.73-5.9,4.8-2.58,8.99-6.03,12.44-10.25,1.89-2.31,3.5-4.8,4.84-7.44h-9.47c-2.94,4.38-6.93,8.01-11.74,10.6-4.1,2.43-8.57,3.94-13.3,4.5-4.57.54-9.12.16-13.54-1.14-2.25-2.21-3.81-5-4.51-8.09-.44-1.95-.52-3.93-.26-5.87h-8.25Z"/>
      <path class="cls-1" d="M28.1,94.19c4.55,2.64,9.74,4.09,15.04,4.19,2.78,0,5.54-.44,8.18-1.3,24.43-8.04,48.55-56.91,52.27-84.62.67-4.14.86-8.3.62-12.45h-8.23c.08,1.03.13,2.07.12,3.1-.02,2.71-.22,5.46-.6,8.15-3.63,25.81-25.34,70.89-46.71,77.9-2.76.86-5.61,1.11-8.48.74-2.83-.36-5.6-1.34-8.1-2.89C18.33,79.28,5.99,59.19,0,44.9v18.41c6.99,12.03,16.7,24.53,28.1,30.87Z"/>
      <path class="cls-1" d="M723.35,453.85l.32.21c10.04,5.39,21.31,8.23,32.65,8.23.44,0,.89,0,1.33-.01,13.41.11,26.74-3.21,38.56-9.68,14.63-8.53,22.71-21.29,22.76-35.94-.07-16.15-19.55-45.39-43.63-57.48-14.8-7.46-28.65-6.93-40.06,1.55l-.18.14-.31.37c-14.72,13.2-24.23,35.16-24.23,55.95-.29,12.97,3.96,25.74,11.98,35.95l.81.73ZM740.55,367.55c10.82-8.05,22.84-4.86,31.02-.76,20.53,10.36,38.79,36.5,38.79,49.81-.11,11.58-6.68,21.72-18.5,28.54-18.68,10.71-45.81,11.48-63.31,1.85-17.93-23.18-8.51-60.94,12.01-79.43Z"/>
      <path class="cls-1" d="M430.62,489.93c-3.34-1.68-6.92-2.62-10.65-2.81-8.87-.73-17.63,1.92-22.82,6.86l-.32.28-.3.33c-3.53,4.8-5.37,10.72-5.17,16.59-.04,5.74,1.47,11.39,4.32,16.26,1.71,3.29,4.29,6.05,7.44,7.99,3.15,1.94,6.78,2.98,10.51,3.03,1.29,0,2.59-.11,3.85-.33l.23-.04.86-.37.32-.17c8.72-5.79,12.35-15.51,15.88-24.95,1.34-3.84,2.96-7.61,4.81-11.21l1.5-2.28-1.83-2.29c-2.38-2.89-5.28-5.21-8.63-6.89ZM427.58,508.45l-.68,1.66c-2.93,7.74-5.97,15.73-11.81,20.02-2.39.22-4.77-.25-6.92-1.36-2.29-1.19-4.13-3.02-5.32-5.29l-.05-.09c-4.28-7.21-4.28-17.62-.04-23.35,3.99-3.21,8.99-4.9,14.17-4.74.8,0,1.55,0,2.24.1l.16.02c4.33.25,8.43,1.93,11.67,4.77-1.25,2.7-2.4,5.47-3.43,8.26Z"/>
      <path class="cls-1" d="M449.34,42.49c2.54-2.09,4.95-4.41,7.21-6.96,9.23-11.28,14.84-21.62,17.15-31.59.31-1.3.55-2.62.75-3.95h-8.46c-.13.72-.27,1.43-.44,2.14-1.98,8.61-7.04,17.83-15.46,28.19-1.95,2.11-4.03,4.11-6.19,5.98-8.2,7.25-20.59,18.21-10.92,34.87,4.35,7.43,10.39,11.04,18.46,11.04s16.77-3.54,26.03-7.28l1.75-.67c2.57-1.01,5.96-2.33,9.29-3.53,3.22-1.13,6.23-1.94,9.71-2.89l2.07-.56c4.18-.95,8.32-2.23,12.38-3.84,20.53-9.03,72.74-36.91,83.74-63.44h-9.34c-11.68,21.33-55.76,46.18-77.66,55.82-3.45,1.36-7.02,2.47-10.63,3.3h-.3l-.24.06c-3.13.8-7.85,2.02-12.53,3.62-2.01.73-4.02,1.5-6,2.27l-5.33,2.07c-17.61,7.08-27.89,10.57-34.19-.29-6.16-10.66.97-17.03,9.16-24.36Z"/>
      <path class="cls-1" d="M360.37,159.33c12.11,7.41,29.34,11.67,47.27,11.67,24.16,0,43.96-7.65,52.97-20.46l.85-1.03v-1.06c2.22-15.39-9.66-26.87-20.14-37l-1.71-1.57c-18.88-18.18-44.73-43.05-69.74-40.54h-.72l-1.2.67-.2.13c-18.06,13.11-29.28,32.78-29.28,51.33v1.86c.29,7.36,2.47,14.57,6.3,20.86,3.83,6.29,9.24,11.53,15.59,15.13ZM371.73,77.58c20.81-1.32,44.7,21.58,62.15,38.3l1.61,1.64c9.29,8.88,18.9,18.05,17.94,28.98-15.54,20.3-64.43,20.59-88.68,5.85-11.24-6.89-17.45-17.01-17.95-29.25-.66-16.22,8.88-33.61,24.93-45.51Z"/>
      <path class="cls-1" d="M666.44,413.83l-.48,3.27c-2.68,18.11-5.72,38.63-.53,56.64,7.9,27.48,31.06,55.78,60.12,56.69h.86c6.69-.42,13.31-1.68,19.63-3.74,6.67-2,13.56-3.47,20.42-4.39,9.8-.94,19.77-1.38,29.67-1.31,17.7-.21,34.42-.41,49.43-5.83,23.57-8.6,48.05-30.9,58.22-53.03,5.52-12.06,6.53-23.47,2.9-33.03-3.19-7.98-11.68-16.26-19.18-23.57l-.48-.45c-3.21-3.16-6.52-6.43-9.55-9.82-47.28-51.46-91.59-94.24-155.28-96.49h-.22s-.22.03-.22.03c-25.31,4.79-47.24,43.14-52.41,63.27l-.03.16c-.95,5.54-1.21,11.2-.79,16.82,0,1.34.04,2.69.08,4.06.04,1.38.08,2.77.08,4.16,0,3.79-.16,7.79-.48,11.89-.27,3.55-.83,8.21-1.76,14.66ZM671.48,417.83l.46-3.19c.73-5.08,1.48-10.34,1.82-15.03.34-4.8.49-8.6.49-12.32,0-2.8,0-5.7-.17-8.5-.4-5.12-.17-10.29.68-15.35,4.76-18.33,25.19-54.51,47.52-58.94,61.27,2.38,104.6,44.27,150.9,94.62,2.95,3.29,6.17,6.48,9.28,9.57l1,.99c7.07,6.89,15.09,14.71,17.68,21.53,3.1,8.03,2.16,17.9-2.73,28.56-9.61,20.87-32.72,41.9-54.95,50.01-14.12,5.1-30.39,5.29-47.59,5.5-10.07-.07-20.25.38-30.33,1.36-7.17.96-14.32,2.49-21.2,4.54l-.33.09c-6.49,1.78-13.19,3.61-18.52,3.44-26.28-.8-47.42-27.04-54.72-52.54-4.85-16.86-1.9-36.76.7-54.33Z"/>
      <path class="cls-1" d="M47.97,522.43c-17.16,23-34.91,46.78-26.53,69.92,7.65,21.16,41.37,34.85,62.21,38.89,2.37.4,5.3.76,9.81,1.18,10.9,1.04,25.82,2.48,31.22,9.89,2.26,3.17,2.75,6.88,1.57,12.06-4.55,20.42-37.22,25.2-54.16,22.15-5.9-1.28-11.6-3.36-16.94-6.17l-.4-.19c-9.01-4.22-17.53-8.21-28.48-5.7l-.23.07c-2.31.83-4.42,2.22-6.11,4-1.69,1.78-2.96,3.96-3.67,6.31l-.07.31c-.51,3.79-.56,7.63-.13,11.43v.71l.67,1.27.25.36c9.74,11.41,20.09,30.45,30.09,48.86,7.55,13.92,14.37,26.35,21.44,37.42,10.15,16.1,15.31,28.21,16.72,39.26,1.59,12.38-8.84,28.58-28.61,44.44-17.12,13.73-38.46,24.6-51.91,26.45-1.6.22-3.15.38-4.69.5v6c1.85-.14,3.73-.32,5.68-.59,14.58-2,36.63-13.25,54.85-27.99,21.25-17.18,32.4-35.16,30.57-49.32-1.53-11.79-6.95-24.61-17.56-41.59-7.05-11.05-14.07-23.84-21.24-37.07l-1.07-1.95c-9.71-17.78-19.75-36.16-29.37-47.52-.35-3.06-.34-6.16.04-9.22.46-1.42,1.24-2.74,2.26-3.83,1.03-1.09,2.32-1.95,3.72-2.49,8.89-1.96,16.49,1.61,24.54,5.39l.3.14c5.77,3.04,11.93,5.27,18.37,6.65,18.94,3.4,55.48-2.56,60.82-26.53,1.54-6.71.73-12.16-2.5-16.67-6.78-9.34-22.95-11.05-34.76-12.3l-.72-.08c-4.01-.35-6.95-.69-9.18-1.06-19.5-3.8-51-16.31-57.83-35.21-7.32-20.26,9.48-42.78,25.72-64.55l.41-.55c11.85-15.82,23.03-30.77,24.81-44.87,2.16-15.8-2.19-22.62-8.16-32l-.29-.49c-6.21-9.41-10.94-19.66-14.08-30.48,15.9-19.36,28.69-42.79,40.18-73.63,10.79-8.15,25.17-11.17,39.17-14.12l1.03-.21c15.09-3.14,29.33-6.11,40.4-14.9,7.41-5.96,12.13-13.58,17.12-21.64l.19-.3c3.62-6.39,7.82-12.5,12.48-18.16,3.76-4.07,7.82-7.93,12.13-11.51l1.18-1.04c11.98-10.52,26.89-23.6,28.6-36.48,1.79-13.38-4.1-25.73-9.81-37.74-8.23-17.24-17.55-36.76-6.3-62.53,13.94-9.25,33.92-10.96,48.03-9.46,20.11,2.22,28.82,15.1,38.03,28.73,9.03,13.45,18.37,27.36,39.02,33.01,17.27,4.67,42.8,6.76,67.49,8.78l7.29.58c4.34.31,8.68.63,13.03.97,3.03.22,6.31.69,10.31,1.28l1.13.16c15.52,2.24,36.77,5.32,51.14-9.02l.19-.19.46-.81.06-.23c.36-1.25.65-2.51.97-3.85l.13-.54c.16-.71.32-1.42.53-2.3,2.18-9.43,4.65-20.11,12.68-25.02h.06c9.66-1.52,18.34,5.37,22.66,12.88,4.72,8.17,4.72,17.01.02,23.19-1.21.36-2.49.69-3.6.98l-2.2.57c-13.08,3.44-27.9,7.33-32.96,18.01-2.68,5.67-2.3,12.21,1.15,19.99,9.16,38.54,9.36,89.46.57,151.34-6.38,45.39-30.35,74.87-65.75,80.88-13.19,2.1-26.65,2.98-40.06,2.61h-.79c-24.85-.29-38.54-.47-47.76,34.74-5.52,20.74-3.97,54.8,12.45,80.54,5.22,8.48,12.06,15.59,20.33,21.13,8.27,5.54,17.44,9.17,27.23,10.78,16.32,3.01,39.64,3.15,53.08.34,8.09-1.71,18.53-6.64,27.74-10.99l.1-.05c19.87-9.37,42.39-19.99,58.61-12.41,8.74,4.08,14.85,13.02,18.66,27.26,1.08,4.53,1.66,9.2,1.7,13.84v.69c-.11,8.57,1.84,17.17,5.64,24.86l.4.72.69.46c12.41,7.44,27.27,12.56,43.02,17.98,33.68,11.63,68.5,23.66,77.27,57.35,5.56,21.39-4.03,34.29-14.19,47.95-7.26,9.8-15.48,20.9-18.84,36.32-5.42,25.51,2.05,46.53,9.99,68.85l.13.33c7.92,22.02,16.1,44.79,10.49,72.47-5.5,27.16-33.86,55.38-60.69,60.39-10.9,1.99-21.15-1.19-31.96-4.55-7.01-2.35-14.28-4.12-21.59-5.28h-.11c-7.87-.8-15.89-1.12-23.77-.95-9.1,0-18.5,0-24.92-1.6-29.36-7.58-52.74-37.3-73.38-63.54l-1.06-1.34c-5.45-6.88-11.09-13.99-16.67-20.43l-3.17-3.68c-9.76-11.6-17.47-20.76-43.57-16.87-30.21,4.53-49.04,27.81-70.85,54.77l-.06.08c-15,18.49-32.01,39.44-55.73,58.09-2.91,2.28-5.72,4.35-8.46,6.26h9.66c.77-.58,1.53-1.16,2.31-1.77,24.04-18.84,41.38-40.17,56.67-59l.11-.14c20.99-25.99,39.12-48.43,67.18-52.64,22.89-3.48,29.02,3.78,38.3,14.77l.07.08c.68.77,1.37,1.59,2.09,2.43l1.09,1.28c5.21,6.01,10.47,12.63,16.05,19.64l1.55,1.95c21.15,26.88,45.12,57.36,76.63,65.6,7.26,1.86,17.42,1.82,26.42,1.77,7.67-.16,15.43.14,23.05.89,6.97,1.1,13.9,2.8,20.66,5.08l.21.06s.01,0,.02,0h48.8c23.97-10.79,46.06-35.95,50.98-60.29,5.92-29.25-2.93-53.87-10.76-75.65l-.13-.32c-7.62-21.46-14.81-41.73-9.76-65.61,3.06-14.23,10.56-24.33,17.86-34.16,10.97-14.79,21.32-28.76,15.06-52.76-9.51-36.65-45.82-49.19-81-61.34-15.1-5.21-29.37-10.13-41.19-17.04-3.17-6.75-4.78-14.22-4.67-21.7v-.71c-.05-5.08-.69-10.17-1.89-15.17-4.31-16.09-11.47-26.25-21.89-31.04-18.66-8.71-42.5,2.53-63.57,12.46-8.93,4.21-19.04,8.99-26.46,10.55-12.78,2.69-35.13,2.55-50.92-.34-9.03-1.48-17.45-4.82-25.05-9.91-7.6-5.09-13.89-11.62-18.7-19.42-15.49-24.29-16.96-56.44-11.77-76.03,8.11-31.02,18.08-30.86,42.21-30.47h.78c13.71.36,27.53-.57,41.09-2.75,38.05-6.46,63.75-37.72,70.52-85.75,8.89-62.79,8.63-114.53-.78-153.79l-.12-.35c-2.85-6.38-3.29-11.48-1.34-15.57,3.94-8.31,17.4-11.82,29.29-14.92l2.12-.57c1.3-.33,2.83-.73,4.28-1.16l1.25-.39.81-.99c6.53-8.09,6.82-19.58.77-30-5.33-9.18-16.26-17.54-28.65-15.55l-.94.29-.33.15c-10.72,6.09-13.55,18.27-16.04,28.99-.17.66-.31,1.31-.46,1.95l-.24,1.03c-.21.9-.41,1.75-.62,2.57-12.18,11.57-30.77,8.98-45.74,6.89l-2.31-.33c-3.36-.48-6.54-.93-9.49-1.14-4.83-.38-9.1-.7-13.03-.95l-2.53-.21c-26.17-2.02-53.22-4.11-71.27-8.99-18.67-5.1-27.4-18.14-35.88-30.81-9.99-14.75-19.42-28.69-42.09-31.09-15.22-1.63-36.92.3-52.21,10.64l-.86.6-.6,1.17c-12.61,28.36-2.66,49.26,6.14,67.75l.11.24c5.28,11.14,10.74,22.66,9.21,34.29-1.42,10.74-15.33,22.94-26.51,32.75l-1.35,1.19c-4.48,3.72-8.74,7.78-12.67,12.07l-.07.08c-4.89,5.92-9.3,12.29-13.06,18.9l-.07.12c-4.73,7.67-9.21,14.91-15.88,20.17-10.06,7.99-23.76,10.82-38.31,13.83l-.68.16c-14.81,3.09-30.12,6.29-42.19,15.69l-.98.84-.26,1.09c-11.53,30.77-24.17,53.87-39.7,72.64l-1.46,1.64.59,2.2c3.29,11.7,8.35,22.77,15.01,32.86l.27.44c5.75,9.05,9.22,14.52,7.36,28.2-1.71,12.83-13.11,28.05-24.14,42.78Z"/>
      <path class="cls-1" d="M959.38,39.13v1.64l1.21,1.21c16.38,15.88,33.84,30.95,51.94,44.88v-10.52c-15.57-12.28-30.63-25.41-44.87-39.14,0-7.56.69-15.16,2.05-22.58.92-4.83,1.49-9.72,1.71-14.61h-8.3c-.22,4.44-.74,8.86-1.57,13.23-1.56,8.53-2.28,17.26-2.16,25.9Z"/>
      <path class="cls-1" d="M72.4,870.29l-2.33,1.86c-5.59,4.47-10.86,8.7-15.48,13.22-3.81,3.84-7.48,7.93-10.87,12.13-6.46,7.84-13.15,15.95-21.23,19.22-6.63,2.69-14.35,3.37-22.49,2.66v5.63c8.9.77,17.36,0,24.64-2.94,9.32-3.78,16.21-12.08,23.5-20.86l.1-.12c3.13-3.74,6.67-7.97,10.34-11.56,4.78-4.51,9.85-8.83,15.08-12.86l2.44-1.95c15.82-12.5,32.19-25.42,37.36-43.92,6.01-21.02-1.59-37.6-9.62-55.12l-.4-.9c-5.87-12.93-11.93-26.29-11.87-41.91,5.39-6.65,13.25-10.11,20.89-13.43h.29l.39-.17c3.5-1.56,6.96-3.31,10.23-5.18,5-2.77,9.78-5.84,14.26-8.79,7.19-5.08,14.95-9.41,22.99-12.82,6.64-2.5,14.32-2.93,22.46-3.39h.79c7.17-.21,14.38-.95,21.43-2.18l.1-.02c3.17-.73,6.28-1.77,9.19-3.08l.42-.17c2.47-1.06,5.05-1.89,7.59-2.45,26.84-4.58,66.12.16,87.48,10.53,6.62,3.62,12.77,8.1,18.34,13.34,8.77,7.67,16.85,14.25,26.83,17.15,24.69,7.1,40.58-8.51,54.66-22.33,4.83-5.01,10.11-9.63,15.72-13.75,18.9-12.39,39.22-22.69,60.39-30.6,25.01-7.26,37.57,11.31,50.87,30.97,6.38,9.53,13.61,20.33,22.62,25.62,12.56,7.43,28.57,5.31,44.07,3.24l.55-.02c23.22-3.18,43.3-5.93,52.48,18.73-3.11,9.22-6.93,18.29-11.37,26.99l-.41.85c-5.84,11.97-11.89,24.34-15.03,40.44-3.75,19.39-3.69,45.57-3.64,66.61v8.91c.08,5.77.47,11.59,1.17,17.3,1.03,9.26,2.01,18-1.27,26.69-14.16,37.34-58.85,68.3-97.46,53.87-12.77-4.76-18.45-12.39-25.65-22.06-3.28-4.44-5.99-7.97-9.35-11.82-3.41-3.92-6.72-7.3-10.7-11.33l-1.33-1.33c-6.67-6.39-12.94-13.32-18.56-20.51l-7.49-10.57c-18.23-26.08-28.28-40.44-66.9-28.75-36.32,10.92-59.57,36.46-82.09,61.21l-.23.27c-16.33,17.85-33.22,36.3-55.18,49.71-12.77,7.87-25.24,14.52-37.31,20.96l-.64.36c-6.8,3.63-13.38,7.14-19.65,10.66h12.22c3.3-1.78,6.67-3.58,10.1-5.42l1.24-.66c12.05-6.44,24.52-13.1,37.15-20.89,22.56-13.76,39.68-32.46,56.24-50.55l.83-.9c23-25.1,44.73-48.81,79.11-59.14,34.56-10.43,42.69,1.18,60.5,26.61l4.6,6.45c.94,1.31,1.9,2.66,2.88,4.07l.06.09c5.9,7.55,12.39,14.74,19.26,21.32l1.17,1.19c3.95,3.97,7.46,7.54,10.44,11.03,2.75,3.22,5.66,6.86,9.18,11.48,7.75,10.4,13.86,18.62,28.23,23.97,7.24,2.71,14.66,3.95,22.07,3.95,35.29,0,70.27-28.22,82.75-61.16,3.75-9.85,2.73-19.21,1.65-29.11l-.03-.25c-.69-5.51-1.08-11.12-1.14-16.67v-8.71c0-20.85,0-46.8,3.52-65.69,2.97-15.18,8.79-27.12,14.42-38.68l.56-1.17c4.72-9.21,8.76-18.84,12.02-28.64l.1-.31v-1.22l-.11-.32c-10.59-30.02-35.11-26.71-58.86-23.45l-.53.02c-14.59,1.94-29.67,3.95-40.55-2.5-7.49-4.34-13.86-13.69-20.59-23.58l-.23-.33c-13.25-19.54-28.27-41.67-57.41-33.13-14.6,4.85-42.43,18.17-62.01,31.31-5.86,4.32-11.39,9.18-16.4,14.41-12.91,12.67-27.55,27.02-49.03,20.85-9.14-2.58-17.01-9.37-24.59-15.91-5.86-5.53-12.42-10.3-19.57-14.21-22.51-10.9-63.35-15.86-91.13-11.04-2.98.65-5.91,1.59-8.7,2.8l-.48.18c-2.63,1.18-5.37,2.11-8.16,2.78-6.76,1.16-13.64,1.85-20.4,2.06l-1.13.02c-8.47.49-16.48.95-23.95,3.77-8.52,3.57-16.66,8.07-24.15,13.35-4.13,2.71-8.94,5.82-13.75,8.55-3.05,1.71-6.41,3.18-9.66,4.61l-.69.29c-8.68,3.74-17.66,7.61-24.05,16.05l-.64.72v1.02c-.33,17.33,6.14,31.57,12.4,45.36l.38.85c7.59,16.55,14.75,32.18,9.3,51.21-4.74,16.99-21.1,29.78-35.54,41.09Z"/>
      <path class="cls-1" d="M920.72,144.08l-.84.21-.29.11c-2.65,1.28-4.96,3.06-6.88,5.28l-.65.63c-.7.67-1.29,1.24-2.01,1.86l-.63.74-.17.25c-2.65,4.59-4.03,9.82-4.01,15.12,0,13.62,9.44,25,18.28,31.11,6.8,4.81,14.79,7.47,23.13,7.69.2,0,.4,0,.61,0,3.82,0,7.66-.84,11.14-2.43,3.62-1.66,6.88-4.17,9.43-7.24l1.46-1.46-.46-2.15c-4.62-21.43-21.23-52.37-48.1-49.71ZM926.77,194.76c-7.65-5.3-15.83-15.06-15.83-26.54-.01-4.17,1.06-8.29,3.09-11.92.5-.43.97-.88,1.42-1.31l1.33-1.27.14-.15c1.3-1.54,2.85-2.8,4.61-3.75.41,0,.82-.03,1.23-.06.41-.03.83-.05,1.23-.05,21.22,0,34.85,26.31,39.04,44.53-9.65,10.91-25.48,7.98-36.26.53Z"/>
      <path class="cls-1" d="M1012.53,2.02V0h-2c.63.77,1.3,1.44,2,2.02Z"/>
      <path class="cls-1" d="M902.69,0h-8.31c-.14,1.5-.3,2.98-.46,4.41-.96,8.25-4.17,15.78-7.57,23.76l-.21.5c-4.69,9.91-8.03,20.4-9.93,31.23-4.88,31.57,16.41,38.96,37.01,46.11l.32.11h.32c10.56,3.75,21.45,7.65,29.6,14.9,5.21,5.17,9.91,10.92,13.96,17.07l.62.83c6.99,10.29,15.08,19.87,24.09,28.53,10.46,9.49,20.85,17.54,29.21,24.01l1.22.95v-10.49c-6.96-5.33-15.83-12.4-24.87-20.58-8.5-8.23-16.19-17.37-22.83-27.14-4.56-6.91-9.86-13.35-15.82-19.22-9.44-8.5-21.87-12.82-32.83-16.64l-.36-.13c-20.42-7.22-35.17-12.43-31.38-37.06,1.77-10.24,4.96-20.17,9.47-29.52l.14-.33h4.4l-3.71-1.64c3.37-8,6.52-15.58,7.45-24.39.21-1.75.37-3.51.5-5.27Z"/>
      <path class="cls-1" d="M31.88,454.49c-8-6.96-19.39-11.39-31.88-13.7v6.07c10.99,2.18,20.91,6.15,27.9,12.25,3.9,3.27,6.97,7.49,8.89,12.2,1.92,4.71,2.67,9.88,2.17,14.94v.05c-1.35,18.21-18.26,35.56-38.96,43.57v5.85c23.68-8.5,43.05-28.4,44.58-49.12.65-5.96-.17-12.05-2.38-17.62-2.2-5.57-5.77-10.58-10.32-14.47Z"/>
      <path class="cls-1" d="M917.69,23.1l-.24.46c-6.43,12.3-13.08,25.01-7.37,41.37l.14.32c.52.94.98,1.89,1.37,2.85l.49.83c5.72,7.51,13.4,11.78,20.83,15.9l.66.36c4.95,2.52,9.69,5.51,14.04,8.85,7.95,6.46,13.73,14.9,19.34,23.09l.27.41c3.65,5.53,7.67,10.92,11.98,16.03,9.59,10.92,20.79,20.07,33.33,27.25v-9.64c-10.07-6.32-19.15-14.01-27.05-23.01-4.16-4.98-8.08-10.25-11.66-15.71l-.11-.16c-5.94-8.61-12.08-17.52-20.87-24.7-4.78-3.67-9.93-6.92-15.3-9.67l-.36-.21c-6.96-3.81-13.54-7.42-18.14-13.3-.49-1.12-.95-2-1.29-2.62-4.4-12.7.97-22.89,7.21-34.75,3.94-7.4,8.82-16.58,10.4-27.05h-8.43c-1.49,8.25-5.42,15.79-9.24,23.1Z"/>
      <path class="cls-1" d="M1010.2,247.85c-3.36-1.71-12.15-4.73-21.12,4.33l-.55.61-.11.21c-1.7,3.12-2.58,6.66-2.55,10.2,0,3.69.86,7.37,2.49,10.59,1.46,3.21,3.72,6.04,6.53,8.17,2.81,2.13,6.14,3.55,9.63,4.09l.92.02.13-.02c2.74-.36,5.02-1.04,6.95-1.9v-6.52c-1.88,1.38-4.35,2.31-7.42,2.75-2.44-.43-4.77-1.46-6.74-2.97-2.05-1.56-3.69-3.64-4.79-6.08-1.26-2.49-1.92-5.27-1.91-8.08-.02-2.48.57-4.95,1.73-7.15,5.75-5.71,10.97-4.87,14.27-3.18,1.84,1.03,3.49,2.4,4.87,4v-7.61c-.73-.52-1.49-1-2.27-1.43l-.06-.03Z"/>
      <path class="cls-1" d="M954.68,585.9l-.31.1-.3.12c-6.61,3.35-13.56,6.11-20.65,8.22h-.24l-.3.1c-11.64,3.82-23.68,7.76-34.24,17.38-4.94,4.48-8.57,10.74-12.41,17.36l-.4.67c-2.27,4.08-4.79,8.07-7.5,11.84-3.81,5.24-7.93,10.02-11.93,14.66l-.73.86c-11.07,12.9-20.64,24.04-20.64,37.89v.37c.17,15.25,10.22,26.15,19.94,36.69,6.1,6.61,12.4,13.45,15.36,21.01,3.65,9.62,1.09,22.33-1.39,34.65l-.04.55c-1.94,9.85-3.75,19.16-2.52,27.2,1.78,11.45,8.84,21.62,17.04,33.41l.16.24c3.35,4.84,6.89,10.01,10.21,15.39,2.78,4.67,5.25,9.08,7.97,14.26l.15.29c7.75,14.42,13.88,25.81,29.9,33.22,9.9,4.63,19.74,4.47,28.42,4.32h1c9.69,0,18.03,0,25.21,6.28,7.45,6.52,10.54,19.56,13.79,33.39l.04.53c.66,3.11,1.42,6.22,2.24,9.31v-32.52c-2.5-6.67-5.76-12.57-10.53-16.77-9.82-8.69-20.98-8.55-31.79-8.41h-1.08c-7.84,0-15.98.02-23.68-3.6-13.66-6.37-18.94-16.22-26.25-29.88l-1.21-2.25c-2.04-3.76-4.35-8.03-7-12.39-3.52-5.87-7.23-11.2-10.72-16.15-7.57-10.95-14.11-20.41-15.59-29.91-1.06-6.85.79-15.99,2.57-24.84l.04-.57c2.63-13.31,5.35-27.08.84-38.7-3.4-8.85-10.23-16.29-16.83-23.49l-.24-.26c-8.64-9.36-17.57-19.04-17.7-31v-.25c0-10.9,8.7-21,18.77-32.69l.85-.99c3.59-4.15,8.06-9.32,12.11-14.87,2.88-4.04,5.56-8.31,7.95-12.63l.53-.9c3.31-5.63,6.73-11.46,10.68-15.02,9.39-8.61,20.59-12.24,31.4-15.75l.85-.27c7.26-2.17,14.39-5.01,21.18-8.45,10.2-3.9,21.21-4.66,31.85-2.19,8.54,1.98,16.38,5.93,23.01,11.56v-10.46c-6.75-4.63-14.36-7.9-22.47-9.6-11.86-2.48-24.09-1.47-35.38,2.92Z"/>
      <polygon class="cls-1" points="1012.53 304.48 1010.03 300.95 1012.53 306.78 1012.53 304.48"/>
      <path class="cls-1" d="M161.36,20.9l-1.1,2.29c-7.11,14.46-12.75,26.33-15.21,36.41-3.09,12.4-1.56,23.31.06,34.86l.02.14c.77,5.26,1.44,10.03,1.76,15.19,1.34,19.54-3.88,37.93-9.94,59.22-3.85,13.51-7.25,25.85-9.95,40.13-5.69,29.77-23,45.36-56.14,50.54-17.8,2.89-60.24,4.77-69.76-40.04-.46-2.18-.7-3.9-1-6.11l-.1-.7v27.66c12.65,23.24,36.11,28.73,55.42,28.73,5.66,0,11.35-.47,16.93-1.37,37.01-5.86,56.38-23.5,62.83-57.21,2.62-13.72,6.07-26.15,9.4-38.16l.4-1.46c6.26-21.9,11.66-40.81,10.29-61.94-.39-5.46-1.1-10.6-1.86-15.8-1.5-10.79-2.91-20.99-.3-31.85,2.44-9.82,8.38-21.92,14.64-34.67l.21-.38c4.37-8.61,8.42-17.46,12.08-26.4h-8.96c-2.98,6.99-6.38,14.03-9.72,20.9Z"/>
      <path class="cls-1" d="M142.15,22.95l-.34.76c-5.92,12.94-12.05,26.32-14.82,41.41-1.4,9.77-1.69,19.71-.85,29.54v.94c.48,11.58.97,23.56-1.7,36.24-1.46,6.05-3.38,12.03-5.74,17.85l-.9,2.44c-1.21,3.25-2.48,6.74-3.64,10.26-1.58,4.98-2.89,9.74-4.04,13.94l-1.11,4.06c-6.74,25.38-11.61,43.71-43.16,48.48-12.39,1.86-21.61,2.46-35.77-5.76-6.74-11.11-8.67-20.78-10.82-34.19-2.87-17.79-10.28-31.35-19.28-42.69v14.29c5.2,8.41,9.25,18.07,11.12,29.6,2.46,14.94,4.66,25.66,12.43,37.96l.47.94.96.58c9.95,5.98,18.66,8.65,28.3,8.65,4.64-.09,9.31-.54,13.85-1.32,36.74-5.5,42.57-27.15,49.96-54.61,1.19-4.42,2.99-11.1,5.03-17.62,1.35-4.06,2.83-8.08,4.1-11.44,2.58-6.41,4.72-13.06,6.36-19.81,2.88-13.5,2.39-25.97,1.91-38.04l-.04-1.6v-.17c-.77-9.09-.52-18.27.73-27.21,2.52-13.7,8.38-26.61,14.05-39.1l.21-.46c3.8-8.32,8-17.53,10.94-26.9h-8.71c-2.6,7.8-6.1,15.46-9.52,22.95Z"/>
      <path class="cls-1" d="M996.59,827.77c-9.82-4.57-16.64-14.23-16.99-24.03-.34-9.31,5.13-17.66,15.4-23.54,5.61-2.11,11.57-3.05,17.52-2.81v-8.3c-7.03-.22-14.06.95-20.67,3.5l-.23.09-.35.24c-12.85,7.17-19.94,17.72-19.98,29.73-.05.49-.05.98,0,1.46.49,6.66,2.77,13.08,6.59,18.55,3.82,5.49,9.07,9.85,15.18,12.62,4.97,2.22,10.47,3.39,15.9,3.39.14,0,.29,0,.43,0,1.04,0,2.08-.05,3.12-.12v-8.23c-5.43.41-10.94-.45-15.94-2.56Z"/>
      <path class="cls-1" d="M124.01,32.82l-.05.1c-5.05,9.31-9.19,19.17-12.31,29.37-2.81,10.39-5.13,21.37-7.21,31.66l-.03.13c-7.29,34.68-14.19,67.45-37.61,78.24-7.19-1.05-12.39-6.68-17.89-12.64l-.82-.89c-2.5-2.75-5.19-5.37-8.02-7.81-2.12-1.8-4.28-3.54-6.56-5.39-1.33-1.07-2.67-2.16-4.04-3.28l-3.96-3.2c-8.3-6.67-17.05-13.7-25.51-21.17v11.01c6.84,5.82,13.73,11.36,20.32,16.64l5.41,4.43c3.13,2.54,6.09,4.93,8.9,7.28,2.87,2.45,5.59,5.14,8.06,8l.32.36c6.53,6.96,13.28,14.16,24.12,15h.86s.83-.24.83-.24l.22-.08c28.3-11.95,36.05-48.94,43.54-84.72l.25-1.18c1.88-8.95,4.22-20.08,6.87-29.92,2.97-9.61,6.87-18.98,11.64-27.9,5.61-11.29,11.36-22.92,13.63-36.64h-8.38c-2.19,11.7-7.26,22.02-12.58,32.82Z"/>
      <path class="cls-1" d="M780.31,87.92c-3.69,1.7-6.79,4.42-8.96,7.86-2.19,3.47-3.31,7.47-3.24,11.54,0,1.92.24,3.83.7,5.65,2.42,10.27,11.28,21.34,25.05,21.39h.25c4.55-.57,8.75-2.47,12.17-5.52,3.41-3.05,5.77-7.02,6.82-11.44,2.76-10.66-1.19-23.2-9.18-29.19-6.78-5.04-15.16-5.15-23.6-.29ZM807.42,115.96l-.06.25v.06c-.79,3.19-2.5,6.05-4.95,8.26-2.47,2.23-5.51,3.65-8.81,4.1-10.15-.07-17.34-8.55-19.21-16.97-.35-1.43-.53-2.91-.52-4.44-.07-3.02.74-5.96,2.35-8.51,1.61-2.55,3.91-4.55,6.66-5.8l.22-.12c2.84-1.74,6.1-2.71,9.38-2.8h.03c2.83,0,5.62.95,7.86,2.66,6.22,4.79,9.25,14.81,7.05,23.31Z"/>
      <path class="cls-1" d="M788.92,8.1c-9.21,9.39-23.37,11.49-37.07,13.52l-.12.02c-12.31,1.83-25.04,3.73-35.26,10.89l-1.11.85-.44,1.45-.05.21c-.26,1.36-.39,2.75-.38,4.12,0,6.72,3.05,13.06,5.51,18.16l.47,1.01c1.39,2.7,2.47,5.55,3.22,8.48,1.82,9.77,2.43,19.76,1.83,29.77-.31,12.64-.59,24.58,5.79,36.41,8.3,15.29,28.61,32.64,45.27,38.67,19.12,6.86,33.93,2.31,51.16-2.97,11.14-3.86,22.73-6.37,34.46-7.45,3.09,2.88,4.62,8.11,5.98,12.76l.28.96c.95,3.46,2.25,6.84,3.91,10.14,7.23,12.79,19.74,22.02,31.83,30.94l.66.5c10.08,7.42,21.51,15.82,29.09,26.09,3.23,4.76,5.74,9.95,7.5,15.52l.35.95c1.77,5.11,4.02,10.09,6.72,14.85,16.27,27.07,38.88,43.81,64.01,47.53v-8.39c-22.12-3.7-42.21-18.96-56.87-43.31-2.44-4.38-4.51-9.01-6.15-13.76v-.29l-.1-.31c-2.05-6.18-4.93-12.06-8.6-17.53-8.22-11.31-19.75-19.78-30.86-27.94l-.7-.53c-12.04-8.8-23.42-17.11-29.57-28.16-1.39-2.75-2.5-5.66-3.31-8.71l-.21-.69c-2.02-6.89-4.11-14.02-10.28-18.2l-1.12-.77h-1.54c-12.97,1.03-25.79,3.69-38.03,7.9l-.25.08c-15.69,4.8-29.24,8.94-45.56,3.03-14.93-5.4-33.2-21.01-40.73-34.8-5.37-9.92-5.14-20.33-4.87-32.3.64-10.6-.03-21.27-1.97-31.71l-.03-.14c-1-3.85-2.48-7.59-4.35-11.04l-.2-.4c-2.39-5.13-4.86-10.42-4.52-15.22,8.53-5.27,19.59-6.88,30.3-8.44,15.1-2.22,30.7-4.53,41.76-15.92,3.87-4.05,6.93-8.79,9.08-13.91h-9.15c-1.57,2.94-3.51,5.67-5.79,8.1Z"/>
      <path class="cls-1" d="M165,59.63c-5.47,19.98-2.57,40.35.24,60.11,2.03,13.91,3.94,27.05,2.3,38.23-1.38,9.25-5.78,23.77-10.04,37.81l-1.15,3.83c-2.85,9.11-4.98,16.17-6.7,22.24-2.02,7.15-7.39,24.63-13.69,32.6-11.72,14.71-37.99,25.35-78.08,31.63-32.74,5.05-48.46-1.91-57.88-16.53v13.05c8.47,8.29,20.53,13.3,38.79,13.3,6.81-.06,13.68-.64,20.4-1.73,42.28-6.6,70.29-18.23,83.24-34.57,5.17-6.55,10.3-18.52,15.26-35.6,1.67-6.02,3.82-13.22,6.6-22.05l.69-2.29c4.42-14.22,9.27-30.25,10.79-40.51,1.86-12.32-.15-25.93-2.29-40.34l-.02-.28c-2.72-18.81-5.52-38.27-.42-56.66,5.03-18.24,16.67-42.31,29.72-61.87h-9.87c-12.29,19.34-23.06,42.19-27.89,59.63Z"/>
      <path class="cls-1" d="M186.17,74.81c-8.44,26.69.91,60.18,8.43,87.15,2.57,8.36,4.69,16.97,6.29,25.52,3.45,21.44-.05,25-9.36,34.49-5.8,5.68-11.2,11.87-16.04,18.41l-.06.09c-3.4,5.13-6.27,10.64-8.5,16.28l-.33.75c-3.15,7.98-7.35,15.52-12.46,22.42-12.43,9.17-28.11,12.72-44.72,16.44l-.54.05c-18.31,4.11-37.25,8.36-53.41,20.43-1.63,1.22-3.13,2.62-4.39,4.09l-1.28,1.36c-3,3.22-6.4,6.88-10,8.29-9.61,3.66-26.6-6.3-39.8-18.15v10.71c11.16,8.94,24.38,16.35,35.33,16.35.1,0,.2,0,.3,0,2.43,0,4.81-.43,7.08-1.28,5.57-2.07,9.99-6.86,13.55-10.7l.67-.7c1.07-1.23,2.26-2.38,3.5-3.36,14.54-10.94,32.4-14.95,49.67-18.83l1.34-.3c17.63-3.99,34.28-7.77,48.3-18.31l.19-.14.42-.51c5.83-7.78,10.62-16.3,14.24-25.34,2.03-5.2,4.63-10.19,7.68-14.76,4.55-6.23,9.66-12.12,15.21-17.55,10.19-10.36,15.8-16.06,11.65-41.74-1.68-8.76-3.84-17.54-6.41-26.1v-.21l-.07-.26c-7.15-25.86-16.05-58.05-8.46-82.06,8.66-27.03,19.6-57.11,40.38-77.32h-11.6c-18.48,21.09-28.65,49.34-36.8,74.81Z"/>
      <path class="cls-1" d="M483.16,879.41l-.95,1.07v1.9c1.24,12.56,9.8,20.75,18.05,28.65l.29.29c2.55,2.46,5.2,5.01,7.47,7.67,2.2,2.57,3.95,5.07,6.38,8.52l.17.24c7.9,11.29,17.74,25.35,34.74,25.4,19.96,0,36.56-21.53,41.06-42.35,4.3-19.87-2.33-35.91-17.75-42.92l-.94-.25-.26-.04c-1.86-.15-3.79-.35-5.84-.57l-4.21-.48c-28.52-2.94-64-6.6-78.23,12.86ZM559.01,874.72v.08l10.93,1.09c11.07,5.34,15.68,17.76,12.31,33.31-3.67,17.18-17.26,35.68-32.86,35.68h-.08c-12.56,0-20.63-11.45-27.79-21.6l-.13-.18c-2.17-3.24-4.55-6.41-7.08-9.44-2.15-2.47-4.45-4.85-6.79-7.04l-1.48-1.46c-6.78-6.48-13.79-13.17-15.31-21.91,12.1-14.08,44.08-11.07,68.28-8.51Z"/>
      <path class="cls-1" d="M166.9,925.03c6.48,3.32,13.76,5.15,21.07,5.28,17.22,0,31.12-11.3,45.85-23.26,3.99-3.26,7.92-6.43,12.07-9.47l4.72-3.55,1.54-1.13c27.88-20.68,62.58-46.42,64.59-84.32v-.73s-.33-1-.33-1l-.07-.18c-.76-1.71-1.83-3.22-3.2-4.5-1.37-1.28-2.95-2.25-4.71-2.89-1.77-.64-3.61-.92-5.47-.81-1.87.1-3.67.57-5.41,1.43l-.56.3-.69.69-.19.22c-12.05,16.28-34.51,22.91-56.23,29.32-18.53,5.47-39.53,11.66-53.4,24.66-13.9,13.02-21.87,35.45-21.87,61.55v4.74l.26,2.52,2.05,1.13ZM192.1,861.18c12.27-11.42,31.32-17.17,49.74-22.72l.31-.09c22.58-6.69,45.92-13.6,59.84-31.43,1.15-.34,2.39-.31,3.52.12,1.13.42,2.09,1.2,2.74,2.2-2.44,33.51-35.09,57.67-61.37,77.12l-6.06,4.61c-4.13,3.09-8.02,6.22-12.31,9.71l-1.54,1.25h0c-18.06,14.62-32.75,25.78-54.1,16.67-.41-24.68,6.56-45.56,19.22-57.43Z"/>
      <path class="cls-1" d="M978.5,735.06h-.41l-.35.14c-27.67,10.77-46.32,34.94-48.67,63.07-.14,1.87-.21,3.8-.21,5.88-.17,11.25,2.66,22.38,8.2,32.18,5.53,9.8,13.6,17.98,23.35,23.65,7.95,4.46,16.9,6.79,25.98,6.79.68,0,1.35-.01,2.03-.04,8.06-.23,16.15-.95,24.12-2.11v-8.45c-18.64,2.65-34.81,4.34-47.86-3.39-9.19-5.44-16.61-13.36-21.43-22.9-4.83-9.53-6.82-20.19-5.77-30.86,2.12-24.82,18.61-46.28,43.04-56.03,10.54-2.24,21.28-3.17,32.03-2.8v-8.28c-11.42-.33-22.84.71-34.03,3.17Z"/>
      <path class="cls-1" d="M209.19,963.83l1.27-.47c20.03-7.44,40.74-15.14,61.2-32.71,12.38-10.51,25.76-23.39,37.55-34.75l2.08-1.99c11.92-11.46,23.57-22.6,35.05-32.84,6.67-5.73,13.74-11.12,21.01-16.04,16.01-10.87,34.15-23.19,37.78-45.99l.02-.16-.02-1.03c-3.25-23.7-27.53-33.96-51.01-43.89l-.55-.23c-9.13-3.58-18.09-7.84-26.58-12.6-5.5-3.41-10.63-7.23-14.92-10.52l-.74-.57c-15.55-11.68-30.24-22.72-53.47-18.24-25.49.69-31.18,24.36-36.21,45.28l-.06.23v.37c-2.53,10.41-5.15,21.14-10.1,28.34-4.61,6.72-14.54,12.78-24.15,18.63l-1.86,1.14c-11.18,6.75-25.1,15.15-35.35,26.45-6.69,7.92-12.52,16.58-17.32,25.74l-.39.67c-3.67,7.01-8.08,13.67-13.1,19.78-3.47,3.49-7.26,6.72-11.28,9.64l-.41.31c-7.45,5.87-15.9,12.52-22.11,21.36-6.89,9.64-11.45,20.73-15.88,31.47-5.63,13.56-10.95,26.38-19.33,31.37-10.74,6.31-27.7,6.55-50.33.76v8.6c23.81,5.8,42.15,5.09,54.53-2.14,10.75-6.29,16.57-20.37,22.74-35.27l.06-.16c4.25-10.24,8.64-20.83,14.93-29.74,5.68-8.02,14.01-14.55,20.7-19.79l.11-.08c4.35-3.18,8.47-6.75,12.25-10.62l.1-.12c5.41-6.47,10.15-13.53,14.07-20.93l.96-1.67c4.46-8.44,9.82-16.41,15.89-23.65,9.06-10,21.56-17.66,32.59-24.42l.85-.52c11.11-6.67,22.6-13.57,28.48-22.08,5.9-8.53,8.7-20.09,11.42-31.27l.12-.49c4.96-20.67,9.25-38.53,28.51-38.91h.35l.39-.04c19.97-3.94,33.33,6.12,47.51,16.81l.55.39c4.92,3.69,10,7.5,15.65,10.95,8.88,5.06,18.21,9.52,27.69,13.23l.23.1c21.19,8.93,43.09,18.16,46.09,36.81-3.14,18.38-17.52,28.47-34.17,40.14l-1.48,1.05c-6.94,4.76-13.7,9.96-20.12,15.48-11.99,10.71-24.07,22.24-35.32,33.09l-6.18,5.89c-11.61,11.06-22.58,21.51-33.12,30.46-19.37,16.53-39.38,23.97-58.72,31.17l-.29.11c-14.58,5.42-28.35,10.54-41.73,19.14-15.5,9.96-31.56,23.86-43.99,37.64h11.12c11.06-11.38,24.35-22.45,37.23-30.65,12.34-7.97,25.38-12.86,39.19-18.05Z"/>
      <path class="cls-1" d="M934.93,1006.44v-.03c0-5.86,1.52-11.66,4.32-16.7.86-1.39,2.17-2.4,3.7-2.89,7.57,2.75,11.02,12.31,11.02,20.16,0,1.97-.21,3.82-.59,5.54h5.9c.32-1.81.5-3.71.51-5.7,0-9.95-4.82-22.21-15.33-25.6l-1.23-.44-1.28.34c-3.13.81-5.8,2.76-7.55,5.57-3.39,5.97-5.2,12.76-5.21,19.62-.02,2.1.19,4.18.59,6.21h5.82c-.47-1.99-.71-4.03-.68-6.09Z"/>
      <path class="cls-1" d="M717.4,970.96c-1.23,3.45-2.9,6.72-4.93,9.68-6.02,8.24-18.54,20.84-32.59,31.89h13.01c11.08-9.44,20.68-19.36,26.38-27.12,2.32-3.44,4.2-7.17,5.59-11.03l.35-.9c1.86-5.39,4.56-10.42,7.98-14.9,9.06-11.13,19.99-15.54,31.5-20.19,9.18-3.4,17.88-7.99,25.88-13.65l.12-.09c7.76-6.42,15.01-13.56,21.52-21.18,17.93-19.79,34.87-38.48,61.17-21.21,4.5,2.93,9.39,10.27,12.6,15.09,2.51,3.94,5.32,7.74,8.36,11.3,15.54,17.95,30.68,25.22,51.58,31.71l5.47,1.67c10.6,3.16,16.44,4.9,22.59,12.86,5.51,7.06,14.86,35.22,16.28,57.63h8.31c-1.42-24.87-11.92-55.03-17.99-62.84-7.75-9.97-15.72-12.37-26.8-15.71l-2.17-.65c-1.12-.32-2.14-.64-3.17-.98-19.53-6.09-33.61-12.83-47.78-29.21-2.6-3.11-5.03-6.41-7.26-9.84l-1.14-1.65c-4.44-6.39-9.03-12.99-14.41-16.41-32.13-21.14-53.27,2.15-71.95,22.74-6.16,7.21-12.99,13.93-20.31,19.98-7.4,5.23-15.46,9.45-23.97,12.56l-.46.2c-11.88,4.99-24.17,10.14-34.41,22.65-3.92,5.23-7.02,11.01-9.19,17.12l-.18.47Z"/>
      <path class="cls-1" d="M112.87,854.09c-4.99,6.36-12.58,12.63-19.94,18.71l-.87.73c-8,6.46-18.95,15.31-26.92,25.62-3.19,4.38-6.07,9.05-8.51,13.8l-.81,1.42c-4.74,8.76-9.63,17.81-15.89,22.09-9.68,6.63-22.93,8.38-39.37,5.21-.19-.04-.38-.08-.56-.12v8.91c18.19,3.23,33.15.96,44.45-6.8,7.83-5.35,13.23-15.27,18.47-24.86l.06-.11c2.47-4.93,5.36-9.69,8.56-14.1,7.13-9.29,16.84-17.19,25.4-24.17l.64-.52c8.28-6.78,16.11-13.19,21.6-20.3,11.54-14.81,24.75-40.88,26-56.1v-.16c0-.45.03-.92.06-1.4.03-.55.06-1.11.06-1.7-.24-6.3-1.14-12.59-2.67-18.61l-.14-.68c-2.04-9.58-4.15-19.48-.32-28.6,7.73-18.31,20.06-20.79,37.12-24.22h.04c7.19-1.23,14.34-3.02,21.34-5.36,7.28-2.78,14.31-6.29,20.88-10.43l1.28-.75c7.35-4.31,14.94-8.76,22.91-9.49h.51l.29-.09c28.41-8.74,51.32,7.02,73.55,22.32,19.58,13.38,39.83,27.21,64.23,25.45,9.93-.77,20.04-6.38,29.79-11.78l.33-.18c12.86-7.15,26.16-14.54,37.55-9.82,5.99,2.49,13.31,7.5,16.92,24.21-2.49,13.35-10.25,21.34-17.76,29.07l-.95,1c-7.83,7.32-13.86,16.53-17.46,26.62l-.27.58c-2.94,6.97-5.97,14.18-11.8,20.17-7.59,7.63-19.32,12.37-30.67,16.96l-.77.31c-6.32,2.4-12.54,5.23-18.56,8.45-20.74,11.93-39.22,30.39-58.79,49.94l-.32.32c-18.31,18.31-37.24,37.24-58.77,50.96-12.29,7.84-25.68,13.28-38.68,18.5l-6.61-7.61,3.59,8.71c-11.02,4.43-21.53,8.89-29.94,14.24-7.56,4.86-17.85,13.22-27.27,22.11h12.14c7-6.16,14.01-11.64,19.47-15.16,7.87-5.04,18.09-9.2,28.91-13.61l1.99-.79c12.87-5.19,27.45-11.07,40.77-19.52,22.03-14.04,41.28-33.2,59.9-51.73l.53-.53c19.18-19.2,37.29-37.34,57.18-48.7,5.68-3.07,11.6-5.78,17.62-8.07h.28s.07-.04.07-.04l4.92,5.91-2.72-6.79c11.55-4.65,23.27-9.63,31.64-18.15,6.93-7,10.48-15.33,13.61-22.67l.06-.15c1.86-4.95,4.23-9.73,7.04-14.21,2.97-4.05,6.29-7.89,9.93-11.45,8.42-8.7,17.12-17.7,19.93-33.76l.4-.95-.38-1.04c-4.36-21.27-14.62-27.8-21.95-30.86-14.88-6.26-29.78,1.95-44.2,9.96l-.44.12-.32.18c-9.45,5.23-18.38,10.18-26.45,10.79-21.5,1.52-39.7-10.91-58.95-24.08l-.15-.1c-23.69-16.22-48.19-32.99-79.98-23.44-9.91.97-18.28,5.93-27.11,11.17l-.62.35c-6.01,3.81-12.41,7.03-19.04,9.58-5.95,1.92-12.11,3.45-18.36,4.55l-1.93.4c-17.27,3.43-33.59,6.67-43,29.09-4.93,11.62-2.37,23.28-.12,33.55l.23,1.11.03.11c1.67,6.2,2.42,12.59,2.25,18.9-1.02,13.36-13.56,37.92-24.17,51.59Z"/>
      <path class="cls-1" d="M830.87,937.06c4.98-7.84,9.4-14.91,12.99-21.8,6.19-3.16,11.2-4.1,15.28-2.86,7.92,2.47,13.45,13.55,19.33,25.34.69,1.29,1.39,2.61,2.1,3.97l1.7,3.29c11.32,21.54,12.31,28.72,11.95,52.76,0,1.95,0,3.96-.15,5.9v2.47c-.09,2.13-.17,4.27-.21,6.4h8.14c.05-2.02.12-4.09.2-6.21l.3-8.5c.33-25.79-.75-33.52-12.94-56.73-.28-.53-.56-1.06-.84-1.59-.49-.94-.98-1.88-1.46-2.75l-1.56-3.02c-6.97-13.82-12.99-25.76-24.25-29.29-6.69-2.04-14.16-.69-22.79,4.11l-1.19.61-.58,1.12c-3.44,6.78-7.91,13.88-12.64,21.38l-.61.97c-15.46,24.47-32.59,51.6-24.46,79.91h9.04c-8.59-26.03,7.86-52.07,22.64-75.47Z"/>
      <path class="cls-1" d="M95.37,992.64l.21.18c4.02,3.03,9,4.71,14.03,4.72,12.88,0,25.5-10.48,37.69-20.6l.7-.57c6.04-5.46,12.67-10.29,19.71-14.35,7.66-3.46,15.7-6.16,23.96-8.05l.78-.21c11.2-2.95,23.9-6.3,36.44-13.04,12.77-6.87,24.6-17.21,35.03-26.32l4.96-4.15c2.06-1.81,4.26-3.65,6.39-5.43l.73-.61c3.66-3.06,7.42-6.07,10.64-8.63l2.77-2.27c10.96-8.42,21.57-17.53,31.55-27.08l1.48-1.46c21.86-21.81,51.8-51.68,42.29-75.29-4.87-12.17-19.54-19.62-33.72-26.83l-2.51-1.27c-3.91-1.98-7.61-3.85-10.91-5.81-4.08-2.4-7.94-5.04-11.55-7.53-12.49-8.65-25.41-17.58-40.32-11.46l-.47.21c-14.52,8.02-15.5,20.11-16.44,31.82-.56,6.74-1.14,13.71-4.42,20.39-7.25,14.78-23.51,22.51-40.79,30.64h-.21l-.4.19c-14.25,6.67-28.98,13.56-39.89,25.07-7.09,7.41-11.36,17.29-15.16,26.08-3.06,7.81-7.08,15.25-11.96,22.09-4.79,5.51-10.23,10.44-16.15,14.67-6.02,4.22-11.45,9.22-16.15,14.87l-.07.09c-9.83,13.26-15.69,29.83-15.69,44.28-.15,8.73,2.14,17.31,6.64,24.8l.13.21.68.68ZM110.26,927.71c4.22-5.03,9.09-9.48,14.5-13.25,6.5-4.66,12.44-10.11,17.64-16.18l.1-.13c5.36-7.4,9.78-15.48,13.08-23.92,3.94-8.9,7.66-17.31,13.49-23.54,9.93-10.42,24.05-16.99,37.72-23.35,18.74-8.81,36.44-17.13,45.04-34.66,3.84-7.88,4.52-15.57,5.17-22.99l.02-.42c.88-10.68,1.59-19.13,11.91-24.95,10.65-4.31,20.55,2.52,32,10.42l1.47,1.02c3.48,2.42,7.08,4.93,10.88,7.17,3.75,2.14,7.99,4.33,13.21,6.98,13.09,6.63,26.63,13.48,30.48,22.86,7.39,18.39-20.34,46.17-40.56,66.44l-1.41,1.31c-9.73,9.36-20.1,18.26-30.83,26.48-4.1,3.25-8.92,7.09-13.58,10.98-3.84,3.2-7.8,6.58-11.77,10.06-10.25,8.92-21.86,19.03-33.93,25.52-11.87,6.38-23.89,9.54-34.51,12.32l-.4.11c-8.93,2.02-17.69,4.97-26.04,8.77l-.17.09c-7.76,4.45-15.04,9.76-21.63,15.77l-.48.39c-14,11.58-28.48,23.55-40.59,15.77-10.31-18.33-2.87-42.81,9.18-59.06Z"/>
      <path class="cls-1" d="M523.38,837.09c1.08.19,2,.2,2.85.2,20.77,0,51.66-18.47,58.1-40.02,3.97-13.25-1.79-33.46-13.11-46-8.03-8.98-17.91-12.91-27.82-11.07-27.99,3.54-51.96,38.33-51.96,64.38v.7c.22,8.72,3.77,29.26,31.95,31.82ZM499.73,804.62c0-22.3,21.03-53.17,44.69-56.17l.51-.03c8.78-1.62,15.78,3.72,20.09,8.45,7.54,8.66,11.9,19.75,12.29,31.19.03,2.35-.29,4.69-.96,6.93-5.42,18.15-35.25,35.47-52.14,33.99-15.71-1.48-24.18-9.7-24.49-23.75v-.6Z"/>
      <path class="cls-1" d="M23.87,859.94c19.75-5.47,35.4-17.69,41.87-32.69,5.14-11.99,4.22-25.14-2.7-38.1-8.19-14.07-17.9-27.31-28.86-39.35-7.92-8.71-18.02-13.61-26.93-17.94l-1.2-.6-.1-.05c-2.02-.88-4.01-1.86-5.94-2.92v6.59c1.14.57,2.3,1.11,3.46,1.61l1.2.57c8.43,4.1,17.98,8.74,25.19,16.67,10.69,11.72,20.16,24.61,28.09,38.26,6.03,11.28,6.87,22.71,2.45,33.05-5.82,13.44-20.08,24.45-38.13,29.45-7.26,2.03-14.74,2.59-22.26,1.79v5.71c2.17.21,4.34.32,6.5.32,5.85,0,11.67-.78,17.37-2.37Z"/>
      <path class="cls-1" d="M905.41,822.92c5.14,20.62,29.37,58.61,49.5,66.48,9.84,3.97,20.37,3.15,31.53,2.28l.61-.02c7.35-.87,14.81-.97,22.09-.3,1.19.17,2.31.34,3.4.51v-8.4c-.76-.12-1.52-.23-2.28-.34h-.1c-7.94-.73-15.98-.64-23.85.26-10.34.85-20.11,1.66-28.36-1.65-17.94-7.06-39.75-41.83-44.49-60.77-3.49-13.93.2-28.6,3.78-42.79l.02-.07c2.9-9.79,4.66-19.93,5.26-30.13v-.18s-.01-.18-.01-.18c-1.53-12.34-8.9-20.67-16.04-28.73l-.41-.46c-6.17-6.91-12-13.44-13.76-22.17,3-4.86,5.88-9.68,9.27-15.51l.41-.66c13.41-23.07,27.28-46.92,52.93-55.38l.15-.06c9.88-4.18,17.69-4.93,23.87-2.31,10.91,4.55,16.67,19.25,22.78,34.82l.21.54c3.19,8.01,6.47,16.22,10.62,23.54v-19.33c-1-2.38-1.94-4.79-2.81-7.22l-.27-.65c-6.37-16.44-12.95-33.45-27.25-39.46-8.38-3.54-18.27-2.8-30.22,2.28-28.51,9.54-43.28,34.96-57.57,59.55-3.95,6.81-6.87,11.74-10.06,16.76l-.81,1.47.27,1.35c1.74,12.02,9.06,20.21,16.13,28.13l.1.12c6.63,7.43,12.9,14.45,14.17,23.94-.2,8.94-2.54,18.15-5.02,27.9-3.85,15.19-7.83,30.9-3.79,46.85Z"/>
      <path class="cls-1" d="M755.35,881.38l.03-.9-.02-.26c-.28-2.13-1.06-4.19-2.26-5.98-1.19-1.78-2.81-3.28-4.67-4.35l-.1-.05c-2.77-1.39-5.75-2.16-8.85-2.27-3.06-.11-6.17.46-8.97,1.62l-1.57.63-.74,1.72c-.29.66-.67,1.27-1.16,1.86-1.59,2-2.54,4.4-2.74,6.94v.14c-.01.9.13,1.8.4,2.58.93,3.25,2.96,6.12,5.72,8.08.18.13.38.25.57.37l-.52,1.11c-.43.8-.9,1.59-1.4,2.32-1.43,2.08-3.06,4.43-2.02,7.43.78,2.69,2.47,5.05,4.77,6.66,2.08,1.46,4.57,2.24,7.1,2.24.26,0,.52,0,.78-.03h.88c2.85,0,5.64-.99,7.85-2.81,2.23-1.83,3.76-4.4,4.3-7.23l.04-.19-.02-.77c-.26-1.7-.91-3.33-1.89-4.74-.92-1.32-2.14-2.43-3.52-3.25,1.08-.54,2.09-1.21,3.02-2,2.65-2.28,4.43-5.44,5-8.89ZM744.63,904.15c-1.2.95-2.68,1.47-4.23,1.46h-.15s-.15.02-.15.02c-1.64.24-3.31-.13-4.7-1.01-1.39-.89-2.43-2.25-2.93-3.91-.1-.28.43-1.11,1.32-2.4.42-.62.81-1.26,1.19-1.91,3.09-.89,6.35-.64,9.28.74.71.4,1.33.96,1.8,1.63.41.59.7,1.26.86,1.95-.38,1.35-1.18,2.55-2.28,3.42ZM746.49,885.95c-1.66,1.39-3.76,2.15-5.93,2.16h-.23c-2.22.28-4.47-.25-6.34-1.47-1.87-1.22-3.26-3.07-3.94-5.26-.09-.25-.14-.52-.15-.79.18-1.35.73-2.62,1.61-3.69.68-.83,1.25-1.75,1.7-2.72,1.87-.68,3.88-1.02,5.87-.95,2.25.07,4.4.61,6.42,1.6,1.07.62,2,1.48,2.7,2.5.71,1.04,1.17,2.24,1.35,3.48l.02.17c-.46,1.93-1.54,3.68-3.08,4.96Z"/>
      <path class="cls-1" d="M10.54,813.91l.21-.38c4.07-10-2.23-22.29-10.74-29.86v8.24c4.74,5.74,7.69,12.94,5.62,18.88-1.61,1.41-3.51,2.43-5.62,3.06v5.96c3.72-.82,7.19-2.6,10.05-5.26l.49-.63Z"/>
      <path class="cls-1" d="M456.82,966.74l-.71-.93c-3.85-5.34-8.13-10.43-12.73-15.15l-2.32-2.32c-11.53-11.41-24.61-24.34-39.49-29.99-17.49-6.64-34.01-2-50.58,14.26-6.6,7.09-12.78,14.72-18.33,22.63l-2.65,3.56c-6.72,9.67-12.6,20.01-17.46,30.73l-.09.2c-3.96,8.07-7.8,15.88-12.31,22.79h9.83c3.59-6.1,6.81-12.64,10.1-19.35l.34-.71c4.58-10.04,10.09-19.72,16.33-28.74l2.67-3.58c5.34-7.59,11.26-14.9,17.52-21.64,31.31-30.84,56.33-6.01,78.43,15.92l2.02,2c4.47,4.63,8.66,9.64,12.48,14.97l1.43,1.83c4,5.41,8.39,10.62,13.06,15.52,10.38,10.45,20.94,18.15,33.02,23.76h26.31c-21.75-4.93-37.8-13.9-53.36-29.49-4.82-5.13-9.35-10.6-13.5-16.3Z"/>
      <path class="cls-1" d="M429.33,972.8c-11.53-14.06-25.05-19.18-40.2-15.22l-2.26.62-.64,2.25c-2.22,8.41-3.79,17.07-4.67,25.67-1.32,9.9-2.58,19.36-5.99,26.4h9.13c2.86-7.53,4.04-16.36,5.27-25.57.81-7.37,2.1-14.77,3.84-22,25.39-4.72,39.04,25.63,48.14,47.57h13.13c-1.69-.52-3.39-1.05-5.12-1.61-4.75-11.39-11.21-26.63-20.63-38.11Z"/>
    </g>
  </g>
</svg>