<?xml version="1.0" encoding="UTF-8"?>
<svg id="Layer_2" data-name="Layer 2" xmlns="http://www.w3.org/2000/svg" viewBox="0 0 240.94 155.91">
  <defs>
    <style>
      .cls-1 {
        fill: #ee2c39;
      }

      .cls-1, .cls-2 {
        stroke-width: 0px;
      }

      .cls-3 {
        opacity: .32;
      }

      .cls-2 {
        fill: #cb2026;
      }
    </style>
  </defs>
  <g id="Layer_1-2" data-name="Layer 1">
    <rect class="cls-1" width="240.94" height="155.91"/>
    <g class="cls-3">
      <path class="cls-2" d="M174.65,134.83c-1.87-.17,1.92,3.15,4.97,5.66,1.86,1.53,3.44,2.75,3.31,2.7-.35-.13-11.98-.31-11.98-.31l1.87,8.3,19.18-4.26s-6.26-4.33-8.92-6.43c-.17-.14-.33-.26-.47-.38-2.3-1.91,17.28-4.32,19.43-5.37,1.92-.93-24.37.36-27.38.09Z"/>
      <path class="cls-2" d="M197.21,142.25c.87.65,3.19,2.74,3.19,2.74l-.06-4.5-.04-2.55h-3.09s.35,1.38.66,2.55h-1.7c-.88-.62-1.65-1.08-1.49-.61.04.11.09.32.16.61.55,2.33,1.95,9.65,2.1,8.98.19-.84-.59-7.88.27-7.23Z"/>
      <path class="cls-2" d="M141.32,149c0-.08-.36-.88-.82-1.91-.9-2.01-2.22-4.89-2.22-4.89l-4.15,3.35,6.37,8.09,1.17,1.48s.84-5.33,1.29-7.15c.36-1.46,4.7,4.9,6.99,7.93h.76c-1.66-3.59-6.42-12.49-6.93-13.86-.66-1.76-2.44,7.18-2.46,6.95Z"/>
      <path class="cls-2" d="M184.19,95.85s6.32-2.58,6.48-2.73c.16-.14-4.38,7.18-2.79,6.38s16.23-5.69,14.99-5.8c-1.39-.12-12.6,2.73-11.74,1.19.86-1.55,3.72-5.77,3.72-5.77l-11.37,1.74.71,4.98Z"/>
      <path class="cls-2" d="M196.7,103.28l-13.65,3.14s6.8,4.37,9.1,6.05c2.3,1.69-12.17,3.24-13.55,4.08-1.23.75,18.72.32,21.12.64,2.4.31-8.96-7.46-8.66-7.35s9.33.58,9.33.58l-3.69-7.13Z"/>
      <path class="cls-2" d="M209.74,60.23c-.27-1.2-2.21,4.43-2.2,4.28,0-.15-1.37-4.67-1.37-4.67l-2.98,1.8,4.03,6.86s1.02-3.37,1.47-4.51c.22-.55,1.11.86,2.06,2.53v3.73h2.39c-.36-1.3-1.52-4.53-2.39-7-.51-1.46-.92-2.65-1.01-3.02Z"/>
      <path class="cls-2" d="M100.86,111.38l-4.43-.18-.1,1.94s2.58-.51,2.65-.55c.07-.04-2.18,2.39-1.52,2.21.66-.18,6.55-.95,6.09-1.08-.52-.15-4.96.1-4.52-.42.44-.52,1.83-1.9,1.83-1.9Z"/>
      <path class="cls-2" d="M94.41,146.63c.51.43,4.35,4.79,4.2,4.34-.16-.5-2.79-3.96-2.13-3.89.66.07,2.54.44,2.54.44l-2.27-3.68-1.62.97s1.82,1.81,1.89,1.84c.07.04-3.12-.46-2.62-.03Z"/>
      <path class="cls-2" d="M96.18,123.94c.66,1.46,4.97,15.27,4.98,14.03.01-1.4-2.64-12.09-1.47-11.45,1.16.64,4.37,2.88,4.37,2.88l-1.86-11.01-3.57,1.39s2.2,5.89,2.31,6.04c.11.14-5.42-3.34-4.76-1.87Z"/>
      <path class="cls-2" d="M73.31,133.89c.75.57,5.88,5.73,7.03,6.6.17.13.25.16.22.07,0-.02-.02-.05-.03-.07-.52-1-4.85-6.12-3.8-6.06,1.08.06,4.18.48,4.18.48l-4.04-5.78-2.55,1.74s3.13,2.78,3.25,2.83c.12.05-5.13-.46-4.26.2Z"/>
      <path class="cls-2" d="M71.07,149c0-.08-.36-.88-.82-1.91-.9-2.01-2.22-4.89-2.22-4.89l-4.15,3.35,6.37,8.09,1.17,1.48s.84-5.33,1.29-7.15c.36-1.46,4.7,4.9,6.99,7.93h.76c-1.66-3.59-6.42-12.49-6.93-13.86-.66-1.76-2.44,7.18-2.46,6.95Z"/>
      <path class="cls-2" d="M81.56,146.86c-.52-.41-1.91-1.73-1.91-1.73l-.05,4.32,1.89.04s-.57-2.5-.62-2.57c-.04-.07,2.39,2.06,2.19,1.42s-1.12-6.35-1.24-5.9c-.13.51.25,4.83-.27,4.42Z"/>
      <path class="cls-2" d="M211.34,88.82s-.26.95-.59,2.18c-.59,2.19-1.4,5.25-1.4,5.39.01.22-2.97-7.11-3.36-5.21-.39,1.9-5.9,18.52-5.01,17.31,1-1.36,5.94-13.75,6.63-12.3.69,1.45,2.26,5.92,2.26,5.92l.87-1.78,5.08-10.36-4.49-1.15Z"/>
      <path class="cls-2" d="M113.03,81.84c-.85.34-8.58,2.26-7.95,2.37.71.12,6.6-.89,6.09-.13-.51.76-2.15,2.81-2.15,2.81l5.92-.43-.16-2.59s-3.36,1.07-3.45,1.14,2.55-3.51,1.7-3.17Z"/>
      <path class="cls-2" d="M124.44,69.64c.04.11.09.32.16.61.55,2.33,1.95,9.65,2.1,8.98.19-.84-.59-7.88.27-7.23s3.19,2.74,3.19,2.74l-.06-4.5-.04-2.55h-3.09s.35,1.38.66,2.55h-1.7c-.88-.62-1.65-1.08-1.49-.61Z"/>
      <path class="cls-2" d="M93.83,133.65l-4.65-2.61-5.45,9.46-.63,1.1s2.87-.65,5.12-1.1h2.31c-.15,1.78-5.62,9.54-5.98,10.78-.3,1.02,6.48-7,9.82-10.78.79-.9,1.39-1.55,1.66-1.8,1.39-1.26-7.58.41-7.37.3.2-.11,5.18-5.35,5.18-5.35Z"/>
      <path class="cls-2" d="M117.11,85.16c1.4,0,12.05-2.82,11.43-1.65-.62,1.17-2.81,4.41-2.81,4.41l10.98-2.03-1.44-3.55s-5.86,2.29-6,2.41c-.14.11,3.25-5.47,1.8-4.79-1.45.68-15.19,5.21-13.95,5.2Z"/>
      <path class="cls-2" d="M54.19,69.64c.04.11.09.32.16.61.55,2.33,1.95,9.65,2.1,8.98.19-.84-.59-7.88.27-7.23s3.19,2.74,3.19,2.74l-.06-4.5-.04-2.55h-3.09s.35,1.38.66,2.55h-1.7c-.88-.62-1.65-1.08-1.49-.61Z"/>
      <path class="cls-2" d="M221.43,87.13c1.04.82-6.75-13.57-7.41-15.33-.66-1.76-2.44,7.18-2.46,6.95,0-.08-.36-.88-.82-1.91-.9-2.01-2.22-4.89-2.22-4.89l-4.15,3.35,6.37,8.09,1.17,1.48s.84-5.33,1.29-7.15c.45-1.82,7.06,8.49,8.23,9.41Z"/>
      <path class="cls-2" d="M46.86,85.16c1.4,0,12.05-2.82,11.43-1.65-.62,1.17-2.81,4.41-2.81,4.41l10.98-2.03-1.44-3.55s-5.86,2.29-6,2.41,3.25-5.47,1.8-4.79c-1.45.68-15.19,5.21-13.95,5.2Z"/>
      <path class="cls-2" d="M187.36,85.16c1.4,0,12.05-2.82,11.43-1.65-.62,1.17-2.81,4.41-2.81,4.41l10.98-2.03-1.44-3.55s-5.86,2.29-6,2.41,3.25-5.47,1.8-4.79c-1.45.68-15.19,5.21-13.95,5.2Z"/>
      <path class="cls-2" d="M213.27,109.44l-2.52-4.09-.59-.96-2.23,1.34s2.5,2.48,2.6,2.53c.1.05-4.29-.64-3.59-.04.4.34,2.3,2.45,3.82,4.08,1.13,1.21,2.04,2.15,1.95,1.89-.11-.35-1.12-1.78-1.95-3.07v-2.13c1.1.19,2.52.46,2.52.46Z"/>
      <path class="cls-2" d="M108.35,116.55c-1.23.75,18.72.32,21.12.64,2.4.31-8.96-7.46-8.66-7.35.3.12,9.33.58,9.33.58l-3.69-7.13-13.65,3.14s6.8,4.37,9.1,6.05c2.3,1.69-12.17,3.24-13.55,4.08Z"/>
      <path class="cls-2" d="M194.69,69.64c.04.11.09.32.16.61.55,2.33,1.95,9.65,2.1,8.98.19-.84-.59-7.88.27-7.23s3.19,2.74,3.19,2.74l-.06-4.5-.04-2.55h-3.09s.35,1.38.66,2.55h-1.7c-.88-.62-1.65-1.08-1.49-.61Z"/>
      <path class="cls-2" d="M183.28,81.84c-.85.34-8.58,2.26-7.95,2.37.71.12,6.6-.89,6.09-.13-.51.76-2.15,2.81-2.15,2.81l5.92-.43-.16-2.59s-3.36,1.07-3.45,1.14,2.55-3.51,1.7-3.17Z"/>
      <path class="cls-2" d="M164.07,133.65l-4.65-2.61-5.45,9.46-.63,1.1s2.87-.65,5.12-1.1h2.31c-.15,1.78-5.62,9.54-5.98,10.78-.3,1.02,6.48-7,9.82-10.78.79-.9,1.39-1.55,1.66-1.8,1.39-1.26-7.58.41-7.37.3.2-.11,5.18-5.35,5.18-5.35Z"/>
      <path class="cls-2" d="M141.32,78.76c0-.08-.36-.88-.82-1.91-.9-2.01-2.22-4.89-2.22-4.89l-4.15,3.35,6.37,8.09,1.17,1.48s.84-5.33,1.29-7.15c.45-1.82,7.06,8.49,8.23,9.41,1.04.82-6.75-13.57-7.41-15.33-.66-1.76-2.44,7.18-2.46,6.95Z"/>
      <path class="cls-2" d="M181.58,155.26c-.09.07,2.55-3.51,1.7-3.17-.85.34-8.58,2.26-7.95,2.37.71.12,6.6-.89,6.09-.13-.24.36-.73,1-1.18,1.58h4.9l-.11-1.79s-3.36,1.07-3.45,1.14Z"/>
      <path class="cls-2" d="M192.79,121.83c-1.69.54-16.91,3.13-15.7,3.43,1.36.33,12.87-.76,11.78.63-1.09,1.39-4.56,5.13-4.56,5.13l11.5.03.07-5.03s-6.64,1.58-6.83,1.7c-.18.12,5.43-6.42,3.73-5.88Z"/>
      <path class="cls-2" d="M166.14,101.81s5.64,2.78,5.82,2.81c.18.03-6.23,1.29-4.75,1.9,1.48.61,14.09,7.71,13.24,6.8-.95-1.02-10.21-6.99-8.92-7.33,1.29-.33,5.15-.89,5.15-.89l-8.9-6.74-1.65,3.46Z"/>
      <path class="cls-2" d="M175.01,95.61c.38.38,4.4,2.31,3.76,2.55-.64.24-2.52.79-2.52.79l3.79,2.29,1.02-1.65s-2.51-.8-2.59-.79c-.08,0,3.06-1.04,2.4-1.2-.67-.16-6.2-2.33-5.86-1.99Z"/>
      <path class="cls-2" d="M157.74,155.91h9.21c1.43-1.15,2.61-2.09,2.61-2.09l-9.1-1.84-2.71,3.93Z"/>
      <path class="cls-2" d="M166.43,123.94c.66,1.46,4.97,15.27,4.98,14.03.01-1.4-2.64-12.09-1.47-11.45,1.16.64,4.37,2.88,4.37,2.88l-1.86-11.01-3.57,1.39s2.2,5.89,2.31,6.04c.11.14-5.42-3.34-4.76-1.87Z"/>
      <path class="cls-2" d="M163.5,106.02c-.66,1.56-2.6,14.75-3.61,13.5-1.01-1.25-3.57-5.23-3.57-5.23l-2.98,13.18,4.63.08s.24-7.61.18-7.82c-.06-.21,4.54,6.23,4.47,4.29-.06-1.94,1.45-19.38.86-18Z"/>
      <path class="cls-2" d="M113.94,95.85s6.32-2.58,6.48-2.73-4.38,7.18-2.79,6.38,16.23-5.69,14.99-5.8c-1.39-.12-12.6,2.73-11.74,1.19s3.72-5.77,3.72-5.77l-11.37,1.74.71,4.98Z"/>
      <path class="cls-2" d="M143.02,109.44l-2.52-4.09-.59-.96-2.23,1.34s2.5,2.48,2.6,2.53c.1.05-4.29-.64-3.59-.04.4.34,2.3,2.45,3.82,4.08,1.13,1.21,2.04,2.15,1.95,1.89-.11-.35-1.12-1.78-1.95-3.07v-2.13c1.1.19,2.52.46,2.52.46Z"/>
      <path class="cls-2" d="M139.49,60.23c-.27-1.2-2.21,4.43-2.2,4.28s-1.37-4.67-1.37-4.67l-2.98,1.8,4.03,6.86s1.02-3.37,1.47-4.51c.22-.55,1.11.86,2.06,2.53v3.73h2.39c-.36-1.3-1.52-4.53-2.39-7-.51-1.46-.92-2.65-1.01-3.02Z"/>
      <path class="cls-2" d="M42.79,81.84c-.85.34-8.58,2.26-7.95,2.37.71.12,6.6-.89,6.09-.13-.51.76-2.15,2.81-2.15,2.81l5.92-.43-.16-2.59s-3.36,1.07-3.45,1.14,2.55-3.51,1.7-3.17Z"/>
      <path class="cls-2" d="M149.2,92.42c-.29-1.29-3.37,14.77-3.98,16.55-.61,1.78,6.44-4.02,6.31-3.82s-1.95,7.19-1.95,7.19l5.33.04.23-12.18s-4.03,3.59-5.53,4.71-.09-11.05-.41-12.49Z"/>
      <path class="cls-2" d="M171.1,111.38l-4.43-.18-.1,1.94s2.58-.51,2.65-.55c.07-.04-2.18,2.39-1.52,2.21.66-.18,6.55-.95,6.09-1.08-.52-.15-4.96.1-4.52-.42.44-.52,1.83-1.9,1.83-1.9Z"/>
      <path class="cls-2" d="M104.76,95.61c.38.38,4.4,2.31,3.76,2.55s-2.52.79-2.52.79l3.79,2.29,1.02-1.65s-2.51-.8-2.59-.79c-.08,0,3.06-1.04,2.4-1.2-.67-.16-6.2-2.33-5.86-1.99Z"/>
      <path class="cls-2" d="M146.97,134.43c1.08.06,4.18.48,4.18.48l-4.04-5.78-2.55,1.74s3.13,2.78,3.26,2.83c.12.05-5.13-.46-4.26.2.75.57,5.88,5.73,7.03,6.6.17.13.25.16.22.07,0-.02-.02-.05-.03-.07-.52-1-4.85-6.12-3.8-6.06Z"/>
      <path class="cls-2" d="M142.56,140.49h.33c-.36-1.3-1.52-4.53-2.39-7-.51-1.46-.92-2.65-1.01-3.02-.27-1.2-2.21,4.43-2.2,4.28,0-.15-1.37-4.67-1.37-4.67l-2.98,1.8,4.03,6.86s1.02-3.37,1.47-4.51c.22-.55,1.11.86,2.06,2.53v3.73h2.06Z"/>
      <path class="cls-2" d="M164.65,146.63c.51.43,4.35,4.79,4.2,4.34-.16-.5-2.79-3.96-2.13-3.89.66.07,2.54.44,2.54.44l-2.27-3.68-1.62.97s1.82,1.81,1.89,1.84c.07.04-3.12-.46-2.62-.03Z"/>
      <path class="cls-2" d="M141.09,88.82s-.26.95-.59,2.18c-.59,2.19-1.4,5.25-1.4,5.39.01.22-2.97-7.11-3.36-5.21-.39,1.9-5.9,18.52-5.01,17.31,1-1.36,5.94-13.75,6.63-12.3.69,1.45,2.26,5.92,2.26,5.92l.87-1.78,5.08-10.36-4.49-1.15Z"/>
      <path class="cls-2" d="M106.84,125.26c1.36.33,12.87-.76,11.78.63s-4.56,5.13-4.56,5.13l11.5.03.07-5.03s-6.64,1.58-6.83,1.7c-.18.12,5.43-6.42,3.73-5.88-1.69.54-16.91,3.13-15.7,3.43Z"/>
      <path class="cls-2" d="M127.37,121.41c-1.01.12,8.13,2.92,13.13,4.54,1.46.48,2.57.85,2.96,1.03,1.46.66-2-4.72-2.96-6.25v-.29c1.22.51,6.73,2.53,6.73,2.53l.56-5.3-7.29-.85-4.81-.56s3.18,4.36,4.16,5.96c.97,1.6-11-.99-12.47-.81Z"/>
      <path class="cls-2" d="M151.8,146.86c-.52-.41-1.91-1.73-1.91-1.73l-.05,4.32,1.89.04s-.57-2.5-.62-2.57c-.04-.07,2.39,2.06,2.19,1.42-.2-.64-1.12-6.35-1.24-5.9-.13.51.24,4.83-.27,4.42Z"/>
      <path class="cls-2" d="M87.49,155.91h9.21c1.43-1.15,2.61-2.09,2.61-2.09l-9.1-1.84-2.71,3.93Z"/>
      <path class="cls-2" d="M129.26,155c-.14.11,3.25-5.47,1.8-4.79-1.45.68-15.19,5.21-13.95,5.2,1.4,0,12.05-2.82,11.43-1.65-.26.49-.79,1.33-1.32,2.15h9.39l-1.35-3.31s-5.86,2.29-6,2.41Z"/>
      <path class="cls-2" d="M111.34,155.26c-.09.07,2.55-3.51,1.7-3.17-.85.34-8.58,2.26-7.95,2.37.71.12,6.6-.89,6.09-.13-.24.36-.73,1-1.18,1.58h4.9l-.11-1.79s-3.36,1.07-3.45,1.14Z"/>
      <path class="cls-2" d="M104.41,134.83c-1.87-.17,1.92,3.15,4.97,5.66,1.86,1.53,3.44,2.75,3.31,2.7-.35-.13-11.98-.31-11.98-.31l1.87,8.3,19.18-4.26s-6.26-4.33-8.92-6.43c-.17-.14-.33-.26-.47-.38-2.3-1.91,17.28-4.32,19.43-5.37,1.92-.93-24.37.36-27.38.09Z"/>
      <path class="cls-2" d="M126.97,142.25c.87.65,3.19,2.74,3.19,2.74l-.06-4.5-.04-2.55h-3.09s.35,1.38.66,2.55h-1.7c-.88-.62-1.65-1.08-1.49-.61.04.11.09.32.16.61.55,2.33,1.95,9.65,2.1,8.98.19-.84-.59-7.88.27-7.23Z"/>
      <path class="cls-2" d="M166.43,53.7c.66,1.46,4.97,15.27,4.98,14.03.01-1.4-2.64-12.09-1.47-11.45,1.16.64,4.37,2.88,4.37,2.88l-1.86-11.01-3.57,1.39s2.2,5.89,2.31,6.04-5.42-3.34-4.76-1.87Z"/>
      <path class="cls-2" d="M240.18,56.27c.2.11.47.27.76.46v-1.43c-1.32-.76-4.8-2.79-4.27-1.61.49,1.09,3.02,9.06,4.27,12.51v-2.6c-.68-3.48-1.51-7.75-.76-7.33Z"/>
      <path class="cls-2" d="M219.45,22.17c-.29-1.29-3.37,14.77-3.98,16.55-.61,1.78,6.44-4.02,6.31-3.82s-1.95,7.19-1.95,7.19l5.33.04.23-12.18s-4.03,3.59-5.53,4.71-.09-11.05-.41-12.49Z"/>
      <path class="cls-2" d="M240.94,41.54v-.42l-4.02-.17-.1,1.94s2.58-.51,2.65-.55c.07-.04-2.18,2.39-1.52,2.21.3-.08,1.64-.28,3-.49v-.68c-.91-.03-1.62-.11-1.43-.34.29-.34.98-1.05,1.43-1.5Z"/>
      <path class="cls-2" d="M234.32,63.4l-4.65-2.61-5.45,9.46-.63,1.1s2.87-.65,5.12-1.1h2.31c-.15,1.78-5.62,9.54-5.98,10.78-.3,1.02,6.48-7,9.82-10.78.79-.9,1.39-1.55,1.66-1.8,1.39-1.26-7.58.41-7.37.3.2-.11,5.18-5.35,5.18-5.35Z"/>
      <path class="cls-2" d="M183.28,11.59c-.85.34-8.58,2.26-7.95,2.37.71.12,6.6-.89,6.09-.13-.51.76-2.15,2.81-2.15,2.81l5.92-.43-.16-2.59s-3.36,1.07-3.45,1.14c-.09.07,2.55-3.51,1.7-3.17Z"/>
      <path class="cls-2" d="M194.85,18.88l-11.37,1.74.71,4.98s6.32-2.59,6.48-2.73c.16-.14-4.38,7.18-2.79,6.38,1.59-.79,16.23-5.69,14.99-5.8-1.39-.12-12.6,2.73-11.74,1.19.86-1.55,3.72-5.77,3.72-5.77Z"/>
      <path class="cls-2" d="M240.94,111.79v-.42l-4.02-.17-.1,1.94s2.58-.51,2.65-.55c.07-.04-2.18,2.39-1.52,2.21.3-.08,1.64-.28,3-.49v-.68c-.91-.03-1.62-.11-1.43-.34.29-.34.98-1.05,1.43-1.5Z"/>
      <path class="cls-2" d="M24.11,140.49c.79-.9,1.39-1.55,1.66-1.8,1.39-1.26-7.58.41-7.37.3.2-.11,5.18-5.35,5.18-5.35l-4.65-2.61-5.45,9.46-.63,1.1s2.87-.65,5.12-1.1h2.31c-.15,1.78-5.62,9.54-5.98,10.78-.3,1.02,6.48-7,9.82-10.78Z"/>
      <path class="cls-2" d="M164.07,63.4l-4.65-2.61-5.45,9.46-.63,1.1s2.87-.65,5.12-1.1h2.31c-.15,1.78-5.62,9.54-5.98,10.78-.3,1.02,6.48-7,9.82-10.78.79-.9,1.39-1.55,1.66-1.8,1.39-1.26-7.58.41-7.37.3.2-.11,5.18-5.35,5.18-5.35Z"/>
      <path class="cls-2" d="M24.16,76.38c.51.43,4.35,4.79,4.2,4.34-.16-.5-2.79-3.96-2.13-3.89s2.54.44,2.54.44l-2.27-3.68-1.62.97s1.82,1.81,1.89,1.84c.07.04-3.12-.46-2.62-.03Z"/>
      <path class="cls-2" d="M26.23,147.08c.66.07,2.54.44,2.54.44l-2.27-3.68-1.62.97s1.82,1.81,1.89,1.84c.07.04-3.12-.46-2.62-.03s4.35,4.79,4.2,4.34c-.16-.5-2.79-3.96-2.13-3.89Z"/>
      <path class="cls-2" d="M236.97,147.08c.66.07,2.54.44,2.54.44l-2.27-3.68-1.62.97s1.82,1.81,1.89,1.84c.07.04-3.12-.46-2.62-.03s4.35,4.79,4.2,4.34c-.16-.5-2.79-3.96-2.13-3.89Z"/>
      <path class="cls-2" d="M240.18,126.52c.2.11.47.27.76.46v-1.43c-1.32-.76-4.8-2.79-4.27-1.61.49,1.09,3.02,9.06,4.27,12.51v-2.6c-.68-3.48-1.51-7.75-.76-7.33Z"/>
      <path class="cls-2" d="M14.42,42.13l.23-12.18s-4.03,3.59-5.53,4.71-.09-11.05-.41-12.49c-.29-1.29-3.37,14.77-3.98,16.55-.61,1.78,6.44-4.02,6.31-3.82s-1.95,7.19-1.95,7.19l5.33.04Z"/>
      <path class="cls-2" d="M3.06,63.64c.75.57,5.88,5.73,7.03,6.6.17.13.25.16.22.07,0-.02-.02-.05-.03-.07-.52-1-4.85-6.12-3.8-6.06,1.08.06,4.18.48,4.18.48l-4.04-5.78-2.55,1.74s3.13,2.78,3.26,2.83c.12.05-5.13-.46-4.26.2Z"/>
      <path class="cls-2" d="M30.61,41.14l-4.43-.18-.1,1.94s2.58-.51,2.65-.55c.07-.04-2.18,2.39-1.52,2.21s6.55-.95,6.09-1.08c-.52-.15-4.96.1-4.52-.42.44-.52,1.83-1.9,1.83-1.9Z"/>
      <path class="cls-2" d="M23.58,63.4l-4.65-2.61-5.45,9.46-.63,1.1s2.87-.65,5.12-1.1h2.31c-.15,1.78-5.62,9.54-5.98,10.78-.3,1.02,6.48-7,9.82-10.78.79-.9,1.39-1.55,1.66-1.8,1.39-1.26-7.58.41-7.37.3.2-.11,5.18-5.35,5.18-5.35Z"/>
      <path class="cls-2" d="M3.06,133.89c.75.57,5.88,5.73,7.03,6.6.17.13.25.16.22.07,0-.02-.02-.05-.03-.07-.52-1-4.85-6.12-3.8-6.06,1.08.06,4.18.48,4.18.48l-4.04-5.78-2.55,1.74s3.13,2.78,3.26,2.83c.12.05-5.13-.46-4.26.2Z"/>
      <path class="cls-2" d="M14.42,112.37l.23-12.18s-4.03,3.59-5.53,4.71-.09-11.05-.41-12.49c-.29-1.29-3.37,14.77-3.98,16.55-.61,1.78,6.44-4.02,6.31-3.82s-1.95,7.19-1.95,7.19l5.33.04Z"/>
      <path class="cls-2" d="M42.79,11.59c-.85.34-8.58,2.26-7.95,2.37.71.12,6.6-.89,6.09-.13-.51.76-2.15,2.81-2.15,2.81l5.92-.43-.16-2.59s-3.36,1.07-3.45,1.14c-.09.07,2.55-3.51,1.7-3.17Z"/>
      <path class="cls-2" d="M93.83,63.4l-4.65-2.61-5.45,9.46-.63,1.1s2.87-.65,5.12-1.1h2.31c-.15,1.78-5.62,9.54-5.98,10.78-.3,1.02,6.48-7,9.82-10.78.79-.9,1.39-1.55,1.66-1.8,1.39-1.26-7.58.41-7.37.3.2-.11,5.18-5.35,5.18-5.35Z"/>
      <path class="cls-2" d="M124.61,18.88l-11.37,1.74.71,4.98s6.32-2.59,6.48-2.73-4.38,7.18-2.79,6.38c1.59-.79,16.23-5.69,14.99-5.8-1.39-.12-12.6,2.73-11.74,1.19s3.72-5.77,3.72-5.77Z"/>
      <path class="cls-2" d="M113.03,11.59c-.85.34-8.58,2.26-7.95,2.37.71.12,6.6-.89,6.09-.13-.51.76-2.15,2.81-2.15,2.81l5.92-.43-.16-2.59s-3.36,1.07-3.45,1.14c-.09.07,2.55-3.51,1.7-3.17Z"/>
      <path class="cls-2" d="M78.95,22.17c-.29-1.29-3.37,14.77-3.98,16.55-.61,1.78,6.44-4.02,6.31-3.82s-1.95,7.19-1.95,7.19l5.33.04.23-12.18s-4.03,3.59-5.53,4.71-.09-11.05-.41-12.49Z"/>
      <path class="cls-2" d="M149.2,22.17c-.29-1.29-3.37,14.77-3.98,16.55-.61,1.78,6.44-4.02,6.31-3.82s-1.95,7.19-1.95,7.19l5.33.04.23-12.18s-4.03,3.59-5.53,4.71-.09-11.05-.41-12.49Z"/>
      <path class="cls-2" d="M54.36,18.88l-11.37,1.74.71,4.98s6.32-2.59,6.48-2.73c.16-.14-4.38,7.18-2.79,6.38,1.59-.79,16.23-5.69,14.99-5.8-1.39-.12-12.6,2.73-11.74,1.19.86-1.55,3.72-5.77,3.72-5.77Z"/>
      <path class="cls-2" d="M25.94,53.7c.66,1.46,4.97,15.27,4.98,14.03.01-1.4-2.64-12.09-1.47-11.45,1.16.64,4.37,2.88,4.37,2.88l-1.86-11.01-3.57,1.39s2.2,5.89,2.31,6.04c.11.14-5.42-3.34-4.76-1.87Z"/>
      <path class="cls-2" d="M222.05,76.61c-.52-.41-1.91-1.73-1.91-1.73l-.05,4.32,1.89.04s-.57-2.5-.62-2.57c-.04-.07,2.39,2.06,2.19,1.42-.2-.64-1.12-6.35-1.24-5.9-.13.51.25,4.83-.27,4.42Z"/>
      <path class="cls-2" d="M233.74,106.02c-.66,1.56-2.6,14.75-3.61,13.5-1.01-1.25-3.57-5.23-3.57-5.23l-2.98,13.18,4.63.08s.24-7.61.18-7.82c-.06-.21,4.54,6.23,4.47,4.29-.06-1.94,1.45-19.38.86-18Z"/>
      <path class="cls-2" d="M206.93,37.97c.4.34,2.3,2.45,3.82,4.08,1.13,1.21,2.04,2.15,1.95,1.89-.11-.35-1.12-1.78-1.95-3.07v-2.13c1.1.19,2.52.46,2.52.46l-2.52-4.09-.59-.96-2.23,1.34s2.5,2.48,2.6,2.53c.1.05-4.29-.64-3.59-.04Z"/>
      <path class="cls-2" d="M39.96,113.32c-.95-1.02-10.21-6.99-8.92-7.33,1.29-.33,5.15-.89,5.15-.89l-8.9-6.74-1.65,3.46s5.64,2.78,5.82,2.81c.18.03-6.23,1.29-4.75,1.9,1.48.61,14.09,7.71,13.24,6.8Z"/>
      <path class="cls-2" d="M219.45,92.42c-.29-1.29-3.37,14.77-3.98,16.55-.61,1.78,6.44-4.02,6.31-3.82s-1.95,7.19-1.95,7.19l5.33.04.23-12.18s-4.03,3.59-5.53,4.71-.09-11.05-.41-12.49Z"/>
      <path class="cls-2" d="M197.62,51.17c-1.01.12,8.13,2.92,13.13,4.54,1.46.48,2.57.85,2.96,1.03,1.46.66-2-4.72-2.96-6.25v-.29c1.22.51,6.73,2.53,6.73,2.53l.56-5.3-7.29-.85-4.81-.56s3.18,4.36,4.16,5.96-11-.99-12.47-.81Z"/>
      <path class="cls-2" d="M95.89,101.81s5.64,2.78,5.82,2.81c.18.03-6.23,1.29-4.75,1.9,1.48.61,14.09,7.71,13.24,6.8-.95-1.02-10.21-6.99-8.92-7.33,1.29-.33,5.15-.89,5.15-.89l-8.9-6.74-1.65,3.46Z"/>
      <path class="cls-2" d="M43.82,131.02l11.5.03.07-5.03s-6.64,1.58-6.83,1.7c-.18.12,5.43-6.42,3.73-5.88-1.69.54-16.91,3.13-15.7,3.43,1.36.33,12.87-.76,11.78.63-1.09,1.39-4.56,5.13-4.56,5.13Z"/>
      <path class="cls-2" d="M223.56,148.34c-.2-.64-1.12-6.35-1.24-5.9-.13.51.25,4.83-.27,4.42-.52-.41-1.91-1.73-1.91-1.73l-.05,4.32,1.89.04s-.57-2.5-.62-2.57c-.04-.07,2.39,2.06,2.19,1.42Z"/>
      <path class="cls-2" d="M27.21,114.79c.66-.18,6.55-.95,6.09-1.08-.52-.15-4.96.1-4.52-.42.44-.52,1.83-1.9,1.83-1.9l-4.43-.18-.1,1.94s2.58-.51,2.65-.55c.07-.04-2.18,2.39-1.52,2.21Z"/>
      <path class="cls-2" d="M54.19,139.89c.04.11.09.32.16.61.55,2.33,1.95,9.65,2.1,8.98.19-.84-.59-7.88.27-7.23s3.19,2.74,3.19,2.74l-.06-4.5-.04-2.55h-3.09s.35,1.38.66,2.55h-1.7c-.88-.62-1.65-1.08-1.49-.61Z"/>
      <path class="cls-2" d="M56.97,155.91h9.39l-1.35-3.31s-5.86,2.29-6,2.41,3.25-5.47,1.8-4.79-15.19,5.21-13.95,5.2c1.4,0,12.05-2.82,11.43-1.65-.26.49-.79,1.33-1.32,2.15Z"/>
      <path class="cls-2" d="M212.81,140.49h.33c-.36-1.3-1.52-4.53-2.39-7-.51-1.46-.92-2.65-1.01-3.02-.27-1.2-2.21,4.43-2.2,4.28,0-.15-1.37-4.67-1.37-4.67l-2.98,1.8,4.03,6.86s1.02-3.37,1.47-4.51c.22-.55,1.11.86,2.06,2.53v3.73h2.06Z"/>
      <path class="cls-2" d="M178.6,46.31c-1.23.75,18.72.32,21.12.64s-8.96-7.46-8.66-7.35,9.33.58,9.33.58l-3.69-7.13-13.65,3.14s6.8,4.37,9.1,6.05c2.3,1.69-12.17,3.24-13.55,4.08Z"/>
      <path class="cls-2" d="M66.44,37.97c.4.34,2.3,2.45,3.82,4.08,1.13,1.21,2.04,2.15,1.95,1.89-.11-.35-1.12-1.78-1.95-3.07v-2.13c1.1.19,2.52.46,2.52.46l-2.52-4.09-.59-.96-2.23,1.34s2.5,2.48,2.6,2.53c.1.05-4.29-.64-3.59-.04Z"/>
      <path class="cls-2" d="M100.86,41.14l-4.43-.18-.1,1.94s2.58-.51,2.65-.55c.07-.04-2.18,2.39-1.52,2.21.66-.18,6.55-.95,6.09-1.08-.52-.15-4.96.1-4.52-.42.44-.52,1.83-1.9,1.83-1.9Z"/>
      <path class="cls-2" d="M94.41,76.38c.51.43,4.35,4.79,4.2,4.34-.16-.5-2.79-3.96-2.13-3.89.66.07,2.54.44,2.54.44l-2.27-3.68-1.62.97s1.82,1.81,1.89,1.84c.07.04-3.12-.46-2.62-.03Z"/>
      <path class="cls-2" d="M171.1,41.14l-4.43-.18-.1,1.94s2.58-.51,2.65-.55c.07-.04-2.18,2.39-1.52,2.21.66-.18,6.55-.95,6.09-1.08-.52-.15-4.96.1-4.52-.42.44-.52,1.83-1.9,1.83-1.9Z"/>
      <path class="cls-2" d="M38.11,46.31c-1.23.75,18.72.32,21.12.64s-8.96-7.46-8.66-7.35,9.33.58,9.33.58l-3.69-7.13-13.65,3.14s6.8,4.37,9.1,6.05c2.3,1.69-12.17,3.24-13.55,4.08Z"/>
      <path class="cls-2" d="M57.13,51.17c-1.01.12,8.13,2.92,13.13,4.54,1.46.48,2.57.85,2.96,1.03,1.46.66-2-4.72-2.96-6.25v-.29c1.22.51,6.73,2.53,6.73,2.53l.56-5.3-7.29-.85-4.81-.56s3.18,4.36,4.16,5.96-11-.99-12.47-.81Z"/>
      <path class="cls-2" d="M81.56,76.61c-.52-.41-1.91-1.73-1.91-1.73l-.05,4.32,1.89.04s-.57-2.5-.62-2.57c-.04-.07,2.39,2.06,2.19,1.42-.2-.64-1.12-6.35-1.24-5.9-.13.51.25,4.83-.27,4.42Z"/>
      <path class="cls-2" d="M164.65,76.38c.51.43,4.35,4.79,4.2,4.34-.16-.5-2.79-3.96-2.13-3.89s2.54.44,2.54.44l-2.27-3.68-1.62.97s1.82,1.81,1.89,1.84c.07.04-3.12-.46-2.62-.03Z"/>
      <path class="cls-2" d="M108.35,46.31c-1.23.75,18.72.32,21.12.64,2.4.31-8.96-7.46-8.66-7.35.3.12,9.33.58,9.33.58l-3.69-7.13-13.65,3.14s6.8,4.37,9.1,6.05c2.3,1.69-12.17,3.24-13.55,4.08Z"/>
      <path class="cls-2" d="M151.8,76.61c-.52-.41-1.91-1.73-1.91-1.73l-.05,4.32,1.89.04s-.57-2.5-.62-2.57c-.04-.07,2.39,2.06,2.19,1.42-.2-.64-1.12-6.35-1.24-5.9-.13.51.24,4.83-.27,4.42Z"/>
      <path class="cls-2" d="M127.37,51.17c-1.01.12,8.13,2.92,13.13,4.54,1.46.48,2.57.85,2.96,1.03,1.46.66-2-4.72-2.96-6.25v-.29c1.22.51,6.73,2.53,6.73,2.53l.56-5.3-7.29-.85-4.81-.56s3.18,4.36,4.16,5.96c.97,1.6-11-.99-12.47-.81Z"/>
      <path class="cls-2" d="M136.68,37.97c.4.34,2.3,2.45,3.82,4.08,1.13,1.21,2.04,2.15,1.95,1.89-.11-.35-1.12-1.78-1.95-3.07v-2.13c1.1.19,2.52.46,2.52.46l-2.52-4.09-.59-.96-2.23,1.34s2.5,2.48,2.6,2.53c.1.05-4.29-.64-3.59-.04Z"/>
      <path class="cls-2" d="M96.18,53.7c.66,1.46,4.97,15.27,4.98,14.03.01-1.4-2.64-12.09-1.47-11.45s4.37,2.88,4.37,2.88l-1.86-11.01-3.57,1.39s2.2,5.89,2.31,6.04-5.42-3.34-4.76-1.87Z"/>
      <path class="cls-2" d="M150.8.07s-.02-.05-.03-.07h-.18c.17.13.25.16.22.07Z"/>
      <path class="cls-2" d="M151.12,6.43c-.04-.07,2.39,2.06,2.19,1.42-.2-.64-1.12-6.35-1.24-5.9-.13.51.24,4.83-.27,4.42-.52-.41-1.91-1.73-1.91-1.73l-.05,4.32,1.89.04s-.57-2.5-.62-2.57Z"/>
      <path class="cls-2" d="M141.67,14.63s.84-5.33,1.29-7.15c.45-1.82,7.06,8.49,8.23,9.41,1.04.82-6.75-13.57-7.41-15.33s-2.44,7.18-2.46,6.95c0-.08-.36-.88-.82-1.91-.9-2.01-2.22-4.89-2.22-4.89l-4.15,3.35,6.37,8.09,1.17,1.48Z"/>
      <path class="cls-2" d="M117.11,14.91c1.4,0,12.05-2.82,11.43-1.65s-2.81,4.41-2.81,4.41l10.98-2.03-1.44-3.55s-5.86,2.29-6,2.41c-.14.11,3.25-5.47,1.8-4.79-1.45.68-15.19,5.21-13.95,5.2Z"/>
      <path class="cls-2" d="M153.98,0l-.63,1.1s2.87-.65,5.12-1.1h-4.49Z"/>
      <path class="cls-2" d="M164.6,0h-3.84c-.15,1.78-5.62,9.54-5.98,10.78-.3,1.02,6.48-7,9.82-10.78Z"/>
      <path class="cls-2" d="M90.2,11.48l-7.87,11.39s9.1-2.02,12.36-2.57c3.26-.55-6.63,10.43-6.97,11.9-.3,1.31,14.83-12.77,16.97-14.24,2.13-1.47-13.48,1.61-13.15,1.47.34-.14,7.75-6.11,7.75-6.11l-9.1-1.84Z"/>
      <path class="cls-2" d="M94.36,0h-3.84c-.15,1.78-5.62,9.54-5.98,10.78-.3,1.02,6.48-7,9.82-10.78Z"/>
      <path class="cls-2" d="M94.41,6.14c.51.43,4.35,4.79,4.2,4.34-.16-.5-2.79-3.96-2.13-3.89.66.07,2.54.44,2.54.44l-2.27-3.68-1.62.97s1.82,1.81,1.89,1.84c.07.04-3.12-.46-2.62-.03Z"/>
      <path class="cls-2" d="M83.73,0l-.63,1.1s2.87-.65,5.12-1.1h-4.49Z"/>
      <path class="cls-2" d="M102.58,10.7l19.18-4.26s-6.26-4.33-8.92-6.43h-3.45c1.86,1.53,3.44,2.75,3.31,2.7-.35-.13-11.98-.31-11.98-.31l1.87,8.3Z"/>
      <path class="cls-2" d="M126.7,8.98c.19-.84-.59-7.88.27-7.23.87.65,3.19,2.74,3.19,2.74l-.06-4.5h-5.49c.55,2.33,1.95,9.65,2.1,8.98Z"/>
      <path class="cls-2" d="M164.65,6.14c.51.43,4.35,4.79,4.2,4.34-.16-.5-2.79-3.96-2.13-3.89.66.07,2.54.44,2.54.44l-2.27-3.68-1.62.97s1.82,1.81,1.89,1.84c.07.04-3.12-.46-2.62-.03Z"/>
      <path class="cls-2" d="M211.91,14.63s.84-5.33,1.29-7.15,7.06,8.49,8.23,9.41c1.04.82-6.75-13.57-7.41-15.33s-2.44,7.18-2.46,6.95c0-.08-.36-.88-.82-1.91-.9-2.01-2.22-4.89-2.22-4.89l-4.15,3.35,6.37,8.09,1.17,1.48Z"/>
      <path class="cls-2" d="M234.9,6.14c.51.43,4.35,4.79,4.2,4.34-.16-.5-2.79-3.96-2.13-3.89.66.07,2.54.44,2.54.44l-2.27-3.68-1.62.97s1.82,1.81,1.89,1.84c.07.04-3.12-.46-2.62-.03Z"/>
      <path class="cls-2" d="M10.63,146.93c-.04-.07,2.39,2.06,2.19,1.42-.2-.64-1.12-6.35-1.24-5.9-.13.51.24,4.83-.27,4.42-.52-.41-1.91-1.73-1.91-1.73l-.05,4.32,1.89.04s-.57-2.5-.62-2.57Z"/>
      <path class="cls-2" d="M234.85,0h-3.84c-.15,1.78-5.62,9.54-5.98,10.78-.3,1.02,6.48-7,9.82-10.78Z"/>
      <path class="cls-2" d="M230.7,151.98l-2.71,3.93h9.21c1.43-1.15,2.61-2.09,2.61-2.09l-9.1-1.84Z"/>
      <path class="cls-2" d="M29.06,153.81l-9.1-1.84-2.71,3.93h9.21c1.43-1.15,2.61-2.09,2.61-2.09Z"/>
      <path class="cls-2" d="M224.22,0l-.63,1.1s2.87-.65,5.12-1.1h-4.49Z"/>
      <path class="cls-2" d="M221.05.07s-.02-.05-.03-.07h-.18c.17.13.25.16.22.07Z"/>
      <path class="cls-2" d="M196.94,8.98c.19-.84-.59-7.88.27-7.23.87.65,3.19,2.74,3.19,2.74l-.06-4.5h-5.49c.55,2.33,1.95,9.65,2.1,8.98Z"/>
      <path class="cls-2" d="M187.36,14.91c1.4,0,12.05-2.82,11.43-1.65s-2.81,4.41-2.81,4.41l10.98-2.03-1.44-3.55s-5.86,2.29-6,2.41,3.25-5.47,1.8-4.79-15.19,5.21-13.95,5.2Z"/>
      <path class="cls-2" d="M172.82,10.7l19.18-4.26s-6.26-4.33-8.92-6.43h-3.45c1.86,1.53,3.44,2.75,3.31,2.7-.35-.13-11.98-.31-11.98-.31l1.87,8.3Z"/>
      <path class="cls-2" d="M160.45,11.48l-7.87,11.39s9.1-2.02,12.36-2.57c3.26-.55-6.63,10.43-6.97,11.9-.3,1.31,14.83-12.77,16.97-14.24,2.13-1.47-13.48,1.61-13.15,1.47s7.75-6.11,7.75-6.11l-9.1-1.84Z"/>
      <path class="cls-2" d="M80.55.07s-.02-.05-.03-.07h-.18c.17.13.25.16.22.07Z"/>
      <path class="cls-2" d="M221.37,6.43c-.04-.07,2.39,2.06,2.19,1.42-.2-.64-1.12-6.35-1.24-5.9-.13.51.25,4.83-.27,4.42-.52-.41-1.91-1.73-1.91-1.73l-.05,4.32,1.89.04s-.57-2.5-.62-2.57Z"/>
      <path class="cls-2" d="M230.7,11.48l-7.87,11.39s9.1-2.02,12.36-2.57c3.26-.55-6.63,10.43-6.97,11.9-.22.94,7.55-6.07,12.72-10.64v-3.62c-3.96.57-9.1,1.56-8.9,1.48.34-.14,7.75-6.11,7.75-6.11l-9.1-1.84Z"/>
      <path class="cls-2" d="M.6,88.82s-.26.95-.59,2.18v9.33l5.08-10.36-4.49-1.15Z"/>
      <path class="cls-2" d="M0,50.48v5.23c1.46.48,2.57.85,2.96,1.03,1.46.66-2-4.72-2.96-6.25Z"/>
      <path class="cls-2" d="M0,35.1v3.63c1.1.19,2.52.46,2.52.46L0,35.1Z"/>
      <path class="cls-2" d="M2.4,70.25c-.36-1.3-1.52-4.53-2.39-7v7h2.39Z"/>
      <path class="cls-2" d="M1.96,43.93c-.11-.35-1.12-1.78-1.95-3.07v1.19c1.13,1.21,2.04,2.15,1.95,1.89Z"/>
      <path class="cls-2" d="M7.3,47.42L0,46.57v3.62c1.22.51,6.73,2.53,6.73,2.53l.56-5.3Z"/>
      <path class="cls-2" d="M2.47,77.72c.45-1.82,7.06,8.49,8.23,9.41,1.04.82-6.75-13.57-7.41-15.33-.66-1.76-2.44,7.18-2.46,6.95,0-.08-.36-.88-.82-1.91v6.55l1.17,1.48s.84-5.33,1.29-7.15Z"/>
      <path class="cls-2" d="M2.4,140.49c-.36-1.3-1.52-4.53-2.39-7v7h2.39Z"/>
      <path class="cls-2" d="M0,120.73v5.23c1.46.48,2.57.85,2.96,1.03,1.46.66-2-4.72-2.96-6.25Z"/>
      <path class="cls-2" d="M2.47,147.97c.36-1.46,4.7,4.9,6.99,7.93h.76c-1.66-3.59-6.42-12.49-6.93-13.86-.66-1.76-2.44,7.18-2.46,6.95,0-.08-.36-.88-.82-1.91v6.55l1.17,1.48s.84-5.33,1.29-7.15Z"/>
      <path class="cls-2" d="M7.3,117.67L0,116.82v3.62c1.22.51,6.73,2.53,6.73,2.53l.56-5.3Z"/>
      <path class="cls-2" d="M1.96,114.18c-.11-.35-1.12-1.78-1.95-3.07v1.19c1.13,1.21,2.04,2.15,1.95,1.89Z"/>
      <path class="cls-2" d="M0,105.35v3.63c1.1.19,2.52.46,2.52.46L0,105.35Z"/>
      <path class="cls-2" d="M19.96,11.48l-7.87,11.39s9.1-2.02,12.36-2.57c3.26-.55-6.63,10.43-6.97,11.9-.3,1.31,14.83-12.77,16.97-14.24,2.13-1.47-13.48,1.61-13.15,1.47s7.75-6.11,7.75-6.11l-9.1-1.84Z"/>
      <path class="cls-2" d="M32.33,10.7l19.18-4.26s-6.26-4.33-8.92-6.43h-3.45c1.86,1.53,3.44,2.75,3.31,2.7-.35-.13-11.98-.31-11.98-.31l1.87,8.3Z"/>
      <path class="cls-2" d="M80.87,6.43c-.04-.07,2.39,2.06,2.19,1.42s-1.12-6.35-1.24-5.9c-.13.51.25,4.83-.27,4.42-.52-.41-1.91-1.73-1.91-1.73l-.05,4.32,1.89.04s-.57-2.5-.62-2.57Z"/>
      <path class="cls-2" d="M56.45,8.98c.19-.84-.59-7.88.27-7.23.87.65,3.19,2.74,3.19,2.74l-.06-4.5h-5.49c.55,2.33,1.95,9.65,2.1,8.98Z"/>
      <path class="cls-2" d="M24.16,6.14c.51.43,4.35,4.79,4.2,4.34-.16-.5-2.79-3.96-2.13-3.89.66.07,2.54.44,2.54.44l-2.27-3.68-1.62.97s1.82,1.81,1.89,1.84c.07.04-3.12-.46-2.62-.03Z"/>
      <path class="cls-2" d="M71.42,14.63s.84-5.33,1.29-7.15,7.06,8.49,8.23,9.41c1.04.82-6.75-13.57-7.41-15.33s-2.44,7.18-2.46,6.95c0-.08-.36-.88-.82-1.91-.9-2.01-2.22-4.89-2.22-4.89l-4.15,3.35,6.37,8.09,1.17,1.48Z"/>
      <path class="cls-2" d="M46.86,14.91c1.4,0,12.05-2.82,11.43-1.65s-2.81,4.41-2.81,4.41l10.98-2.03-1.44-3.55s-5.86,2.29-6,2.41,3.25-5.47,1.8-4.79-15.19,5.21-13.95,5.2Z"/>
      <path class="cls-2" d="M2.47,7.48c.45-1.82,7.06,8.49,8.23,9.41,1.04.82-6.75-13.57-7.41-15.33S.85,8.74.83,8.51c0-.08-.36-.88-.82-1.91v6.55l1.17,1.48s.84-5.33,1.29-7.15Z"/>
      <path class="cls-2" d="M.6,18.57s-.26.95-.59,2.18v9.33l5.08-10.36-4.49-1.15Z"/>
      <path class="cls-2" d="M24.11,0h-3.84c-.15,1.78-5.62,9.54-5.98,10.78-.3,1.02,6.48-7,9.82-10.78Z"/>
      <path class="cls-2" d="M10.63,6.43c-.04-.07,2.39,2.06,2.19,1.42-.2-.64-1.12-6.35-1.24-5.9-.13.51.24,4.83-.27,4.42-.52-.41-1.91-1.73-1.91-1.73l-.05,4.32,1.89.04s-.57-2.5-.62-2.57Z"/>
      <path class="cls-2" d="M10.31.07s-.02-.05-.03-.07h-.18c.17.13.25.16.22.07Z"/>
      <path class="cls-2" d="M13.48,0l-.63,1.1s2.87-.65,5.12-1.1h-4.49Z"/>
      <path class="cls-2" d="M69.25,60.23c-.27-1.2-2.21,4.43-2.2,4.28,0-.15-1.37-4.67-1.37-4.67l-2.98,1.8,4.03,6.86s1.02-3.37,1.47-4.51c.22-.55,1.11.86,2.06,2.53v3.73h2.39c-.36-1.3-1.52-4.53-2.39-7-.51-1.46-.92-2.65-1.01-3.02Z"/>
      <path class="cls-2" d="M220.83,140.49c.17.13.25.16.22.07,0-.02-.02-.05-.03-.07-.52-1-4.85-6.12-3.8-6.06,1.08.06,4.18.48,4.18.48l-4.04-5.78-2.55,1.74s3.13,2.78,3.25,2.83c.12.05-5.13-.46-4.26.2.75.57,5.88,5.73,7.03,6.6Z"/>
      <path class="cls-2" d="M174.65,64.59c-1.87-.17,1.92,3.15,4.97,5.66,1.86,1.53,3.44,2.75,3.31,2.7-.35-.13-11.98-.31-11.98-.31l1.87,8.3,19.18-4.26s-6.26-4.33-8.92-6.43c-.17-.14-.33-.26-.47-.38-2.3-1.91,17.28-4.32,19.43-5.37,1.92-.93-24.37.36-27.38.09Z"/>
      <path class="cls-2" d="M146.97,64.18c1.08.06,4.18.48,4.18.48l-4.04-5.78-2.55,1.74s3.13,2.78,3.26,2.83c.12.05-5.13-.46-4.26.2.75.57,5.88,5.73,7.03,6.6.17.13.25.16.22.07,0-.02-.02-.05-.03-.07-.52-1-4.85-6.12-3.8-6.06Z"/>
      <path class="cls-2" d="M106.84,55.02c1.36.33,12.87-.76,11.78.63-1.09,1.39-4.56,5.13-4.56,5.13l11.5.03.07-5.03s-6.64,1.58-6.83,1.7c-.18.12,5.43-6.42,3.73-5.88-1.69.54-16.91,3.13-15.7,3.43Z"/>
      <path class="cls-2" d="M217.22,64.18c1.08.06,4.18.48,4.18.48l-4.04-5.78-2.55,1.74s3.13,2.78,3.25,2.83c.12.05-5.13-.46-4.26.2.75.57,5.88,5.73,7.03,6.6.17.13.25.16.22.07,0-.02-.02-.05-.03-.07-.52-1-4.85-6.12-3.8-6.06Z"/>
      <path class="cls-2" d="M177.09,55.02c1.36.33,12.87-.76,11.78.63-1.09,1.39-4.56,5.13-4.56,5.13l11.5.03.07-5.03s-6.64,1.58-6.83,1.7,5.43-6.42,3.73-5.88c-1.69.54-16.91,3.13-15.7,3.43Z"/>
      <path class="cls-2" d="M152.58,93.12s9.1-2.02,12.36-2.57c3.26-.55-6.63,10.43-6.97,11.9-.3,1.31,14.83-12.77,16.97-14.24s-13.48,1.61-13.15,1.47c.34-.14,7.75-6.11,7.75-6.11l-9.1-1.84-7.87,11.39Z"/>
      <path class="cls-2" d="M104.41,64.59c-1.87-.17,1.92,3.15,4.97,5.66,1.86,1.53,3.44,2.75,3.31,2.7-.35-.13-11.98-.31-11.98-.31l1.87,8.3,19.18-4.26s-6.26-4.33-8.92-6.43c-.17-.14-.33-.26-.47-.38-2.3-1.91,17.28-4.32,19.43-5.37,1.92-.93-24.37.36-27.38.09Z"/>
      <path class="cls-2" d="M36.6,55.02c1.36.33,12.87-.76,11.78.63-1.09,1.39-4.56,5.13-4.56,5.13l11.5.03.07-5.03s-6.64,1.58-6.83,1.7,5.43-6.42,3.73-5.88c-1.69.54-16.91,3.13-15.7,3.43Z"/>
      <path class="cls-2" d="M12.09,93.12s9.1-2.02,12.36-2.57c3.26-.55-6.63,10.43-6.97,11.9-.3,1.31,14.83-12.77,16.97-14.24s-13.48,1.61-13.15,1.47c.34-.14,7.75-6.11,7.75-6.11l-9.1-1.84-7.87,11.39Z"/>
      <path class="cls-2" d="M17.49,127.55s.24-7.61.18-7.82c-.06-.21,4.54,6.23,4.47,4.29-.06-1.94,1.45-19.38.86-18-.66,1.56-2.6,14.75-3.61,13.5-1.01-1.25-3.57-5.23-3.57-5.23l-2.98,13.18,4.63.08Z"/>
      <path class="cls-2" d="M82.34,93.12s9.1-2.02,12.36-2.57c3.26-.55-6.63,10.43-6.97,11.9-.3,1.31,14.83-12.77,16.97-14.24s-13.48,1.61-13.15,1.47c.34-.14,7.75-6.11,7.75-6.11l-9.1-1.84-7.87,11.39Z"/>
      <path class="cls-2" d="M76.72,64.18c1.08.06,4.18.48,4.18.48l-4.04-5.78-2.55,1.74s3.13,2.78,3.25,2.83c.12.05-5.13-.46-4.26.2.75.57,5.88,5.73,7.03,6.6.17.13.25.16.22.07,0-.02-.02-.05-.03-.07-.52-1-4.85-6.12-3.8-6.06Z"/>
      <path class="cls-2" d="M34.16,64.59c-1.87-.17,1.92,3.15,4.97,5.66,1.86,1.53,3.44,2.75,3.31,2.7-.35-.13-11.98-.31-11.98-.31l1.87,8.3,19.18-4.26s-6.26-4.33-8.92-6.43c-.17-.14-.33-.26-.47-.38-2.3-1.91,17.28-4.32,19.43-5.37,1.92-.93-24.37.36-27.38.09Z"/>
      <path class="cls-2" d="M70.84,88.82s-.26.95-.59,2.18c-.59,2.19-1.4,5.25-1.4,5.39.01.22-2.97-7.11-3.36-5.21-.39,1.9-5.9,18.52-5.01,17.31,1-1.36,5.94-13.75,6.63-12.3.69,1.45,2.26,5.92,2.26,5.92l.87-1.78,5.08-10.36-4.49-1.15Z"/>
      <path class="cls-2" d="M43.7,95.85s6.32-2.58,6.48-2.73c.16-.14-4.38,7.18-2.79,6.38s16.23-5.69,14.99-5.8c-1.39-.12-12.6,2.73-11.74,1.19.86-1.55,3.72-5.77,3.72-5.77l-11.37,1.74.71,4.98Z"/>
      <path class="cls-2" d="M93.25,106.02c-.66,1.56-2.6,14.75-3.61,13.5s-3.57-5.23-3.57-5.23l-2.98,13.18,4.63.08s.24-7.61.18-7.82c-.06-.21,4.54,6.23,4.47,4.29-.06-1.94,1.45-19.38.86-18Z"/>
      <path class="cls-2" d="M210.75,120.73v-.29c1.22.51,6.73,2.53,6.73,2.53l.56-5.3-7.29-.85-4.81-.56s3.18,4.36,4.16,5.96-11-.99-12.47-.81c-1.01.12,8.13,2.92,13.13,4.54,1.46.48,2.57.85,2.96,1.03,1.46.66-2-4.72-2.96-6.25Z"/>
      <path class="cls-2" d="M72.77,109.44l-2.52-4.09-.59-.96-2.23,1.34s2.5,2.48,2.6,2.53c.1.05-4.29-.64-3.59-.04.4.34,2.3,2.45,3.82,4.08,1.13,1.21,2.04,2.15,1.95,1.89-.11-.35-1.12-1.78-1.95-3.07v-2.13c1.1.19,2.52.46,2.52.46Z"/>
      <path class="cls-2" d="M78.95,92.42c-.29-1.29-3.37,14.77-3.98,16.55-.61,1.78,6.44-4.02,6.31-3.82s-1.95,7.19-1.95,7.19l5.33.04.23-12.18s-4.03,3.59-5.53,4.71-.09-11.05-.41-12.49Z"/>
      <path class="cls-2" d="M71.07,78.76c0-.08-.36-.88-.82-1.91-.9-2.01-2.22-4.89-2.22-4.89l-4.15,3.35,6.37,8.09,1.17,1.48s.84-5.33,1.29-7.15c.45-1.82,7.06,8.49,8.23,9.41,1.04.82-6.75-13.57-7.41-15.33-.66-1.76-2.44,7.18-2.46,6.95Z"/>
      <path class="cls-2" d="M199.51,155c-.14.11,3.25-5.47,1.8-4.79s-15.19,5.21-13.95,5.2c1.4,0,12.05-2.82,11.43-1.65-.26.49-.79,1.33-1.32,2.15h9.39l-1.35-3.31s-5.86,2.29-6,2.41Z"/>
      <path class="cls-2" d="M68.19,134.23c.22-.55,1.11.86,2.06,2.53v3.73h2.39c-.36-1.3-1.52-4.53-2.39-7-.51-1.46-.92-2.65-1.01-3.02-.27-1.2-2.21,4.43-2.2,4.28,0-.15-1.37-4.67-1.37-4.67l-2.98,1.8,4.03,6.86s1.02-3.37,1.47-4.51Z"/>
      <path class="cls-2" d="M70.25,125.95c1.46.48,2.57.85,2.96,1.03,1.46.66-2-4.72-2.96-6.25v-.29c1.22.51,6.73,2.53,6.73,2.53l.56-5.3-7.29-.85-4.81-.56s3.18,4.36,4.16,5.96-11-.99-12.47-.81c-1.01.12,8.13,2.92,13.13,4.54Z"/>
      <path class="cls-2" d="M50.57,109.84c.3.12,9.33.58,9.33.58l-3.69-7.13-13.65,3.14s6.8,4.37,9.1,6.05c2.3,1.69-12.17,3.24-13.55,4.08-1.23.75,18.72.32,21.12.64,2.4.31-8.96-7.46-8.66-7.35Z"/>
      <path class="cls-2" d="M34.51,95.61c.38.38,4.4,2.31,3.76,2.55-.64.24-2.52.79-2.52.79l3.79,2.29,1.02-1.65s-2.51-.8-2.59-.79c-.08,0,3.06-1.04,2.4-1.2-.67-.16-6.2-2.33-5.86-1.99Z"/>
      <path class="cls-2" d="M240.94,30.32l-2.92-2.21-1.65,3.46s2.85,1.4,4.56,2.23v-3.47Z"/>
      <path class="cls-2" d="M104.76,25.36c.38.38,4.4,2.31,3.76,2.55-.64.24-2.52.79-2.52.79l3.79,2.29,1.02-1.65s-2.51-.8-2.59-.79c-.08,0,3.06-1.04,2.4-1.2-.67-.16-6.2-2.33-5.86-1.99Z"/>
      <path class="cls-2" d="M163.5,35.77c-.66,1.56-2.6,14.75-3.61,13.5-1.01-1.25-3.57-5.23-3.57-5.23l-2.98,13.18,4.63.08s.24-7.61.18-7.82c-.06-.21,4.54,6.23,4.47,4.29-.06-1.94,1.45-19.38.86-18Z"/>
      <path class="cls-2" d="M140.5,20.75c-.59,2.19-1.4,5.25-1.4,5.39.01.22-2.97-7.11-3.36-5.21-.39,1.9-5.9,18.52-5.01,17.31,1-1.36,5.94-13.75,6.63-12.3.69,1.45,2.26,5.92,2.26,5.92l.87-1.78,5.08-10.36-4.49-1.15s-.26.95-.59,2.18Z"/>
      <path class="cls-2" d="M166.14,31.56s5.64,2.78,5.82,2.81c.18.03-6.23,1.29-4.75,1.9,1.48.61,14.09,7.71,13.24,6.8-.95-1.02-10.21-6.99-8.92-7.33,1.29-.33,5.15-.89,5.15-.89l-8.9-6.74-1.65,3.46Z"/>
      <path class="cls-2" d="M210.75,20.75c-.59,2.19-1.4,5.25-1.4,5.39.01.22-2.97-7.11-3.36-5.21s-5.9,18.52-5.01,17.31c1-1.36,5.94-13.75,6.63-12.3.69,1.45,2.26,5.92,2.26,5.92l.87-1.78,5.08-10.36-4.49-1.15s-.26.95-.59,2.18Z"/>
      <path class="cls-2" d="M175.01,25.36c.38.38,4.4,2.31,3.76,2.55-.64.24-2.52.79-2.52.79l3.79,2.29,1.02-1.65s-2.51-.8-2.59-.79c-.08,0,3.06-1.04,2.4-1.2-.67-.16-6.2-2.33-5.86-1.99Z"/>
      <path class="cls-2" d="M95.89,31.56s5.64,2.78,5.82,2.81c.18.03-6.23,1.29-4.75,1.9,1.48.61,14.09,7.71,13.24,6.8-.95-1.02-10.21-6.99-8.92-7.33,1.29-.33,5.15-.89,5.15-.89l-8.9-6.74-1.65,3.46Z"/>
      <path class="cls-2" d="M34.51,25.36c.38.38,4.4,2.31,3.76,2.55-.64.24-2.52.79-2.52.79l3.79,2.29,1.02-1.65s-2.51-.8-2.59-.79c-.08,0,3.06-1.04,2.4-1.2-.67-.16-6.2-2.33-5.86-1.99Z"/>
      <path class="cls-2" d="M25.64,31.56s5.64,2.78,5.82,2.81c.18.03-6.23,1.29-4.75,1.9,1.48.61,14.09,7.71,13.24,6.8-.95-1.02-10.21-6.99-8.92-7.33,1.29-.33,5.15-.89,5.15-.89l-8.9-6.74-1.65,3.46Z"/>
      <path class="cls-2" d="M23.01,35.77c-.66,1.56-2.6,14.75-3.61,13.5-1.01-1.25-3.57-5.23-3.57-5.23l-2.98,13.18,4.63.08s.24-7.61.18-7.82c-.06-.21,4.54,6.23,4.47,4.29-.06-1.94,1.45-19.38.86-18Z"/>
      <path class="cls-2" d="M233.74,35.77c-.66,1.56-2.6,14.75-3.61,13.5-1.01-1.25-3.57-5.23-3.57-5.23l-2.98,13.18,4.63.08s.24-7.61.18-7.82c-.06-.21,4.54,6.23,4.47,4.29-.06-1.94,1.45-19.38.86-18Z"/>
      <path class="cls-2" d="M93.25,35.77c-.66,1.56-2.6,14.75-3.61,13.5-1.01-1.25-3.57-5.23-3.57-5.23l-2.98,13.18,4.63.08s.24-7.61.18-7.82c-.06-.21,4.54,6.23,4.47,4.29-.06-1.94,1.45-19.38.86-18Z"/>
      <path class="cls-2" d="M70.25,20.75c-.59,2.19-1.4,5.25-1.4,5.39.01.22-2.97-7.11-3.36-5.21s-5.9,18.52-5.01,17.31c1-1.36,5.94-13.75,6.63-12.3.69,1.45,2.26,5.92,2.26,5.92l.87-1.78,5.08-10.36-4.49-1.15s-.26.95-.59,2.18Z"/>
      <path class="cls-2" d="M240.94,88.19c-3.96.57-9.1,1.56-8.9,1.48.34-.14,7.75-6.11,7.75-6.11l-9.1-1.84-7.87,11.39s9.1-2.02,12.36-2.57c3.26-.55-6.63,10.43-6.97,11.9-.22.94,7.55-6.07,12.72-10.64v-3.62Z"/>
      <path class="cls-2" d="M236.51,138.7c1.39-1.26-7.58.41-7.37.3.2-.11,5.18-5.35,5.18-5.35l-4.65-2.61-5.45,9.46-.63,1.1s2.87-.65,5.12-1.1h2.31c-.15,1.78-5.62,9.54-5.98,10.78-.3,1.02,6.48-7,9.82-10.78.79-.9,1.39-1.55,1.66-1.8Z"/>
      <path class="cls-2" d="M240.94,119.07l-1.82.71s1.14,3.05,1.82,4.82v-5.53Z"/>
      <path class="cls-2" d="M240.94,104.93c-1.73.42-4.52,1.16-3.49,1.59.43.18,1.79.9,3.49,1.81v-3.4Z"/>
      <path class="cls-2" d="M211.57,149c0-.08-.36-.88-.82-1.91-.9-2.01-2.22-4.89-2.22-4.89l-4.15,3.35,6.37,8.09,1.17,1.48s.84-5.33,1.29-7.15c.36-1.46,4.7,4.9,6.99,7.93h.76c-1.66-3.59-6.42-12.49-6.93-13.86-.66-1.76-2.44,7.18-2.46,6.95Z"/>
      <path class="cls-2" d="M51.51,146.92s-6.26-4.33-8.92-6.43c-.17-.14-.33-.26-.47-.38-2.3-1.91,17.28-4.32,19.43-5.37,1.92-.93-24.37.36-27.38.09-1.87-.17,1.92,3.15,4.97,5.66,1.86,1.53,3.44,2.75,3.31,2.7-.35-.13-11.98-.31-11.98-.31l1.87,8.3,19.18-4.26Z"/>
      <path class="cls-2" d="M10.63,76.68c-.04-.07,2.39,2.06,2.19,1.42-.2-.64-1.12-6.35-1.24-5.9-.13.51.24,4.83-.27,4.42-.52-.41-1.91-1.73-1.91-1.73l-.05,4.32,1.89.04s-.57-2.5-.62-2.57Z"/>
      <path class="cls-2" d="M39.75,155.91h4.9l-.11-1.79s-3.36,1.07-3.45,1.14c-.09.07,2.55-3.51,1.7-3.17-.85.34-8.58,2.26-7.95,2.37.71.12,6.6-.89,6.09-.13-.24.36-.73,1-1.18,1.58Z"/>
      <path class="cls-2" d="M240.94,100.56l-2.92-2.21-1.65,3.46s2.85,1.4,4.56,2.23v-3.47Z"/>
      <path class="cls-2" d="M240.94,48.83l-1.82.71s1.14,3.05,1.82,4.82v-5.53Z"/>
      <path class="cls-2" d="M240.94,34.69c-1.73.42-4.52,1.16-3.49,1.59.43.18,1.79.9,3.49,1.81v-3.4Z"/>
      <path class="cls-2" d="M30.92,137.97c.01-1.4-2.64-12.09-1.47-11.45,1.16.64,4.37,2.88,4.37,2.88l-1.86-11.01-3.57,1.39s2.2,5.89,2.31,6.04c.11.14-5.42-3.34-4.76-1.87s4.97,15.27,4.98,14.03Z"/>
      <path class="cls-2" d="M234.9,76.38c.51.43,4.35,4.79,4.2,4.34-.16-.5-2.79-3.96-2.13-3.89.66.07,2.54.44,2.54.44l-2.27-3.68-1.62.97s1.82,1.81,1.89,1.84c.07.04-3.12-.46-2.62-.03Z"/>
    </g>
  </g>
</svg>