<?xml version="1.0" encoding="UTF-8"?>
<svg id="Layer_2" data-name="Layer 2" xmlns="http://www.w3.org/2000/svg" viewBox="0 0 469.68 74.96">
  <defs>
    <style>
      .cls-1 {
        fill: #fff;
        stroke-width: 0px;
      }
    </style>
  </defs>
  <g id="Layer_1-2" data-name="Layer 1">
    <path class="cls-1" d="M68.1,1.24v18.15H30.24v10.1h27.24v17.22h-27.24v27.53H0V1.24h68.1Z"/>
    <path class="cls-1" d="M220.55,74.24l-18.12-26.19h-.13v26.19h-30.24V1.24h44.95c7.81,0,14.48,1.05,20.02,3.14,5.54,2.1,9.69,4.95,12.46,8.56,2.77,3.61,4.15,7.68,4.15,12.22,0,4.88-1.79,9.21-5.38,12.99-3.59,3.78-8.74,6.5-15.46,8.15l20.97,27.94h-33.23ZM202.3,32.79h11.98c2.91,0,5.08-.5,6.54-1.5,1.45-.99,2.18-2.56,2.18-4.69,0-1.92-.75-3.44-2.25-4.54-1.5-1.1-3.65-1.65-6.47-1.65h-11.98v12.37Z"/>
    <path class="cls-1" d="M339.03,1.24v18.15h-25.61v54.85h-30.24V19.38h-25.33V1.24h81.18Z"/>
    <path class="cls-1" d="M379.64,1.24v73h-30.24V1.24h30.24Z"/>
    <path class="cls-1" d="M404.37,68.82c-7.49-4.09-11.56-10.09-12.19-17.99h32.14c.45,4.19,2.91,6.29,7.35,6.29,1.64,0,3.02-.29,4.16-.88,1.13-.58,1.7-1.5,1.7-2.73,0-1.72-1.23-3.11-3.68-4.18-2.45-1.06-6.27-2.28-11.44-3.66-6.18-1.65-11.28-3.27-15.32-4.85-4.04-1.58-7.51-3.88-10.42-6.91-2.91-3.02-4.31-6.91-4.22-11.65,0-4.74,1.61-8.78,4.84-12.12,3.22-3.33,7.63-5.86,13.21-7.58,5.58-1.72,11.87-2.58,18.86-2.58,11.8,0,21.18,2.06,28.13,6.19,6.95,4.13,10.6,9.93,10.97,17.43h-32.55c-.09-2.06-.77-3.54-2.04-4.43-1.27-.89-2.82-1.34-4.63-1.34-1.27,0-2.32.33-3.13.98-.82.65-1.22,1.56-1.22,2.73,0,1.65,1.2,3.01,3.61,4.07,2.41,1.07,6.24,2.36,11.51,3.87,6.08,1.72,11.1,3.37,15.05,4.95,3.95,1.58,7.38,3.78,10.28,6.6s4.36,6.36,4.36,10.62-1.45,8.47-4.36,12.01c-2.91,3.54-7.13,6.31-12.66,8.3-5.54,1.99-12.12,2.99-19.75,2.99-11.53,0-21.04-2.04-28.53-6.14Z"/>
    <g>
      <path class="cls-1" d="M155.09,1.24h-2.05c1.31.45,2.27,1.65,2.27,3.12v63.95c0,1.84-1.49,3.33-3.33,3.33h-32.78v2.61h35.88c1.84,0,3.33-1.49,3.33-3.33V4.57c0-1.84-1.49-3.33-3.33-3.33Z"/>
      <path class="cls-1" d="M82.41,71.63c-1.84,0-3.33-1.49-3.33-3.33V4.35c0-1.46.96-2.67,2.27-3.12h-2.05c-1.84,0-3.33,1.49-3.33,3.33v66.34c0,1.84,1.49,3.33,3.33,3.33h23.82v-2.61h-20.72Z"/>
    </g>
    <path class="cls-1" d="M129.79,34.4c-1.69-1.72-3.38-3.44-5.07-5.16v-10.61l-.02-.02h-5.49v55.63h16.09v-41.3c-1.84-2.47-3.67-4.95-5.51-7.42v8.88Z"/>
    <path class="cls-1" d="M152.04,1.02h-69.58c-1.84,0-3.33,1.49-3.33,3.33v63.95c0,1.84,1.49,3.33,3.33,3.33h15.06V19.28l4.12-1.69v6.11l4.69-1.92v-6.11l4.12-1.69v6.11l3.3-1.35c.11-.05.22-.09.33-.14l1.06-.43v-6.11l4.12-1.69v61.25h32.77c1.84,0,3.33-1.49,3.33-3.33V4.35c0-1.84-1.49-3.33-3.33-3.33Z"/>
  </g>
</svg>