<?xml version="1.0" encoding="UTF-8"?>
<svg id="Layer_2" data-name="Layer 2" xmlns="http://www.w3.org/2000/svg" version="1.1" viewBox="0 0 469.7 75">
  <defs>
    <style>
      .cls-1 {
        fill: #28ddc3;
      }

      .cls-1, .cls-2, .cls-3 {
        stroke-width: 0px;
      }

      .cls-2 {
        fill: #22aa93;
      }

      .cls-3 {
        fill: #fff;
      }
    </style>
  </defs>
  <g id="Layer_1-2" data-name="Layer 1-2">
    <path class="cls-3" d="M68.1,1.2v18.1H30.2v10.1h27.2v17.2h-27.2v27.5H0V1.2h68.1Z"/>
    <path class="cls-3" d="M220.6,74.2l-18.1-26.2h-.1v26.2h-30.2V1.2h44.9c7.8,0,14.5,1,20,3.1,5.5,2.1,9.7,4.9,12.5,8.6s4.1,7.7,4.1,12.2-1.8,9.2-5.4,13c-3.6,3.8-8.7,6.5-15.5,8.2l21,27.9h-33.2,0ZM202.3,32.8h12c2.9,0,5.1-.5,6.5-1.5,1.4-1,2.2-2.6,2.2-4.7s-.8-3.4-2.2-4.5c-1.5-1.1-3.6-1.6-6.5-1.6h-12v12.4h0Z"/>
    <path class="cls-3" d="M339,1.2v18.1h-25.6v54.8h-30.2V19.4h-25.3V1.2h81.2Z"/>
    <path class="cls-3" d="M379.6,1.2v73h-30.2V1.2h30.2Z"/>
    <path class="cls-3" d="M404.4,68.8c-7.5-4.1-11.6-10.1-12.2-18h32.1c.5,4.2,2.9,6.3,7.4,6.3s3-.3,4.2-.9c1.1-.6,1.7-1.5,1.7-2.7s-1.2-3.1-3.7-4.2c-2.5-1.1-6.3-2.3-11.4-3.7-6.2-1.7-11.3-3.3-15.3-4.8-4-1.6-7.5-3.9-10.4-6.9-2.9-3-4.3-6.9-4.2-11.6,0-4.7,1.6-8.8,4.8-12.1,3.2-3.3,7.6-5.9,13.2-7.6,5.6-1.7,11.9-2.6,18.9-2.6,11.8,0,21.2,2.1,28.1,6.2,7,4.1,10.6,9.9,11,17.4h-32.5c0-2.1-.8-3.5-2-4.4-1.3-.9-2.8-1.3-4.6-1.3s-2.3.3-3.1,1c-.8.6-1.2,1.6-1.2,2.7s1.2,3,3.6,4.1c2.4,1.1,6.2,2.4,11.5,3.9,6.1,1.7,11.1,3.4,15,5,4,1.6,7.4,3.8,10.3,6.6s4.4,6.4,4.4,10.6-1.5,8.5-4.4,12c-2.9,3.5-7.1,6.3-12.7,8.3-5.5,2-12.1,3-19.8,3-11.5,0-21-2-28.5-6.1h0Z"/>
    <g>
      <path class="cls-2" d="M155.1,1.2h-2.1c1.3.5,2.3,1.6,2.3,3.1v63.9c0,1.8-1.5,3.3-3.3,3.3h-32.8v2.6h35.9c1.8,0,3.3-1.5,3.3-3.3V4.6c0-1.8-1.5-3.3-3.3-3.3h0Z"/>
      <path class="cls-2" d="M82.4,71.6c-1.8,0-3.3-1.5-3.3-3.3V4.3c0-1.5,1-2.7,2.3-3.1h-2.1c-1.8,0-3.3,1.5-3.3,3.3v66.3c0,1.8,1.5,3.3,3.3,3.3h23.8v-2.6h-20.7,0Z"/>
    </g>
    <path class="cls-2" d="M129.8,34.4c-1.7-1.7-3.4-3.4-5.1-5.2v-10.6h0s-5.5,0-5.5,0v55.6h16.1v-41.3c-1.8-2.5-3.7-5-5.5-7.4v8.9h0Z"/>
    <path class="cls-1" d="M152,1h-69.6c-1.8,0-3.3,1.5-3.3,3.3v64c0,1.8,1.5,3.3,3.3,3.3h15.1V19.3l4.1-1.7v6.1l4.7-1.9v-6.1l4.1-1.7v6.1l3.3-1.4c.1,0,.2,0,.3-.1l1.1-.4v-6.1l4.1-1.7v61.2h32.8c1.8,0,3.3-1.5,3.3-3.3V4.3c0-1.8-1.5-3.3-3.3-3.3h0Z"/>
    <polygon class="cls-2" points="140.9 73 140.9 25.4 140.9 19.3 136.8 17.6 136.8 23.7 132.1 21.8 132.1 15.7 128 14 128 20.1 123.3 18.2 123.3 12.1 119.2 10.4 119.2 16.5 119.2 73 140.9 73"/>
  </g>
</svg>